<svg width="500" height="500" viewBox="0 0 500 500" fill="none" xmlns="http://www.w3.org/2000/svg">
<!-- Succube stomp frame 3: Impact landing, tail extended, wider stance -->
<path d="M250 50 C228 50 210 63 205 83 L200 103 C198 120 205 137 218 147 L222 151 C230 157 240 161 250 161 C260 161 270 157 278 151 L282 147 C295 137 302 120 300 103 L295 83 C290 63 272 50 250 50 Z" fill="#bdff00"/>
<path d="M232 97 C228 97 224 101 224 106 C224 111 228 115 232 115 C237 115 241 111 241 106 C241 101 237 97 232 97 Z" fill="#0b0e07"/>
<path d="M268 97 C264 97 260 101 260 106 C260 111 264 115 268 115 C273 115 277 111 277 106 C277 101 273 97 268 97 Z" fill="#0b0e07"/>
<path d="M242 130 Q250 135 258 130" stroke="#0b0e07" stroke-width="2.5" fill="none"/>
<!-- Hair flowing with impact -->
<path d="M205 83 L188 70 L172 65 L160 70 L168 77 L182 75 L198 85 Z" fill="#bdff00"/>
<path d="M295 83 L312 70 L328 65 L340 70 L332 77 L318 75 L302 85 Z" fill="#bdff00"/>
<path d="M160 70 L148 85 L140 110 L142 135 L148 125 L145 105 L152 87 Z" fill="#bdff00"/>
<path d="M340 70 L352 85 L360 110 L358 135 L352 125 L355 105 L348 87 Z" fill="#bdff00"/>
<!-- Body — wider stance, impact pose -->
<path d="M250 161 L222 170 L185 190 L163 220 L153 260 L157 295 L170 325 L190 350 L205 365 L215 375 L220 405 L215 435 L205 465 L200 485 L210 495 L225 500 L238 498 L250 495 L262 498 L275 500 L290 495 L300 485 L295 465 L285 435 L280 405 L285 375 L295 365 L310 350 L330 325 L343 295 L347 260 L337 220 L315 190 L278 170 Z" fill="#bdff00"/>
<!-- Torso detail -->
<path d="M215 215 L210 245 L215 275 L225 300 L240 315 L250 320 L260 315 L275 300 L285 275 L290 245 L285 215 L275 200 L260 190 L250 187 L240 190 L225 200 Z" fill="#0b0e07" opacity="0.3"/>
<path d="M235 215 L235 270 L242 280 L250 285 L258 280 L265 270 L265 215 L260 210 L250 205 L240 210 Z" stroke="#bdff00" stroke-width="2" fill="none"/>
<path d="M250 215 L250 285" stroke="#bdff00" stroke-width="1.5"/>
<path d="M238 235 L262 235" stroke="#bdff00" stroke-width="1.5"/>
<path d="M236 255 L264 255" stroke="#bdff00" stroke-width="1.5"/>
<!-- Wings — extended wide for impact -->
<path d="M163 220 L140 195 L110 165 L75 140 L45 128 L25 135 L40 140 L65 148 L95 168 L88 188 L110 175 L108 205 L130 192 L132 220 L150 208 L157 235 L165 223 Z" fill="#bdff00"/>
<path d="M337 220 L360 195 L390 165 L425 140 L455 128 L475 135 L460 140 L435 148 L405 168 L412 188 L390 175 L392 205 L370 192 L368 220 L350 208 L343 235 L335 223 Z" fill="#bdff00"/>
<!-- Tail — fully extended forward -->
<path d="M250 495 L260 488 L272 478 L285 465 L298 450 L312 435 L325 420 L338 408 L348 400 L340 395 L325 405 L310 418 L295 432 L280 448 L265 465 L255 478 L248 488 Z" fill="#bdff00"/>
<path d="M348 400 L362 388 L378 378 L392 372 L405 370 L397 365 L380 370 L365 380 Z" fill="#bdff00"/>
<path d="M405 370 L418 365 L430 363 L422 358 L410 362 Z" fill="#bdff00"/>
<!-- Legs — wide stance -->
<path d="M210 495 L205 485 L200 470 L202 455 L208 440 L215 450 L212 465 L210 480 Z" fill="#0b0e07" opacity="0.3"/>
<path d="M290 495 L295 485 L300 470 L298 455 L292 440 L285 450 L288 465 L290 480 Z" fill="#0b0e07" opacity="0.3"/>
</svg>
