<svg width="500" height="500" viewBox="0 0 500 500" fill="none" xmlns="http://www.w3.org/2000/svg">
<!-- Succube stomp frame 1: Crouch, tail coiled back -->
<path d="M250 45 C228 45 210 58 205 78 L200 98 C198 115 205 132 218 142 L222 146 C230 152 240 156 250 156 C260 156 270 152 278 146 L282 142 C295 132 302 115 300 98 L295 78 C290 58 272 45 250 45 Z" fill="#bdff00"/>
<path d="M232 92 C228 92 224 96 224 101 C224 106 228 110 232 110 C237 110 241 106 241 101 C241 96 237 92 232 92 Z" fill="#0b0e07"/>
<path d="M268 92 C264 92 260 96 260 101 C260 106 264 110 268 110 C273 110 277 106 277 101 C277 96 273 92 268 92 Z" fill="#0b0e07"/>
<path d="M242 125 Q250 133 258 125" stroke="#0b0e07" stroke-width="2.5" fill="none"/>
<!-- Hair flowing -->
<path d="M205 78 L188 65 L172 60 L160 65 L168 72 L182 70 L198 80 Z" fill="#bdff00"/>
<path d="M295 78 L312 65 L328 60 L340 65 L332 72 L318 70 L302 80 Z" fill="#bdff00"/>
<path d="M160 65 L148 80 L140 105 L142 130 L148 120 L145 100 L152 82 Z" fill="#bdff00"/>
<path d="M340 65 L352 80 L360 105 L358 130 L352 120 L355 100 L348 82 Z" fill="#bdff00"/>
<!-- Body — crouched lower -->
<path d="M250 156 L222 165 L190 185 L168 220 L158 270 L162 310 L175 345 L195 375 L210 395 L220 410 L225 440 L220 465 L215 485 L225 495 L240 500 L250 500 L260 500 L275 495 L285 485 L280 465 L275 440 L280 410 L290 395 L305 375 L325 345 L338 310 L342 270 L332 220 L310 185 L278 165 Z" fill="#bdff00"/>
<!-- Torso detail -->
<path d="M215 230 L210 260 L215 290 L225 315 L240 330 L250 335 L260 330 L275 315 L285 290 L290 260 L285 230 L275 215 L260 205 L250 202 L240 205 L225 215 Z" fill="#0b0e07" opacity="0.3"/>
<path d="M235 230 L235 285 L242 295 L250 300 L258 295 L265 285 L265 230 L260 225 L250 220 L240 225 Z" stroke="#bdff00" stroke-width="2" fill="none"/>
<path d="M250 230 L250 300" stroke="#bdff00" stroke-width="1.5"/>
<path d="M238 250 L262 250" stroke="#bdff00" stroke-width="1.5"/>
<path d="M236 270 L264 270" stroke="#bdff00" stroke-width="1.5"/>
<!-- Wings — folded -->
<path d="M168 220 L148 200 L125 180 L100 170 L80 173 L65 185 L78 183 L95 177 L118 187 L110 205 L125 197 L120 220 L140 210 L138 233 L155 223 L158 245 L165 235 Z" fill="#bdff00"/>
<path d="M332 220 L352 200 L375 180 L400 170 L420 173 L435 185 L422 183 L405 177 L382 187 L390 205 L375 197 L380 220 L360 210 L362 233 L345 223 L342 245 L335 235 Z" fill="#bdff00"/>
<!-- Tail — coiled back -->
<path d="M250 500 L240 496 L228 492 L218 488 L208 475 L215 470 L230 480 L245 490 L250 495 L252 500 Z" fill="#bdff00"/>
<path d="M208 475 L195 465 L180 455 L170 448 L165 440 L172 438 L185 445 L198 458 Z" fill="#bdff00"/>
<path d="M165 440 L158 430 L148 425 L155 418 L162 425 Z" fill="#bdff00"/>
<!-- Legs -->
<path d="M225 495 L218 485 L215 475 L220 460 L224 445 L228 455 L226 470 L228 483 Z" fill="#0b0e07" opacity="0.3"/>
<path d="M275 495 L282 485 L285 475 L280 460 L276 445 L272 455 L274 470 L272 483 Z" fill="#0b0e07" opacity="0.3"/>
</svg>
