<svg width="500" height="500" viewBox="0 0 500 500" fill="none" xmlns="http://www.w3.org/2000/svg">
<!-- Succube stomp frame 2: Right leg raised, tail whips forward -->
<path d="M250 45 C228 45 210 58 205 78 L200 98 C198 115 205 132 218 142 L222 146 C230 152 240 156 250 156 C260 156 270 152 278 146 L282 142 C295 132 302 115 300 98 L295 78 C290 58 272 45 250 45 Z" fill="#bdff00"/>
<path d="M232 92 C228 92 224 96 224 101 C224 106 228 110 232 110 C237 110 241 106 241 101 C241 96 237 92 232 92 Z" fill="#0b0e07"/>
<path d="M268 92 C264 92 260 96 260 101 C260 106 264 110 268 110 C273 110 277 106 277 101 C277 96 273 92 268 92 Z" fill="#0b0e07"/>
<path d="M242 125 Q250 130 258 125" stroke="#0b0e07" stroke-width="2.5" fill="none"/>
<!-- Hair flowing -->
<path d="M205 78 L188 65 L172 60 L160 65 L168 72 L182 70 L198 80 Z" fill="#bdff00"/>
<path d="M295 78 L312 65 L328 60 L340 65 L332 72 L318 70 L302 80 Z" fill="#bdff00"/>
<path d="M160 65 L148 80 L140 105 L142 130 L148 120 L145 100 L152 82 Z" fill="#bdff00"/>
<path d="M340 65 L352 80 L360 105 L358 130 L352 120 L355 100 L348 82 Z" fill="#bdff00"/>
<!-- Body — leg raised -->
<path d="M250 156 L222 165 L190 185 L168 215 L158 255 L162 290 L175 320 L195 345 L210 360 L220 370 L225 400 L220 430 L215 460 L220 475 L230 485 L240 490 L250 492 L260 490 L265 485 L270 475 L268 460 L265 445 L265 430 L270 415 L280 400 L290 385 L305 365 L325 335 L338 300 L342 260 L332 220 L310 190 L278 170 Z" fill="#bdff00"/>
<!-- Torso detail -->
<path d="M215 210 L210 240 L215 270 L225 295 L240 310 L250 315 L260 310 L275 295 L285 270 L290 240 L285 210 L275 195 L260 185 L250 182 L240 185 L225 195 Z" fill="#0b0e07" opacity="0.3"/>
<path d="M235 210 L235 265 L242 275 L250 280 L258 275 L265 265 L265 210 L260 205 L250 200 L240 205 Z" stroke="#bdff00" stroke-width="2" fill="none"/>
<path d="M250 210 L250 280" stroke="#bdff00" stroke-width="1.5"/>
<path d="M238 230 L262 230" stroke="#bdff00" stroke-width="1.5"/>
<path d="M236 250 L264 250" stroke="#bdff00" stroke-width="1.5"/>
<!-- Wings — spreading for balance -->
<path d="M168 215 L145 190 L118 165 L88 145 L65 140 L50 148 L65 150 L85 152 L108 167 L100 185 L118 175 L115 200 L135 190 L135 215 L152 205 L158 230 L165 220 Z" fill="#bdff00"/>
<path d="M332 215 L355 190 L382 165 L412 145 L435 140 L450 148 L435 150 L415 152 L392 167 L400 185 L382 175 L385 200 L365 190 L365 215 L348 205 L342 230 L335 220 Z" fill="#bdff00"/>
<!-- Tail — whipping forward dramatically -->
<path d="M250 492 L258 485 L268 475 L278 465 L288 455 L298 445 L305 440 L298 435 L285 440 L272 450 L260 460 L252 470 L248 480 Z" fill="#bdff00"/>
<path d="M305 440 L318 432 L332 425 L345 420 L355 418 L348 412 L335 415 L320 422 Z" fill="#bdff00"/>
<path d="M355 418 L365 412 L375 410 L368 405 L358 408 Z" fill="#bdff00"/>
<!-- Left leg grounded -->
<path d="M220 475 L215 465 L212 455 L215 440 L220 425 L225 435 L223 450 L225 463 Z" fill="#0b0e07" opacity="0.3"/>
<!-- Right leg raised -->
<path d="M270 415 L278 405 L282 395 L280 380 L275 365 L270 375 L272 390 L270 403 Z" fill="#0b0e07" opacity="0.3"/>
</svg>
