<svg width="500" height="500" viewBox="0 0 500 500" fill="none" xmlns="http://www.w3.org/2000/svg">
<!-- Demon hipshake frame 2: Hips shift left, upper body compensates right -->
<path d="M165 60 L135 10 L175 80 Z" fill="#bdff00"/>
<path d="M345 60 L375 10 L335 80 Z" fill="#bdff00"/>
<path d="M255 70 C205 70 170 100 165 140 L160 170 C155 200 165 230 185 250 L180 260 C150 280 140 310 145 340 L155 380 C160 400 175 420 195 430 L205 435 C220 442 250 442 265 435 L275 430 C295 420 310 400 315 380 L325 340 C330 310 325 280 310 260 L305 250 C325 230 335 200 330 170 L325 140 C320 100 285 70 255 70 Z" fill="#bdff00"/>
<path d="M215 155 C205 155 197 165 197 177 C197 189 205 199 215 199 C225 199 233 189 233 177 C233 165 225 155 215 155 Z M215 167 C220 167 223 172 223 177 C223 183 220 187 215 187 C210 187 207 183 207 177 C207 172 210 167 215 167 Z" fill="#0b0e07"/>
<path d="M295 155 C285 155 277 165 277 177 C277 189 285 199 295 199 C305 199 313 189 313 177 C313 165 305 155 295 155 Z M295 167 C300 167 303 172 303 177 C303 183 300 187 295 187 C290 187 287 183 287 177 C287 172 290 167 295 167 Z" fill="#0b0e07"/>
<path d="M235 220 L240 230 L245 225 L250 232 L255 222 L260 232 L265 225 L270 230 L275 220" stroke="#0b0e07" stroke-width="3" fill="none"/>
<path d="M205 280 L195 310 L205 300 L215 315 L225 298 L235 320 L245 298 L255 315 L265 300 L275 310 L265 280 Z" fill="#0b0e07"/>
<path d="M180 260 L150 280 L135 330 L145 340 L165 310 L175 280 Z" fill="#bdff00"/>
<path d="M305 260 L335 280 L350 330 L340 340 L320 310 L310 280 Z" fill="#bdff00"/>
<path d="M195 430 L185 460 L175 490 L195 480 L205 490 L210 470 Z" fill="#bdff00"/>
<path d="M275 430 L285 460 L295 490 L275 480 L265 490 L260 470 Z" fill="#bdff00"/>
<path d="M165 140 L150 130 L135 145 L145 160 L160 170 Z" fill="#bdff00"/>
<path d="M325 140 L340 130 L355 145 L345 160 L330 170 Z" fill="#bdff00"/>
</svg>
