<svg width="500" height="500" viewBox="0 0 500 500" fill="none" xmlns="http://www.w3.org/2000/svg">
<!-- Demon hipshake frame 4: Hips shift right, upper body compensates left -->
<path d="M155 60 L125 10 L165 80 Z" fill="#bdff00"/>
<path d="M335 60 L365 10 L325 80 Z" fill="#bdff00"/>
<path d="M245 70 C195 70 160 100 155 140 L150 170 C145 200 155 230 175 250 L170 260 C175 280 180 310 185 340 L195 380 C200 400 215 420 235 430 L245 435 C260 442 290 442 305 435 L315 430 C335 420 350 400 355 380 L365 340 C370 310 365 280 350 260 L345 250 C365 230 375 200 370 170 L365 140 C360 100 325 70 245 70 Z" fill="#bdff00"/>
<path d="M205 155 C195 155 187 165 187 177 C187 189 195 199 205 199 C215 199 223 189 223 177 C223 165 215 155 205 155 Z M205 167 C210 167 213 172 213 177 C213 183 210 187 205 187 C200 187 197 183 197 177 C197 172 200 167 205 167 Z" fill="#0b0e07"/>
<path d="M285 155 C275 155 267 165 267 177 C267 189 275 199 285 199 C295 199 303 189 303 177 C303 165 295 155 285 155 Z M285 167 C290 167 293 172 293 177 C293 183 290 187 285 187 C280 187 277 183 277 177 C277 172 280 167 285 167 Z" fill="#0b0e07"/>
<path d="M225 220 L230 230 L235 225 L240 232 L245 222 L250 232 L255 225 L260 230 L265 220" stroke="#0b0e07" stroke-width="3" fill="none"/>
<path d="M235 280 L225 310 L235 300 L245 315 L255 298 L265 320 L275 298 L285 315 L295 300 L305 310 L295 280 Z" fill="#0b0e07"/>
<path d="M170 260 L145 280 L135 330 L145 340 L165 310 L175 280 Z" fill="#bdff00"/>
<path d="M345 260 L370 280 L380 330 L370 340 L350 310 L340 280 Z" fill="#bdff00"/>
<path d="M235 430 L225 460 L215 490 L235 480 L245 490 L250 470 Z" fill="#bdff00"/>
<path d="M305 430 L315 460 L325 490 L305 480 L295 490 L290 470 Z" fill="#bdff00"/>
<path d="M155 140 L140 130 L125 145 L135 160 L150 170 Z" fill="#bdff00"/>
<path d="M365 140 L380 130 L395 145 L385 160 L370 170 Z" fill="#bdff00"/>
</svg>
