<svg width="500" height="500" viewBox="0 0 500 500" fill="none" xmlns="http://www.w3.org/2000/svg">
<!-- Demon: horned figure with sharp features -->
<path d="M160 60 L130 10 L170 80 Z" fill="#bdff00"/>
<path d="M340 60 L370 10 L330 80 Z" fill="#bdff00"/>
<path d="M250 70 C200 70 165 100 160 140 L155 170 C150 200 160 230 180 250 L175 260 C160 280 155 310 160 340 L170 380 C175 400 190 420 210 430 L220 435 C235 442 265 442 280 435 L290 430 C310 420 325 400 330 380 L340 340 C345 310 340 280 325 260 L320 250 C340 230 350 200 345 170 L340 140 C335 100 300 70 250 70 Z" fill="#bdff00"/>
<path d="M210 155 C200 155 192 165 192 177 C192 189 200 199 210 199 C220 199 228 189 228 177 C228 165 220 155 210 155 Z M210 167 C215 167 218 172 218 177 C218 183 215 187 210 187 C205 187 202 183 202 177 C202 172 205 167 210 167 Z" fill="#0b0e07"/>
<path d="M290 155 C280 155 272 165 272 177 C272 189 280 199 290 199 C300 199 308 189 308 177 C308 165 300 155 290 155 Z M290 167 C295 167 298 172 298 177 C298 183 295 187 290 187 C285 187 282 183 282 177 C282 172 285 167 290 167 Z" fill="#0b0e07"/>
<path d="M230 220 L235 230 L240 225 L245 232 L250 222 L255 232 L260 225 L265 230 L270 220" stroke="#0b0e07" stroke-width="3" fill="none"/>
<path d="M220 280 L210 310 L220 300 L230 315 L240 298 L250 320 L260 298 L270 315 L280 300 L290 310 L280 280 Z" fill="#0b0e07"/>
<!-- Arms raised ~35px -->
<path d="M175 225 L135 245 L110 295 L120 305 L145 275 L170 245 Z" fill="#bdff00"/>
<path d="M325 225 L365 245 L390 295 L380 305 L355 275 L330 245 Z" fill="#bdff00"/>
<path d="M210 430 L200 460 L190 490 L210 480 L220 490 L225 470 Z" fill="#bdff00"/>
<path d="M290 430 L300 460 L310 490 L290 480 L280 490 L275 470 Z" fill="#bdff00"/>
<path d="M160 140 L145 130 L130 145 L140 160 L155 170 Z" fill="#bdff00"/>
<path d="M340 140 L355 130 L370 145 L360 160 L345 170 Z" fill="#bdff00"/>
</svg>
