<svg xmlns="http://www.w3.org/2000/svg" viewBox="0 0 64 64">
  <rect width="64" height="64" rx="8" fill="#060804"/>
  <!-- Top triangle -->
  <path d="M 12,8 L 52,8 L 35,30 L 29,30 Z" fill="none" stroke="#bdff00" stroke-width="2" stroke-linejoin="round"/>
  <!-- Bottom triangle -->
  <path d="M 29,34 L 35,34 L 52,56 L 12,56 Z" fill="none" stroke="#bdff00" stroke-width="2" stroke-linejoin="round"/>
  <!-- Cap extensions -->
  <line x1="8" y1="8" x2="12" y2="8" stroke="#bdff00" stroke-opacity="0.5" stroke-width="1.2" stroke-linecap="round"/>
  <line x1="52" y1="8" x2="56" y2="8" stroke="#bdff00" stroke-opacity="0.5" stroke-width="1.2" stroke-linecap="round"/>
  <line x1="8" y1="56" x2="12" y2="56" stroke="#bdff00" stroke-opacity="0.5" stroke-width="1.2" stroke-linecap="round"/>
  <line x1="52" y1="56" x2="56" y2="56" stroke="#bdff00" stroke-opacity="0.5" stroke-width="1.2" stroke-linecap="round"/>
  <!-- Corner dots -->
  <circle cx="12" cy="8" r="1.5" fill="#bdff00" fill-opacity="0.6"/>
  <circle cx="52" cy="8" r="1.5" fill="#bdff00" fill-opacity="0.6"/>
  <circle cx="12" cy="56" r="1.5" fill="#bdff00" fill-opacity="0.6"/>
  <circle cx="52" cy="56" r="1.5" fill="#bdff00" fill-opacity="0.6"/>
  <!-- Neck dot -->
  <circle cx="32" cy="32" r="2" fill="#bdff00" fill-opacity="0.5"/>
  <!-- Sand particles hint in bottom -->
  <circle cx="28" cy="48" r="1" fill="#bdff00" fill-opacity="0.35"/>
  <circle cx="32" cy="50" r="1" fill="#bdff00" fill-opacity="0.4"/>
  <circle cx="36" cy="48" r="1" fill="#bdff00" fill-opacity="0.35"/>
  <circle cx="30" cy="52" r="1" fill="#bdff00" fill-opacity="0.3"/>
  <circle cx="34" cy="52" r="1" fill="#bdff00" fill-opacity="0.3"/>
  <circle cx="32" cy="46" r="0.8" fill="#bdff00" fill-opacity="0.25"/>
</svg>
