<?xml version="1.0" standalone="no"?>
<!DOCTYPE svg PUBLIC "-//W3C//DTD SVG 20010904//EN"
 "http://www.w3.org/TR/2001/REC-SVG-20010904/DTD/svg10.dtd">
<svg version="1.0" xmlns="http://www.w3.org/2000/svg"
 width="1024.000000pt" height="1024.000000pt" viewBox="0 0 1024.000000 1024.000000"
 preserveAspectRatio="xMidYMid meet">

<g transform="translate(0.000000,1024.000000) scale(0.100000,-0.100000)"
fill="#BDFF00" stroke="none">
<path d="M1561 8098 c-57 -10 -105 -42 -141 -97 -36 -54 -45 -112 -33 -210 11
-85 2 -438 -10 -405 -17 48 -107 64 -139 25 -49 -61 11 -189 115 -242 l37 -19
0 -1079 0 -1078 31 -7 c17 -3 137 -6 265 -6 l234 0 1 -102 c0 -57 4 -201 8
-320 8 -236 16 -268 66 -268 38 0 58 27 51 69 -21 118 -35 269 -41 434 l-7
187 233 0 c129 1 259 3 288 6 51 4 91 25 91 46 0 4 -139 8 -310 8 l-310 0 0
350 0 350 93 -6 c152 -11 276 33 370 129 73 75 92 122 92 232 0 82 -3 97 -32
156 -80 163 -281 266 -475 245 l-58 -7 0 350 0 349 68 37 c83 47 122 82 122
112 0 30 -9 29 -42 -5 -25 -26 -136 -88 -142 -81 -8 8 -15 116 -9 137 3 15 13
22 28 22 35 0 154 39 209 68 100 54 137 172 81 255 -19 28 -22 37 -11 37 27 0
149 -31 176 -45 47 -24 52 -37 29 -79 -19 -36 -19 -39 -3 -57 22 -24 45 -24
76 1 36 27 55 77 40 101 -7 10 -12 21 -12 23 0 9 94 34 174 46 49 8 76 17 76
26 0 7 -10 14 -22 16 -38 5 -153 -11 -219 -32 -61 -19 -62 -19 -100 1 -38 19
-140 43 -231 54 -44 6 -48 9 -57 43 -6 20 -8 38 -5 41 6 6 1117 7 3559 2
l1260 -2 -155 -53 c-85 -29 -190 -67 -233 -85 -81 -33 -355 -165 -467 -225
-80 -43 -189 -81 -293 -101 -99 -19 -127 -19 -127 -1 0 24 116 190 161 230 87
79 199 108 253 65 32 -25 32 -29 1 -63 -40 -43 -37 -60 11 -64 36 -3 45 1 68
28 43 51 30 121 -27 152 -12 6 -42 15 -67 19 -152 24 -348 -97 -467 -288 -25
-40 -48 -73 -51 -73 -3 0 -19 12 -34 27 -27 26 -29 26 -46 9 -16 -16 -16 -18
7 -37 13 -10 32 -19 43 -19 22 0 19 -18 -14 -83 -15 -30 -23 -37 -36 -31 -34
17 -116 9 -166 -15 -27 -13 -98 -71 -158 -128 -61 -57 -118 -108 -128 -113
-38 -20 -32 13 19 114 44 88 50 106 42 129 -28 74 -114 59 -236 -42 -33 -27
-61 -48 -63 -47 -1 2 10 29 24 61 31 67 24 77 -40 63 -48 -10 -48 -11 -106
-119 -34 -63 -58 -93 -105 -130 -33 -27 -63 -49 -67 -49 -25 0 21 116 88 222
13 21 24 44 24 52 0 22 -34 28 -80 15 -31 -9 -43 -10 -52 -1 -17 17 -61 15
-130 -4 -45 -13 -72 -30 -123 -76 -36 -33 -77 -80 -91 -104 -46 -79 -139 -145
-174 -124 -29 18 -8 111 50 226 36 72 51 89 135 158 187 154 303 327 261 391
-22 34 -63 37 -118 9 -82 -42 -180 -164 -273 -339 -113 -213 -145 -252 -290
-357 -76 -54 -183 -103 -267 -122 -35 -8 -37 -36 -4 -36 69 0 233 78 349 166
l48 37 -7 -65 c-6 -59 -5 -66 21 -96 21 -25 34 -32 63 -32 47 0 111 30 153 69
17 17 34 31 36 31 2 0 8 -11 13 -25 25 -66 140 -53 215 24 17 17 33 31 36 31
4 0 9 -14 13 -32 9 -44 24 -58 63 -58 41 0 63 11 122 58 l43 35 -7 -41 c-5
-34 -4 -42 14 -51 45 -25 80 -4 116 69 44 87 202 237 225 214 6 -6 -6 -41 -27
-84 -47 -99 -54 -152 -23 -185 39 -41 65 -34 167 47 l63 50 -6 -31 c-9 -44 31
-81 88 -81 48 0 126 39 167 84 30 32 41 33 41 5 0 -35 41 -97 83 -126 37 -26
50 -28 146 -31 132 -4 201 12 326 76 68 35 110 66 173 128 71 70 82 85 82 115
l-1 34 -31 -40 c-138 -175 -350 -286 -517 -270 -141 13 -177 76 -130 225 11
36 33 94 50 130 l30 65 44 -3 c118 -10 295 45 530 164 255 129 491 229 640
271 253 71 260 73 440 70 152 -2 174 -4 210 -23 50 -27 73 -52 85 -92 7 -28 5
-34 -24 -59 -18 -15 -47 -36 -65 -45 -37 -20 -40 -44 -7 -59 17 -8 51 -7 132
6 60 9 154 23 209 31 151 23 236 15 325 -32 111 -58 154 -120 162 -234 4 -51
30 -45 48 10 20 61 25 67 60 75 41 9 86 49 111 96 21 43 23 43 65 29 16 -5 48
-14 72 -20 l42 -11 0 -1264 0 -1265 -159 0 c-88 0 -171 -4 -186 -10 -24 -9
-25 -8 -15 10 6 11 15 20 20 20 13 0 37 49 45 93 16 82 -46 143 -136 135 -71
-7 -111 -52 -77 -86 15 -15 55 -16 60 0 7 19 58 0 67 -25 29 -77 -146 -182
-345 -207 -96 -12 -119 -8 -52 10 62 17 108 38 108 50 0 6 -10 8 -22 6 -13 -3
-81 -8 -153 -11 -71 -4 -156 -8 -188 -10 -85 -6 -264 19 -320 44 l-47 22 28
42 c16 23 55 93 88 156 80 155 131 210 248 266 81 39 196 75 238 75 18 0 48
-86 48 -139 0 -103 -90 -225 -201 -274 -30 -13 -73 -32 -96 -42 -41 -18 -54
-37 -34 -49 5 -3 39 6 76 19 233 88 329 209 305 388 -5 40 -13 82 -16 94 -7
26 -13 23 111 52 250 59 424 215 425 381 0 111 -74 193 -187 206 -112 14 -147
-76 -36 -93 21 -3 57 -14 80 -24 35 -15 44 -24 53 -59 21 -79 -14 -166 -96
-239 -75 -66 -174 -108 -335 -143 l-46 -10 -52 52 c-142 142 -379 170 -617 72
-140 -58 -250 -142 -186 -142 11 0 22 4 24 9 5 13 144 81 223 108 104 36 250
43 342 15 99 -31 223 -124 180 -136 -6 -3 -34 -9 -62 -16 -27 -6 -91 -31 -142
-55 -72 -34 -90 -39 -80 -24 10 16 9 22 -3 30 -39 25 -88 -6 -180 -116 -37
-44 -150 -139 -187 -159 -74 -37 -70 -14 18 131 38 63 68 122 65 129 -8 20
-81 18 -101 -2 -26 -27 -90 -126 -114 -178 -31 -67 -33 -100 -10 -130 16 -21
26 -24 61 -20 44 4 160 67 191 104 10 12 21 20 23 17 7 -7 -92 -204 -122 -244
-22 -28 -28 -31 -50 -23 -53 21 -213 40 -324 40 -285 -1 -550 -97 -662 -240
-69 -88 -93 -145 -93 -224 0 -39 3 -83 8 -98 l7 -28 -92 0 c-143 0 -291 30
-443 90 -102 40 -262 118 -324 157 -29 19 -63 33 -75 31 -18 -3 -13 -10 34
-46 31 -24 100 -69 155 -101 226 -129 399 -180 633 -186 l143 -4 37 -32 c20
-18 61 -44 92 -58 50 -23 67 -25 180 -25 74 0 143 5 169 13 52 15 104 62 95
85 -9 23 -33 20 -100 -11 -53 -25 -70 -28 -164 -28 -110 0 -146 11 -197 58
-28 25 -30 43 -3 24 35 -25 312 29 461 89 213 87 416 230 514 363 22 29 37 41
56 41 40 0 140 -79 178 -140 32 -53 58 -62 53 -19 -2 13 -16 45 -32 72 -16 26
-28 47 -26 47 1 0 25 -7 52 -15 227 -67 477 -70 661 -8 76 25 83 26 310 24
127 -2 241 0 252 4 l21 6 0 1280 c0 1121 2 1279 15 1279 8 0 80 -20 159 -45
350 -109 600 -280 659 -452 13 -39 8 -96 -11 -115 -6 -6 -35 -19 -64 -29 -39
-13 -54 -23 -56 -39 -5 -32 23 -57 73 -64 56 -9 102 10 144 60 30 36 32 43 27
89 -9 78 -68 187 -149 272 -149 156 -360 264 -732 371 l-60 17 -3 167 -2 167
-591 0 -590 0 3 -22 c3 -22 4 -22 216 -22 130 0 203 -3 185 -8 -99 -29 -168
-54 -242 -88 -95 -44 -93 -43 -90 -26 5 27 -54 117 -77 117 -6 0 -17 6 -23 14
-7 8 -33 19 -59 25 -32 7 -911 12 -2732 17 l-2685 6 -25 22 c-83 75 -177 76
-257 3 l-23 -20 -42 41 c-74 73 -167 106 -257 90z m149 -79 c53 -28 102 -77
106 -106 3 -16 3 -16 -34 2 -43 22 -151 21 -197 -1 -43 -20 -73 -63 -81 -116
-4 -21 -11 -38 -16 -38 -15 0 -48 83 -48 123 -1 139 135 208 270 136z m360
-44 c11 -13 6 -15 -36 -16 -27 0 -59 -2 -71 -3 -13 -2 -23 1 -23 5 0 28 108
40 130 14z m-45 -59 c104 -7 131 -23 119 -70 -4 -19 -11 -25 -23 -21 -9 2 -59
1 -111 -4 -106 -10 -110 -8 -110 50 0 33 16 63 29 54 4 -2 47 -6 96 -9z m6775
-152 c0 -124 -1 -135 -17 -130 -16 5 -120 26 -129 26 -2 0 -18 29 -35 65 -35
74 -88 125 -151 145 -24 7 -47 17 -52 22 -6 4 79 8 187 8 l197 0 0 -136z
m-7012 96 c52 -24 62 -33 62 -55 0 -14 -4 -25 -9 -25 -6 0 -37 -25 -69 -55
-41 -38 -68 -55 -86 -55 -51 0 -116 48 -118 86 -3 48 13 90 45 112 44 31 98
29 175 -8z m6585 -16 c57 -20 129 -68 155 -103 52 -71 48 -178 -8 -201 -39
-16 -63 -6 -95 38 -57 77 -122 120 -214 142 -68 16 -256 8 -361 -15 -147 -33
-205 -45 -210 -44 -10 1 166 81 270 123 92 38 200 68 280 78 45 6 141 -3 183
-18z m-6295 -70 c39 -11 24 -32 -51 -68 -40 -20 -76 -36 -80 -36 -6 0 -29 72
-24 76 5 5 103 33 117 33 8 0 25 -2 38 -5z m152 -51 c60 -54 49 -143 -22 -183
-38 -21 -38 -21 -71 -2 -17 11 -49 25 -70 32 -22 7 -51 18 -65 26 -14 7 -29
11 -34 8 -4 -3 -8 -1 -8 3 0 5 25 17 55 28 34 11 74 36 107 66 29 27 59 48 65
49 7 0 26 -12 43 -27z m2185 -5 c-15 -48 -117 -178 -211 -268 l-57 -55 23 40
c72 123 216 305 242 305 5 0 6 -10 3 -22z m-2906 -42 c20 -13 64 -33 99 -46
34 -12 62 -26 62 -30 0 -4 -9 -28 -20 -52 -30 -68 -52 -173 -59 -278 l-6 -95
-45 3 c-25 1 -55 4 -67 7 l-23 5 0 233 c0 127 -3 250 -7 272 -6 39 -6 39 12
22 10 -11 34 -29 54 -41z m370 -3 c1 -21 -4 -23 -49 -23 -27 0 -50 4 -50 8 0
4 19 22 42 40 38 29 43 31 50 15 3 -10 7 -28 7 -40z m-34 -91 l50 -17 5 -54
c8 -73 -8 -77 -114 -31 -59 26 -76 58 -52 95 19 29 40 30 111 7z m187 -58 c15
-8 36 -14 47 -14 11 0 22 -4 26 -9 9 -16 -31 -31 -83 -31 -52 0 -61 10 -62 63
0 20 20 17 72 -9z m-256 -101 c16 -6 51 -16 79 -22 27 -7 53 -18 57 -24 4 -7
8 -40 8 -75 0 -51 -3 -64 -17 -68 -10 -3 -26 -10 -37 -15 -28 -16 -157 -48
-190 -49 l-29 0 5 118 c4 74 12 132 22 156 l16 38 29 -24 c15 -14 41 -29 57
-35z m-461 -86 c0 -45 9 -46 46 -4 l29 32 0 -78 0 -79 -32 20 c-75 47 -120
162 -58 150 10 -2 15 -15 15 -41z m3212 -63 c8 -22 -14 -58 -84 -134 -65 -70
-135 -112 -155 -92 -20 20 37 116 103 175 78 68 123 85 136 51z m999 -9 c16
-40 -51 -140 -125 -187 -79 -49 -110 -30 -71 44 51 100 178 192 196 143z
m-3606 -443 l0 -349 -42 -12 c-90 -26 -248 -139 -248 -176 0 -20 16 -19 37 4
23 23 63 45 63 33 0 -5 -8 -17 -19 -26 -10 -9 -31 -45 -46 -78 -24 -54 -27
-70 -22 -133 10 -131 82 -232 212 -296 l65 -32 0 -358 0 -359 -235 0 -235 0 0
1045 0 1046 68 -3 67 -3 7 -70 c15 -168 20 -206 38 -320 10 -66 21 -142 25
-170 10 -91 17 -114 33 -120 21 -8 33 14 27 50 -3 17 -9 67 -13 113 l-8 84 29
21 c124 94 167 155 174 252 5 53 2 65 -23 107 -16 26 -37 50 -47 54 -10 3 -16
9 -12 12 7 8 73 29 93 31 9 1 12 -75 12 -347z m-176 288 c61 -23 106 -87 106
-150 0 -48 -44 -123 -98 -169 -44 -36 -82 -55 -68 -33 2 4 -2 32 -10 62 -8 30
-17 110 -21 178 l-6 122 36 0 c20 0 47 -4 61 -10z m438 -674 c132 -32 235
-114 286 -226 21 -47 23 -66 20 -130 -6 -94 -30 -142 -100 -204 -81 -71 -140
-90 -275 -91 -61 0 -115 4 -120 8 -4 5 -9 150 -12 324 -3 258 -1 317 10 324
21 13 127 10 191 -5z m-267 -614 c-2 -3 -30 10 -61 29 -65 40 -118 101 -139
160 -28 78 -15 188 26 235 11 11 19 24 19 29 0 5 10 19 22 32 17 18 19 26 10
32 -17 10 -2 23 68 55 l55 26 3 -297 c1 -163 0 -298 -3 -301z m5235 -742 c100
-16 120 -21 120 -31 0 -4 -44 -54 -97 -109 -191 -200 -423 -315 -730 -364 -48
-8 -98 -18 -111 -21 -53 -17 -68 128 -23 230 29 67 144 175 229 216 95 46 98
47 192 68 97 22 313 27 420 11z"/>
<path d="M1742 7328 c-33 -33 -7 -61 80 -84 47 -12 48 -12 48 11 0 37 -10 55
-41 70 -34 18 -71 19 -87 3z"/>
<path d="M7210 7853 c-52 -10 -66 -46 -30 -78 14 -13 36 -17 85 -17 47 0 68
-3 71 -13 6 -15 -8 -45 -32 -69 -23 -24 -9 -37 26 -24 90 31 95 149 8 188 -42
19 -76 22 -128 13z"/>
<path d="M3915 7831 c-3 -6 -27 -13 -53 -16 -81 -11 -110 -24 -132 -61 -25
-39 -38 -41 -97 -15 -62 29 -179 59 -273 70 -117 15 -339 14 -369 -2 -53 -26
-31 -32 132 -33 286 -2 517 -63 631 -167 34 -30 55 -43 68 -39 35 9 32 32 -11
76 -45 46 -52 77 -20 99 18 14 26 13 65 -5 54 -24 95 -17 124 19 23 29 26 53
8 71 -14 14 -64 16 -73 3z"/>
<path d="M8575 7378 c-48 -27 -45 -47 9 -80 35 -21 46 -34 51 -61 16 -84 -42
-174 -143 -223 -111 -54 -263 -32 -362 53 -96 83 -107 217 -20 253 41 17 75 2
96 -44 16 -33 16 -35 -10 -69 -23 -30 -25 -39 -16 -56 20 -38 69 -26 101 25
54 87 -47 216 -157 200 -85 -11 -126 -62 -125 -151 1 -123 89 -233 220 -275
58 -18 87 -22 158 -18 76 3 97 9 151 38 70 37 139 107 171 173 37 76 25 174
-25 218 -26 23 -75 31 -99 17z"/>
<path d="M3228 7338 c-48 -13 -122 -78 -166 -147 -65 -102 -142 -170 -142
-126 0 8 23 59 52 114 45 87 50 103 41 124 -7 14 -21 28 -32 32 -34 10 -117
-41 -213 -134 -27 -25 -48 -43 -48 -39 0 3 9 27 21 52 26 61 19 101 -21 115
-48 16 -122 -13 -175 -69 -16 -17 -38 -36 -48 -42 -17 -9 -17 -8 -3 21 19 36
21 77 4 87 -27 17 -119 6 -154 -18 -55 -38 -43 -46 34 -23 34 11 29 -11 -43
-164 -77 -165 -81 -181 -42 -195 40 -15 73 7 109 74 56 103 77 137 114 181 38
45 94 89 115 89 19 0 4 -61 -39 -151 -72 -153 -74 -169 -26 -169 41 0 80 27
108 74 48 81 186 226 216 226 4 0 -12 -39 -36 -87 -24 -48 -44 -98 -44 -111 0
-26 41 -72 65 -72 28 0 91 38 123 74 30 35 42 37 42 6 0 -28 37 -67 69 -73 36
-8 102 14 154 50 20 14 39 24 42 21 11 -10 -95 -188 -168 -281 -25 -32 -35
-38 -56 -33 -69 15 -196 36 -294 47 -186 21 -321 -12 -374 -90 -50 -74 -19
-143 87 -194 39 -19 62 -22 175 -22 94 0 148 5 195 18 72 20 191 84 252 136
l40 34 56 -17 c32 -10 107 -38 169 -62 103 -41 173 -55 173 -36 0 10 -121 67
-236 112 -43 17 -87 34 -97 38 -16 6 -10 17 41 87 33 44 94 147 136 229 85
164 94 178 149 253 42 57 41 73 -4 73 -52 0 -87 -28 -158 -123 -68 -93 -117
-139 -178 -171 -42 -21 -60 -20 -73 4 -11 20 6 75 39 130 25 43 84 100 103
100 27 0 22 -23 -12 -55 -51 -49 -28 -79 26 -32 54 47 69 106 32 131 -25 18
-46 19 -100 4z m-243 -625 l89 -18 -54 -44 c-107 -84 -208 -121 -342 -122
-140 -2 -228 40 -228 110 0 34 42 76 90 90 52 16 337 5 445 -16z"/>
<path d="M5853 6817 c-12 -7 -44 -42 -70 -77 -57 -78 -55 -77 -112 -85 -25 -4
-56 -13 -68 -21 -28 -18 -32 -50 -5 -39 27 11 82 18 82 11 0 -3 -38 -60 -85
-126 -122 -171 -255 -297 -271 -257 -6 17 28 89 81 172 19 30 35 63 35 74 0
26 -34 45 -57 33 -10 -5 -31 -7 -48 -4 -64 11 -111 5 -165 -21 -68 -32 -131
-85 -169 -141 -64 -93 -215 -161 -288 -131 -25 11 -33 20 -33 40 0 49 14 61
71 63 102 2 209 74 209 141 0 29 -47 61 -89 61 -48 -1 -137 -38 -201 -85 -70
-51 -201 -119 -282 -145 -66 -21 -88 -40 -48 -40 33 0 140 39 196 71 61 35 68
36 53 8 -17 -32 -5 -106 21 -134 33 -36 89 -46 166 -29 61 12 166 62 180 86 4
6 16 -9 28 -33 18 -38 26 -44 55 -47 41 -4 84 12 133 49 43 34 48 35 48 11 0
-36 29 -62 70 -62 42 0 124 49 173 103 28 31 30 30 28 -13 -5 -70 55 -119 127
-105 68 13 140 46 185 85 25 22 48 40 51 40 3 0 6 -13 6 -30 0 -19 11 -42 29
-62 23 -26 37 -33 67 -32 59 0 131 40 212 120 75 74 80 71 36 -18 -37 -72 -30
-88 37 -88 24 0 36 11 77 73 27 39 73 95 102 124 51 49 124 93 136 80 4 -3
-13 -44 -36 -92 -50 -100 -54 -139 -15 -173 42 -36 87 -22 188 61 l47 39 0
-35 c0 -19 8 -45 19 -58 28 -35 125 -33 199 5 28 14 52 24 52 21 0 -21 -153
-203 -224 -265 -124 -110 -254 -168 -454 -204 l-34 -6 30 38 c43 54 82 120 82
136 0 8 -14 17 -30 21 -38 8 -65 -8 -117 -72 -81 -100 -109 -127 -127 -120
-16 6 -16 9 4 34 l21 28 -21 9 c-16 7 -32 4 -65 -12 -37 -18 -43 -25 -40 -48
3 -32 20 -44 62 -44 17 0 34 -4 37 -9 8 -12 -128 -200 -202 -282 -94 -102
-192 -142 -176 -72 5 24 57 123 120 231 17 28 17 34 4 42 -21 13 -61 12 -88
-4 -35 -19 -107 -137 -132 -217 -18 -57 -21 -75 -12 -95 14 -29 48 -44 101
-44 45 0 138 56 188 113 39 45 47 46 38 8 -15 -70 34 -121 117 -121 43 0 82
19 160 80 l27 21 13 -27 c37 -75 161 -82 265 -15 59 38 96 79 127 138 17 33
97 82 159 97 23 5 27 3 27 -15 0 -12 -23 -66 -51 -121 -60 -119 -61 -142 -4
-145 50 -4 61 5 117 92 63 98 118 157 172 185 36 18 49 21 58 12 17 -17 31
-15 45 8 16 24 8 44 -22 58 -19 9 -31 6 -70 -19 -25 -16 -69 -51 -97 -77 l-51
-47 23 44 c18 37 20 47 10 67 -7 12 -21 25 -31 27 -27 7 -114 -16 -179 -47
-69 -33 -76 -32 -105 3 -51 60 -130 66 -232 16 -73 -36 -128 -87 -165 -152
-33 -58 -131 -133 -174 -133 -65 0 -28 123 85 285 62 90 80 105 125 105 72 1
280 47 349 78 145 66 279 185 426 380 47 62 99 130 114 150 16 20 57 70 93
110 35 40 64 80 64 88 0 10 -12 14 -38 14 -29 0 -48 -8 -80 -35 -39 -34 -41
-35 -51 -16 -6 11 -27 25 -47 31 -84 28 -213 -15 -328 -107 -132 -108 -220
-173 -233 -173 -23 0 -14 34 32 114 57 101 65 138 34 160 -50 35 -142 5 -237
-78 -30 -25 -56 -46 -58 -46 -2 0 7 22 21 50 32 64 32 88 0 96 -41 10 -74 -4
-99 -44 -43 -66 -139 -170 -200 -217 -61 -47 -118 -61 -129 -31 -11 27 23 107
79 192 65 98 66 119 3 110 -53 -7 -61 -14 -123 -107 -85 -126 -195 -209 -279
-209 -49 0 -47 66 6 160 48 86 153 232 180 251 23 16 164 31 242 27 121 -8
110 25 -17 47 -20 4 -69 2 -108 -4 -40 -7 -75 -10 -77 -7 -2 2 16 32 41 66 25
34 46 68 46 76 0 18 -66 18 -97 1z m-963 -370 c0 -28 -59 -83 -109 -101 -29
-10 -55 -16 -58 -12 -8 8 41 60 91 97 41 30 76 38 76 16z m385 -68 c-73 -106
-161 -178 -199 -163 -19 7 -19 6 -1 52 21 49 120 149 170 173 33 15 42 16 53
5 12 -11 8 -22 -23 -67z m1843 58 c6 -7 9 -22 7 -32 -2 -11 -4 -26 -4 -34 -1
-19 -94 -105 -147 -136 -30 -18 -62 -27 -92 -28 -44 -2 -47 -1 -44 23 6 58
102 151 207 201 48 22 59 23 73 6z m-508 -887 c19 -36 -19 -131 -74 -185 -45
-44 -111 -72 -131 -55 -44 37 22 173 113 231 54 34 77 36 92 9z"/>
<path d="M6353 6769 c-32 -20 -73 -75 -73 -98 0 -32 134 13 174 58 18 20 18
22 1 41 -23 26 -61 25 -102 -1z"/>
<path d="M3863 6743 c-29 -6 -73 -58 -73 -88 0 -12 7 -28 15 -35 28 -23 118
15 151 65 15 23 15 28 3 40 -16 16 -63 25 -96 18z"/>
<path d="M4055 6542 c-54 -29 -95 -81 -95 -119 0 -26 18 -67 55 -128 14 -22
25 -52 25 -67 0 -61 -116 -77 -169 -23 l-26 26 58 50 c31 28 57 55 57 60 0 6
-70 -26 -157 -71 -86 -44 -166 -80 -177 -78 -47 7 -23 90 65 220 22 31 39 61
39 66 0 15 -56 34 -79 27 -11 -3 -40 -28 -63 -54 -41 -46 -135 -128 -188 -164
l-24 -17 26 0 c15 0 47 16 76 39 l49 39 -18 -59 c-17 -53 -17 -64 -5 -94 28
-65 83 -71 198 -21 l78 34 33 -32 c75 -71 220 -76 288 -10 59 56 59 115 0 205
-44 68 -46 83 -14 118 31 33 61 45 82 32 12 -8 10 -15 -8 -46 -11 -20 -19 -41
-16 -46 9 -13 67 -11 85 4 29 23 43 63 31 85 -31 59 -121 69 -206 24z"/>
<path d="M4549 5961 c-14 -11 -49 -55 -78 -99 l-51 -79 -81 -21 c-94 -26 -196
-74 -222 -105 -29 -34 -5 -32 75 7 61 29 188 70 194 63 1 -1 -29 -55 -66 -121
-77 -135 -120 -188 -196 -243 -55 -39 -65 -53 -39 -53 25 0 77 29 113 63 l32
31 0 -38 c0 -45 24 -90 57 -105 13 -6 46 -11 73 -11 41 0 59 7 113 44 65 43
65 43 77 21 19 -36 81 -65 137 -65 50 0 100 20 195 79 l38 23 -16 -37 c-20
-48 -6 -67 45 -63 34 3 37 7 83 97 50 99 89 148 150 187 44 28 63 30 72 9 5
-14 8 -14 31 1 14 9 25 22 25 29 0 20 -35 45 -62 45 -31 0 -100 -47 -151 -103
l-39 -42 29 55 c16 31 28 61 25 68 -6 19 -77 15 -95 -6 -10 -10 -17 -22 -17
-26 0 -4 -15 -31 -34 -59 -18 -29 -40 -64 -47 -78 -18 -34 -92 -96 -137 -115
-19 -7 -53 -14 -77 -14 -34 0 -44 5 -54 24 -20 37 -10 58 34 71 59 17 137 59
163 88 13 14 26 43 29 65 4 33 2 42 -18 56 -82 57 -287 -56 -319 -176 -15 -53
-23 -64 -79 -100 -92 -58 -143 -29 -122 68 23 103 163 347 204 358 66 16 231
28 505 36 354 10 459 26 572 86 78 42 94 54 103 77 9 23 6 23 -76 -22 -125
-69 -248 -89 -549 -92 -179 -2 -277 -7 -467 -25 l-74 -7 41 59 c23 33 43 70
44 84 3 22 -1 25 -33 28 -23 2 -43 -4 -60 -17z m257 -406 c13 -34 -90 -125
-141 -125 -14 0 -14 3 2 31 22 38 100 109 120 109 7 0 16 -7 19 -15z"/>
<path d="M5925 5892 c-42 -19 -89 -79 -101 -126 -8 -34 7 -34 82 4 78 38 133
94 118 118 -15 24 -52 25 -99 4z"/>
<path d="M2625 5659 c-34 -9 -93 -65 -81 -76 4 -4 27 4 52 17 37 21 46 23 53
11 12 -18 10 -22 -65 -178 -35 -72 -64 -136 -64 -142 0 -15 69 -14 99 2 14 6
44 46 69 87 58 100 102 151 158 189 94 62 95 40 10 -130 l-64 -127 22 -21 c17
-16 30 -20 55 -15 27 6 42 22 96 104 63 96 121 157 178 186 16 9 33 14 38 12
6 -2 -8 -38 -30 -81 -67 -125 -65 -194 5 -211 34 -9 101 23 147 70 l38 38 -4
-37 c-5 -43 12 -72 49 -81 34 -9 127 34 178 82 35 34 38 35 31 12 -22 -76
-116 -270 -131 -270 -2 0 -42 10 -87 22 -71 20 -106 23 -257 22 -254 0 -372
-35 -477 -139 -42 -43 -53 -60 -58 -98 -10 -63 8 -110 55 -147 121 -96 376
-105 556 -21 116 54 252 167 312 259 12 19 21 23 44 18 47 -9 153 -76 316
-200 256 -194 335 -240 501 -296 96 -32 209 -40 283 -20 114 32 153 158 76
245 -25 29 -37 35 -69 35 -50 0 -57 -16 -34 -76 17 -44 17 -47 -2 -72 -51 -68
-148 -81 -281 -36 -105 34 -224 107 -432 263 -100 75 -211 150 -260 174 l-85
42 89 180 c92 187 175 333 201 355 29 24 18 40 -28 40 -55 0 -74 -14 -146
-108 -66 -86 -127 -147 -185 -186 -76 -51 -85 -27 -30 73 20 36 54 92 75 123
22 32 39 62 39 67 0 14 -63 25 -90 16 -11 -4 -46 -44 -76 -91 -79 -119 -183
-219 -205 -197 -6 6 11 50 46 123 31 62 55 122 53 134 -2 13 -16 25 -41 35
-52 19 -95 4 -182 -66 -37 -29 -69 -52 -71 -50 -2 2 1 18 7 36 15 43 4 78 -30
96 -26 13 -34 13 -71 0 -47 -16 -89 -44 -139 -89 -26 -24 -32 -26 -26 -11 4
11 10 34 12 51 8 55 -56 79 -142 53z m710 -586 c49 -8 91 -16 93 -18 22 -22
-148 -201 -238 -252 -87 -49 -161 -67 -280 -67 -86 0 -116 4 -162 23 -71 28
-108 69 -108 119 0 75 59 129 185 170 89 30 111 34 215 42 107 8 165 5 295
-17z"/>
<path d="M5577 5599 c-21 -11 -55 -38 -76 -59 -21 -22 -41 -40 -44 -40 -3 0 4
17 14 37 30 58 26 73 -19 73 -21 0 -45 -6 -54 -12 -16 -13 -58 -85 -58 -100 0
-4 -20 -49 -45 -100 -61 -126 -59 -148 14 -148 33 0 46 14 94 100 46 84 118
165 169 191 38 19 41 19 65 3 25 -16 27 -16 39 1 21 28 -4 75 -40 75 -11 -1
-38 -10 -59 -21z"/>
<path d="M3750 5025 c39 -47 -8 -45 1310 -45 1237 0 1237 0 1264 21 14 11 26
25 26 30 0 5 -510 9 -1306 9 -1152 0 -1305 -2 -1294 -15z"/>
</g>
</svg>
