<svg width="1144" height="509" viewBox="0 0 1144 509" fill="none" xmlns="http://www.w3.org/2000/svg">
<path d="M45.3793 0.527871C37.7793 1.8612 31.3793 6.12787 26.5793 13.4612C21.7793 20.6612 20.5793 28.3945 22.1793 41.4612C23.646 52.7945 22.446 99.8612 20.846 95.4612C18.5793 89.0612 6.57931 86.9279 2.31264 92.1279C-4.22069 100.261 3.77931 117.328 17.646 124.395L22.5793 126.928V270.795V414.528L26.7126 415.461C28.9793 415.861 44.9793 416.261 62.046 416.261H93.246L93.3793 429.861C93.3793 437.461 93.9126 456.661 94.446 472.528C95.5126 503.995 96.5793 508.261 103.246 508.261C108.313 508.261 110.979 504.661 110.046 499.061C107.246 483.328 105.379 463.195 104.579 441.195L103.646 416.261H134.713C151.913 416.128 169.246 415.861 173.113 415.461C179.913 414.928 185.246 412.128 185.246 409.328C185.246 408.795 166.713 408.261 143.913 408.261H102.579V361.595V314.928L114.979 315.728C135.246 317.195 151.779 311.328 164.313 298.528C174.046 288.528 176.579 282.261 176.579 267.595C176.579 256.661 176.179 254.661 172.313 246.795C161.646 225.061 134.846 211.328 108.979 214.128L101.246 215.061V168.395V121.861L110.313 116.928C121.379 110.661 126.579 105.995 126.579 101.995C126.579 97.9945 125.379 98.1279 120.979 102.661C117.646 106.128 102.846 114.395 102.046 113.461C100.979 112.395 100.046 97.9945 100.846 95.1945C101.246 93.1945 102.579 92.2612 104.579 92.2612C109.246 92.2612 125.113 87.0612 132.446 83.1945C145.779 75.9945 150.713 60.2612 143.246 49.1945C140.713 45.4612 140.313 44.2612 141.779 44.2612C145.379 44.2612 161.646 48.3945 165.246 50.2612C171.513 53.4612 172.179 55.1945 169.113 60.7945C166.579 65.5945 166.579 65.9945 168.713 68.3945C171.646 71.5945 174.713 71.5945 178.846 68.2612C183.646 64.6612 186.179 57.9945 184.179 54.7945C183.246 53.4612 182.579 51.9945 182.579 51.7279C182.579 50.5279 195.113 47.1945 205.779 45.5945C212.313 44.5279 215.913 43.3279 215.913 42.1279C215.913 41.1945 214.579 40.2612 212.979 39.9945C207.913 39.3279 192.579 41.4612 183.779 44.2612C175.646 46.7945 175.513 46.7945 170.446 44.1279C165.379 41.5945 151.779 38.3945 139.646 36.9279C133.779 36.1279 133.246 35.7279 132.046 31.1945C131.246 28.5279 130.979 26.1279 131.379 25.7279C132.179 24.9279 280.313 24.7945 605.913 25.4612L773.913 25.7279L753.246 32.7945C741.913 36.6612 727.913 41.7279 722.179 44.1279C711.379 48.5279 674.846 66.1279 659.913 74.1279C649.246 79.8612 634.713 84.9279 620.846 87.5945C607.646 90.1279 603.913 90.1279 603.913 87.7279C603.913 84.5279 619.379 62.3945 625.379 57.0612C636.979 46.5279 651.913 42.6612 659.113 48.3945C663.379 51.7279 663.379 52.2612 659.246 56.7945C653.913 62.5279 654.313 64.7945 660.713 65.3279C665.513 65.7279 666.713 65.1945 669.779 61.5945C675.513 54.7945 673.779 45.4612 666.179 41.3279C664.579 40.5279 660.579 39.3279 657.246 38.7945C636.979 35.5945 610.846 51.7279 594.979 77.1945C591.646 82.5279 588.579 86.9279 588.179 86.9279C587.779 86.9279 585.646 85.3279 583.646 83.3279C580.046 79.8612 579.779 79.8612 577.513 82.1279C575.379 84.2612 575.379 84.5279 578.446 87.0612C580.179 88.3945 582.713 89.5945 584.179 89.5945C587.113 89.5945 586.713 91.9945 582.313 100.661C580.313 104.661 579.246 105.595 577.513 104.795C572.979 102.528 562.046 103.595 555.379 106.795C551.779 108.528 542.313 116.261 534.313 123.861C526.179 131.461 518.579 138.261 517.246 138.928C512.179 141.595 512.979 137.195 519.779 123.728C525.646 111.995 526.446 109.595 525.379 106.528C521.646 96.6612 510.179 98.6612 493.913 112.128C489.513 115.728 485.779 118.528 485.513 118.395C485.379 118.128 486.846 114.528 488.713 110.261C492.846 101.328 491.913 99.9945 483.379 101.861C476.979 103.195 476.979 103.328 469.246 117.728C464.713 126.128 461.513 130.128 455.246 135.061C450.846 138.661 446.846 141.595 446.313 141.595C442.979 141.595 449.113 126.128 458.046 111.995C459.779 109.195 461.246 106.128 461.246 105.061C461.246 102.128 456.713 101.328 450.579 103.061C446.446 104.261 444.846 104.395 443.646 103.195C441.379 100.928 435.513 101.195 426.313 103.728C420.313 105.461 416.713 107.728 409.913 113.861C405.113 118.261 399.646 124.528 397.779 127.728C391.646 138.261 379.246 147.061 374.579 144.261C370.713 141.861 373.513 129.461 381.246 114.128C386.046 104.528 388.046 102.261 399.246 93.0612C424.179 72.5279 439.646 49.4612 434.046 40.9279C431.113 36.3945 425.646 35.9945 418.313 39.7279C407.379 45.3279 394.313 61.5945 381.913 84.9279C366.846 113.328 362.579 118.528 343.246 132.528C333.113 139.728 318.846 146.261 307.646 148.795C302.979 149.861 302.713 153.595 307.113 153.595C316.313 153.595 338.179 143.195 353.646 131.461L360.046 126.528L359.113 135.195C358.313 143.061 358.446 143.995 361.913 147.995C364.713 151.328 366.446 152.261 370.313 152.261C376.579 152.261 385.113 148.261 390.713 143.061C392.979 140.795 395.246 138.928 395.513 138.928C395.779 138.928 396.579 140.395 397.246 142.261C400.579 151.061 415.913 149.328 425.913 139.061C428.179 136.795 430.313 134.928 430.713 134.928C431.246 134.928 431.913 136.795 432.446 139.195C433.646 145.061 435.646 146.928 440.846 146.928C446.313 146.928 449.246 145.461 457.113 139.195L462.846 134.528L461.913 139.995C461.246 144.528 461.379 145.595 463.779 146.795C469.779 150.128 474.446 147.328 479.246 137.595C485.113 125.995 506.179 105.995 509.246 109.061C510.046 109.861 508.446 114.528 505.646 120.261C499.379 133.461 498.446 140.528 502.579 144.928C507.779 150.395 511.246 149.461 524.846 138.661L533.246 131.995L532.446 136.128C531.246 141.995 536.579 146.928 544.179 146.928C550.579 146.928 560.979 141.728 566.446 135.728C570.446 131.461 571.913 131.328 571.913 135.061C571.913 139.728 577.379 147.995 582.979 151.861C587.913 155.328 589.646 155.595 602.446 155.995C620.046 156.528 629.246 154.395 645.913 145.861C654.979 141.195 660.579 137.061 668.979 128.795C678.446 119.461 679.913 117.461 679.913 113.461L679.779 108.928L675.646 114.261C657.246 137.595 628.979 152.395 606.713 150.261C587.913 148.528 583.113 140.128 589.379 120.261C590.846 115.461 593.779 107.728 596.046 102.928L600.046 94.2612L605.913 94.6612C621.646 95.9945 645.246 88.6612 676.579 72.7945C710.579 55.5945 742.046 42.2612 761.913 36.6612C795.646 27.1945 796.579 26.9279 820.579 27.3279C840.846 27.5945 843.779 27.8612 848.579 30.3945C855.246 33.9945 858.313 37.3279 859.913 42.6612C860.846 46.3945 860.579 47.1945 856.713 50.5279C854.313 52.5279 850.446 55.3279 848.046 56.5279C843.113 59.1945 842.713 62.3945 847.113 64.3945C849.379 65.4612 853.913 65.3279 864.713 63.5945C872.713 62.3945 885.246 60.5279 892.579 59.4612C912.713 56.3945 924.046 57.4612 935.913 63.7279C950.713 71.4612 956.446 79.7279 957.513 94.9279C958.046 101.728 961.513 100.928 963.913 93.5945C966.579 85.4612 967.246 84.6612 971.913 83.5945C977.379 82.3945 983.379 77.0612 986.713 70.7945C989.513 65.0612 989.779 65.0612 995.379 66.9279C997.513 67.5945 1001.78 68.7945 1004.98 69.5945L1010.58 71.0612V239.595V408.261H989.379C977.646 408.261 966.579 408.795 964.579 409.595C961.379 410.795 961.246 410.661 962.579 408.261C963.379 406.795 964.579 405.595 965.246 405.595C966.979 405.595 970.179 399.061 971.246 393.195C973.379 382.261 965.113 374.128 953.113 375.195C943.646 376.128 938.313 382.128 942.846 386.661C944.846 388.661 950.179 388.795 950.846 386.661C951.779 384.128 958.579 386.661 959.779 389.995C963.646 400.261 940.313 414.261 913.779 417.595C900.979 419.195 897.913 418.661 906.846 416.261C915.113 413.995 921.246 411.195 921.246 409.595C921.246 408.795 919.913 408.528 918.313 408.795C916.579 409.195 907.513 409.861 897.913 410.261C888.446 410.795 877.113 411.328 872.846 411.595C861.513 412.395 837.646 409.061 830.179 405.728L823.913 402.795L827.646 397.195C829.779 394.128 834.979 384.795 839.379 376.395C850.046 355.728 856.846 348.395 872.446 340.928C883.246 335.728 898.579 330.928 904.179 330.928C906.579 330.928 910.579 342.395 910.579 349.461C910.579 363.195 898.579 379.461 883.779 385.995C879.779 387.728 874.046 390.261 870.979 391.595C865.513 393.995 863.779 396.528 866.446 398.128C867.113 398.528 871.646 397.328 876.579 395.595C907.646 383.861 920.446 367.728 917.246 343.861C916.579 338.528 915.513 332.928 915.113 331.328C914.179 327.861 913.379 328.261 929.913 324.395C963.246 316.528 986.446 295.728 986.579 273.595C986.579 258.795 976.713 247.861 961.646 246.128C946.713 244.261 942.046 256.261 956.846 258.528C959.646 258.928 964.446 260.395 967.513 261.728C972.179 263.728 973.379 264.928 974.579 269.595C977.379 280.128 972.713 291.728 961.779 301.461C951.779 310.261 938.579 315.861 917.113 320.528L910.979 321.861L904.046 314.928C885.113 295.995 853.513 292.261 821.779 305.328C803.113 313.061 788.446 324.261 796.979 324.261C798.446 324.261 799.913 323.728 800.179 323.061C800.846 321.328 819.379 312.261 829.913 308.661C843.779 303.861 863.246 302.928 875.513 306.661C888.713 310.795 905.246 323.195 899.513 324.795C898.713 325.195 894.979 325.995 891.246 326.928C887.646 327.728 879.113 331.061 872.313 334.261C862.713 338.795 860.313 339.461 861.646 337.461C862.979 335.328 862.846 334.528 861.246 333.461C856.046 330.128 849.513 334.261 837.246 348.928C832.313 354.795 817.246 367.461 812.313 370.128C802.446 375.061 802.979 371.995 814.713 352.661C819.779 344.261 823.779 336.395 823.379 335.461C822.313 332.795 812.579 333.061 809.913 335.728C806.446 339.328 797.913 352.528 794.713 359.461C790.579 368.395 790.313 372.795 793.379 376.795C795.513 379.595 796.846 379.995 801.513 379.461C807.379 378.928 822.846 370.528 826.979 365.595C828.313 363.995 829.779 362.928 830.046 363.328C830.979 364.261 817.779 390.528 813.779 395.861C810.846 399.595 810.046 399.995 807.113 398.928C800.046 396.128 778.713 393.595 763.913 393.595C725.913 393.728 690.579 406.528 675.646 425.595C666.446 437.328 663.246 444.928 663.246 455.461C663.246 460.661 663.646 466.528 664.313 468.528L665.246 472.261H652.979C633.913 472.261 614.179 468.261 593.913 460.261C580.313 454.928 558.979 444.528 550.713 439.328C546.846 436.795 542.313 434.928 540.713 435.195C538.313 435.595 538.979 436.528 545.246 441.328C549.379 444.528 558.579 450.528 565.913 454.795C596.046 471.995 619.113 478.795 650.313 479.595L669.379 480.128L674.313 484.395C676.979 486.795 682.446 490.261 686.579 492.128C693.246 495.195 695.513 495.461 710.579 495.461C720.446 495.461 729.646 494.795 733.113 493.728C740.046 491.728 746.979 485.461 745.779 482.395C744.579 479.328 741.379 479.728 732.446 483.861C725.379 487.195 723.113 487.595 710.579 487.595C695.913 487.595 691.113 486.128 684.313 479.861C680.579 476.528 680.313 474.128 683.913 476.661C688.579 479.995 725.513 472.795 745.379 464.795C773.779 453.195 800.846 434.128 813.913 416.395C816.846 412.528 818.846 410.928 821.379 410.928C826.713 410.928 840.046 421.461 845.113 429.595C849.379 436.661 852.846 437.861 852.179 432.128C851.913 430.395 850.046 426.128 847.913 422.528C845.779 419.061 844.179 416.261 844.446 416.261C844.579 416.261 847.779 417.195 851.379 418.261C881.646 427.195 914.979 427.595 939.513 419.328C949.646 415.995 950.579 415.861 980.846 416.128C997.779 416.395 1012.98 416.128 1014.45 415.595L1017.25 414.795V244.128C1017.25 94.6612 1017.51 73.5945 1019.25 73.5945C1020.31 73.5945 1029.91 76.2612 1040.45 79.5945C1087.11 94.1279 1120.45 116.928 1128.31 139.861C1130.05 145.061 1129.38 152.661 1126.85 155.195C1126.05 155.995 1122.18 157.728 1118.31 159.061C1113.11 160.795 1111.11 162.128 1110.85 164.261C1110.18 168.528 1113.91 171.861 1120.58 172.795C1128.05 173.995 1134.18 171.461 1139.78 164.795C1143.78 159.995 1144.05 159.061 1143.38 152.928C1142.18 142.528 1134.31 127.995 1123.51 116.661C1103.65 95.8612 1075.51 81.4612 1025.91 67.1945L1017.91 64.9279L1017.51 42.6612L1017.25 20.3945H938.446H859.779L860.179 23.3279C860.579 26.2612 860.713 26.2612 888.979 26.2612C906.313 26.2612 916.046 26.6612 913.646 27.3279C900.446 31.1945 891.246 34.5279 881.379 39.0612C868.713 44.9279 868.979 44.7945 869.379 42.5279C870.046 38.9279 862.179 26.9279 859.113 26.9279C858.313 26.9279 856.846 26.1279 856.046 25.0612C855.113 23.9945 851.646 22.5279 848.179 21.7279C843.913 20.7945 726.713 20.1279 483.913 19.4612L125.913 18.6612L122.579 15.7279C111.513 5.72787 98.9793 5.59454 88.3126 15.3279L85.246 17.9945L79.646 12.5279C69.7793 2.79454 57.3793 -1.60546 45.3793 0.527871ZM65.246 11.0612C72.3126 14.7945 78.846 21.3279 79.3793 25.1945C79.7793 27.3279 79.7793 27.3279 74.846 24.9279C69.1126 21.9945 54.7126 22.1279 48.5793 25.0612C42.846 27.7279 38.846 33.4612 37.7793 40.5279C37.246 43.3279 36.3126 45.5945 35.646 45.5945C33.646 45.5945 29.246 34.5279 29.246 29.1945C29.1126 10.6612 47.246 1.4612 65.246 11.0612ZM113.246 16.9279C114.713 18.6612 114.046 18.9279 108.446 19.0612C104.846 19.0612 100.579 19.3279 98.9793 19.4612C97.246 19.7279 95.9126 19.3279 95.9126 18.7945C95.9126 15.0612 110.313 13.4612 113.246 16.9279ZM107.246 24.7945C121.113 25.7279 124.713 27.8612 123.113 34.1279C122.579 36.6612 121.646 37.4612 120.046 36.9279C118.846 36.6612 112.179 36.7945 105.246 37.4612C91.1126 38.7945 90.5793 38.5279 90.5793 30.7945C90.5793 26.3945 92.7126 22.3945 94.446 23.5945C94.9793 23.8612 100.713 24.3945 107.246 24.7945ZM1010.58 45.0612C1010.58 61.5945 1010.45 63.0612 1008.31 62.3945C1006.18 61.7279 992.313 58.9279 991.113 58.9279C990.846 58.9279 988.713 55.0612 986.446 50.2612C981.779 40.3945 974.713 33.5945 966.313 30.9279C963.113 29.9945 960.046 28.6612 959.379 27.9945C958.579 27.4612 969.913 26.9279 984.313 26.9279H1010.58V45.0612ZM75.646 32.2612C82.5793 35.4612 83.9126 36.6612 83.9126 39.5945C83.9126 41.4612 83.3793 42.9279 82.7126 42.9279C81.9126 42.9279 77.7793 46.2612 73.5126 50.2612C68.046 55.3279 64.446 57.5945 62.046 57.5945C55.246 57.5945 46.5793 51.1945 46.3126 46.1279C45.9126 39.7279 48.046 34.1279 52.3126 31.1945C58.1793 27.0612 65.3793 27.3279 75.646 32.2612ZM953.646 34.3945C961.246 37.0612 970.846 43.4612 974.313 48.1279C981.246 57.5945 980.713 71.8612 973.246 74.9279C968.046 77.0612 964.846 75.7279 960.579 69.8612C952.979 59.5945 944.313 53.8612 932.046 50.9279C922.979 48.7945 897.913 49.8612 883.913 52.9279C864.313 57.3279 856.579 58.9279 855.913 58.7945C854.579 58.6612 878.046 47.9945 891.913 42.3945C904.179 37.3279 918.579 33.3279 929.246 31.9945C935.246 31.1945 948.046 32.3945 953.646 34.3945ZM114.313 43.7279C119.513 45.1945 117.513 47.9945 107.513 52.7945C102.179 55.4612 97.3793 57.5945 96.846 57.5945C96.046 57.5945 92.9793 47.9945 93.646 47.4612C94.3126 46.7945 107.379 43.0612 109.246 43.0612C110.313 43.0612 112.579 43.3279 114.313 43.7279ZM134.579 50.5279C142.579 57.7279 141.113 69.5945 131.646 74.9279C126.579 77.7279 126.579 77.7279 122.179 75.1945C119.913 73.7279 115.646 71.8612 112.846 70.9279C109.913 69.9945 106.046 68.5279 104.179 67.4612C102.313 66.5279 100.313 65.9945 99.646 66.3945C99.1126 66.7945 98.5793 66.5279 98.5793 65.9945C98.5793 65.3279 101.913 63.7279 105.913 62.2612C110.446 60.7945 115.779 57.4612 120.179 53.4612C124.046 49.8612 128.046 47.0612 128.846 46.9279C129.779 46.9279 132.313 48.5279 134.579 50.5279ZM425.913 51.1945C423.913 57.5945 410.313 74.9279 397.779 86.9279L390.179 94.2612L393.246 88.9279C402.846 72.5279 422.046 48.2612 425.513 48.2612C426.179 48.2612 426.313 49.5945 425.913 51.1945ZM38.446 56.7945C41.1126 58.5279 46.9793 61.1945 51.646 62.9279C56.1793 64.5279 59.9126 66.3945 59.9126 66.9279C59.9126 67.4612 58.7126 70.6612 57.246 73.8612C53.246 82.9279 50.3126 96.9279 49.3793 110.928L48.5793 123.595L42.5793 123.195C39.246 123.061 35.246 122.661 33.646 122.261L30.5793 121.595V90.5279C30.5793 73.5945 30.1793 57.1945 29.646 54.2612C28.846 49.0612 28.846 49.0612 31.246 51.3279C32.5793 52.7945 35.7793 55.1945 38.446 56.7945ZM87.7793 57.1945C87.9126 59.9945 87.246 60.2612 81.246 60.2612C77.646 60.2612 74.5793 59.7279 74.5793 59.1945C74.5793 58.6612 77.1126 56.2612 80.1793 53.8612C85.246 49.9945 85.9126 49.7279 86.846 51.8612C87.246 53.1945 87.7793 55.5945 87.7793 57.1945ZM83.246 69.3279L89.9126 71.5945L90.5793 78.7945C91.646 88.5279 89.5126 89.0612 75.3793 82.9279C67.5126 79.4612 65.246 75.1945 68.446 70.2612C70.9793 66.3945 73.7793 66.2612 83.246 69.3279ZM108.179 77.0612C110.179 78.1279 112.979 78.9279 114.446 78.9279C115.913 78.9279 117.379 79.4612 117.913 80.1279C119.113 82.2612 113.779 84.2612 106.846 84.2612C99.9126 84.2612 98.7126 82.9279 98.5793 75.8612C98.5793 73.1945 101.246 73.5945 108.179 77.0612ZM74.046 90.5279C76.1793 91.3279 80.846 92.6612 84.5793 93.4612C88.1793 94.3945 91.646 95.8612 92.1793 96.6612C92.7126 97.5945 93.246 101.995 93.246 106.661C93.246 113.461 92.846 115.195 90.9793 115.728C89.646 116.128 87.5126 117.061 86.046 117.728C82.3126 119.861 65.1126 124.128 60.7126 124.261H56.846L57.5126 108.528C58.046 98.6612 59.1126 90.9279 60.446 87.7279L62.5793 82.6612L66.446 85.8612C68.446 87.7279 71.9126 89.7279 74.046 90.5279ZM12.5793 101.995C12.5793 107.995 13.7793 108.128 18.7126 102.528L22.5793 98.2612V108.661V119.195L18.3126 116.528C8.31264 110.261 2.31264 94.9279 10.5793 96.5279C11.9126 96.7945 12.5793 98.5279 12.5793 101.995ZM440.846 110.395C441.913 113.328 438.979 118.128 429.646 128.261C420.979 137.595 411.646 143.195 408.979 140.528C406.313 137.861 413.913 125.061 422.713 117.195C433.113 108.128 439.113 105.861 440.846 110.395ZM574.046 111.595C576.179 116.928 567.246 130.261 557.379 136.528C546.846 143.061 542.713 140.528 547.913 130.661C554.713 117.328 571.646 105.061 574.046 111.595ZM93.246 170.661V217.195L87.646 218.795C75.646 222.261 54.5793 237.328 54.5793 242.261C54.5793 244.928 56.7126 244.795 59.5126 241.728C62.5793 238.661 67.9126 235.728 67.9126 237.328C67.9126 237.995 66.846 239.595 65.3793 240.795C64.046 241.995 61.246 246.795 59.246 251.195C56.046 258.395 55.646 260.528 56.3126 268.928C57.646 286.395 67.246 299.861 84.5793 308.395L93.246 312.661V360.395V408.261H61.9126H30.5793V268.928V129.461L39.646 129.861L48.5793 130.261L49.5126 139.595C51.5126 161.995 52.1793 167.061 54.5793 182.261C55.9126 191.061 57.3793 201.195 57.9126 204.928C59.246 217.061 60.1793 220.128 62.3126 220.928C65.1126 221.995 66.7126 219.061 65.9126 214.261C65.5126 211.995 64.7126 205.328 64.1793 199.195L63.1126 187.995L66.9793 185.195C83.5126 172.661 89.246 164.528 90.1793 151.595C90.846 144.528 90.446 142.928 87.1126 137.328C84.9793 133.861 82.1793 130.661 80.846 130.128C79.5126 129.728 78.7126 128.928 79.246 128.528C80.1793 127.461 88.9793 124.661 91.646 124.395C92.846 124.261 93.246 134.395 93.246 170.661ZM69.7793 132.261C77.9126 135.328 83.9126 143.861 83.9126 152.261C83.9126 158.661 78.046 168.661 70.846 174.795C64.9793 179.595 59.9126 182.128 61.7793 179.195C62.046 178.661 61.5126 174.928 60.446 170.928C59.3793 166.928 58.1793 156.261 57.646 147.195L56.846 130.928H61.646C64.3126 130.928 67.9126 131.461 69.7793 132.261ZM128.179 222.128C145.779 226.395 159.513 237.328 166.313 252.261C169.113 258.528 169.379 261.061 168.979 269.595C168.179 282.128 164.979 288.528 155.646 296.795C144.846 306.261 136.979 308.795 118.979 308.928C110.846 308.928 103.646 308.395 102.979 307.861C102.446 307.195 101.779 287.861 101.379 264.661C100.979 230.261 101.246 222.395 102.713 221.461C105.513 219.728 119.646 220.128 128.179 222.128ZM92.5793 303.995C92.3126 304.395 88.5793 302.661 84.446 300.128C75.7793 294.795 68.7126 286.661 65.9126 278.795C62.1793 268.395 63.9126 253.728 69.3793 247.461C70.846 245.995 71.9126 244.261 71.9126 243.595C71.9126 242.928 73.246 241.061 74.846 239.328C77.1126 236.928 77.3793 235.861 76.1793 235.061C73.9126 233.728 75.9126 231.995 85.246 227.728L92.5793 224.261L92.9793 263.861C93.1126 285.595 92.9793 303.595 92.5793 303.995ZM790.579 402.928C803.913 405.061 806.579 405.728 806.579 407.061C806.579 407.595 800.713 414.261 793.646 421.595C768.179 448.261 737.246 463.595 696.313 470.128C689.913 471.195 683.246 472.528 681.513 472.928C674.446 475.195 672.446 455.861 678.446 442.261C682.313 433.328 697.646 418.928 708.979 413.461C721.646 407.328 722.046 407.195 734.579 404.395C747.513 401.461 776.313 400.795 790.579 402.928Z" fill="#BDFF00"/>
<path d="M69.5128 103.194C65.1128 107.594 68.5795 111.328 80.1795 114.394C86.4462 115.994 86.5795 115.994 86.5795 112.928C86.5795 107.994 85.2462 105.594 81.1128 103.594C76.5795 101.194 71.6462 101.061 69.5128 103.194Z" fill="#BDFF00"/>
<path d="M798.579 33.1945C791.646 34.5278 789.779 39.3278 794.579 43.5945C796.446 45.3278 799.379 45.8611 805.913 45.8611C812.179 45.8611 814.979 46.2611 815.379 47.5945C816.179 49.5945 814.313 53.5945 811.113 56.7945C808.046 59.9945 809.913 61.7278 814.579 59.9945C826.579 55.8611 827.246 40.1278 815.646 34.9278C810.046 32.3945 805.513 31.9945 798.579 33.1945Z" fill="#BDFF00"/>
<path d="M359.246 36.1278C358.846 36.9278 355.646 37.8611 352.179 38.2611C341.379 39.7278 337.513 41.4611 334.579 46.3945C331.246 51.5945 329.513 51.8611 321.646 48.3945C313.379 44.5278 297.779 40.5278 285.246 39.0611C269.646 37.0611 240.046 37.1945 236.046 39.3278C228.979 42.7945 231.913 43.5945 253.646 43.7278C291.779 43.9945 322.579 52.1278 337.779 65.9945C342.313 69.9945 345.113 71.7278 346.846 71.1945C351.513 69.9945 351.113 66.9278 345.379 61.0611C339.379 54.9278 338.446 50.7945 342.713 47.8611C345.113 45.9945 346.179 46.1278 351.379 48.5278C358.579 51.7278 364.046 50.7945 367.913 45.9945C370.979 42.1278 371.379 38.9278 368.979 36.5278C367.113 34.6611 360.446 34.3945 359.246 36.1278Z" fill="#BDFF00"/>
<path d="M980.58 96.5279C974.18 100.128 974.58 102.795 981.78 107.195C986.446 109.995 987.913 111.728 988.58 115.328C990.713 126.528 982.98 138.528 969.513 145.061C954.713 152.261 934.446 149.328 921.246 137.995C908.446 126.928 906.98 109.061 918.58 104.261C924.046 101.995 928.58 103.995 931.38 110.128C933.513 114.528 933.513 114.795 930.046 119.328C926.98 123.328 926.713 124.528 927.913 126.795C930.58 131.861 937.113 130.261 941.38 123.461C948.58 111.861 935.113 94.6613 920.446 96.7946C909.113 98.2613 903.646 105.061 903.78 116.928C903.913 133.328 915.646 147.995 933.113 153.595C940.846 155.995 944.713 156.528 954.18 155.995C964.313 155.595 967.113 154.795 974.313 150.928C983.646 145.995 992.846 136.661 997.113 127.861C1002.05 117.728 1000.45 104.661 993.78 98.7946C990.313 95.7279 983.78 94.6613 980.58 96.5279Z" fill="#BDFF00"/>
<path d="M267.646 101.861C261.246 103.595 251.379 112.261 245.512 121.461C236.846 135.061 226.579 144.128 226.579 138.261C226.579 137.195 229.646 130.395 233.512 123.061C239.512 111.461 240.179 109.328 238.979 106.528C238.046 104.661 236.179 102.795 234.712 102.261C230.179 100.928 219.112 107.728 206.312 120.128C202.712 123.461 199.912 125.861 199.912 125.328C199.912 124.928 201.112 121.728 202.712 118.395C206.179 110.261 205.246 104.928 199.912 103.061C193.512 100.928 183.646 104.795 176.579 112.261C174.446 114.528 171.512 117.061 170.179 117.861C167.912 119.061 167.912 118.928 169.779 115.061C172.312 110.261 172.579 104.795 170.312 103.461C166.712 101.195 154.446 102.661 149.779 105.861C142.446 110.928 144.046 111.995 154.312 108.928C158.846 107.461 158.179 110.395 148.579 130.795C138.312 152.795 137.779 154.928 142.979 156.795C148.312 158.795 152.712 155.861 157.512 146.928C164.979 133.195 167.779 128.661 172.712 122.795C177.779 116.795 185.246 110.928 188.046 110.928C190.579 110.928 188.579 119.061 182.846 131.061C173.246 151.461 172.979 153.595 179.379 153.595C184.846 153.595 190.046 149.995 193.779 143.728C200.179 132.928 218.579 113.595 222.579 113.595C223.112 113.595 220.979 118.795 217.779 125.195C214.579 131.595 211.912 138.261 211.912 139.995C211.912 143.461 217.379 149.595 220.579 149.595C224.312 149.595 232.712 144.528 236.979 139.728C240.979 135.061 242.579 134.795 242.579 138.928C242.579 142.661 247.512 147.861 251.779 148.661C256.579 149.728 265.379 146.795 272.312 141.995C274.979 140.128 277.512 138.795 277.912 139.195C279.379 140.528 265.246 164.261 255.512 176.661C252.179 180.928 250.846 181.728 248.046 181.061C238.846 179.061 221.912 176.261 208.846 174.795C184.046 171.995 166.046 176.395 158.979 186.795C152.312 196.661 156.446 205.861 170.579 212.661C175.779 215.195 178.846 215.595 193.912 215.595C206.446 215.595 213.646 214.928 219.912 213.195C229.512 210.528 245.379 201.995 253.512 195.061L258.846 190.528L266.312 192.795C270.579 194.128 280.579 197.861 288.846 201.061C302.579 206.528 311.912 208.395 311.912 205.861C311.912 204.528 295.779 196.928 280.446 190.928C274.712 188.661 268.846 186.395 267.512 185.861C265.379 185.061 266.179 183.595 272.979 174.261C277.379 168.395 285.512 154.661 291.112 143.728C302.446 121.861 303.646 119.995 310.979 109.995C316.579 102.395 316.446 100.261 310.446 100.261C303.512 100.261 298.846 103.995 289.379 116.661C280.312 129.061 273.779 135.195 265.646 139.461C260.046 142.261 257.646 142.128 255.912 138.928C254.446 136.261 256.712 128.928 261.112 121.595C264.446 115.861 272.312 108.261 274.846 108.261C278.446 108.261 277.779 111.328 273.246 115.595C266.446 122.128 269.512 126.128 276.712 119.861C283.912 113.595 285.912 105.728 280.979 102.395C277.646 99.9947 274.846 99.8614 267.646 101.861ZM235.246 185.195L247.112 187.595L239.912 193.461C225.646 204.661 212.179 209.595 194.312 209.728C175.646 209.995 163.912 204.395 163.912 195.061C163.912 190.528 169.512 184.928 175.912 183.061C182.846 180.928 220.846 182.395 235.246 185.195Z" fill="#BDFF00"/>
<path d="M617.646 171.328C616.046 172.261 611.779 176.928 608.313 181.595C600.713 191.995 600.979 191.861 593.379 192.928C590.046 193.461 585.913 194.661 584.313 195.728C580.579 198.128 580.046 202.395 583.646 200.928C587.246 199.461 594.579 198.528 594.579 199.461C594.579 199.861 589.513 207.461 583.246 216.261C566.979 239.061 549.246 255.861 547.113 250.528C546.313 248.261 550.846 238.661 557.913 227.595C560.446 223.595 562.579 219.195 562.579 217.728C562.579 214.261 558.046 211.728 554.979 213.328C553.646 213.995 550.846 214.261 548.579 213.861C540.046 212.395 533.779 213.195 526.579 216.661C517.513 220.928 509.113 227.995 504.046 235.461C495.513 247.861 475.379 256.928 465.646 252.928C462.313 251.461 461.246 250.261 461.246 247.595C461.246 241.061 463.113 239.461 470.713 239.195C484.313 238.928 498.579 229.328 498.579 220.395C498.579 216.528 492.313 212.261 486.713 212.261C480.313 212.395 468.446 217.328 459.913 223.595C450.579 230.395 433.113 239.461 422.313 242.928C413.513 245.728 410.579 248.261 415.913 248.261C420.313 248.261 434.579 243.061 442.046 238.795C450.179 234.128 451.113 233.995 449.113 237.728C446.846 241.995 448.446 251.861 451.913 255.595C456.313 260.395 463.779 261.728 474.046 259.461C482.179 257.861 496.179 251.195 498.046 247.995C498.579 247.195 500.179 249.195 501.779 252.395C504.179 257.461 505.246 258.261 509.113 258.661C514.579 259.195 520.313 257.061 526.846 252.128C532.579 247.595 533.246 247.461 533.246 250.661C533.246 255.461 537.113 258.928 542.579 258.928C548.179 258.928 559.113 252.395 565.646 245.195C569.379 241.061 569.646 241.195 569.379 246.928C568.713 256.261 576.713 262.795 586.313 260.928C595.379 259.195 604.979 254.795 610.979 249.595C614.313 246.661 617.379 244.261 617.779 244.261C618.179 244.261 618.579 245.995 618.579 248.261C618.579 250.795 620.046 253.861 622.446 256.528C625.513 259.995 627.379 260.928 631.379 260.795C639.246 260.795 648.846 255.461 659.646 244.795C669.646 234.928 670.313 235.328 664.446 247.195C659.513 256.795 660.446 258.928 669.379 258.928C672.579 258.928 674.179 257.461 679.646 249.195C683.246 243.995 689.379 236.528 693.246 232.661C700.046 226.128 709.779 220.261 711.379 221.995C711.913 222.395 709.646 227.861 706.579 234.261C699.913 247.595 699.379 252.795 704.579 257.328C710.179 262.128 716.179 260.261 729.646 249.195L735.913 243.995V248.661C735.913 251.195 736.979 254.661 738.446 256.395C742.179 261.061 755.113 260.795 764.979 255.728C768.713 253.861 771.913 252.528 771.913 252.928C771.913 255.728 751.513 279.995 742.046 288.261C725.513 302.928 708.179 310.661 681.513 315.461L676.979 316.261L680.979 311.195C686.713 303.995 691.913 295.195 691.913 293.061C691.913 291.995 690.046 290.795 687.913 290.261C682.846 289.195 679.246 291.328 672.313 299.861C661.513 313.195 657.779 316.795 655.379 315.861C653.246 315.061 653.246 314.661 655.913 311.328L658.713 307.595L655.913 306.395C653.779 305.461 651.646 305.861 647.246 307.995C642.313 310.395 641.513 311.328 641.913 314.395C642.313 318.661 644.579 320.261 650.179 320.261C652.446 320.261 654.713 320.795 655.113 321.461C656.179 323.061 638.046 348.128 628.179 359.061C615.646 372.661 602.579 377.995 604.713 368.661C605.379 365.461 612.313 352.261 620.713 337.861C622.979 334.128 622.979 333.328 621.246 332.261C618.446 330.528 613.113 330.661 609.513 332.795C604.846 335.328 595.246 351.061 591.913 361.728C589.513 369.328 589.113 371.728 590.313 374.395C592.179 378.261 596.713 380.261 603.779 380.261C609.779 380.261 622.179 372.795 628.846 365.195C634.046 359.195 635.113 359.061 633.913 364.128C631.913 373.461 638.446 380.261 649.513 380.261C655.246 380.261 660.446 377.728 670.846 369.595L674.446 366.795L676.179 370.395C681.113 380.395 697.646 381.328 711.513 372.395C719.379 367.328 724.313 361.861 728.446 353.995C730.713 349.595 741.379 343.061 749.646 341.061C752.713 340.395 753.246 340.661 753.246 343.061C753.246 344.661 750.179 351.861 746.446 359.195C738.446 375.061 738.313 378.128 745.913 378.528C752.579 379.061 754.046 377.861 761.513 366.261C769.913 353.195 777.246 345.328 784.446 341.595C789.246 339.195 790.979 338.795 792.179 339.995C794.446 342.261 796.313 341.995 798.179 338.928C800.313 335.728 799.246 333.061 795.246 331.195C792.713 329.995 791.113 330.395 785.913 333.728C782.579 335.861 776.713 340.528 772.979 343.995L766.179 350.261L769.246 344.395C771.646 339.461 771.913 338.128 770.579 335.461C769.646 333.861 767.779 332.128 766.446 331.861C762.846 330.928 751.246 333.995 742.579 338.128C733.379 342.528 732.446 342.395 728.579 337.728C721.779 329.728 711.246 328.928 697.646 335.595C687.913 340.395 680.579 347.195 675.646 355.861C671.246 363.595 658.179 373.595 652.446 373.595C643.779 373.595 648.713 357.195 663.779 335.595C672.046 323.595 674.446 321.595 680.446 321.595C690.046 321.461 717.779 315.328 726.979 311.195C746.313 302.395 764.179 286.528 783.779 260.528C790.046 252.261 796.979 243.195 798.979 240.528C801.113 237.861 806.579 231.195 811.379 225.861C816.046 220.528 819.913 215.195 819.913 214.128C819.913 212.795 818.313 212.261 814.846 212.261C810.979 212.261 808.446 213.328 804.179 216.928C798.979 221.461 798.713 221.595 797.379 219.061C796.579 217.595 793.779 215.728 791.113 214.928C779.913 211.195 762.713 216.928 747.379 229.195C729.779 243.595 718.046 252.261 716.313 252.261C713.246 252.261 714.446 247.728 720.579 237.061C728.179 223.595 729.246 218.661 725.113 215.728C718.446 211.061 706.179 215.061 693.513 226.128C689.513 229.461 686.046 232.261 685.779 232.261C685.513 232.261 686.713 229.328 688.579 225.595C692.846 217.061 692.846 213.861 688.579 212.795C683.113 211.461 678.713 213.328 675.379 218.661C669.646 227.461 656.846 241.328 648.713 247.595C640.579 253.861 632.979 255.728 631.513 251.728C630.046 248.128 634.579 237.461 642.046 226.128C650.713 213.061 650.846 210.261 642.446 211.461C635.379 212.395 634.313 213.328 626.046 225.728C614.713 242.528 600.046 253.595 588.846 253.595C582.313 253.595 582.579 244.795 589.646 232.261C596.046 220.795 610.046 201.328 613.646 198.795C616.713 196.661 635.513 194.661 645.913 195.195C662.046 196.261 660.579 191.861 643.646 188.928C640.979 188.395 634.446 188.661 629.246 189.461C623.913 190.395 619.246 190.795 618.979 190.395C618.713 190.128 621.113 186.128 624.446 181.595C627.779 177.061 630.579 172.528 630.579 171.461C630.579 169.061 621.779 169.061 617.646 171.328ZM489.246 220.661C489.246 224.395 481.379 231.728 474.713 234.128C470.846 235.461 467.379 236.261 466.979 235.728C465.913 234.661 472.446 227.728 479.113 222.795C484.579 218.795 489.246 217.728 489.246 220.661ZM540.579 229.728C530.846 243.861 519.113 253.461 514.046 251.461C511.513 250.528 511.513 250.661 513.913 244.528C516.713 237.995 529.913 224.661 536.579 221.461C540.979 219.461 542.179 219.328 543.646 220.795C545.246 222.261 544.713 223.728 540.579 229.728ZM786.313 221.995C787.113 222.928 787.513 224.928 787.246 226.261C786.979 227.728 786.713 229.728 786.713 230.795C786.579 233.328 774.179 244.795 767.113 248.928C763.113 251.328 758.846 252.528 754.846 252.661C748.979 252.928 748.579 252.795 748.979 249.595C749.779 241.861 762.579 229.461 776.579 222.795C782.979 219.861 784.446 219.728 786.313 221.995ZM718.579 340.261C721.113 345.061 716.046 357.728 708.713 364.928C702.713 370.795 693.913 374.528 691.246 372.261C685.379 367.328 694.179 349.195 706.313 341.461C713.513 336.928 716.579 336.661 718.579 340.261Z" fill="#BDFF00"/>
<path d="M684.312 177.728C680.046 180.395 674.579 187.728 674.579 190.795C674.579 195.061 692.446 189.061 697.779 183.061C700.179 180.395 700.179 180.128 697.912 177.595C694.846 174.128 689.779 174.261 684.312 177.728Z" fill="#BDFF00"/>
<path d="M352.312 181.194C348.446 181.994 342.579 188.928 342.579 192.928C342.579 194.528 343.512 196.661 344.579 197.594C348.312 200.661 360.312 195.594 364.712 188.928C366.712 185.861 366.712 185.194 365.112 183.594C362.979 181.461 356.712 180.261 352.312 181.194Z" fill="#BDFF00"/>
<path d="M377.912 207.994C370.712 211.861 365.246 218.794 365.246 223.861C365.246 227.328 367.646 232.794 372.579 240.928C374.446 243.861 375.912 247.861 375.912 249.861C375.912 257.994 360.446 260.128 353.379 252.928L349.912 249.461L357.646 242.794C361.779 239.061 365.246 235.461 365.246 234.794C365.246 233.994 355.912 238.261 344.312 244.261C332.846 250.128 322.179 254.928 320.712 254.661C314.446 253.728 317.646 242.661 329.379 225.328C332.312 221.194 334.579 217.194 334.579 216.528C334.579 214.528 327.112 211.994 324.046 212.928C322.579 213.328 318.712 216.661 315.646 220.128C310.179 226.261 297.646 237.194 290.579 241.994L287.379 244.261H290.846C292.846 244.261 297.112 242.128 300.979 239.061L307.512 233.861L305.112 241.728C302.846 248.794 302.846 250.261 304.446 254.261C308.179 262.928 315.512 263.728 330.846 257.061L341.246 252.528L345.646 256.794C355.646 266.261 374.979 266.928 384.046 258.128C391.912 250.661 391.912 242.794 384.046 230.794C378.179 221.728 377.912 219.728 382.179 215.061C386.312 210.661 390.312 209.061 393.112 210.794C394.712 211.861 394.446 212.794 392.046 216.928C390.579 219.594 389.512 222.394 389.912 223.061C391.112 224.794 398.846 224.528 401.246 222.528C405.112 219.461 406.979 214.128 405.379 211.194C401.246 203.328 389.246 201.994 377.912 207.994Z" fill="#BDFF00"/>
<path d="M443.779 285.461C441.913 286.928 437.246 292.795 433.379 298.661L426.579 309.195L415.779 311.995C403.246 315.461 389.646 321.861 386.179 325.995C382.313 330.528 385.513 330.261 396.179 325.061C404.313 321.195 421.246 315.728 422.046 316.661C422.179 316.795 418.179 323.995 413.246 332.795C402.979 350.795 397.246 357.861 387.113 365.195C379.779 370.395 378.446 372.261 381.913 372.261C385.246 372.261 392.179 368.395 396.979 363.861L401.246 359.728V364.795C401.246 370.795 404.446 376.795 408.846 378.795C410.579 379.595 414.979 380.261 418.579 380.261C424.046 380.261 426.446 379.328 433.646 374.395C442.313 368.661 442.313 368.661 443.913 371.595C446.446 376.395 454.713 380.261 462.179 380.261C468.846 380.261 475.513 377.595 488.179 369.728L493.246 366.661L491.113 371.595C488.446 377.995 490.313 380.528 497.113 379.995C501.646 379.595 502.046 379.061 508.179 367.061C514.846 353.861 520.046 347.328 528.179 342.128C534.046 338.395 536.579 338.128 537.779 340.928C538.446 342.795 538.846 342.795 541.913 340.795C543.779 339.595 545.246 337.861 545.246 336.928C545.246 334.261 540.579 330.928 536.979 330.928C532.846 330.928 523.646 337.195 516.846 344.661L511.646 350.261L515.513 342.928C517.646 338.795 519.246 334.795 518.846 333.861C518.046 331.328 508.579 331.861 506.179 334.661C504.846 335.995 503.913 337.595 503.913 338.128C503.913 338.661 501.913 342.261 499.379 345.995C496.979 349.861 494.046 354.528 493.113 356.395C490.713 360.928 480.846 369.195 474.846 371.728C472.313 372.661 467.779 373.595 464.579 373.595C460.046 373.595 458.713 372.928 457.379 370.395C454.713 365.461 456.046 362.661 461.913 360.928C469.779 358.661 480.179 353.061 483.646 349.195C485.379 347.328 487.113 343.461 487.513 340.528C488.046 336.128 487.779 334.928 485.113 333.061C474.179 325.461 446.846 340.528 442.579 356.528C440.579 363.595 439.513 365.061 432.046 369.861C419.779 377.595 412.979 373.728 415.779 360.795C418.846 347.061 437.513 314.528 442.979 313.061C451.779 310.928 473.779 309.328 510.313 308.261C557.513 306.928 571.513 304.795 586.579 296.795C596.979 291.195 599.113 289.595 600.313 286.528C601.513 283.461 601.113 283.461 590.179 289.461C573.513 298.661 557.113 301.328 516.979 301.728C493.113 301.995 480.046 302.661 454.713 305.061L444.846 305.995L450.313 298.128C453.379 293.728 456.046 288.795 456.179 286.928C456.579 283.995 456.046 283.595 451.779 283.195C448.713 282.928 446.046 283.728 443.779 285.461ZM478.046 339.595C479.779 344.128 466.046 356.261 459.246 356.261C457.379 356.261 457.379 355.861 459.513 352.128C462.446 347.061 472.846 337.595 475.513 337.595C476.446 337.595 477.646 338.528 478.046 339.595Z" fill="#BDFF00"/>
<path d="M627.246 294.661C621.646 297.195 615.379 305.195 613.779 311.461C612.712 315.995 614.712 315.995 624.712 310.928C635.112 305.861 642.446 298.395 640.446 295.195C638.446 291.995 633.512 291.861 627.246 294.661Z" fill="#BDFF00"/>
<path d="M187.246 325.728C182.713 326.928 174.846 334.395 176.446 335.861C176.979 336.395 180.046 335.328 183.379 333.595C188.313 330.795 189.513 330.528 190.446 332.128C192.046 334.528 191.779 335.061 181.779 355.861C177.113 365.461 173.246 373.995 173.246 374.795C173.246 376.795 182.446 376.661 186.446 374.528C188.313 373.728 192.313 368.395 195.646 362.928C203.379 349.595 209.246 342.795 216.713 337.728C229.246 329.461 229.379 332.395 218.046 355.061L209.513 371.995L212.446 374.795C214.713 376.928 216.446 377.461 219.779 376.795C223.379 375.995 225.379 373.861 232.579 362.928C240.979 350.128 248.713 341.995 256.313 338.128C258.446 336.928 260.713 336.261 261.379 336.528C262.179 336.795 260.313 341.595 257.379 347.328C248.446 363.995 248.713 373.195 258.046 375.461C262.579 376.661 271.513 372.395 277.646 366.128L282.713 361.061L282.179 365.995C281.513 371.728 283.779 375.595 288.713 376.795C293.246 377.995 305.646 372.261 312.446 365.861C317.113 361.328 317.513 361.195 316.579 364.261C313.646 374.395 301.113 400.261 299.113 400.261C298.846 400.261 293.513 398.928 287.513 397.328C278.046 394.661 273.379 394.261 253.246 394.395C219.379 394.395 203.646 399.061 189.646 412.928C184.046 418.661 182.579 420.928 181.913 425.995C180.579 434.395 182.979 440.661 189.246 445.595C205.379 458.395 239.379 459.595 263.379 448.395C278.846 441.195 296.979 426.128 304.979 413.861C306.579 411.328 307.779 410.795 310.846 411.461C317.113 412.661 331.246 421.595 352.979 438.128C387.113 463.995 397.646 470.128 419.779 477.595C432.579 481.861 447.646 482.928 457.513 480.261C472.713 475.995 477.913 459.195 467.646 447.595C464.313 443.728 462.713 442.928 458.446 442.928C451.779 442.928 450.846 445.061 453.913 453.061C456.179 458.928 456.179 459.328 453.646 462.661C446.846 471.728 433.913 473.461 416.179 467.461C402.179 462.928 386.313 453.195 358.579 432.395C345.246 422.395 330.446 412.395 323.913 409.195L312.579 403.595L324.446 379.595C336.713 354.661 347.779 335.195 351.246 332.261C355.113 329.061 353.646 326.928 347.513 326.928C340.179 326.928 337.646 328.795 328.046 341.328C319.246 352.795 311.113 360.928 303.379 366.128C293.246 372.928 292.046 369.728 299.379 356.395C302.046 351.595 306.579 344.128 309.379 339.995C312.313 335.728 314.579 331.728 314.579 331.061C314.579 329.195 306.179 327.728 302.579 328.928C301.113 329.461 296.446 334.795 292.446 341.061C281.913 356.928 268.046 370.261 265.113 367.328C264.313 366.528 266.579 360.661 271.246 350.928C275.379 342.661 278.579 334.661 278.313 333.061C278.046 331.328 276.179 329.728 272.846 328.395C265.913 325.861 260.179 327.861 248.579 337.195C243.646 341.061 239.379 344.128 239.113 343.861C238.846 343.595 239.246 341.461 240.046 339.061C242.046 333.328 240.579 328.661 236.046 326.261C232.579 324.528 231.513 324.528 226.579 326.261C220.313 328.395 214.713 332.128 208.046 338.128C204.579 341.328 203.779 341.595 204.579 339.595C205.113 338.128 205.913 335.061 206.179 332.795C207.246 325.461 198.713 322.261 187.246 325.728ZM281.913 403.861C288.446 404.928 294.046 405.995 294.313 406.261C297.246 409.195 274.579 433.061 262.579 439.861C250.979 446.395 241.113 448.795 225.246 448.795C213.779 448.795 209.779 448.261 203.646 445.728C194.179 441.995 189.246 436.528 189.246 429.861C189.246 419.861 197.113 412.661 213.913 407.195C225.779 403.195 228.713 402.661 242.579 401.595C256.846 400.528 264.579 400.928 281.913 403.861Z" fill="#BDFF00"/>
<path d="M580.846 333.728C578.046 335.195 573.512 338.795 570.712 341.595C567.912 344.528 565.246 346.928 564.846 346.928C564.446 346.928 565.379 344.661 566.712 341.995C570.712 334.261 570.179 332.261 564.179 332.261C561.379 332.261 558.179 333.061 556.979 333.861C554.846 335.595 549.246 345.195 549.246 347.195C549.246 347.728 546.579 353.728 543.246 360.528C535.112 377.328 535.379 380.261 545.112 380.261C549.512 380.261 551.246 378.395 557.646 366.928C563.779 355.728 573.379 344.928 580.179 341.461C585.246 338.928 585.646 338.928 588.846 341.061C592.179 343.195 592.446 343.195 594.046 340.928C596.846 337.195 593.512 330.928 588.712 330.928C587.246 331.061 583.646 332.261 580.846 333.728Z" fill="#BDFF00"/>
<path d="M337.246 410.262C342.446 416.528 336.179 416.262 511.912 416.262C676.846 416.262 676.846 416.262 680.446 413.462C682.313 411.995 683.913 410.128 683.913 409.462C683.913 408.795 615.912 408.262 509.779 408.262C356.179 408.262 335.779 408.528 337.246 410.262Z" fill="#BDFF00"/>
</svg>
