<svg width="500" height="354" viewBox="0 0 500 354" fill="none" xmlns="http://www.w3.org/2000/svg">
<path d="M65.35 5.45922C61.9782 8.3494 59.2486 11.2396 59.2486 11.8818C59.2486 12.3635 62.1387 12.8452 65.8317 12.8452C70.9698 12.8452 74.3417 14.2903 82.2094 19.9101C87.6686 23.9242 124.277 59.2486 163.616 98.587L235.067 170.199L183.687 170.36C155.427 170.52 131.182 170.36 129.897 170.199C126.525 169.717 125.562 167.791 124.599 159.12C122.993 145.151 117.213 133.109 107.579 123.635C80.4432 96.6602 32.4342 96.3391 8.02826 122.993C4.17469 127.007 1.44509 130.539 1.92678 131.021C2.24791 131.342 8.67052 132.466 16.0565 133.43C30.1863 135.196 44.4766 140.495 50.8992 146.596C65.0289 159.762 66.1529 188.664 53.3076 204.078C45.6005 213.231 28.5806 219.493 9.95504 220.135L0 220.456L3.05074 224.791C10.7579 235.71 27.4566 246.949 39.8202 249.679C54.1105 252.73 77.8741 249.358 91.8433 242.132C107.579 234.104 121.387 215.318 124.277 198.298C124.759 194.766 125.723 189.949 126.044 187.38L127.007 183.044H180.957H235.067L162.01 256.101C96.3391 321.933 87.8292 329.801 77.8741 334.778C71.7726 337.829 65.1895 340.398 63.1021 340.398C57.8035 340.398 58.2852 342.004 65.6712 347.945L71.9332 353.243H112.074H152.376V348.426C152.376 343.931 152.055 343.609 146.275 343.609C138.728 343.609 123.956 336.384 119.782 330.443C117.534 327.392 116.891 324.984 117.694 321.612C118.497 318.561 138.728 297.206 181.439 254.496L243.899 191.875V240.366V289.017H233.943C220.777 289.017 213.231 285.324 210.822 277.778C209.216 272.961 208.253 272.158 203.115 271.676L197.335 271.195V294.477V317.919H202.954C207.932 317.919 208.735 317.437 209.698 313.102C210.18 310.373 212.749 306.358 215.318 304.271C219.493 300.739 221.58 300.257 232.017 300.257H243.899V311.818C243.899 331.246 237.315 339.435 219.814 341.522C210.983 342.486 206.969 345.215 206.969 350.193C206.969 353.083 208.574 353.243 250.321 353.243C292.068 353.243 293.674 353.083 293.674 350.193C293.674 345.215 289.66 342.486 280.989 341.522C270.071 340.238 264.933 337.508 260.437 330.925C257.386 326.429 256.744 323.378 256.744 312.62V299.936L269.428 300.417C280.186 301.06 282.755 301.702 286.288 304.913C288.857 307.322 290.462 310.533 290.462 313.423C290.462 317.598 290.944 317.919 296.885 317.919H303.308V294.637V271.355H296.885C291.105 271.355 290.462 271.837 290.462 275.209C290.462 277.457 288.857 281.15 286.769 283.558C283.398 287.412 281.631 288.054 269.91 288.696L256.744 289.499V240.687V191.875L319.204 254.496C353.404 288.857 381.985 318.722 382.466 320.649C383.911 327.071 378.613 334.457 369.3 339.114C364.483 341.683 358.542 343.609 356.134 343.609C349.229 343.609 346.66 345.215 346.66 349.39V353.243H388.086L429.351 353.083L435.453 347.624C438.664 344.412 441.394 341.683 441.394 341.201C441.394 340.719 438.182 340.398 434.329 340.398C428.548 340.398 425.819 339.114 417.148 332.53C411.529 328.195 375.08 292.71 336.223 253.854L265.575 183.044H319.525H373.475L375.883 195.408C381.663 224.791 396.596 240.527 425.337 248.073C451.83 254.978 476.557 248.394 492.614 230.25C496.307 226.076 499.197 222.222 499.197 221.58C499.197 220.938 493.096 219.974 485.71 219.653C455.202 217.726 438.182 202.312 438.182 176.622C438.182 163.776 441.233 155.748 449.422 147.72C457.129 139.852 472.543 133.43 484.425 133.109C487.636 132.948 492.614 132.466 495.183 131.824L500 130.861L491.811 122.511C471.901 102.601 443.963 97.7842 413.455 109.184C394.188 116.57 379.416 135.678 375.562 159.12L373.635 170.199H319.685H265.575L337.669 98.1053C412.171 23.6031 421.323 15.7354 435.453 13.3269L441.554 12.3635L435.613 6.26205L429.512 6.55651e-06H387.925H346.5L346.981 4.33527C347.463 8.3494 348.266 8.99166 355.973 9.95505C365.928 11.4001 375.883 16.2171 379.416 21.1946C380.861 23.1214 381.985 27.2961 381.985 30.3468C381.985 35.6455 377.81 40.3019 315.832 102.28L249.518 168.593L184.329 103.243C114.162 32.7553 113.841 32.4342 119.621 22.6397C122.993 16.8594 138.086 9.63392 146.596 9.63392C151.895 9.63392 152.376 9.31279 152.376 4.81696V6.55651e-06H111.914L71.2909 0.160572L65.35 5.45922ZM77.7135 121.387C116.57 140.495 123.796 193.16 91.8433 224.149C81.5671 234.265 66.7951 241.008 55.5556 241.008C46.7245 241.008 36.2877 237.476 29.544 232.177C26.3327 229.769 26.3327 229.769 30.5074 229.608C47.0456 229.448 64.5472 216.924 70.6487 200.867C73.5389 193.16 73.86 189.627 73.2177 175.819C72.2543 155.588 68.8825 146.275 59.4091 136.32C52.0231 128.773 40.7836 123.796 30.5074 123.635C26.6538 123.475 26.8144 123.154 32.4342 120.263C45.7611 113.359 61.9782 113.68 77.7135 121.387ZM464.997 119.139L474.31 122.672L464.355 124.759C451.991 127.168 446.853 129.737 440.43 136.802C430.957 146.757 426.622 160.726 426.461 181.439C426.301 197.656 429.191 207.129 436.737 215.8C443.642 223.507 451.349 227.36 463.712 228.966C468.208 229.608 471.901 230.572 471.901 231.214C471.901 231.856 468.048 234.265 463.391 236.513C446.05 245.344 425.337 240.366 407.836 223.346C380.7 196.853 382.466 150.289 411.529 128.452C428.709 115.446 447.013 112.235 464.997 119.139Z" fill="#bdff00"/>
<path d="M171.644 4.49595C171.644 8.67064 172.126 9.15234 177.585 9.31291C184.489 9.63404 186.095 11.5608 186.095 19.4285C186.095 27.7779 190.591 41.4259 196.05 50.0965C205.202 64.5473 221.419 75.6263 236.994 78.0348L243.898 78.9982V89.2744V99.5505H238.6C232.338 99.5505 228.324 96.8209 227.521 92.3251C227.2 90.2378 225.594 88.9532 222.543 88.6321L218.208 88.1504V105.813C218.208 123.635 218.208 123.635 222.062 123.635C224.631 123.635 226.397 122.511 227.039 120.424C228.645 115.125 232.659 112.396 238.439 112.396H243.898V120.906C243.898 130.058 240.848 134.875 235.389 134.875C233.462 134.875 232.659 136.32 232.659 139.692V144.509H250.321H267.983V139.692C267.983 136.159 267.18 134.875 265.093 134.875C259.794 134.875 256.744 129.576 256.744 120.745V112.396H262.203C268.304 112.396 272.8 115.768 272.8 120.585C272.8 122.832 273.924 123.635 277.617 123.635H282.434V105.973V88.311H278.259C275.209 88.311 273.764 89.4349 272.479 93.1279C271.355 96.3392 269.428 98.266 266.699 98.9083C255.941 101.156 256.744 101.798 256.744 90.0772V79.3193L266.217 77.3925C277.457 74.9841 292.55 65.6713 299.775 56.5191C306.84 47.688 312.781 34.3611 313.905 24.7272C315.671 9.63404 315.511 9.63404 322.575 9.63404C328.677 9.63404 328.998 9.31291 328.998 4.81708V0.000124753H308.927H288.857V4.81708C288.857 9.15234 289.338 9.47347 294.155 9.31291C301.863 8.99177 303.308 10.4369 303.308 18.3046C303.308 31.6315 296.243 48.3302 287.251 55.8768C283.237 59.4092 269.268 65.3502 262.845 66.4741L256.744 67.5981V39.6597C256.744 21.9976 257.386 11.2397 258.51 10.1157C259.473 9.15234 262.685 8.67064 265.735 9.15234C270.873 9.7946 271.195 9.63404 271.195 4.97765V0.000124753H250.321H229.448V4.65652C229.448 9.15234 229.929 9.47347 236.352 9.95517L243.096 10.4369L243.577 39.0175L243.898 67.5981L237.958 66.6347C226.397 64.7079 211.625 56.0374 206.005 47.688C200.385 39.4992 196.853 26.3328 197.656 16.5383C198.137 10.5974 198.298 10.4369 205.042 9.95517C211.304 9.47347 211.785 9.15234 211.785 4.65652V0.000124753H191.715H171.644V4.49595Z" fill="#bdff00"/>
</svg>
