<svg width="500" height="500" viewBox="0 0 500 500" fill="none" xmlns="http://www.w3.org/2000/svg">
<path d="M162.953 1.79938C144.872 7.7373 139.58 33.2884 153.251 47.5034L157.661 52.1817H111.797H65.7126L66.5946 40.8457C68.1381 21.0526 58.4361 12.5956 34.4018 12.5956C13.0134 12.5956 0.665435 25.731 4.19342 44.4444C6.17791 55.0607 14.5569 62.4382 27.1253 64.0576L36.1657 65.3171L35.7248 198.65L35.0633 331.984L26.6843 333.063C8.82389 335.403 -0.216561 345.479 0.00393822 362.573C0.224437 382.006 12.1314 391.363 36.1657 391.183C51.3802 391.003 59.7591 387.764 66.5946 379.667C71.0046 374.449 71.6661 371.57 71.0046 362.573C70.5636 356.635 69.2406 350.337 68.3586 348.538C66.5946 345.659 68.5791 345.479 93.2749 345.479H119.955V367.251V389.204L110.915 388.124C100.331 387.045 93.4954 382.546 93.4954 376.608C93.4954 373.189 92.3929 372.47 86.8805 372.47H80.2655V394.962V417.454H86.8805C92.3929 417.454 93.4954 416.734 93.4954 413.315C93.4954 407.377 100.331 402.879 110.915 401.799L119.955 400.72V409.537C119.955 420.153 115.766 425.731 106.725 427.35C101.654 428.25 100.11 429.51 100.11 432.928V437.247H128.775H157.44V432.928C157.44 429.51 155.897 428.25 150.825 427.35C141.785 425.731 137.595 420.153 137.595 409.537V400.72L146.636 401.799C156.779 402.879 163.394 407.018 164.496 412.776C164.937 415.475 166.922 416.734 171.332 417.094L177.285 417.634V394.962V372.29L171.332 372.83C166.922 373.189 164.937 374.449 164.496 377.148C163.394 382.906 156.779 387.045 146.636 388.124L137.595 389.204V367.251V345.479H189.412H241.23V379.667V413.855L197.13 456.5L153.251 499.325L201.54 499.865C228.22 500.045 271.879 500.045 298.339 499.865L346.628 499.325L302.749 456.68L258.87 414.035V379.847V345.479H310.687H362.504V367.072V388.664H355.007C346.187 388.664 337.147 383.266 335.162 376.968C334.06 373.729 332.296 372.47 328.327 372.47H322.814V394.962V417.454H328.327C332.296 417.454 334.06 416.194 335.162 413.135C337.147 406.658 343.321 402.879 353.464 401.799L362.504 400.72V409.537C362.504 420.153 358.315 425.731 349.274 427.35C344.203 428.25 342.659 429.51 342.659 432.928V437.247H371.324H399.989V432.928C399.989 429.51 398.445 428.25 393.594 427.35C384.113 425.731 379.923 420.693 379.482 410.796L379.041 402.159L388.743 402.339C399.327 402.519 406.604 407.377 406.604 414.035C406.604 416.554 408.147 417.454 413.219 417.454H419.834V394.962V372.47H413.219C408.147 372.47 406.604 373.369 406.604 375.888C406.604 382.366 399.327 387.224 388.302 388.124L377.939 389.204V367.251V345.479H405.722C431.52 345.479 433.505 345.659 431.741 348.538C430.638 350.337 429.756 357.535 429.756 364.732C429.756 376.608 430.197 378.048 436.151 383.086C448.94 393.882 477.163 394.242 490.834 383.806C500.977 375.888 503.182 356.275 495.024 344.04C491.275 338.282 479.589 332.883 471.21 332.883H463.933V199.01V65.3171L472.312 64.0576C485.322 62.4382 491.937 57.22 494.803 46.2438C497.89 34.368 494.142 22.6721 485.542 17.4539C477.604 12.5956 458.641 11.336 448.058 14.9348C435.269 19.2533 428.874 33.4683 433.725 47.1435L435.269 52.1817H388.964H342.88L348.172 45.704C352.582 40.4858 353.684 36.7072 353.684 28.4301C353.684 8.81692 343.1 5.83008e-06 318.845 5.83008e-06C297.016 5.83008e-06 286.652 5.93793 283.345 20.5128C281.14 30.5893 283.345 40.126 289.739 47.1435L294.37 52.1817H250.05H205.729L210.801 46.7836C217.416 39.4062 218.959 21.0526 213.888 12.7755C208.155 3.77868 198.453 5.83008e-06 181.695 0.179943C173.757 0.179943 165.378 0.899691 162.953 1.79938ZM196.027 17.094C200.217 20.3329 201.54 23.3918 201.54 28.7899C201.54 43.1849 181.915 50.3824 167.583 41.2056C159.866 36.3473 159.425 23.0319 166.701 16.7341C173.537 10.7962 188.751 10.9762 196.027 17.094ZM333.178 16.5542C336.926 19.4332 338.249 22.3122 338.249 28.2501C338.249 38.8664 330.973 44.9843 318.404 44.9843C306.056 44.9843 298.559 38.8664 298.559 28.7899C298.559 18.5335 306.056 12.5956 318.625 12.5956C325.24 12.5956 329.65 13.6752 333.178 16.5542ZM48.7342 30.0495C53.1442 34.7279 52.2622 44.4444 47.1907 48.583C41.6782 53.0814 31.5353 53.2614 24.9203 48.7629C17.8643 44.2645 18.3053 32.9285 25.3613 28.2501C31.5353 24.1116 44.5447 25.1912 48.7342 30.0495ZM476.502 28.9699C478.045 30.0495 479.368 34.5479 479.368 38.8664C479.368 44.8043 478.266 47.1435 474.517 49.3027C462.831 55.9604 448.499 50.7422 448.499 39.7661C448.499 32.9285 451.586 28.2501 457.319 26.4507C461.728 25.0113 472.753 26.4507 476.502 28.9699ZM172.875 198.83V332.883H112.238H51.6007V198.83V64.7773H112.238H172.875V198.83ZM309.584 198.83V332.883H250.05H190.515V198.83V64.7773H250.05H309.584V198.83ZM448.058 198.291L447.396 331.984L387.42 332.524L327.224 332.883V198.83V64.7773H387.861H448.499L448.058 198.291ZM52.0417 350.877C57.5541 356.275 57.1131 367.251 51.3802 373.189C47.6317 377.148 45.2062 377.868 35.9452 377.868C28.0073 377.868 24.0383 376.968 20.7308 374.269C17.4233 371.57 16.3209 368.331 16.3209 361.853C16.3209 354.296 17.2028 352.317 22.4948 349.078C30.2123 343.86 46.0882 344.939 52.0417 350.877ZM478.266 349.978C482.455 353.216 483.778 356.275 483.778 362.573C483.778 373.729 478.486 377.868 464.154 377.868C454.893 377.868 452.468 377.148 448.719 373.189C443.648 367.971 442.545 358.255 446.514 352.497C451.586 344.579 470.107 343.14 478.266 349.978ZM280.919 455.601C297.236 471.615 311.128 485.29 311.348 486.19C311.789 486.91 284.227 487.629 250.05 487.629C215.872 487.629 188.31 486.91 188.751 486.01C189.853 483.671 248.727 426.451 250.05 426.631C250.711 426.631 264.603 439.766 280.919 455.601Z" fill="#bdff00"/>
<path d="M101.213 158.165C86.8803 161.044 79.8244 167.881 77.1784 180.837C74.9734 191.453 78.7219 202.969 86.6598 209.447C92.6133 214.305 95.2593 215.025 108.489 215.564C128.996 216.464 138.477 213.225 144.21 202.969C152.589 188.034 147.297 166.981 133.847 161.403C125.909 157.985 109.812 156.365 101.213 158.165ZM124.145 172.739C134.288 177.058 135.39 195.232 125.909 200.63C118.853 204.588 104.079 204.048 98.3463 199.73C91.5108 194.512 91.5108 181.017 98.3463 175.079C103.418 170.58 116.648 169.321 124.145 172.739Z" fill="#bdff00"/>
<path d="M236.82 158.525C221.385 162.303 214.77 170.94 214.77 187.494C214.77 207.467 225.354 215.924 250.491 215.924C275.848 215.924 286.653 206.028 284.889 184.076C284.007 171.84 279.156 164.462 269.674 160.684C261.736 157.625 245.419 156.545 236.82 158.525ZM264.382 175.439C268.572 178.677 269.895 181.736 269.895 187.135C269.895 192.533 268.572 195.592 264.382 198.83C260.413 202.249 256.665 203.329 250.05 203.329C243.435 203.329 239.686 202.249 235.717 198.83C231.528 195.592 230.205 192.533 230.205 187.135C230.205 181.736 231.528 178.677 235.717 175.439C239.686 172.02 243.435 170.94 250.05 170.94C256.665 170.94 260.413 172.02 264.382 175.439Z" fill="#bdff00"/>
<path d="M376.395 158.344C359.196 161.583 351.479 170.76 351.479 187.494C351.479 207.827 363.606 216.464 390.507 215.564C404.399 215.025 407.265 214.305 412.998 209.806C421.818 202.969 425.126 191.453 422.039 179.037C419.172 167.881 411.896 161.403 398.886 158.524C388.964 156.365 386.538 156.365 376.395 158.344ZM400.871 174.719C405.501 177.778 406.604 179.937 406.604 186.775C406.604 198.111 400.65 203.329 387.42 203.329C374.411 203.329 366.914 197.391 366.914 187.134C366.914 172.739 386.538 165.542 400.871 174.719Z" fill="#bdff00"/>
</svg>
