<svg width="500" height="484" viewBox="0 0 500 484" fill="none" xmlns="http://www.w3.org/2000/svg">
<path d="M207.443 4.17821C194.837 10.8449 190.017 21.9559 190.202 43.4373C190.573 80.4742 203.92 106.03 232.469 125.104L242.851 131.956V148.252V164.733H214.116H185.382V121.215V77.6965H148.862L112.156 77.5113L108.449 69.7335C100.662 53.4373 79.5289 45.8447 53.7608 49.7336C38.1887 52.141 29.105 56.4002 21.1336 65.1039C10.5668 76.4002 8.15681 92.6964 15.2013 106.956L19.0944 115.289L15.016 118.252C8.89834 122.882 3.70764 131.77 3.70764 137.326C3.70764 140.844 5.56146 143.807 10.196 147.511L16.499 152.696L11.6791 157.696C7.97143 161.585 6.67376 165.289 5.93223 172.696C5.1907 181.215 5.74685 183.252 9.82525 187.881C14.2744 193.252 14.2744 193.252 10.9375 198.066C6.67376 203.807 3.70764 218.252 5.74685 223.622C6.67376 225.844 9.26911 228.622 11.8645 229.733L16.3136 231.77L8.15681 239.548C2.40997 245.103 0 248.992 0 252.511C0 258.437 3.70764 266.214 9.08372 271.029L12.7914 274.362L8.3422 283.251C-0.370764 300.473 0 314.547 9.26911 319.362L14.8306 322.14L11.1229 328.251C9.08372 331.399 7.41528 336.399 7.41528 338.992C7.41528 343.807 12.4206 349.918 16.3136 349.918C19.0944 349.918 19.2797 349.733 14.8306 358.251C9.63987 368.621 10.0106 375.103 16.499 381.584C20.9482 385.843 23.5435 386.955 30.2173 386.955H38.3741L37.4472 395.843C36.1495 410.288 43.9356 422.695 58.0246 428.621C73.4113 434.917 87.5004 430.473 98.0671 415.843C106.595 403.992 107.522 393.806 101.96 376.029L97.6964 362.695L104.741 355.473C111.6 348.621 112.712 348.066 122.538 348.066H133.29L132.177 358.066C129.953 378.806 138.48 388.806 158.131 388.806C178.523 388.806 186.494 380.103 184.826 359.732L183.899 348.066H213.375H242.851V376.029V404.177L232.098 403.066C213.375 401.399 206.145 395.473 203.179 378.992C201.51 369.732 196.505 370.473 192.983 380.473C189.09 391.214 189.275 431.954 193.354 441.214C197.247 450.103 201.51 450.103 203.179 441.214C206.145 424.732 213.375 418.436 231.171 416.954L242.851 416.029V433.991C242.851 458.621 238.401 466.399 222.829 470.102C213.375 472.139 212.448 472.88 213.746 476.584C215.599 481.399 229.874 484.176 252.12 483.991C267.506 483.991 275.292 483.065 280.483 480.843C288.64 477.325 289.567 472.695 282.337 471.214C263.057 467.14 258.979 461.028 257.681 435.658L256.754 416.584H264.726C280.669 416.584 289.011 423.066 293.645 439.177C296.797 449.362 299.577 450.103 303.471 441.214C307.92 431.584 308.105 386.955 304.027 378.621C300.504 371.584 294.758 370.103 294.758 376.214C294.758 378.621 293.089 383.992 291.05 388.436C286.972 397.51 276.405 403.436 264.726 403.621H257.681V375.844V348.066H287.342H317.003L315.891 358.066C313.481 378.806 321.823 388.806 342.03 388.806C362.237 388.806 370.579 378.806 368.169 358.066L367.057 348.066H377.809C387.819 348.066 388.932 348.621 395.605 355.288L402.65 362.51L398.757 374.177C392.083 393.992 394.122 407.51 405.431 419.547C413.958 428.621 421.93 431.954 432.126 431.029C451.035 429.177 465.124 412.325 462.528 395.288L461.416 386.955H469.573C485.887 386.955 493.487 373.992 485.887 358.807C483.291 353.436 482.735 350.658 484.033 350.103C488.296 348.807 493.116 342.325 493.116 338.251C493.116 336.029 491.448 331.584 489.409 328.621C484.774 321.584 484.774 320.844 490.336 319.547C500.161 317.14 501.273 301.029 492.746 283.807L487.926 274.362L491.633 270.844C502.942 260.659 502.756 248.066 491.263 238.251L483.847 231.955L488.482 229.918C491.077 228.622 494.043 225.659 494.97 223.066C497.195 216.955 494.785 204.733 489.78 198.066C486.072 193.252 486.072 193.252 490.521 188.252C497.195 180.474 496.824 166.955 489.594 158.622L484.033 152.511L490.521 147.511C499.605 140.104 499.234 133.807 488.482 122.326L480.325 113.622L485.145 108.807C491.633 102.326 493.116 86.9557 488.482 77.5113C480.696 62.141 467.719 53.2521 447.883 49.7336C421.003 45.104 400.24 52.6966 390.971 70.6595L387.449 77.6965H351.299H315.15V121.215V164.733H286.415H257.681V148.252V131.77L264.726 127.511C295.314 108.993 310.144 81.5853 310.515 43.4373C310.515 21.5856 307.364 13.2523 296.611 6.21524C282.522 -3.04398 266.023 -1.37732 255.086 10.4745L250.266 15.4745L244.334 9.73375C233.211 -1.00695 220.975 -2.8588 207.443 4.17821ZM233.767 15.8448C239.328 18.6226 246.373 30.6596 246.558 37.3262C246.558 39.3633 248.041 40.6596 249.895 40.6596C252.12 40.6596 254.9 37.5114 257.681 31.2152C266.023 13.4374 278.444 8.06709 287.898 17.8819C294.387 24.7337 297.724 33.2522 299.948 48.9929C303.285 71.4002 298.651 85.1038 281.966 100.474C276.034 105.845 266.579 112.696 260.833 115.659L250.266 121.215L238.031 114.919C223.015 107.141 208.74 93.6223 203.364 81.9557C195.207 63.9928 200.398 29.5485 213.189 17.8819C219.492 12.1411 225.61 11.5856 233.767 15.8448ZM78.4166 61.7706C87.8711 65.2891 92.5057 69.5483 96.7695 78.9928C100.106 86.4001 100.292 93.252 100.106 209.548V332.325L88.6126 343.807L77.119 355.473L81.012 360.658C87.1296 368.992 92.5057 380.473 93.618 388.251C95.8426 402.14 81.1974 420.288 67.6645 420.288C53.7608 420.288 41.1548 396.214 48.1993 383.066C51.1655 377.881 65.8107 378.066 68.5914 383.436C71.5575 388.621 68.2206 392.14 59.693 392.881C54.1316 393.251 52.6485 394.362 52.2778 397.51C51.7216 401.399 52.2778 401.769 61.1761 401.769C68.7768 401.769 71.5575 400.843 75.0798 397.14C80.4558 391.955 80.6412 389.547 76.7482 379.547C71.7429 367.14 65.2545 365.658 49.3116 373.436C40.0425 377.881 38.5595 378.251 31.515 376.029C17.7967 371.955 18.5382 360.658 33.1834 351.77C39.1156 348.066 40.7841 346.029 40.7841 341.955C40.7841 337.881 40.0425 336.955 37.6326 337.696C35.7787 338.066 31.515 338.992 28.1781 339.733C22.2459 341.029 22.0605 340.844 23.3581 335.658C24.0997 332.881 27.8073 326.77 31.8857 322.325C42.2671 310.473 41.5256 308.436 27.8073 309.733C17.0552 311.029 16.499 310.844 14.8306 306.214C11.6791 298.066 12.7914 293.251 20.0213 284.918C28.1781 275.474 33.3688 268.251 33.3688 266.214C33.3688 265.288 30.4027 264.733 26.695 264.733C16.8698 264.733 12.9767 261.955 12.9767 254.918C12.9767 246.77 16.499 242.326 28.5488 234.918C36.7057 230.103 38.9302 227.696 38.9302 223.992C38.9302 219.548 38.5595 219.363 30.588 219.918C19.8359 220.844 15.9429 217.881 17.4259 210.289C18.7236 203.807 23.9143 197.881 34.8518 190.289C46.3455 182.326 45.2332 179.548 30.588 179.548C19.2797 179.548 18.5382 179.363 18.7236 175.289C18.7236 172.511 21.5043 169.548 27.4366 165.659C36.1495 160.104 45.0479 148.993 43.9356 145.474C43.5648 144.363 38.7449 142.881 33.1834 142.326C12.7914 140.104 10.5668 133.993 26.1389 122.696C36.1495 115.659 37.818 109.919 31.3296 105.845C29.2904 104.548 26.3243 100.659 25.0266 97.326C18.909 82.8816 31.3296 67.6965 53.7608 61.7706C64.6984 58.8076 69.8891 58.8076 78.4166 61.7706ZM457.523 65.8447C478.1 76.4002 482.55 94.1779 467.904 106.585C461.972 111.4 463.27 114.733 474.578 122.882C489.965 133.993 487.74 140.844 468.275 142.511C459.748 143.252 456.782 144.178 456.411 146.585C455.669 150.474 466.978 163.067 475.32 167.511C479.954 170.104 481.993 172.326 481.993 175.289C481.993 179.363 481.252 179.548 470.129 179.548C463.455 179.548 457.708 180.289 457.152 181.215C456.596 182.141 461.787 187.326 468.461 192.881C488.296 208.622 489.223 218.807 471.056 219.918C457.894 220.659 458.265 225.103 472.354 235.474C484.403 244.548 486.813 247.325 488.482 253.437C490.15 260.103 484.96 264.733 475.134 264.733C464.568 264.733 464.753 267.14 477.359 281.214C487.74 292.881 489.223 297.14 485.701 306.214C484.033 310.844 483.477 311.029 472.724 309.733C459.006 308.436 458.265 310.473 468.646 322.325C472.724 326.77 476.432 332.696 477.174 335.658C478.286 340.473 478.1 340.658 473.281 339.733C459.006 336.584 459.748 336.584 459.748 341.955C459.748 346.029 461.416 348.251 468.09 352.325C476.803 357.881 479.213 362.325 477.544 369.362C476.803 372.51 474.207 374.547 469.017 376.029C462.158 378.066 460.675 377.881 451.776 373.436C446.4 370.658 439.726 368.436 436.946 368.436C430.272 368.436 423.413 375.658 421.93 384.362C419.52 397.14 424.34 401.769 440.097 401.769C449.366 401.769 451.035 400.658 448.439 396.029C447.327 393.621 444.546 392.51 440.468 392.51C432.682 392.51 428.974 388.621 431.94 383.436C433.423 380.473 435.648 379.547 441.766 379.547C451.405 379.547 454.186 381.955 454.186 390.473C454.001 405.288 442.507 420.288 431.199 420.288C423.042 420.288 412.661 411.214 408.582 400.658C404.504 389.918 406.543 380.473 416.368 365.288L423.042 354.918L411.734 343.621L400.425 332.14V209.177C400.425 93.0668 400.796 85.6594 403.948 78.4372C412.475 59.7336 434.906 54.3632 457.523 65.8447ZM172.035 155.104C171.478 212.881 171.108 220.103 168.142 224.548C163.692 231.4 157.204 235.289 148.306 236.4C142.744 237.14 140.89 238.251 140.89 240.844C140.89 243.437 143.486 245.103 151.457 247.325C163.692 250.844 200.954 250.103 210.779 246.029C218.009 243.066 218.566 236.955 211.336 236.955C204.106 236.955 194.095 230.844 190.017 223.807C187.236 218.992 186.124 213.252 185.753 198.622L185.011 179.548H250.266H315.52L314.964 199.548C314.408 214.733 313.481 220.844 310.886 224.548C306.437 231.4 299.948 235.289 291.05 236.4C285.488 237.14 283.635 238.251 283.635 240.659C283.635 245.844 293.645 248.437 317.189 249.363C342.215 250.474 359.641 246.955 359.641 240.844C359.641 238.251 357.787 237.14 352.226 236.4C341.845 235.103 335.912 230.659 331.649 221.585C328.497 214.363 328.126 208.622 328.126 152.141V90.6594H356.861H385.595V212.881V335.103H250.266H114.937V212.881V90.6594H143.671H172.591L172.035 155.104ZM169.254 353.992C176.484 362.51 170.552 375.844 159.243 375.844C150.901 375.844 146.823 372.881 145.34 365.658C142.559 351.029 159.429 342.696 169.254 353.992ZM353.153 354.177C360.012 363.807 353.709 375.844 342.03 375.844C330.166 375.844 324.048 363.807 330.907 354.177C335.727 347.51 348.518 347.51 353.153 354.177Z" fill="#bdff00"/>
</svg>
