<svg width="500" height="322" viewBox="0 0 500 322" fill="none" xmlns="http://www.w3.org/2000/svg">
<path d="M35.8155 1.93974C21.503 3.70315 14.2584 7.22996 9.31082 14.4599C-2.35122 31.2122 -3.05801 48.4936 7.19045 59.4267C12.4914 65.0696 27.6874 70.3598 42.1766 71.5942L54.5454 72.8286V155.356V237.707L48.5377 239.823C35.2854 244.055 22.7398 265.921 25.3903 279.852C28.3942 295.723 43.9435 317.236 55.4289 320.94C69.388 325.524 85.2908 314.768 89.8849 297.839C92.182 289.551 89.3548 281.968 81.2267 274.209C73.2753 266.803 63.2036 266.803 56.3124 274.562C53.4852 277.736 50.8348 283.203 50.128 287.435C48.7144 295.723 48.5377 295.37 54.7221 296.781C58.9628 297.839 59.4929 297.486 60.9065 290.433C62.4968 283.379 62.8502 283.026 68.6812 283.026C74.5122 283.026 74.8656 283.379 75.3957 289.727C75.7491 293.959 74.8656 298.192 73.0986 301.013C70.2715 305.069 69.2113 305.422 61.6133 304.54C50.6581 303.305 38.996 297.31 36.5222 291.843C34.0485 286.553 36.6989 276.325 43.4135 264.863C51.7182 250.756 61.79 246.7 70.9783 253.93C73.452 255.87 79.8132 263.629 85.1141 271.212C95.3625 285.495 111.265 302.247 121.867 309.301C131.586 316.002 141.127 319.352 152.613 320.234C161.271 320.94 164.275 320.587 169.045 317.413C176.29 313.004 181.061 302.6 182.828 287.964C184.595 271.741 182.828 265.392 175.937 262.571C168.339 259.22 150.492 259.749 143.601 263.276C132.646 268.919 131.762 289.022 142.541 289.198C143.601 289.198 144.661 287.964 144.661 286.553C144.661 285.142 146.075 281.263 147.665 277.736C150.315 272.27 151.376 271.564 157.383 271.564C169.929 271.564 174.7 282.145 168.162 295.723C164.805 302.776 156.5 308.596 149.962 308.596C142.364 308.596 134.589 302.247 119.57 283.555C96.7761 255.694 86.7044 245.466 76.8093 240.881L67.7977 236.649L68.3278 154.474L68.6812 72.2996H94.3024H119.924V129.434V186.568L114.623 188.684C98.8965 195.209 96.0693 220.425 109.675 231.888C114.799 236.296 116.39 236.649 128.052 235.943C146.251 235.062 152.082 229.066 151.906 211.256C151.906 200.499 147.842 192.74 140.244 189.213C134.413 186.392 134.059 185.686 134.059 177.751V169.287H165.865H197.67V177.575C197.67 185.51 197.317 186.215 190.956 189.566C181.944 194.503 177.704 202.968 178.941 214.606C180.354 230.653 186.892 236.296 204.385 236.296C221.878 236.296 229.653 229.243 229.829 213.196C230.006 201.028 225.942 192.916 217.991 189.213C212.16 186.392 211.806 185.686 211.806 177.751V169.287H249.796H287.786V177.751C287.786 185.51 287.433 186.392 281.425 189.566C272.414 194.327 269.586 200.852 270.47 214.606C271 223.952 272.06 226.597 275.947 230.653C280.188 234.709 282.485 235.414 293.617 235.943C305.456 236.649 307.046 236.296 312.17 231.888C321.535 223.952 323.833 206.847 316.941 196.443C315.351 193.974 311.287 190.8 308.106 189.213C302.275 186.392 301.922 185.686 301.922 177.751V169.287H333.728H365.533V177.927C365.533 185.863 365.18 186.744 360.232 188.684C351.574 192.211 347.333 199.97 347.333 211.961C347.333 229.243 354.931 236.296 373.838 236.296C383.38 236.296 385.677 235.591 390.271 231.359C403.346 219.896 400.166 195.032 384.97 188.684L379.669 186.568V129.434V72.2996H405.29H430.911V156.59V240.881L422.606 244.937C412.888 249.522 405.29 255.341 386.737 271.564C359.879 295.194 339.029 308.596 329.31 308.596C326.483 308.596 321.889 305.951 316.765 301.189C310.227 295.194 308.99 292.901 309.343 288.493C309.873 283.203 315.174 278.794 324.716 275.973C328.957 274.738 328.957 274.738 328.073 286.377C327.19 296.428 327.543 298.015 330.017 298.015C331.607 298.015 335.671 295.37 338.852 292.02C343.976 286.729 344.506 285.495 343.269 279.323C341.502 269.801 334.081 262.747 325.6 262.747C308.46 262.747 293.087 272.975 293.087 284.613C293.087 295.37 303.159 311.593 312.877 316.707C326.483 323.761 351.574 315.297 369.421 297.839C387.62 280.029 425.08 254.988 435.329 253.93C443.81 253.048 448.758 254.283 453.882 258.691C460.773 264.334 463.07 269.977 462.894 280.734C462.894 296.781 453.882 306.832 439.393 306.832C432.148 306.832 429.851 305.951 425.434 301.718C419.249 295.37 418.896 290.609 424.727 286.729C427.024 285.142 429.321 283.908 429.851 283.908C430.381 283.908 431.265 287.435 431.795 291.667C433.032 298.897 433.208 299.25 437.626 298.192C444.517 296.252 446.461 289.551 442.22 281.087C438.863 274.209 438.863 274.209 429.144 274.738C410.061 275.796 401.579 283.555 403.7 298.015C406.527 318.823 421.016 325.172 449.288 318.118C463.424 314.591 473.142 309.125 477.206 302.247C479.856 297.663 480.033 295.37 478.443 285.671C474.909 263.982 464.837 248.816 449.995 242.468L443.28 239.823V156.238V72.4759L452.645 70.5362C474.379 66.1276 480.917 62.9535 490.635 52.5494L500 42.6744L497.88 28.2145L495.583 13.7546L486.041 6.87728L476.323 7.12713e-07H454.765C425.964 7.12713e-07 416.775 1.23438 416.775 5.46655C416.775 11.8148 418.896 14.1072 424.904 14.1072H430.911V37.0315V59.9557H405.113H379.139L380.376 50.6097C381.966 38.2659 391.331 19.5738 398.576 14.9889C403.7 11.8148 407.587 4.40851 405.467 2.29243C404.937 1.7634 393.805 0.881703 380.729 0.352681C345.566 -0.881701 339.029 2.99779 353.341 16.7523C362.883 25.922 365.533 32.623 365.533 47.6119V59.9557H333.728H301.922V53.2548C301.922 36.3261 313.231 20.2791 328.25 15.6943C335.141 13.5782 338.145 9.52238 336.201 4.40851C335.141 1.7634 292.204 -1.23438 282.309 0.705362C261.282 4.76119 259.515 5.46655 259.515 9.69872C259.515 12.6965 260.751 13.9309 264.992 14.8126C273.297 16.3997 282.485 21.3372 285.312 25.5694C286.726 27.8618 288.14 35.6208 288.493 44.6141L289.376 59.9557H250.503H211.806V44.0851C211.806 29.2725 212.16 27.6854 216.224 23.9823C218.697 21.6899 225.942 18.3394 232.303 16.576C241.138 14.2836 244.495 12.5202 245.909 9.34604C246.792 7.05362 247.322 4.93753 246.969 4.58485C245.379 2.99779 215.87 7.12713e-07 201.558 7.12713e-07C193.43 7.12713e-07 183.358 0.881703 178.941 1.93974C172.049 3.70315 171.166 4.58485 171.166 8.81702C171.166 13.0492 172.226 14.1072 178.587 16.2233C183.005 17.8104 187.952 21.3372 191.309 25.2167C195.903 30.8596 196.61 33.5047 197.317 45.8485L198.201 59.9557H166.042H134.059V50.6097C134.059 32.2703 142.541 17.634 154.91 14.8126C159.857 13.5782 165.865 9.34604 165.865 7.05362C165.865 5.64289 155.086 2.64511 145.545 1.23438C142.717 0.705362 130.702 0.881703 119.217 1.7634C101.9 2.82145 97.6596 3.70315 95.7159 6.34825C92.5354 10.7568 92.5354 10.9331 100.487 15.8706C112.326 23.1006 119.924 37.7368 119.924 53.2548V59.9557H94.3024H68.6812V37.0315V14.1072H78.3996C87.2345 14.1072 88.1179 13.7546 89.1781 9.52238C89.8849 7.05362 89.7082 4.40851 88.8247 3.52681C86.7044 1.7634 47.1241 0.352681 35.8155 1.93974ZM54.5454 37.0315C54.5454 63.3062 56.1357 61.5428 36.5222 58.1923C8.78073 53.7838 2.59631 41.7927 17.6156 21.5135L23.0932 14.1072H38.8193H54.5454V37.0315ZM468.371 18.3394C476.676 22.3952 482.154 30.8596 482.154 39.8529V46.7302L466.604 53.4311C458.123 56.9579 449.465 59.9557 447.344 59.9557C443.28 59.9557 443.28 59.6031 443.28 36.8551V13.7546L452.645 14.4599C457.593 14.8126 464.837 16.576 468.371 18.3394ZM197.67 114.621V156.943H165.865H134.059V114.621V72.2996H165.865H197.67V114.621ZM287.786 114.621V156.943H249.796H211.806V114.621V72.2996H249.796H287.786V114.621ZM365.533 114.621V156.943H333.728H301.922V114.621V72.2996H333.728H365.533V114.621ZM136.356 202.262C140.42 206.142 140.244 216.017 135.826 220.425C132.116 224.129 122.751 225.187 118.51 222.365C115.329 220.425 113.032 209.669 114.799 204.908C117.626 197.501 129.288 196.091 136.356 202.262ZM214.103 202.262C217.814 205.789 217.991 214.783 214.28 220.073C210.746 225.187 199.614 225.539 195.197 220.602C190.426 215.312 192.016 202.615 197.67 199.794C202.618 197.149 209.509 198.207 214.103 202.262ZM305.103 202.439C308.106 206.318 307.753 216.899 304.219 220.778C300.685 224.834 290.083 225.01 285.666 220.955C282.485 217.957 281.248 207.376 283.899 203.32C287.61 197.501 300.685 196.972 305.103 202.439ZM378.785 199.265C382.143 199.265 385.5 205.966 385.323 212.137C385.147 219.191 380.376 223.952 373.661 223.952C365.003 223.952 360.232 219.544 360.232 211.961C360.232 208.434 360.939 204.555 361.646 203.32C363.413 200.499 371.187 197.501 374.015 198.559C375.428 198.912 377.549 199.265 378.785 199.265Z" fill="#bdff00"/>
</svg>
