<svg width="500" height="492" viewBox="0 0 500 492" fill="none" xmlns="http://www.w3.org/2000/svg">
<path d="M161.419 3.60568C134.212 8.89788 128.922 11.544 121.365 24.3965C113.24 38.194 110.406 52.5585 113.24 64.466C115.319 73.5383 115.319 74.6723 111.729 78.6415C105.872 84.8787 101.337 94.7071 101.715 100.377C101.904 103.212 102.093 108.694 101.904 112.474L101.715 119.656H80.9323H60.3383L57.5042 114.175C47.8685 95.8411 22.929 91.494 7.62518 105.481C1.01243 111.34 0.63456 112.474 0.0677526 125.704C-0.876926 149.33 8.00306 159.348 30.1085 159.348C42.7672 159.348 51.6472 154.244 57.3153 143.66L61.094 136.667H102.282C138.558 136.667 143.281 137.045 143.281 139.691C143.281 142.337 124.199 219.263 118.719 239.109C116.641 246.291 116.641 246.291 106.816 246.291C85.2778 246.291 62.9834 236.84 58.071 225.689C55.6149 220.019 51.2694 216.806 49.1911 218.885C47.6796 220.397 46.1681 285.226 47.4906 288.628C49.1911 293.165 55.6149 289.951 58.8268 282.958C64.8727 270.484 83.5774 261.411 103.605 261.411C109.462 261.411 111.162 262.167 111.162 264.624C111.162 276.343 94.3467 364.042 83.5774 408.837C77.1536 435.676 76.5868 437.188 71.8634 438.322C61.6608 440.779 56.7485 444.559 53.7255 452.687C49.0021 464.405 51.0804 477.635 59.2047 485.763C64.8727 491.433 66.3842 492 77.5314 492C97.9365 492 105.494 484.629 105.494 464.972C105.494 455.144 102.849 449.095 95.6693 442.858C92.6463 440.212 93.0242 438.133 99.8259 408.837C103.982 391.637 109.462 366.121 112.107 352.135C114.752 338.148 117.775 322.461 118.908 317.357C120.042 312.443 122.498 297.512 124.199 284.281L127.222 260.466L182.58 259.899L237.749 259.521V294.488V329.454H190.893H143.848L137.424 320.004C132.89 313.199 129.867 310.553 127.222 310.931C123.632 311.498 123.443 312.821 123.821 335.124C124.199 370.09 129.489 378.974 138.369 358.939C145.548 342.495 145.17 342.684 194.672 342.684H237.749V365.365V388.046H204.118H170.488L165.576 382.754C163.119 379.919 158.963 374.816 156.696 371.602C154.428 368.2 151.594 365.365 150.65 365.365C149.705 365.365 148.949 378.596 148.949 396.551C148.949 426.415 149.138 427.738 152.728 427.738C154.995 427.738 157.64 425.47 159.53 421.5C161.23 418.287 164.631 412.617 167.276 409.404L171.81 403.167H204.874H237.749V427.171V451.363L217.533 450.985C206.197 450.796 195.427 450.607 193.538 450.418C191.46 450.418 186.17 446.638 181.635 441.913C168.787 428.305 167.843 429.439 167.843 457.79C167.843 471.398 168.598 482.739 169.543 483.306C170.488 483.873 173.7 481.605 176.723 478.202C189.192 464.594 184.658 465.35 241.717 465.35H293.296L303.877 475.934C316.346 488.22 316.346 488.22 318.991 465.539C320.881 449.473 318.425 433.786 313.89 432.085C312.001 431.329 309.545 432.841 306.9 436.432C297.264 449.851 295.752 450.418 273.458 450.418H252.864V426.793V403.167H279.315H305.766L314.268 410.916C318.802 415.074 323.148 420.177 323.715 422.256C325.415 427.549 332.028 426.793 334.106 420.933C338.452 409.404 335.051 367.066 329.572 367.255C328.438 367.444 325.793 370.09 323.715 373.493C321.636 376.706 317.102 381.431 313.512 383.699C307.655 387.668 305.01 388.046 280.071 388.046H252.864V365.365V342.684H290.651C314.646 342.684 329.95 343.44 332.973 344.763C338.263 347.221 342.797 355.348 345.065 366.499C346.009 371.602 347.521 373.871 349.788 373.871C351.488 373.871 353 373.304 353 372.359C353 371.602 353 358.183 353 342.684V314.333H348.465C345.253 314.333 342.608 316.223 339.963 320.76C337.696 324.351 334.673 327.753 332.973 328.32C331.272 328.887 312.568 329.454 291.407 329.454H252.864V294.488V259.521L304.254 259.899L355.645 260.466L375.861 350.623L396.266 440.968L390.787 446.26C380.584 456.656 380.962 474.989 391.732 485.763C397.4 491.433 398.911 492 409.492 492C423.284 492 431.03 488.598 435.187 480.66C438.777 473.666 438.777 455.711 435.187 448.717C432.353 442.858 422.15 437.188 414.971 437.188C410.436 437.188 410.058 436.054 393.054 352.513C383.419 306.017 375.672 266.893 375.672 265.57C375.672 263.868 380.773 263.301 395.133 263.301H414.404L423.473 271.051C428.385 275.209 432.353 280.312 432.353 282.013C432.353 289.573 436.509 297.323 440.477 297.323C444.256 297.323 444.256 296.756 443.122 257.442C442.555 235.517 441.8 217.184 441.233 216.806C439.343 214.916 434.62 218.507 431.975 224.177C430.275 227.579 426.307 233.816 423.095 238.163L417.238 246.291H392.865H368.493L364.336 227.768C362.069 217.751 356.212 193.18 351.299 173.145L342.419 136.856L389.464 136.289C415.349 135.911 437.076 136.1 438.021 136.667C438.777 137.234 440.855 140.447 442.555 143.849C447.279 153.11 455.781 157.457 468.817 157.457C489.223 157.457 497.725 149.897 499.803 130.24C501.126 117.577 495.646 104.157 487.711 100.188C468.629 90.5489 445.578 97.7312 439.721 115.309L437.643 121.546H403.824C365.47 121.546 368.304 123.058 371.893 104.724C373.594 95.6521 373.216 93.9511 368.304 83.9337L362.636 72.9713L366.414 66.9231C369.815 61.4419 370.004 59.7408 367.926 49.5344C365.281 35.7369 357.534 23.0734 347.899 16.8362C336.751 9.4649 313.512 3.9837 293.485 3.9837C271.946 4.1727 266.089 6.06278 266.089 13.6231C266.089 20.4273 269.49 21.5614 286.872 20.0493C299.531 18.9153 299.909 19.1043 300.854 23.4514C301.42 25.9085 304.632 39.895 307.655 54.4486C312.945 78.8305 321.448 111.907 323.904 118.711C324.848 121.168 315.213 121.546 243.417 121.546H161.797L163.119 113.419C167.276 88.4699 179.557 20.4273 180.124 19.4823C180.69 18.7263 187.114 17.4032 194.483 16.8362C211.487 15.1351 213.187 14.3791 213.187 9.08689C213.187 5.68476 211.676 4.1727 207.141 2.66065C194.483 -1.11949 185.414 -0.930487 161.419 3.60568ZM160.096 34.9809C158.018 44.6202 155.562 55.3936 154.428 58.6067C152.539 64.655 151.972 64.844 142.336 64.844C136.857 64.844 131 64.277 129.3 63.7099C123.443 61.4419 126.655 34.2248 133.456 26.4755C136.668 22.8844 150.839 17.9702 158.585 17.7812L163.497 17.5922L160.096 34.9809ZM333.162 26.8536C350.544 35.1699 356.59 44.2422 353 56.9057C350.166 66.9231 349.221 68.0571 339.585 69.3802C331.083 70.7032 330.516 70.5142 326.738 64.277C322.959 58.0397 318.802 44.2422 316.157 29.3106C315.024 22.3174 315.402 21.3723 318.425 21.3723C320.314 21.3723 326.927 23.8294 333.162 26.8536ZM146.682 84.8787C149.516 85.6348 149.516 92.628 146.871 104.157C144.226 115.12 142.336 117.01 133.456 118.522C127.41 119.656 126.088 119.089 123.632 115.309C121.931 112.852 120.042 106.804 119.475 101.889C118.342 93.9511 118.719 92.439 123.443 87.5248C128.166 82.6106 129.678 82.0436 136.479 82.9887C140.825 83.5557 145.359 84.3117 146.682 84.8787ZM357.534 89.7929C361.124 94.8961 361.502 104.535 358.29 108.694C355.834 111.718 343.742 119.656 341.475 119.656C339.396 119.656 332.217 95.6521 332.217 88.4699C332.217 87.5248 339.774 86.2018 347.71 85.8238C353 85.6348 355.456 86.7688 357.534 89.7929ZM481.476 113.986C486.577 119.089 487.9 125.893 485.255 133.832C482.61 141.581 478.642 144.227 469.195 144.227C459.749 144.227 455.781 141.581 453.136 133.832C450.302 125.515 453.325 115.309 459.371 112.474C466.361 109.072 477.32 109.828 481.476 113.986ZM42.7672 115.876C45.9792 118.9 46.9238 121.924 46.9238 129.106C46.9238 136.856 46.1681 138.935 42.0115 142.148C35.7766 147.062 24.2515 147.44 18.5835 142.715C15.7494 140.447 14.049 136.478 13.4822 130.618C12.5375 123.058 13.1043 121.168 17.2609 117.01C23.6847 110.584 36.5324 110.206 42.7672 115.876ZM339.774 190.534L352.433 245.346L311.812 245.913C289.517 246.102 270.813 246.102 270.435 245.724C270.057 245.346 271.002 242.511 272.702 239.487C276.67 231.926 276.292 216.428 272.135 208.678C262.877 191.29 230.381 190.345 218.1 206.977C212.998 213.971 212.621 233.816 217.533 241.188L220.745 246.291H175.778H130.622L136.668 219.263C143.281 190.345 151.027 159.726 155.184 146.117L157.64 137.612L197.128 136.667C219.044 136.1 257.209 135.533 282.149 135.722H327.305L339.774 190.534ZM256.643 211.891C259.477 214.16 261.177 218.129 261.744 223.988C262.689 231.548 262.122 233.438 257.965 237.596C252.675 242.889 240.961 244.401 233.97 240.621C229.436 238.163 225.846 227.39 227.546 220.964C230.192 209.812 247.385 204.52 256.643 211.891ZM85.2778 452.498C90.9459 455.522 92.2684 457.79 92.2684 465.917C92.2684 476.69 81.4991 482.172 71.2966 476.69C62.7944 472.154 62.9834 457.223 71.6744 452.876C77.3425 449.851 80.1765 449.851 85.2778 452.498ZM417.805 452.498C423.473 455.522 424.795 457.79 424.795 464.972C424.795 477.824 410.247 483.306 401.178 474.044C389.653 462.704 403.257 444.937 417.805 452.498Z" fill="#bdff00"/>
</svg>
