<svg width="378" height="500" viewBox="0 0 378 500" fill="none" xmlns="http://www.w3.org/2000/svg">
<path d="M206.189 5.41924C205.533 8.37519 205.041 13.7944 204.877 17.5715C204.877 21.1843 203.892 27.5889 202.908 31.6944C201.104 38.5916 200.448 39.2484 193.558 40.8906L186.177 42.6971L182.568 35.143C178.631 27.0962 177.811 16.4219 180.272 7.38987C182.404 0.328438 180.436 0.821097 172.562 9.36051C165.345 17.243 162.392 25.1256 162.392 36.7852C162.392 45.4888 165.017 48.9374 178.303 57.4768L187.161 63.2245L186.177 69.9575C185.521 73.7345 183.88 78.9895 182.568 81.4528L180.272 86.051L175.351 82.4382C167.805 77.1831 162.556 67.8226 160.752 57.1484C159.932 51.8933 159.44 47.131 159.932 46.6383C160.26 45.9814 159.932 44.5035 159.112 43.1897C157.963 41.3833 157.143 41.3833 153.534 43.6824C148.613 46.9668 146.645 56.9841 148.285 69.7933C150.582 86.2152 159.932 99.0243 175.187 106.25L185.193 111.012L185.685 131.704C186.013 143.035 186.013 154.038 185.685 156.008L185.193 159.786H146.645H108.261L81.5242 139.094C66.9253 127.599 54.7869 118.074 54.4588 117.91C54.1307 117.581 55.1149 114.954 56.5912 111.998C58.7236 108.221 59.2157 103.787 58.7236 95.5757C58.0675 82.7666 54.7869 76.8547 45.7651 72.4208C38.2196 68.4795 20.8321 68.4795 13.2866 72.4208C3.77275 77.1831 0.984195 82.7666 0.328065 97.0537C-0.328065 113.147 2.62452 119.552 13.1226 124.971C19.5199 128.255 22.1444 128.748 32.3144 128.091C43.1406 127.27 44.2888 127.434 47.8975 131.376C49.8659 133.675 59.8719 141.557 69.7138 149.111C79.7198 156.501 89.7258 164.712 91.8582 167.34L95.959 172.266L95.4669 213.65L94.9748 255.033H62.3324H29.5259V285.413V315.794H62.3324H95.1389V331.231V346.831L86.7732 357.177C82.0163 362.925 71.3541 374.585 62.6604 383.288L47.0773 399.217L41.3362 396.754C33.1346 393.306 16.2392 394.455 10.334 398.889C3.28065 404.144 0 412.027 0 424.179C0 436.331 3.28065 444.214 10.334 449.469C16.8953 454.231 37.7275 455.216 45.7651 450.947C55.607 445.692 58.2315 440.437 58.0675 426.149C57.9035 419.252 57.4114 412.027 57.2473 410.22C56.7553 407.757 61.5122 402.338 75.9471 389.2L95.1389 371.464L95.3029 378.526C95.3029 382.467 95.3029 394.291 95.1389 404.965L94.9748 424.179H128.109H161.244L157.799 427.956C145.169 441.422 146.645 472.459 160.588 486.418C166.493 492.33 178.959 498.078 185.685 498.078C188.473 498.078 188.309 497.585 184.537 491.837C179.452 484.447 173.874 467.04 173.874 458.829C174.039 449.961 178.959 440.437 187.817 432.718C192.082 428.941 196.183 425.821 196.675 425.821C198.971 425.821 211.438 440.108 214.719 446.348C220.296 456.858 219.311 464.084 209.962 482.641C205.533 491.509 201.76 499.063 201.76 499.227C201.76 501.198 217.999 499.063 222.92 496.6C242.768 486.418 249.986 462.935 239.816 441.422C237.191 436.003 233.91 430.583 232.434 429.27C230.794 428.12 229.646 426.478 229.646 425.657C229.646 424.836 242.932 424.179 259.335 424.179H288.861L288.369 401.188C288.041 388.543 288.205 378.197 288.697 378.197C289.189 378.197 296.735 385.423 305.593 394.291C320.848 409.728 321.504 410.713 319.863 414.983C316.255 424.671 318.879 434.853 327.901 444.378C334.134 451.275 340.039 453.738 349.717 453.738C365.3 453.738 375.142 445.856 377.275 431.404C381.048 406.607 357.591 387.722 334.954 397.247L328.885 399.71L308.053 378.362L287.057 357.013V336.486V315.794H320.684H354.31L353.982 285.742L353.49 255.854L320.356 255.361L287.057 255.033V213.485V172.102L308.381 149.111C325.112 131.047 330.526 126.285 333.314 126.613C354.31 129.076 353.982 129.076 361.692 124.643C376.619 115.775 382.196 98.5317 374.65 83.2593C369.565 73.0776 364.316 70.2859 350.209 70.2859C339.219 70.2859 337.579 70.7786 331.838 75.3767C321.012 83.9161 314.614 102.473 319.863 110.52C321.012 112.49 316.255 118.074 298.047 136.302L274.754 159.786H236.699H198.479V135.317V110.848L206.681 108.056C216.359 104.772 229.974 93.1124 234.895 83.5877C239.323 75.0483 239.487 61.9107 235.059 50.5796C232.926 44.6677 230.958 42.2044 228.497 41.876C225.709 41.3833 224.561 42.3686 223.904 45.9814C218.983 70.1217 214.555 79.1538 205.697 83.4235C196.839 87.529 195.199 86.051 195.199 73.8987V63.3887L202.416 60.597C206.517 58.9548 212.422 54.8493 215.867 51.0722C221.772 44.3392 221.936 44.3392 220.788 33.5008C219.476 18.3926 217.015 11.0027 211.766 5.0908L207.173 -4.96366e-07L206.189 5.41924ZM42.8125 85.7225C46.7493 89.828 47.5694 91.9629 47.5694 98.8601C47.5694 109.534 42.9765 115.282 33.2986 116.596C16.4033 118.895 6.23324 104.279 14.1068 89.0069C17.0594 83.2593 21.1602 81.1244 30.8381 81.1244C36.5793 80.9602 38.8757 81.9455 42.8125 85.7225ZM361.036 85.7225C364.972 89.828 365.793 91.9629 365.793 98.8601C365.793 110.027 361.2 115.446 350.866 116.596C335.611 118.402 326.753 107.4 331.182 92.4555C333.478 84.573 339.055 81.1244 349.061 80.9602C354.802 80.9602 357.099 81.9455 361.036 85.7225ZM185.357 222.846V274.411L181.42 275.396C176.171 276.71 167.805 283.935 164.853 289.683C161.408 296.252 161.736 311.853 165.673 320.392C169.61 329.096 178.631 333.694 191.754 333.858C210.454 333.858 221.444 323.184 221.444 304.627C221.444 290.668 215.539 280.651 204.385 276.217C201.596 275.068 198.971 273.59 198.479 272.933C197.987 272.276 197.823 249.121 198.151 221.532L198.643 171.281H237.027H275.575V219.726V268.17H296.899H318.223V286.235V304.299H296.899H275.575V340.427V376.555H192.082H108.754L107.769 366.209C107.277 360.626 107.277 344.368 107.769 330.081L108.754 304.299H87.2653H65.613V286.235V268.17H86.9372H108.261V219.726V171.281H146.809H185.357V222.846ZM53.8027 285.742L53.3106 303.478H47.5694H41.8283L41.3362 285.742L40.8441 268.17H47.5694H54.2948L53.8027 285.742ZM342.5 285.742L342.008 303.478H336.267H330.526L330.033 285.742L329.541 268.17H336.267H342.992L342.5 285.742ZM205.205 290.997C208.977 294.774 209.962 297.237 209.962 302.656C209.962 314.152 205.369 319.735 194.871 321.542C187.325 322.855 178.303 318.914 175.679 313.166C172.398 305.941 173.382 296.909 178.139 291.325C181.912 286.727 183.388 286.235 191.426 286.235C199.135 286.235 201.104 286.891 205.205 290.997ZM275.575 400.367V412.683H191.918H108.261V400.367V388.051H191.918H275.575V400.367ZM42.8125 410.877C46.7493 414.983 47.5694 417.117 47.5694 424.015C47.5694 435.182 42.9765 440.601 32.6425 441.75C18.3716 443.392 10.006 434.689 11.9744 420.402C13.2866 410.713 19.0278 406.115 29.6899 406.115C36.5793 406.115 38.7117 406.936 42.8125 410.877ZM361.036 410.877C364.972 414.983 365.793 417.117 365.793 424.015C365.793 435.182 361.2 440.601 350.866 441.75C340.203 442.9 333.642 439.287 331.182 430.583C329.377 425 329.541 422.701 331.51 417.117C334.134 409.071 339.055 406.115 349.061 406.115C354.802 406.115 357.099 407.1 361.036 410.877ZM175.515 427.299C175.515 428.284 174.859 429.27 174.039 429.762C168.953 432.882 164.525 470.489 167.805 482.313C168.953 486.746 168.953 486.911 166.493 484.94C161.408 480.67 159.112 473.773 159.112 462.278C159.112 448.319 162.72 435.838 168.297 430.091C172.726 425.657 175.515 424.671 175.515 427.299ZM227.349 438.137C234.567 453.246 231.614 481.984 222.592 486.746C219.64 488.389 219.476 488.224 220.296 483.79C223.74 466.383 222.92 439.451 218.655 427.956C216.195 421.387 223.576 429.927 227.349 438.137Z" fill="#bdff00"/>
</svg>
