<svg width="500" height="345" viewBox="0 0 500 345" fill="none" xmlns="http://www.w3.org/2000/svg">
<path d="M239.868 2.92782C231.47 7.12666 227.775 15.1884 228.615 27.617C228.951 33.1595 229.79 39.0378 230.63 40.5494C231.638 43.2367 230.63 43.5726 220.552 43.5726C209.802 43.5726 209.466 43.4046 210.642 39.7096C212.826 32.8235 211.65 19.5552 208.291 15.1884C203.587 8.80619 198.212 6.6228 187.295 6.6228C176.041 6.6228 169.322 9.47801 165.963 16.0282C163.275 20.8988 162.603 35.8467 164.955 40.5494C166.131 43.4046 164.787 43.5726 147.486 43.5726C130.185 43.5726 128.674 43.4046 129.85 40.5494C131.865 35.8467 132.201 24.9297 130.353 19.7232C129.514 17.2039 126.49 13.173 123.635 10.8216C119.436 7.29461 116.916 6.6228 108.35 6.6228C96.256 6.6228 88.0255 10.6537 85.1701 18.0436C83.1545 23.0822 82.8185 34.839 84.4982 40.0455C85.506 43.4046 84.8342 43.5726 71.9006 43.5726C58.4632 43.5726 58.2952 43.5726 59.471 39.7096C61.8226 32.4876 60.6468 19.8911 57.2874 15.1884C51.9125 8.13438 47.0414 6.45485 34.2758 6.95871C23.8618 7.46257 22.3501 8.13438 18.1509 12.8371C12.272 19.3873 10.4244 28.9606 13.6158 38.0301C15.9673 44.7482 15.9673 44.7482 10.4244 48.4432C-4.35678 58.6884 -3.18101 87.4084 12.44 94.7984C18.4868 97.6536 34.2758 97.8216 40.3227 94.9664C42.8422 93.7907 43.1781 99.3331 43.682 167.354C44.3539 235.879 44.6898 241.758 48.0492 253.85C55.4398 280.555 67.8694 296.511 95.4161 314.818C114.732 327.414 119.268 329.094 135.225 329.094C175.201 329.094 207.115 310.619 224.415 277.532C232.142 262.584 239.197 240.246 240.708 225.466C241.212 220.092 242.052 213.038 242.388 209.847C242.724 206.655 243.06 179.111 243.06 148.879C243.228 94.9664 243.228 93.9586 246.419 95.6382C248.267 96.4779 252.466 97.3177 255.825 97.3177C260.025 97.3177 262.208 98.1575 262.88 100.173C266.575 110.418 280.349 141.489 288.915 159.125L298.993 179.951L282.7 226.306C257.169 298.526 260.864 290.464 252.97 290.464C237.685 290.464 228.111 300.877 228.279 317.337C228.447 338.331 242.052 348.576 264.056 343.873C274.134 341.69 279.341 336.819 281.86 327.246C284.884 316.161 282.7 306.084 275.646 299.03L269.767 293.152L287.739 246.964C297.649 221.435 306.384 199.937 307.056 199.265C309.239 196.746 344.344 279.043 349.216 298.358C350.391 303.229 351.903 307.26 352.743 307.26C353.415 307.26 355.598 310.283 357.446 313.978C359.63 318.345 361.981 320.696 364.165 320.696C371.219 320.696 381.297 299.702 386.504 273.669C388.52 263.424 390.872 255.026 391.711 255.026C392.551 255.026 394.567 260.401 396.247 266.951C402.125 289.792 411.196 301.549 425.977 305.58C439.414 309.107 451.34 303.901 466.961 287.609C484.934 268.63 501.562 237.727 499.883 226.306C499.379 222.779 498.875 223.115 494.34 229.497C488.293 237.727 474.184 246.46 465.281 247.132C459.402 247.636 458.899 247.132 455.203 240.078C452.012 233.864 451.34 230.673 452.012 221.603C453.02 206.487 461.586 186.165 471.16 176.76C477.879 170.042 478.887 169.538 487.621 169.538C502.066 169.538 500.555 166.85 477.543 150.559L473.344 147.536V114.281V80.8583L479.223 74.9799C485.102 69.1015 486.109 65.9104 485.102 53.6498C484.262 40.8853 476.031 33.4954 462.258 33.4954C455.371 33.4954 444.957 37.8622 443.613 41.3892C442.942 42.9008 439.414 43.5726 431.856 43.5726C421.274 43.5726 420.938 43.4046 422.114 39.7096C429 17.2039 420.434 3.26373 399.438 3.26373C382.641 3.26373 374.915 11.6614 376.426 28.2888C376.762 33.4954 377.77 39.0378 378.442 40.5494C379.45 43.2367 378.274 43.5726 364.333 43.5726H349.048V29.4645C349.048 14.3487 349.719 13.3409 358.454 13.3409C360.805 13.3409 362.485 12.3332 362.485 10.9896C362.485 8.30233 348.712 6.6228 325.364 6.6228C310.079 6.6228 308.735 6.95871 308.735 9.81392C308.735 12.3332 310.415 13.3409 315.454 14.1807L322.341 15.3564L321.837 28.9606L321.333 42.7328L299.665 43.2367C279.509 43.5726 278.165 43.4046 279.509 40.7174C280.181 39.0378 281.189 32.8235 281.357 26.7772C282.028 13.6768 278.333 6.11894 269.263 2.25601C261.368 -0.93511 247.091 -0.767156 239.868 2.92782ZM265.903 15.8602C270.607 20.5629 271.614 32.1517 267.751 37.3583C261.704 45.2521 245.579 44.4123 241.716 35.8467C238.525 28.6247 239.365 20.395 244.068 15.8602C249.779 9.98187 260.193 9.98187 265.903 15.8602ZM408.676 18.3795C413.043 23.2502 412.539 33.3274 407.836 37.1903C402.965 41.2212 397.59 41.0533 392.047 36.6865C386.504 32.3197 386.001 23.4182 391.04 18.3795C395.575 13.8448 404.645 14.0128 408.676 18.3795ZM45.5297 21.2348C51.0726 27.617 49.225 39.3737 42.1703 42.061C36.4594 44.2444 28.7329 42.3969 26.5493 38.534C24.0298 33.6633 24.5337 24.9297 27.7251 21.4027C31.2524 17.3718 41.8344 17.3718 45.5297 21.2348ZM116.412 21.7386C120.275 26.1054 120.275 36.1826 116.58 39.8776C112.717 43.9085 100.791 43.5726 97.7677 39.3737C94.5763 35.0069 94.7443 25.2656 98.2716 21.4027C102.135 17.2039 112.381 17.3718 116.412 21.7386ZM196.869 22.0745C198.38 24.09 199.556 28.2888 199.556 31.144C199.556 41.3892 186.455 46.7637 178.224 40.0455C175.033 37.3583 175.369 25.0977 178.896 21.4027C182.927 16.868 193.509 17.3718 196.869 22.0745ZM469.984 48.6112C478.047 56.6729 472.672 70.4451 461.586 70.4451C454.195 70.4451 449.492 65.5745 449.492 57.8486C449.492 53.1459 450.5 50.4587 453.188 48.2753C458.059 44.2444 465.785 44.4123 469.984 48.6112ZM36.6274 57.0089C41.3305 59.5282 44.018 69.4374 41.8344 75.8196C39.3149 82.8737 35.4516 85.393 27.0532 85.561C12.608 85.561 6.05723 69.1015 16.4712 58.6884C20.1665 54.9934 31.2524 54.1536 36.6274 57.0089ZM102.135 62.8872V70.4451H78.6193H55.1038V62.8872V55.3293H78.6193H102.135V62.8872ZM181.08 62.8872V70.4451H147.486H113.893V62.8872V55.3293H147.486H181.08V62.8872ZM231.47 62.8872V70.4451H213.162H194.853L194.181 63.559C193.845 59.8641 193.845 56.505 194.349 56.0011C194.685 55.6652 203.251 55.3293 213.33 55.3293H231.47V62.8872ZM269.263 59.5282C272.454 62.5513 273.462 65.4065 273.462 70.4451C273.462 79.8505 267.751 85.561 258.345 85.561C248.603 85.561 243.228 80.0185 243.228 69.7733C243.228 63.727 244.068 61.7116 247.595 58.8563C253.978 53.8177 264.056 54.1536 269.263 59.5282ZM322.173 67.9258C322.173 79.6826 322.005 80.5223 318.645 80.5223C316.63 80.5223 313.942 81.866 312.767 83.3776C309.407 88.2482 313.102 90.5996 324.02 90.5996C329.563 90.5996 333.93 91.2714 333.93 92.2791C333.93 93.1189 332.923 93.9586 331.579 93.9586C330.067 93.9586 325.364 106.051 317.974 128.389C311.591 147.368 305.712 162.82 304.704 162.82C303.192 162.82 291.099 137.123 274.638 99.3331C273.126 96.31 273.63 94.7984 277.157 90.9355C279.509 88.4162 282.364 84.7212 283.372 82.7057C285.724 78.171 285.724 65.4065 283.54 59.6961L281.86 55.3293H302.017H322.173V67.9258ZM378.274 58.1845C377.602 59.8641 376.594 65.7424 376.258 71.4529C375.754 80.5223 376.09 82.2019 380.122 86.9046C387.512 95.8061 405.653 97.8216 415.899 91.2714C423.961 86.0648 427.153 69.9413 421.946 60.2L419.426 55.1614L428.16 55.6652L436.727 56.1691L437.399 62.3834C437.735 65.9104 438.742 70.2772 439.75 72.1247C442.27 76.9953 451.34 82.2019 457.051 82.2019H461.586V113.609V145.184L451.844 145.352C434.711 145.856 421.442 153.75 410.356 170.545C401.454 183.814 397.59 194.731 383.481 245.957C376.594 270.814 370.044 294.159 369.036 297.686C367.86 301.885 366.516 303.901 364.837 303.565C363.325 303.229 355.934 287.945 346.696 266.111C338.13 245.789 326.54 219.084 320.829 206.823L310.583 184.318L324.188 145.52C331.579 124.022 338.802 103.028 340.145 98.4934L342.833 90.5996H350.727C362.821 90.5996 366.348 85.393 356.606 82.2019C352.239 80.8583 350.727 79.3467 350.727 76.6594C350.727 74.644 350.223 68.9336 349.719 64.0629L348.544 55.3293H364.165C378.274 55.3293 379.45 55.6652 378.274 58.1845ZM407.332 60.032C411.028 62.3834 412.875 70.1092 411.028 74.9799C408.844 80.8583 406.661 82.2019 399.102 82.2019C394.567 82.2019 392.215 81.1942 390.368 78.5069C384.153 69.7733 389.528 58.6884 399.942 58.6884C402.797 58.6884 406.157 59.3602 407.332 60.032ZM231.47 94.7984V107.395H143.287H55.1038V94.7984V82.2019H143.287H231.47V94.7984ZM101.799 130.405L102.303 140.986H78.6193H55.1038V130.069V118.984L78.2834 119.488L101.295 119.991L101.799 130.405ZM181.08 130.069V140.986H147.486H113.893V130.069V119.152H147.486H181.08V130.069ZM231.134 130.405L231.638 140.986H213.33C203.251 140.986 194.685 140.65 194.349 140.314C194.013 139.978 194.013 134.939 194.181 129.397L194.853 118.984L212.658 119.488L230.63 119.991L231.134 130.405ZM82.6506 155.598C81.9787 157.277 81.1389 163.155 80.8029 168.698C79.6271 188.181 88.8654 197.082 109.189 196.074C125.818 195.235 132.537 189.188 134.553 173.737C135.057 170.042 134.553 164.331 133.209 160.804C130.857 153.75 131.361 152.742 136.904 152.742H140.767V185.493C140.767 203.464 140.935 218.748 141.271 219.42C141.439 220.26 135.728 220.931 128.506 221.267L115.236 221.771L104.318 212.366C94.4083 203.968 88.6974 201.113 88.6974 204.304C88.6974 205.144 88.1935 213.709 87.5216 223.451C86.5138 242.262 88.5294 253.514 93.0646 253.514C94.2404 253.514 98.6075 249.987 102.471 245.789C111.877 235.543 116.748 233.36 129.85 233.36C140.096 233.36 140.767 233.528 140.767 237.055C140.767 247.636 119.603 277.028 112.213 277.028C110.701 277.028 107.006 277.868 103.982 278.875C96.256 281.563 97.0958 286.265 105.998 288.617C115.74 291.472 150.006 292.816 171.674 291.304C188.638 290.128 189.478 289.96 189.478 286.433C189.478 283.746 187.127 281.059 181.248 277.364C176.713 274.341 170.498 269.134 167.642 265.775C160.924 258.217 154.205 244.277 154.205 237.895C154.205 233.36 154.373 233.36 164.787 233.36H175.201L182.759 244.277C186.959 250.323 191.158 255.194 192.334 255.194C197.205 255.194 198.38 248.14 197.205 226.81C196.533 215.221 195.693 205.312 195.189 204.472C193.005 200.945 188.134 203.968 182.759 212.366L176.881 221.603L165.123 221.267C158.74 220.931 153.533 220.26 153.869 219.42C154.037 218.748 154.205 203.464 154.205 185.325V152.574L158.908 153.078C161.931 153.414 163.275 154.422 162.771 156.101C159.916 167.69 159.58 171.217 160.756 176.76C163.947 190.364 172.177 196.41 187.798 196.41C206.779 196.41 215.177 187.845 214.169 169.538C214.001 163.491 212.994 157.277 212.322 155.598C210.978 152.91 211.818 152.574 220.72 153.078L230.63 153.582L231.134 173.737C232.982 250.491 216.857 294.327 180.072 312.466C169.322 317.841 167.306 318.177 146.814 319.016L124.978 319.856L112.213 312.298C88.3615 298.19 73.7483 279.547 64.1741 251.331C57.4554 231.681 55.1038 213.877 55.1038 181.966V152.742H69.5491C82.6506 152.742 83.8263 153.078 82.6506 155.598ZM475.695 157.109C478.551 159.125 477.879 159.796 467.129 166.683C455.875 173.905 455.035 174.912 449.996 187.173C442.606 204.808 439.246 221.603 440.254 235.04C441.43 248.308 446.133 261.576 450.836 264.767C454.195 266.951 455.203 266.447 464.274 258.553C473.344 250.659 480.734 246.796 482.918 248.98C484.598 250.827 472.672 269.47 464.777 277.364C451.34 290.8 438.742 291.64 418.754 280.555C412.707 277.196 408.844 273.333 404.981 266.951C399.942 258.721 399.438 256.538 399.438 245.117C399.438 224.794 406.325 203.128 418.922 183.478C425.809 172.561 426.481 172.057 440.422 163.323C457.555 152.742 466.961 151.063 475.695 157.109ZM102.807 163.659C104.822 176.088 112.045 173.065 112.213 159.796C112.213 157.781 113.221 156.101 114.564 156.101C118.596 156.101 122.291 163.155 122.291 170.545C122.291 176.256 121.451 178.439 117.924 181.127C112.549 185.325 102.807 185.829 97.5997 182.134C92.3927 178.439 90.881 169.034 94.4083 161.812C98.1036 153.75 101.463 154.422 102.807 163.659ZM182.759 160.972C182.759 168.026 184.271 171.217 187.798 171.217C189.982 171.217 190.99 169.37 191.83 163.659C193.173 154.758 196.533 153.75 200.396 161.14C203.587 167.186 203.587 171.721 200.396 177.767C197.709 183.31 194.853 184.654 187.127 184.654C178.392 184.654 172.681 179.111 172.681 170.545C172.681 163.155 176.377 156.101 180.408 156.101C181.92 156.101 182.759 157.781 182.759 160.972ZM265.736 305.916C269.599 309.443 270.775 313.978 270.271 322.711C270.103 324.391 268.591 327.246 266.743 329.094C262.544 333.292 250.786 333.628 245.411 329.933C238.357 324.895 239.029 308.267 246.419 303.901C251.458 300.877 261.2 302.053 265.736 305.916Z" fill="#bdff00"/>
</svg>
