<svg width="500" height="500" viewBox="0 0 500 500" fill="none" xmlns="http://www.w3.org/2000/svg">
<path d="M218.455 0.334445C214.119 2.63528 216.367 9.72954 222.79 14.1395C233.708 21.6172 239.167 36.7644 241.094 64.7579L242.218 79.7134H234.511C218.133 79.7134 196.458 69.7431 192.283 60.5397C191.32 58.4306 189.232 56.705 187.627 56.705C183.934 56.705 182.649 67.4422 182.649 102.338C182.649 124.388 182.97 127.839 185.379 128.99C187.145 129.757 188.59 128.99 189.714 126.689C190.677 124.58 194.531 119.211 198.384 114.418C202.077 109.624 205.128 105.214 205.128 104.639C205.128 101.38 214.601 98.887 227.446 98.887H241.736L242.86 109.433C243.984 121.128 244.626 119.786 227.125 147.396C221.987 155.641 218.133 163.502 218.615 165.036C219.579 168.296 229.373 171.747 237.722 171.747H243.663V181.334V190.921H176.227H108.79V180.567V170.405L123.402 168.871C140.261 167.337 141.063 165.803 128.861 155.833C124.526 152.382 118.745 145.671 116.176 141.453C111.841 134.358 111.359 131.482 110.717 115.76L109.914 98.3118L121.154 99.4623C135.765 100.804 141.385 103.872 152.142 115.76C158.244 122.662 161.455 124.963 162.739 123.621C163.863 122.471 165.148 113.459 165.63 101.188C166.111 89.8754 166.914 74.153 167.396 66.1001C168.199 51.5281 168.199 51.3364 164.184 51.3364C161.455 51.3364 158.886 53.6372 155.996 58.4306C153.587 62.2654 148.77 68.9761 145.078 73.3861L138.655 81.6308H124.847C111.52 81.6308 110.878 81.439 109.112 76.8373C105.419 67.4422 106.703 55.9381 112.162 47.8851C115.052 43.6669 119.388 35.0388 121.957 28.5197C125.007 20.8503 128.54 15.2899 131.43 13.1808C133.999 11.2634 135.925 8.57912 135.765 6.85349C135.283 4.36091 130.466 3.97744 104.295 3.40223C87.1145 3.21049 73.4667 3.59397 73.4667 4.55265C73.4667 7.04523 87.275 31.204 93.0553 39.257C95.6243 42.7082 97.3905 46.9264 96.9088 48.4603C96.4271 49.9942 95.9454 58.0472 95.9454 66.4836V81.6308H82.4582C69.292 81.6308 68.8104 81.439 62.2273 74.92C58.3738 71.0852 52.433 63.7993 48.9006 58.6224C45.3682 53.2537 41.9964 49.0355 41.5147 49.0355C36.8584 49.2273 36.2162 53.4455 35.4134 90.0672L34.45 127.839L39.1063 126.497C41.6753 125.922 46.4922 121.512 50.0246 116.719C57.8921 105.981 63.0301 102.914 75.3934 101.571C81.0131 101.188 87.9173 100.229 90.968 99.8457L96.2665 99.0788L95.6243 114.993C94.8215 134.742 88.8807 150.848 80.5314 156.791C76.8385 159.476 75.0723 161.968 75.0723 165.036C75.0723 169.063 76.0357 169.638 86.3117 170.788L97.551 172.13V181.526V190.921H71.3794H45.2077L42.4781 185.36C37.3401 174.815 23.2106 170.597 11.6501 176.349C4.90651 179.8 1.69526 185.552 0.41076 197.056C-1.0343 207.985 1.37413 217.38 6.99382 223.708C10.5262 227.734 12.6135 228.309 22.8895 228.309C33.6472 228.309 35.0923 227.926 39.4274 222.941C41.9964 219.873 44.8866 214.696 45.6894 211.436L47.1344 205.301H71.8611H96.7482L97.7116 250.359C98.8355 302.32 100.762 314.399 112.804 343.351C132.875 391.861 168.68 426.181 211.711 438.453L227.286 442.862L224.074 450.148C221.505 455.901 221.024 460.119 221.505 469.897C222.629 490.988 231.139 500 250.085 500C269.032 500 277.542 490.988 278.665 469.897C279.147 460.119 278.665 455.901 276.096 449.957L272.725 442.479L279.468 441.137C292.153 438.644 315.113 428.674 326.192 421.004C355.575 400.489 379.659 367.893 391.541 332.614C400.051 307.305 401.335 297.718 402.459 250.359L403.423 205.301L428.631 204.726L453.839 204.15L454.963 209.136C455.445 211.628 458.495 216.422 461.386 219.681C466.363 224.858 468.129 225.433 477.442 225.433C487.236 225.433 488.36 225.05 493.177 219.106C501.526 209.327 502.329 191.496 494.943 178.266C490.287 169.638 471.501 167.72 462.349 174.815C460.262 176.54 457.532 180.759 456.248 184.402L454 190.921H428.149H402.459L402.941 181.717L403.423 172.706L413.538 172.13C421.887 171.747 423.493 170.98 423.493 168.104C423.493 166.187 421.084 162.352 418.194 159.668C415.304 156.983 410.166 150.272 406.955 144.52C401.496 135.317 400.854 132.441 399.73 117.677C399.087 108.666 398.766 100.229 399.087 99.0788C399.408 97.9284 403.904 96.9697 410.166 96.9697C420.603 96.9697 420.763 96.9697 429.755 106.94C434.732 112.309 441.636 119.211 445.169 122.279L451.591 128.031L452.555 113.842C453.839 95.6275 454.321 56.705 453.197 56.705C449.986 56.705 437.622 66.2918 430.879 73.9613C420.763 85.4655 416.107 86.9994 406.313 82.5894L398.927 79.1382L400.051 66.1001C401.496 46.3512 406.473 32.7379 415.946 21.8089C420.763 16.2486 423.493 11.8386 422.529 10.88C421.727 9.92127 410.166 8.57912 396.679 7.81217C362.158 5.89481 355.575 8.57912 368.741 18.9329C381.425 28.9032 388.169 45.776 388.169 67.0588V79.1382L375.806 80.2886L363.282 81.2473L351.079 66.867L338.876 52.4868L336.147 56.8967C333.257 61.8819 332.775 82.7812 334.702 111.733C335.826 130.907 338.555 132.441 345.138 118.252C347.547 113.076 352.043 106.365 355.254 103.489C360.392 98.887 362.961 98.1201 374.682 97.3532L388.169 96.3945V107.132C388.169 133.591 379.499 156.791 367.778 162.352C365.53 163.311 364.085 165.611 364.085 167.912C364.085 171.363 365.048 171.747 377.733 171.747H391.38V181.334V190.921H323.784H256.347L256.829 180.95L257.311 170.788L266.142 169.254C270.958 168.296 275.615 166.762 276.418 165.995C278.184 163.886 272.885 153.532 262.77 139.152C254.902 127.839 254.26 124.963 254.742 103.105C254.902 96.9697 255.063 96.9697 262.77 96.9697C274.33 96.9697 278.023 99.2705 292.153 115.568C306.443 132.441 308.209 132.249 310.939 115.185C312.705 104.831 308.53 52.8703 306.122 52.8703C305.319 52.8703 299.539 59.0058 293.116 66.4836L281.395 80.0969L267.908 82.0142C252.333 84.3151 251.691 83.9316 251.691 69.7431C251.691 50.7612 263.412 19.3164 273.527 11.4552C275.615 9.72954 277.381 6.66175 277.381 4.55265C277.381 1.10139 276.257 0.909654 253.778 1.48486C240.612 1.86834 227.928 1.48486 225.198 0.717918C222.629 -0.0490284 219.418 -0.240765 218.455 0.334445ZM485.791 188.428C488.521 193.03 488.2 205.301 485.149 208.944C481.938 212.97 471.822 212.779 468.129 208.752C462.67 203 464.918 187.661 471.662 184.593C475.515 182.676 483.543 184.977 485.791 188.428ZM28.9909 189.195C33.8078 192.263 34.9317 194.564 34.9317 202.808C34.9317 211.053 30.5965 215.846 22.7289 215.846C16.1459 215.846 11.8107 209.903 11.8107 201.083C11.8107 189.962 20.4811 184.018 28.9909 189.195ZM158.565 205.684C158.404 206.643 157.441 209.327 156.156 212.012C152.785 219.106 153.106 237.513 156.959 246.332C161.134 256.303 169.162 260.904 182.649 260.713C197.742 260.521 205.77 254.769 209.784 240.964C212.193 231.952 212.032 220.832 209.142 212.587C207.857 208.944 206.734 205.493 206.734 205.109C206.734 204.726 226.322 204.342 250.085 204.342C274.009 204.342 293.437 204.726 293.437 205.109C293.437 205.493 292.313 209.136 290.868 213.162C287.657 222.174 288.62 240.389 292.634 247.675C300.663 262.438 326.995 265.89 338.234 253.618C346.262 244.799 348.992 224.858 344.175 211.053L341.767 204.342H366.654H391.701L391.059 247.866C390.417 285.447 389.775 293.691 386.724 306.729C373.237 364.059 334.702 409.5 286.212 425.031C267.908 430.975 232.263 430.975 213.959 425.031C164.666 409.117 126.773 363.867 113.447 305.004C110.557 292.158 109.754 282.762 109.272 246.908L108.469 204.342H133.517C147.325 204.342 158.565 204.917 158.565 205.684ZM193.407 209.136C198.545 213.162 200.793 220.832 199.669 230.227C198.545 240.964 192.765 246.524 182.649 246.524C178.475 246.524 173.658 245.949 172.213 245.374C165.469 242.114 162.579 220.64 167.877 212.587C173.337 204.15 184.897 202.617 193.407 209.136ZM324.265 206.451C331.33 208.752 335.183 215.846 335.183 226.392C335.183 240.389 330.045 246.332 317.843 246.524C310.296 246.524 308.53 245.757 304.355 240.772C299.86 235.403 299.539 234.061 300.181 225.241C301.305 212.203 305.961 206.26 316.719 204.534C317.682 204.534 321.054 205.301 324.265 206.451ZM263.733 452.066C267.587 457.434 268.068 459.544 267.266 467.788C266.302 480.826 261.164 486.195 249.925 486.195C243.181 486.195 241.094 485.236 237.08 480.635C233.387 476.225 232.424 473.349 232.424 467.021C232.424 451.874 237.401 446.122 250.406 445.93C258.595 445.93 259.88 446.505 263.733 452.066Z" fill="#bdff00"/>
</svg>
