<svg width="500" height="500" viewBox="0 0 500 500" fill="none" xmlns="http://www.w3.org/2000/svg">
<path d="M439.743 22.24C439.743 42.0863 439.141 45.3941 435.123 51.5961C432.311 55.9374 428.696 58.8317 425.482 59.2452C421.264 59.6586 419.657 58.4182 416.042 50.7691C411.222 40.6392 410.619 36.2978 413.431 27.4083C414.435 24.1006 415.841 17.0716 416.444 11.4898C417.85 -0.29394 416.243 -0.707406 401.38 6.94172C382.298 17.0716 355.384 48.7018 355.384 61.5192C355.384 68.9616 366.029 69.9953 384.709 63.7933C403.388 58.0048 413.632 61.9327 412.025 74.7502C411.422 81.1589 410.016 83.0195 403.79 85.9137C399.773 87.7743 384.909 101.212 370.649 115.89L344.939 142.352H330.477C302.558 142.352 303.563 142.972 291.511 117.13C283.276 99.5581 278.054 91.4955 269.417 82.3993C254.152 66.8943 251.34 66.2741 238.686 76.6107C226.635 86.3272 215.989 102.866 207.754 124.366L201.729 140.285H175.015H148.301L126.809 121.679C105.719 103.486 93.8687 88.808 91.4584 77.8511C90.2533 72.8896 91.0567 71.6492 98.4884 67.7212C105.92 64 108.933 63.5866 122.591 64.827C138.861 66.2741 152.519 63.5866 152.519 59.0384C152.318 53.8701 144.685 39.6055 137.254 30.9227C128.014 19.7592 113.352 10.0427 106.322 10.0427C101.501 10.0427 101.1 10.8696 97.685 30.3025C93.8687 52.423 93.8687 52.0095 84.8302 60.4856C78.6037 66.2741 78.4028 66.2741 72.578 62.5529C69.1634 60.6923 65.548 56.7644 64.3429 54.0768C61.1292 46.6345 61.5309 24.1006 65.1463 19.139C69.5651 13.3504 69.1634 1.77339 64.5437 1.77339C54.5009 1.77339 28.1887 26.7881 9.1074 54.0768C-0.131991 67.3078 -2.34141 74.13 2.47914 74.13C3.68428 74.13 13.3254 71.8559 23.569 68.9616C33.8127 66.0674 44.6589 63.7933 47.2701 63.7933C53.0949 63.7933 64.9454 74.7502 63.7403 78.8848C61.7317 84.6733 45.8641 91.0821 26.9836 93.3561C8.30397 95.6302 7.90226 95.8369 7.90226 101.212C7.90226 105.14 9.91082 108.034 15.5348 111.962C19.5519 115.063 26.9836 122.505 31.8041 128.707C45.4624 146.487 66.5523 154.756 68.5608 143.386C69.1634 140.491 68.7617 137.597 67.9583 136.977C66.954 136.357 66.1506 127.674 66.1506 117.751C66.1506 103.073 66.7531 98.9379 69.766 96.4571C78.0011 89.2215 79.4071 89.8417 107.326 116.717C122.189 130.982 134.442 144.006 134.442 145.866C134.442 147.52 132.634 151.241 130.625 154.136C125.805 160.131 121.788 179.15 123.395 186.386C126.207 197.55 132.031 200.444 161.959 204.372C188.271 208.093 206.549 211.401 207.553 213.055C207.754 213.261 213.981 221.117 221.212 230.213C233.263 245.512 238.887 253.988 238.887 256.882C238.887 257.502 226.434 258.122 211.169 258.122H183.451L173.207 268.872C167.583 274.868 160.955 283.757 158.745 288.719C156.335 293.474 148.702 304.637 141.873 313.527C135.044 322.416 115.561 349.705 98.4884 374.1L67.5566 418.34H54.3C28.9922 418.34 17.9451 429.504 17.9451 454.932C17.9451 470.437 22.163 480.36 31.4024 486.769C46.0649 496.899 71.5737 494.625 82.0182 482.221C92.061 470.644 93.2662 446.87 84.4285 434.052L80.0096 427.643L132.433 351.772C188.874 269.906 188.07 270.94 206.348 270.733C213.177 270.526 214.784 271.147 214.784 274.248C214.784 276.108 212.173 279.002 208.758 280.45C192.288 288.099 184.455 304.431 188.472 323.037C190.882 333.787 191.485 334.614 201.327 339.575C206.951 342.469 213.177 344.95 214.985 344.95C217.395 344.95 221.011 349.498 225.229 357.768C234.267 375.133 244.712 386.297 251.943 386.297C258.571 386.297 270.421 374.306 280.062 357.768C285.084 349.085 287.293 347.224 293.319 346.191C297.135 345.57 302.357 342.883 304.969 339.989C310.392 334.2 315.212 318.488 315.212 307.325C315.212 300.296 313.806 297.815 304.165 287.892C289.704 273.007 289.704 269.493 303.763 271.147C323.247 273.214 321.64 270.94 363.619 348.878C384.909 388.157 404.392 423.716 406.803 427.643L411.021 434.879L406.401 441.908C400.375 451.004 398.568 463.615 401.58 475.399C405.999 492.351 417.046 500 437.735 500C461.034 500 471.478 489.87 473.487 465.889C475.496 438.394 461.636 424.129 434.119 425.99L421.063 426.817L413.431 414.413C409.012 407.384 389.127 370.378 369.042 332.133C325.657 249.853 330.678 255.021 295.127 255.021H272.028L272.631 247.786C273.434 236.622 282.674 222.978 293.118 217.396C300.148 213.675 308.182 212.021 329.071 210.16L355.986 207.679L366.029 198.17L376.072 188.66L373.661 175.222C372.255 167.987 369.443 158.89 367.234 155.169C365.225 151.448 363.418 147.52 363.418 146.693C363.418 143.386 380.691 124.78 400.174 107.001L419.858 89.0147L429.499 92.3225L439.341 95.4235L438.136 120.645C437.333 142.145 437.534 146.073 440.346 147.107C447.175 149.794 457.218 144.212 469.068 131.395C483.731 115.683 495.983 100.178 495.983 97.4908C495.983 96.4571 487.949 94.5965 477.906 93.3561C459.427 90.8753 441.149 83.2262 438.739 76.6107C437.333 72.6828 441.35 67.928 448.782 64.827C453.602 62.7596 458.624 62.7596 472.884 65.0337C497.59 68.5482 500 68.5482 500 64.4135C500 53.2499 475.696 22.4467 454.004 6.32152C440.145 -4.01513 439.743 -3.60167 439.743 22.24ZM242.904 120.645V142.352H232.66H222.417L223.823 134.496C226.032 121.058 237.481 98.9379 242.101 98.9379C242.502 98.9379 242.904 108.654 242.904 120.645ZM276.045 122.505C283.075 136.977 282.674 139.871 273.635 141.318C269.417 142.145 264.597 143.179 262.789 143.592C260.379 144.212 259.173 142.559 258.169 136.77C256.562 126.433 256.562 106.38 258.37 101.832C259.575 98.7312 260.379 99.1446 265.4 105.347C268.614 109.275 273.434 116.924 276.045 122.505ZM197.511 169.434C199.921 193.208 199.72 194.035 191.887 194.035C185.459 194.035 185.258 193.828 182.848 182.251C179.032 162.405 179.634 159.304 187.267 158.27C190.681 157.857 194.297 157.237 194.899 157.237C195.502 157.03 196.707 162.612 197.511 169.434ZM242.502 174.809L241.9 193.001L230.652 193.622L219.404 194.242L218.199 181.838C215.989 161.371 218.6 158.27 237.481 157.03L243.105 156.823L242.502 174.809ZM281.87 163.439C282.473 167.16 283.477 175.016 284.28 181.011L285.486 191.554L274.238 193.001C257.366 195.276 256.964 194.862 256.964 175.636C256.964 157.443 256.562 157.65 273.233 157.03C280.062 156.823 280.665 157.443 281.87 163.439ZM324.853 161.785C325.255 163.852 323.648 171.915 321.238 179.977C317.221 192.175 316.016 194.242 312.4 193.622C308.584 193.001 308.182 191.554 307.58 177.703C306.776 157.857 307.379 156.41 316.618 157.237C322.041 157.65 324.452 158.89 324.853 161.785ZM164.972 172.742C170.194 178.323 170.194 178.737 166.98 182.872C164.369 186.386 160.754 187.626 151.916 188.247C140.668 189.28 140.066 189.074 137.254 183.078C134.241 177.083 134.241 176.876 141.672 169.02C148.702 161.578 149.506 161.371 154.326 164.059C157.138 165.506 161.959 169.434 164.972 172.742ZM352.17 164.059C356.388 166.953 356.79 168.193 355.183 175.016C353.375 183.492 343.533 194.035 337.306 194.035C332.285 194.035 332.285 191.348 336.704 174.189C340.52 159.924 343.131 158.064 352.17 164.059ZM241.699 212.021C242.301 214.088 243.306 221.117 244.109 227.526C245.716 243.031 242.101 243.651 234.468 229.18C226.233 214.088 227.036 209.954 238.284 208.713C239.489 208.713 241.096 210.16 241.699 212.021ZM274.037 210.367C277.451 216.156 266.605 239.516 260.579 239.516C259.776 239.516 258.973 233.108 258.973 225.252C258.973 211.194 259.173 210.78 264.597 209.954C267.609 209.54 270.622 208.92 271.426 208.713C272.229 208.713 273.233 209.333 274.037 210.367ZM240.494 284.584C242.101 285.825 243.306 296.781 244.31 321.796C245.515 354.253 245.314 357.354 242.101 357.354C237.28 357.354 234.87 348.878 234.87 332.753C234.87 306.084 231.857 301.536 214.583 301.536H206.549L209.763 295.541C211.37 292.027 214.784 287.892 217.194 286.238C222.015 282.724 236.075 281.897 240.494 284.584ZM277.853 289.546C292.315 292.44 302.157 301.123 304.165 312.7C305.571 319.522 304.969 321.176 299.947 326.551C295.528 331.306 292.716 332.546 288.097 332.133C282.874 331.513 282.071 330.479 281.468 324.69C280.866 318.282 281.067 318.075 288.9 318.075H296.934L294.926 311.873C291.913 303.19 283.477 303.397 274.037 312.286L267.007 319.109L269.216 333.373C271.626 349.085 270.22 355.494 262.99 359.422C258.973 361.696 258.973 361.282 258.973 324.277C258.973 281.897 257.165 285.204 277.853 289.546ZM222.818 314.974C225.028 317.661 224.827 319.315 222.618 323.657C219.002 330.686 216.391 331.513 208.959 327.378C201.929 323.657 200.122 314.974 206.348 313.32C213.78 311.253 220.408 312.08 222.818 314.974ZM63.9411 434.052C78.0011 439.22 80.8131 464.855 68.36 474.572C66.5523 476.019 60.5266 477.259 54.7018 477.259C40.2401 477.259 33.8127 471.471 32.6076 457.413C31.6033 448.523 32.2059 446.249 36.8256 440.668C43.6547 432.192 52.6932 430.124 63.9411 434.052ZM449.786 443.148C461.235 449.35 462.038 471.057 451.192 480.567C445.769 485.115 443.559 485.735 435.324 485.115C420.863 483.668 415.64 477.673 415.64 462.995C415.841 451.004 417.649 446.663 424.679 442.528C430.303 439.22 442.957 439.427 449.786 443.148Z" fill="#bdff00"/>
</svg>
