<svg width="435" height="500" viewBox="0 0 435 500" fill="none" xmlns="http://www.w3.org/2000/svg">
<path d="M188.314 32.3625L157.737 64.7249H137.191H116.483V58.2524C116.483 49.8382 113.085 41.5858 108.232 38.1877C105.805 36.5696 101.114 35.5987 94.9659 35.5987C86.715 35.5987 84.9354 36.246 80.8909 40.1295C75.3903 45.7929 73.2871 54.6926 75.8756 62.945C78.4641 71.8447 82.5087 74.7573 94.157 75.89L104.349 76.8609L105.158 181.23L106.129 285.599L110.335 300.971C112.762 309.385 116.968 322.816 119.718 330.744C122.469 338.511 124.572 345.307 124.248 345.631C122.792 346.926 113.247 339.644 107.908 333.172C100.143 323.625 91.0831 305.34 88.9799 295.307C86.3914 281.715 82.6705 235.761 81.6998 200.647C80.5673 164.078 78.3023 150.485 71.0222 134.304C65.3598 121.683 58.0796 116.343 41.5779 112.298L30.9003 109.547L23.7819 113.754C14.2368 119.417 13.2661 121.036 11.1629 132.039C10.1922 137.379 8.08909 143.042 6.30949 144.822C4.69167 146.764 2.42673 150.485 1.45604 153.398C-0.161782 157.929 0.161782 159.709 3.72098 166.99C7.44196 174.595 7.60374 175.728 5.66236 179.773C4.36811 182.201 2.58851 187.54 1.61782 191.909C0 199.029 0.161782 199.838 4.04454 203.884L8.08909 208.091L4.85345 214.401C3.07385 217.961 1.61782 222.168 1.61782 223.786C1.61782 227.508 4.69167 233.333 7.76552 235.599C11.1629 238.026 9.05978 247.735 4.04454 253.884C1.7796 256.473 0 259.223 0 259.871C0 260.518 2.26494 263.43 5.01523 266.343L10.0305 271.521L7.28018 279.935C3.5592 291.1 3.72098 298.706 7.9273 304.369C10.6776 307.929 11.3247 311.327 11.3247 319.903C11.3247 332.686 13.5897 337.055 21.6787 339.806L27.1793 341.586L22.4877 350C19.8992 354.693 17.796 360.356 17.796 362.783C17.796 367.314 23.1348 373.786 27.0175 373.786C28.15 373.786 30.9003 377.67 33.0035 382.362C35.1066 387.055 38.6658 392.557 41.0926 394.337C43.3575 396.278 45.2989 399.353 45.2989 401.133C45.2989 408.091 50.4759 416.828 61.3153 427.994C67.3012 434.142 74.2578 442.557 76.6845 446.278C82.6705 455.825 92.5391 460.356 104.996 459.061C115.512 457.929 119.718 454.207 119.718 445.631C119.718 436.731 109.526 432.524 95.9366 435.922L90.7595 437.055L92.3774 432.039C93.348 429.288 93.9952 426.699 93.6716 426.375C93.348 426.052 89.6271 426.537 85.4207 427.508C81.3762 428.479 76.8463 428.803 75.3903 428.317C71.5075 426.861 72.3164 421.845 76.8463 417.476C84.1265 410.68 82.3469 409.061 68.919 409.547C62.286 409.871 56.3 409.709 55.8147 409.061C54.3587 407.767 58.8885 397.735 61.9624 394.984C63.5802 393.851 64.7127 391.424 64.7127 389.644C64.7127 386.893 63.9038 386.731 54.1969 387.702L43.6811 388.835V383.172C43.6811 378.964 45.1371 376.375 50.1523 371.359C53.7115 367.961 56.6236 364.401 56.6236 363.592C56.6236 361.974 38.3423 363.107 31.2239 365.049C24.5908 366.828 26.8558 359.871 35.4302 350.647C42.225 343.366 48.211 333.819 46.5931 332.524C46.2696 332.362 40.2836 331.553 33.1653 330.744L20.2227 329.288L20.7081 323.948C21.1934 319.903 23.4583 316.505 30.0914 310.032C42.7104 297.896 42.0632 296.278 25.7233 299.353C20.3845 300.324 16.6635 300.485 15.6928 299.515C12.7808 296.602 16.34 289.159 25.2379 279.935C29.9296 274.919 33.9742 269.579 33.9742 268.123C33.9742 264.887 27.5029 262.945 21.8405 264.401C12.9425 266.667 14.5604 254.207 25.0762 240.291C29.1207 234.951 32.3563 230.097 32.3563 229.288C32.3563 228.641 27.6647 228.155 21.8405 228.155C15.8546 228.155 11.3247 227.508 11.3247 226.537C11.3247 225.566 15.6928 220.388 21.0316 214.887C27.9882 207.767 30.7385 203.722 30.7385 200.647C30.7385 196.44 30.5767 196.44 21.0316 197.087C11.6483 197.735 11.3247 197.573 11.3247 194.013C11.3247 191.424 14.8839 186.731 23.1348 179.126C34.2977 168.447 34.6213 168.123 31.5474 165.696C29.1207 163.754 26.0469 163.43 18.9285 164.239L9.54512 165.372L10.6776 160.841C12.1336 154.854 10.6776 155.825 23.6201 151.456C34.6213 147.896 34.7831 147.735 35.2684 141.586C35.7538 137.055 34.9449 134.628 32.0328 131.553C28.3118 127.67 28.3118 127.508 31.3857 125.243C35.4302 122.33 39.4747 122.33 44.9753 125.243C52.9026 129.45 56.7854 135.275 60.9917 149.838C64.7127 163.269 65.198 168.447 67.1394 221.683C69.5661 287.055 70.8604 295.469 81.6998 317.961C95.7748 347.249 122.631 370.874 155.31 382.686C168.9 387.54 187.99 391.586 197.535 391.586C200.933 391.586 203.845 392.071 203.845 392.557C203.845 393.042 187.181 416.99 166.635 445.955C146.251 474.757 129.425 498.867 129.425 499.191C129.425 499.676 170.194 500 220.023 500C269.852 500 310.621 499.676 310.621 499.353C310.621 498.867 294.281 475.081 274.382 446.278C254.483 417.476 238.466 393.689 238.79 393.366C238.952 393.204 245.099 392.233 252.379 391.424C295.09 386.57 333.109 358.252 356.729 313.43C369.024 290.129 372.422 275.566 381.967 208.091L390.703 146.926L397.983 143.204C406.072 139.159 415.779 136.57 415.779 138.511C415.779 139.159 414.647 144.013 413.19 149.191C410.117 160.032 411.249 162.621 419.662 164.725C423.706 165.858 424.839 166.99 425.162 171.197C425.809 178.155 423.221 182.201 415.779 186.084C407.528 190.291 406.881 196.117 413.999 199.838C419.5 202.589 425.809 210.032 424.515 212.136C424.03 212.945 420.794 213.592 417.235 213.592C408.984 213.592 408.822 217.314 416.75 225.081C430.825 238.511 429.369 245.469 412.543 244.66C407.366 244.498 402.675 244.984 402.028 245.955C401.542 246.764 404.131 252.913 407.69 259.547C411.411 266.343 413.838 272.654 413.352 273.625C412.543 274.757 409.793 275.081 405.749 274.434C397.174 272.977 396.042 276.537 402.675 285.599C411.573 297.896 407.852 305.663 394.424 303.56C388.276 302.589 388.114 302.751 389.085 306.149C389.732 308.252 391.997 313.592 394.1 318.123C399.439 329.45 399.277 332.686 392.968 333.981C390.217 334.466 386.173 334.951 384.07 334.951C378.731 334.951 378.893 340.291 384.232 346.602C390.056 353.56 389.085 356.634 380.511 357.282C376.79 357.605 373.716 358.091 373.716 358.252C373.716 358.576 375.172 361.974 376.951 365.858C380.996 374.919 380.996 380.583 377.113 384.142C374.363 386.731 373.23 386.731 368.215 384.951C364.98 383.819 362.067 383.333 361.582 383.819C360.935 384.304 362.067 388.511 364.009 393.042C369.671 406.149 365.788 413.107 355.758 407.767C350.905 405.016 349.125 407.282 351.875 412.621C353.169 415.21 354.302 419.256 354.302 421.683C354.302 425.728 353.817 425.89 349.125 425.081C346.213 424.595 342.33 423.625 340.712 422.977C338.124 422.006 337.8 422.33 338.771 424.919C339.418 426.537 340.389 430.906 341.036 434.304L341.845 440.615L336.344 439.32C333.27 438.511 327.932 437.864 324.534 437.864C318.225 437.702 318.063 437.864 315.798 445.307C313.533 452.265 313.533 453.236 316.121 457.12C320.651 463.916 328.902 466.667 338.447 464.401C349.125 461.812 351.713 457.605 350.581 445.146L349.772 435.599L356.082 434.628C363.038 433.495 365.627 430.097 365.627 422.492C365.627 417.799 366.112 417.476 371.289 417.476C378.731 417.476 380.996 413.43 378.407 404.207C376.79 397.735 376.79 397.249 381.481 393.204C388.276 387.54 390.379 382.524 389.247 375.405C388.438 370.227 388.923 368.932 393.777 364.239C400.086 358.091 401.866 353.074 399.763 347.573C398.792 344.822 399.277 342.718 401.866 338.997C405.425 333.981 406.396 323.625 404.131 315.372C403.16 312.298 403.484 311.003 404.94 311.165C411.411 311.327 414.323 310.194 416.75 306.634C419.338 302.589 418.691 295.955 414.808 285.761C414.161 284.142 414.647 283.172 416.264 283.172C419.824 283.172 423.868 276.861 423.868 271.359C423.868 268.932 422.736 264.725 421.441 261.974C418.853 257.282 418.853 257.282 423.868 256.149C433.251 254.369 435.678 246.278 430.986 232.362C428.398 224.919 428.398 224.595 431.795 221.036C436.325 216.181 436.002 209.547 431.148 200.809L426.942 193.689L430.663 189.806C434.222 185.922 434.384 184.79 433.899 164.725C433.251 136.408 429.692 127.994 417.397 124.595C410.117 122.654 398.792 125.566 391.026 131.553C381.481 138.835 379.378 146.764 370.48 207.12C359.479 281.877 354.787 299.515 340.551 321.197C334.888 329.45 320.651 343.851 319.195 342.395C318.872 342.071 320.813 333.495 323.402 323.463C333.432 286.084 333.756 281.553 334.726 174.757L335.697 76.8609L345.889 75.89C357.538 74.7573 361.582 71.8447 364.009 62.7832C366.436 54.369 364.332 45.4693 358.994 40.1295C355.111 36.246 353.331 35.5987 344.757 35.5987C336.344 35.5987 334.241 36.246 329.873 40.1295C325.667 43.8512 324.858 45.9547 324.049 54.6926L323.078 64.7249H302.532H282.147L251.571 32.3625C234.745 14.5631 220.508 2.22027e-05 220.023 2.22027e-05C219.376 2.22027e-05 205.139 14.5631 188.314 32.3625ZM242.511 41.2622L263.542 63.9159L241.864 64.4013C229.892 64.5631 210.154 64.5631 198.183 64.4013L176.342 63.9159L197.697 40.7767C209.507 28.1554 219.7 17.9612 220.347 18.123C220.994 18.4466 231.024 28.8026 242.511 41.2622ZM101.922 49.3528C102.893 50.6473 104.187 54.5308 104.673 58.2524L105.643 64.7249H98.3633C89.9506 64.7249 87.3621 62.6214 87.3621 55.8253C87.3621 53.0745 88.171 50 89.3035 48.8673C92.0538 46.1165 99.4958 46.4401 101.922 49.3528ZM350.743 48.8673C351.875 50 352.684 53.2363 352.684 56.1489C352.684 62.2978 349.287 64.7249 340.712 64.7249C335.212 64.7249 334.888 64.4013 334.888 59.3851C334.888 52.1036 338.933 46.9256 344.433 46.9256C346.86 46.9256 349.61 47.7346 350.743 48.8673ZM213.552 92.233V108.414H165.017H116.483V92.233V76.0518H165.017H213.552V92.233ZM323.563 92.233V108.414H275.029H226.494V92.233V76.0518H275.029H323.563V92.233ZM213.552 141.586V161.812H165.017H116.483V141.586V121.359H165.017H213.552V141.586ZM323.563 141.586V161.812H275.029H226.494V141.586V121.359H275.029H323.563V141.586ZM213.552 216.019V257.282H197.859C176.18 257.282 175.048 256.473 169.547 238.835C165.017 224.434 163.076 221.359 159.193 222.816C154.34 224.595 151.589 271.845 155.472 287.217L157.252 294.498L162.105 291.1C164.694 289.159 170.194 283.333 174.401 278.155L182.004 268.608H198.021H213.875L213.228 277.994C211.934 297.249 199.8 314.887 185.402 318.932C180.872 320.227 179.578 321.359 179.578 324.272C179.578 330.906 190.094 332.524 226.494 332.039C243.805 331.877 259.336 331.23 260.792 330.744C265.322 329.288 264.19 324.595 258.527 321.197C237.496 309.061 228.274 296.764 226.818 278.964L226.009 268.608H239.922C247.526 268.608 255.777 269.417 258.365 270.388C263.866 272.33 273.896 281.877 278.588 289.32C282.794 296.117 287.971 295.793 290.075 288.835C290.884 286.084 291.531 273.786 291.692 261.327C292.016 225.728 287.648 216.99 277.294 232.686C274.544 236.893 269.205 244.175 265.484 248.706L258.851 257.282H242.673H226.494V216.019V174.757H275.029H323.563V211.165C323.563 231.23 322.755 254.693 321.946 263.43C313.371 342.395 277.941 380.744 215.979 378.155C195.432 377.346 185.402 374.272 169.871 363.754C147.545 348.867 128.94 315.696 120.366 275.081C118.586 266.343 117.615 250.324 116.968 218.77L116.159 174.757H164.856H213.552V216.019ZM257.071 442.718L290.884 491.1L254.644 491.586C234.745 491.748 202.065 491.748 182.166 491.586L145.927 491.1L181.681 442.233C208.537 405.34 217.92 393.366 220.185 393.689C222.126 394.013 236.201 412.783 257.071 442.718ZM109.688 442.718C114.865 446.278 114.056 449.191 106.776 452.104C99.334 455.016 92.2156 453.074 92.2156 448.058C92.2156 444.66 98.2015 440.129 102.731 440.129C104.511 440.129 107.747 441.262 109.688 442.718ZM336.182 447.573C338.609 449.191 339.742 451.456 339.418 453.56C339.094 456.472 337.638 457.282 332.138 457.605C326.475 458.091 325.019 457.443 322.755 454.207C321.46 452.104 320.651 449.029 321.298 447.573C322.593 444.175 331.329 444.175 336.182 447.573Z" fill="#bdff00"/>
</svg>
