<svg width="500" height="500" viewBox="0 0 500 500" fill="none" xmlns="http://www.w3.org/2000/svg">
<!-- Succube hipshake frame 2: Hips left, tail swings right -->
<path d="M250 45 C228 45 210 58 205 78 L200 98 C198 115 205 132 218 142 L222 146 C230 152 240 156 250 156 C260 156 270 152 278 146 L282 142 C295 132 302 115 300 98 L295 78 C290 58 272 45 250 45 Z" fill="#bdff00"/>
<path d="M232 92 C228 92 224 96 224 101 C224 106 228 110 232 110 C237 110 241 106 241 101 C241 96 237 92 232 92 Z" fill="#0b0e07"/>
<path d="M268 92 C264 92 260 96 260 101 C260 106 264 110 268 110 C273 110 277 106 277 101 C277 96 273 92 268 92 Z" fill="#0b0e07"/>
<path d="M242 125 Q250 133 258 125" stroke="#0b0e07" stroke-width="2.5" fill="none"/>
<path d="M205 78 L188 65 L172 60 L160 65 L168 72 L182 70 L198 80 Z" fill="#bdff00"/>
<path d="M295 78 L312 65 L328 60 L340 65 L332 72 L318 70 L302 80 Z" fill="#bdff00"/>
<path d="M160 65 L148 80 L140 105 L142 130 L148 120 L145 100 L152 82 Z" fill="#bdff00"/>
<path d="M340 65 L352 80 L360 105 L358 130 L352 120 L355 100 L348 82 Z" fill="#bdff00"/>
<!-- Body shifted left -->
<path d="M235 156 L207 165 L175 185 L153 215 L143 255 L147 290 L160 320 L180 345 L195 360 L205 370 L210 400 L205 430 L200 460 L210 480 L225 490 L235 492 L245 490 L260 480 L270 460 L265 430 L260 400 L265 370 L275 360 L290 345 L310 320 L323 290 L327 255 L317 215 L295 185 L263 165 Z" fill="#bdff00"/>
<path d="M200 210 L195 240 L200 270 L210 295 L225 310 L235 315 L245 310 L260 295 L270 270 L275 240 L270 210 L260 195 L245 185 L235 182 L225 185 L210 195 Z" fill="#0b0e07" opacity="0.3"/>
<path d="M220 210 L220 265 L227 275 L235 280 L243 275 L250 265 L250 210 L245 205 L235 200 L225 205 Z" stroke="#bdff00" stroke-width="2" fill="none"/>
<path d="M235 210 L235 280" stroke="#bdff00" stroke-width="1.5"/>
<path d="M223 230 L247 230" stroke="#bdff00" stroke-width="1.5"/>
<path d="M221 250 L249 250" stroke="#bdff00" stroke-width="1.5"/>
<path d="M153 215 L133 195 L110 175 L85 165 L65 168 L50 180 L63 178 L80 172 L103 182 L95 200 L110 192 L105 215 L125 205 L123 228 L140 218 L143 240 L150 230 Z" fill="#bdff00"/>
<path d="M317 215 L337 195 L360 175 L385 165 L405 168 L420 180 L407 178 L390 172 L367 182 L375 200 L360 192 L365 215 L345 205 L347 228 L330 218 L327 240 L320 230 Z" fill="#bdff00"/>
<!-- Tail swinging right -->
<path d="M235 492 L245 488 L257 485 L268 488 L278 497 L272 500 L257 492 L243 490 L238 495 L236 492 Z" fill="#bdff00"/>
<path d="M278 497 L290 495 L303 498 L313 503 L318 500 L312 490 L300 485 L288 488 Z" fill="#bdff00"/>
<path d="M318 500 L325 495 L335 498 L330 504 L322 502 Z" fill="#bdff00"/>
<path d="M210 480 L203 470 L200 460 L205 445 L209 430 L213 440 L211 455 L213 468 Z" fill="#0b0e07" opacity="0.3"/>
<path d="M260 480 L267 470 L270 460 L265 445 L261 430 L257 440 L259 455 L257 468 Z" fill="#0b0e07" opacity="0.3"/>
</svg>
