<svg width="500" height="500" viewBox="0 0 500 500" fill="none" xmlns="http://www.w3.org/2000/svg">
<!-- Succube hipshake frame 4: Hips right, tail swings left -->
<path d="M250 45 C228 45 210 58 205 78 L200 98 C198 115 205 132 218 142 L222 146 C230 152 240 156 250 156 C260 156 270 152 278 146 L282 142 C295 132 302 115 300 98 L295 78 C290 58 272 45 250 45 Z" fill="#bdff00"/>
<path d="M232 92 C228 92 224 96 224 101 C224 106 228 110 232 110 C237 110 241 106 241 101 C241 96 237 92 232 92 Z" fill="#0b0e07"/>
<path d="M268 92 C264 92 260 96 260 101 C260 106 264 110 268 110 C273 110 277 106 277 101 C277 96 273 92 268 92 Z" fill="#0b0e07"/>
<path d="M242 125 Q250 133 258 125" stroke="#0b0e07" stroke-width="2.5" fill="none"/>
<path d="M205 78 L188 65 L172 60 L160 65 L168 72 L182 70 L198 80 Z" fill="#bdff00"/>
<path d="M295 78 L312 65 L328 60 L340 65 L332 72 L318 70 L302 80 Z" fill="#bdff00"/>
<path d="M160 65 L148 80 L140 105 L142 130 L148 120 L145 100 L152 82 Z" fill="#bdff00"/>
<path d="M340 65 L352 80 L360 105 L358 130 L352 120 L355 100 L348 82 Z" fill="#bdff00"/>
<!-- Body shifted right -->
<path d="M265 156 L237 165 L205 185 L183 215 L173 255 L177 290 L190 320 L210 345 L225 360 L235 370 L240 400 L235 430 L230 460 L240 480 L255 490 L265 492 L275 490 L290 480 L300 460 L295 430 L290 400 L295 370 L305 360 L320 345 L340 320 L353 290 L357 255 L347 215 L325 185 L293 165 Z" fill="#bdff00"/>
<path d="M230 210 L225 240 L230 270 L240 295 L255 310 L265 315 L275 310 L290 295 L300 270 L305 240 L300 210 L290 195 L275 185 L265 182 L255 185 L240 195 Z" fill="#0b0e07" opacity="0.3"/>
<path d="M250 210 L250 265 L257 275 L265 280 L273 275 L280 265 L280 210 L275 205 L265 200 L255 205 Z" stroke="#bdff00" stroke-width="2" fill="none"/>
<path d="M265 210 L265 280" stroke="#bdff00" stroke-width="1.5"/>
<path d="M253 230 L277 230" stroke="#bdff00" stroke-width="1.5"/>
<path d="M251 250 L279 250" stroke="#bdff00" stroke-width="1.5"/>
<path d="M183 215 L163 195 L140 175 L115 165 L95 168 L80 180 L93 178 L110 172 L133 182 L125 200 L140 192 L135 215 L155 205 L153 228 L170 218 L173 240 L180 230 Z" fill="#bdff00"/>
<path d="M347 215 L367 195 L390 175 L415 165 L435 168 L450 180 L437 178 L420 172 L397 182 L405 200 L390 192 L395 215 L375 205 L377 228 L360 218 L357 240 L350 230 Z" fill="#bdff00"/>
<!-- Tail swinging left -->
<path d="M265 492 L255 488 L243 485 L232 488 L222 497 L228 500 L243 492 L257 490 L262 495 L264 492 Z" fill="#bdff00"/>
<path d="M222 497 L210 495 L197 498 L187 503 L182 500 L188 490 L200 485 L212 488 Z" fill="#bdff00"/>
<path d="M182 500 L175 495 L165 498 L170 504 L178 502 Z" fill="#bdff00"/>
<path d="M240 480 L233 470 L230 460 L235 445 L239 430 L243 440 L241 455 L243 468 Z" fill="#0b0e07" opacity="0.3"/>
<path d="M290 480 L297 470 L300 460 L295 445 L291 430 L287 440 L289 455 L287 468 Z" fill="#0b0e07" opacity="0.3"/>
</svg>
