<svg width="500" height="500" viewBox="0 0 500 500" fill="none" xmlns="http://www.w3.org/2000/svg">
<!-- Demon headbang frame 2: Head forward (horns Y +15px, head slightly larger/closer) -->
<path d="M160 75 L130 25 L170 95 Z" fill="#bdff00"/>
<path d="M340 75 L370 25 L330 95 Z" fill="#bdff00"/>
<path d="M250 85 C195 85 158 118 153 160 L148 192 C143 224 153 256 173 278 L168 288 C153 308 148 338 153 368 L163 408 C168 428 183 448 203 458 L213 463 C228 470 272 470 287 463 L297 458 C317 448 332 428 337 408 L347 368 C352 338 347 308 332 288 L327 278 C347 256 357 224 352 192 L347 160 C342 118 305 85 250 85 Z" fill="#bdff00"/>
<path d="M208 172 C197 172 188 183 188 196 C188 209 197 220 208 220 C219 220 228 209 228 196 C228 183 219 172 208 172 Z M208 185 C214 185 218 191 218 196 C218 202 214 208 208 208 C202 208 198 202 198 196 C198 191 202 185 208 185 Z" fill="#0b0e07"/>
<path d="M292 172 C281 172 272 183 272 196 C272 209 281 220 292 220 C303 220 312 209 312 196 C312 183 303 172 292 172 Z M292 185 C298 185 302 191 302 196 C302 202 298 208 292 208 C286 208 282 202 282 196 C282 191 286 185 292 185 Z" fill="#0b0e07"/>
<path d="M228 238 L234 249 L239 243 L245 251 L250 240 L255 251 L261 243 L266 249 L272 238" stroke="#0b0e07" stroke-width="3" fill="none"/>
<path d="M220 280 L210 310 L220 300 L230 315 L240 298 L250 320 L260 298 L270 315 L280 300 L290 310 L280 280 Z" fill="#0b0e07"/>
<path d="M175 260 L140 280 L120 330 L130 340 L150 310 L170 280 Z" fill="#bdff00"/>
<path d="M325 260 L360 280 L380 330 L370 340 L350 310 L330 280 Z" fill="#bdff00"/>
<path d="M210 430 L200 460 L190 490 L210 480 L220 490 L225 470 Z" fill="#bdff00"/>
<path d="M290 430 L300 460 L310 490 L290 480 L280 490 L275 470 Z" fill="#bdff00"/>
<path d="M153 160 L137 149 L121 165 L132 181 L148 192 Z" fill="#bdff00"/>
<path d="M347 160 L363 149 L379 165 L368 181 L352 192 Z" fill="#bdff00"/>
</svg>
