<svg width="500" height="500" viewBox="0 0 500 500" fill="none" xmlns="http://www.w3.org/2000/svg">
<!-- Demon headbang frame 3: Head back (horns Y -10px, head slightly smaller/farther) -->
<path d="M160 50 L130 0 L170 70 Z" fill="#bdff00"/>
<path d="M340 50 L370 0 L330 70 Z" fill="#bdff00"/>
<path d="M250 60 C203 60 170 88 165 125 L160 152 C155 180 165 208 185 228 L180 238 C165 258 160 288 165 318 L175 358 C180 378 195 398 215 408 L225 413 C240 420 260 420 275 413 L285 408 C305 398 320 378 325 358 L335 318 C340 288 335 258 320 238 L315 228 C335 208 345 180 340 152 L335 125 C330 88 297 60 250 60 Z" fill="#bdff00"/>
<path d="M212 143 C203 143 196 152 196 163 C196 174 203 183 212 183 C221 183 228 174 228 163 C228 152 221 143 212 143 Z M212 154 C216 154 219 158 219 163 C219 168 216 172 212 172 C208 172 205 168 205 163 C205 158 208 154 212 154 Z" fill="#0b0e07"/>
<path d="M288 143 C279 143 272 152 272 163 C272 174 279 183 288 183 C297 183 304 174 304 163 C304 152 297 143 288 143 Z M288 154 C292 154 295 158 295 163 C295 168 292 172 288 172 C284 172 281 168 281 163 C281 158 284 154 288 154 Z" fill="#0b0e07"/>
<path d="M232 206 L236 215 L241 210 L245 217 L250 207 L255 217 L259 210 L264 215 L268 206" stroke="#0b0e07" stroke-width="3" fill="none"/>
<path d="M220 280 L210 310 L220 300 L230 315 L240 298 L250 320 L260 298 L270 315 L280 300 L290 310 L280 280 Z" fill="#0b0e07"/>
<path d="M175 260 L140 280 L120 330 L130 340 L150 310 L170 280 Z" fill="#bdff00"/>
<path d="M325 260 L360 280 L380 330 L370 340 L350 310 L330 280 Z" fill="#bdff00"/>
<path d="M210 430 L200 460 L190 490 L210 480 L220 490 L225 470 Z" fill="#bdff00"/>
<path d="M290 430 L300 460 L310 490 L290 480 L280 490 L275 470 Z" fill="#bdff00"/>
<path d="M165 125 L151 116 L137 130 L146 144 L160 152 Z" fill="#bdff00"/>
<path d="M335 125 L349 116 L363 130 L354 144 L340 152 Z" fill="#bdff00"/>
</svg>
