<svg width="500" height="500" viewBox="0 0 500 500" fill="none" xmlns="http://www.w3.org/2000/svg">
<!-- Demon stomp frame 1: Crouch preparation -->
<path d="M160 60 L130 10 L170 80 Z" fill="#bdff00"/>
<path d="M340 60 L370 10 L330 80 Z" fill="#bdff00"/>
<!-- Body lowered ~30px -->
<path d="M250 100 C200 100 165 130 160 170 L155 200 C150 230 160 260 180 280 L175 290 C160 310 155 340 160 370 L170 410 C175 430 190 450 210 460 L220 465 C235 472 265 472 280 465 L290 460 C310 450 325 430 330 410 L340 370 C345 340 340 310 325 290 L320 280 C340 260 350 230 345 200 L340 170 C335 130 300 100 250 100 Z" fill="#bdff00"/>
<path d="M210 185 C200 185 192 195 192 207 C192 219 200 229 210 229 C220 229 228 219 228 207 C228 195 220 185 210 185 Z M210 197 C215 197 218 202 218 207 C218 213 215 217 210 217 C205 217 202 213 202 207 C202 202 205 197 210 197 Z" fill="#0b0e07"/>
<path d="M290 185 C280 185 272 195 272 207 C272 219 280 229 290 229 C300 229 308 219 308 207 C308 195 300 185 290 185 Z M290 197 C295 197 298 202 298 207 C298 213 295 217 290 217 C285 217 282 213 282 207 C282 202 285 197 290 197 Z" fill="#0b0e07"/>
<path d="M230 250 L235 260 L240 255 L245 262 L250 252 L255 262 L260 255 L265 260 L270 250" stroke="#0b0e07" stroke-width="3" fill="none"/>
<path d="M220 310 L210 340 L220 330 L230 345 L240 328 L250 350 L260 328 L270 345 L280 330 L290 340 L280 310 Z" fill="#0b0e07"/>
<!-- Arms down preparing -->
<path d="M175 290 L150 310 L140 350 L150 360 L170 330 L180 300 Z" fill="#bdff00"/>
<path d="M325 290 L350 310 L360 350 L350 360 L330 330 L320 300 Z" fill="#bdff00"/>
<!-- Legs bent, crouched -->
<path d="M210 460 L205 480 L195 500 L210 495 L220 500 L225 485 Z" fill="#bdff00"/>
<path d="M290 460 L295 480 L305 500 L290 495 L280 500 L275 485 Z" fill="#bdff00"/>
<path d="M160 170 L145 160 L130 175 L140 190 L155 200 Z" fill="#bdff00"/>
<path d="M340 170 L355 160 L370 175 L360 190 L345 200 Z" fill="#bdff00"/>
</svg>
