<svg width="500" height="500" viewBox="0 0 500 500" fill="none" xmlns="http://www.w3.org/2000/svg">
<!-- Demon stomp frame 2: Right leg raised -->
<path d="M160 60 L130 10 L170 80 Z" fill="#bdff00"/>
<path d="M340 60 L370 10 L330 80 Z" fill="#bdff00"/>
<path d="M250 85 C200 85 165 115 160 155 L155 185 C150 215 160 245 180 265 L175 275 C160 295 155 325 160 355 L170 395 C175 415 190 435 210 445 L220 450 C235 457 265 457 280 450 L290 445 C310 435 325 415 330 395 L340 355 C345 325 340 295 325 275 L320 265 C340 245 350 215 345 185 L340 155 C335 115 300 85 250 85 Z" fill="#bdff00"/>
<path d="M210 170 C200 170 192 180 192 192 C192 204 200 214 210 214 C220 214 228 204 228 192 C228 180 220 170 210 170 Z M210 182 C215 182 218 187 218 192 C218 198 215 202 210 202 C205 202 202 198 202 192 C202 187 205 182 210 182 Z" fill="#0b0e07"/>
<path d="M290 170 C280 170 272 180 272 192 C272 204 280 214 290 214 C300 214 308 204 308 192 C308 180 300 170 290 170 Z M290 182 C295 182 298 187 298 192 C298 198 295 202 290 202 C285 202 282 198 282 192 C282 187 285 182 290 182 Z" fill="#0b0e07"/>
<path d="M230 235 L235 245 L240 240 L245 247 L250 237 L255 247 L260 240 L265 245 L270 235" stroke="#0b0e07" stroke-width="3" fill="none"/>
<path d="M220 295 L210 325 L220 315 L230 330 L240 313 L250 335 L260 313 L270 330 L280 315 L290 325 L280 295 Z" fill="#0b0e07"/>
<!-- Arms thrust forward -->
<path d="M175 275 L110 280 L70 300 L75 315 L115 305 L165 295 Z" fill="#bdff00"/>
<path d="M325 275 L390 280 L430 300 L425 315 L385 305 L335 295 Z" fill="#bdff00"/>
<!-- Left leg planted -->
<path d="M210 445 L205 470 L195 495 L210 490 L220 495 L225 475 Z" fill="#bdff00"/>
<!-- Right leg raised high -->
<path d="M290 430 L310 415 L330 410 L335 425 L315 435 L295 440 Z" fill="#bdff00"/>
<path d="M160 155 L145 145 L130 160 L140 175 L155 185 Z" fill="#bdff00"/>
<path d="M340 155 L355 145 L370 160 L360 175 L345 185 Z" fill="#bdff00"/>
</svg>
