<svg width="500" height="500" viewBox="0 0 500 500" fill="none" xmlns="http://www.w3.org/2000/svg">
<!-- Gargoyle stomp frame 2: Full extension, both feet off ground -->
<path d="M185 70 L165 35 L150 15 L148 25 L158 45 L175 68 Z" fill="#bdff00"/>
<path d="M315 70 L335 35 L350 15 L352 25 L342 45 L325 68 Z" fill="#bdff00"/>
<path d="M250 45 C210 45 180 65 175 95 L172 120 C170 140 178 158 192 170 L200 176 C215 185 235 190 250 190 C265 190 285 185 300 176 L308 170 C322 158 330 140 328 120 L325 95 C320 65 290 45 250 45 Z" fill="#bdff00"/>
<path d="M190 90 L210 85 L250 82 L290 85 L310 90 L305 98 L290 95 L250 92 L210 95 L195 98 Z" fill="#0b0e07"/>
<path d="M210 108 C205 108 200 113 200 120 C200 127 205 132 210 132 C218 132 225 127 225 120 C225 113 218 108 210 108 Z M210 115 C214 115 218 117 218 120 C218 124 214 126 210 126 C207 126 204 124 204 120 C204 117 207 115 210 115 Z" fill="#0b0e07"/>
<path d="M290 108 C285 108 280 113 280 120 C280 127 285 132 290 132 C298 132 305 127 305 120 C305 113 298 108 290 108 Z M290 115 C294 115 298 117 298 120 C298 124 294 126 290 126 C287 126 284 124 284 120 C284 117 287 115 290 115 Z" fill="#0b0e07"/>
<path d="M235 145 L240 138 L250 135 L260 138 L265 145 L260 155 L250 160 L240 155 Z" fill="#0b0e07"/>
<path d="M242 145 L248 142 L252 142 L258 145 L255 150 L250 152 L245 150 Z" fill="#bdff00" opacity="0.5"/>
<path d="M235 160 L238 170 L242 162 Z" fill="#0b0e07"/>
<path d="M265 160 L262 170 L258 162 Z" fill="#0b0e07"/>
<path d="M220 185 L210 200 L208 225 L215 230 L292 230 L285 225 L290 200 L280 185 Z" fill="#bdff00"/>
<!-- Body — extended, feet off ground -->
<path d="M215 230 L155 250 L120 280 L105 320 L100 365 L108 410 L125 445 L150 468 L180 483 L210 493 L250 495 L290 493 L320 483 L350 468 L375 445 L392 410 L400 365 L395 320 L380 280 L345 250 L285 230 Z" fill="#bdff00"/>
<path d="M195 265 L165 285 L145 320 L138 360 L142 400 L158 432 L178 452 L200 465 L225 472 L250 474 L275 472 L300 465 L322 452 L342 432 L358 400 L362 360 L355 320 L335 285 L305 265 L280 253 L250 248 L220 253 Z" fill="#0b0e07" opacity="0.3"/>
<path d="M250 280 L275 310 L250 340 L225 310 Z" stroke="#bdff00" stroke-width="3" fill="none"/>
<path d="M250 295 L262 310 L250 325 L238 310 Z" fill="#bdff00" opacity="0.25"/>
<path d="M195 330 Q250 315 305 330" stroke="#bdff00" stroke-width="2" fill="none" opacity="0.3"/>
<path d="M190 360 Q250 345 310 360" stroke="#bdff00" stroke-width="2" fill="none" opacity="0.25"/>
<path d="M192 390 Q250 375 308 390" stroke="#bdff00" stroke-width="2" fill="none" opacity="0.2"/>
<!-- Wings — spread wide for power -->
<path d="M120 280 L92 252 L60 225 L32 208 L15 202 L8 215 L20 230 L12 248 L26 254 L20 275 L38 268 L35 292 L52 282 L52 305 L72 292 L78 315 L95 300 Z" fill="#bdff00"/>
<path d="M380 280 L408 252 L440 225 L468 208 L485 202 L492 215 L480 230 L488 248 L474 254 L480 275 L462 268 L465 292 L448 282 L448 305 L428 292 L422 315 L405 300 Z" fill="#bdff00"/>
<!-- Clawed feet — off ground, raised -->
<path d="M180 483 L170 478 L160 480 L166 482 L176 481 L185 478 Z" fill="#bdff00"/>
<path d="M160 480 L150 478 L142 481 L148 483 L158 482 Z" fill="#bdff00"/>
<path d="M320 483 L330 478 L340 480 L334 482 L324 481 L315 478 Z" fill="#bdff00"/>
<path d="M340 480 L350 478 L358 481 L352 483 L342 482 Z" fill="#bdff00"/>
</svg>
