<svg width="500" height="500" viewBox="0 0 500 500" fill="none" xmlns="http://www.w3.org/2000/svg">
<!-- Gargoyle stomp frame 1: Deep crouch, wings spread slightly -->
<path d="M185 95 L165 60 L150 40 L148 50 L158 70 L175 93 Z" fill="#bdff00"/>
<path d="M315 95 L335 60 L350 40 L352 50 L342 70 L325 93 Z" fill="#bdff00"/>
<path d="M250 70 C210 70 180 90 175 120 L172 145 C170 165 178 183 192 195 L200 201 C215 210 235 215 250 215 C265 215 285 210 300 201 L308 195 C322 183 330 165 328 145 L325 120 C320 90 290 70 250 70 Z" fill="#bdff00"/>
<path d="M190 115 L210 110 L250 107 L290 110 L310 115 L305 123 L290 120 L250 117 L210 120 L195 123 Z" fill="#0b0e07"/>
<path d="M210 133 C205 133 200 138 200 145 C200 152 205 157 210 157 C218 157 225 152 225 145 C225 138 218 133 210 133 Z M210 140 C214 140 218 142 218 145 C218 149 214 151 210 151 C207 151 204 149 204 145 C204 142 207 140 210 140 Z" fill="#0b0e07"/>
<path d="M290 133 C285 133 280 138 280 145 C280 152 285 157 290 157 C298 157 305 152 305 145 C305 138 298 133 290 133 Z M290 140 C294 140 298 142 298 145 C298 149 294 151 290 151 C287 151 284 149 284 145 C284 142 287 140 290 140 Z" fill="#0b0e07"/>
<path d="M235 170 L240 163 L250 160 L260 163 L265 170 L260 180 L250 185 L240 180 Z" fill="#0b0e07"/>
<path d="M242 170 L248 167 L252 167 L258 170 L255 175 L250 177 L245 175 Z" fill="#bdff00" opacity="0.5"/>
<path d="M235 185 L238 195 L242 187 Z" fill="#0b0e07"/>
<path d="M265 185 L262 195 L258 187 Z" fill="#0b0e07"/>
<!-- Neck — thick, crouched -->
<path d="M220 210 L210 225 L208 250 L215 255 L292 255 L285 250 L290 225 L280 210 Z" fill="#bdff00"/>
<!-- Shoulders + torso — deep crouch -->
<path d="M215 255 L155 280 L120 315 L105 360 L100 410 L108 460 L125 490 L150 500 L180 500 L210 500 L250 500 L290 500 L320 500 L350 500 L375 490 L392 460 L400 410 L395 360 L380 315 L345 280 L285 255 Z" fill="#bdff00"/>
<path d="M195 290 L165 312 L145 350 L138 395 L142 440 L158 475 L178 490 L200 497 L225 500 L250 500 L275 500 L300 497 L322 490 L342 475 L358 440 L362 395 L355 350 L335 312 L305 290 L280 278 L250 273 L220 278 Z" fill="#0b0e07" opacity="0.3"/>
<path d="M250 305 L275 335 L250 365 L225 335 Z" stroke="#bdff00" stroke-width="3" fill="none"/>
<path d="M250 320 L262 335 L250 350 L238 335 Z" fill="#bdff00" opacity="0.25"/>
<path d="M195 355 Q250 340 305 355" stroke="#bdff00" stroke-width="2" fill="none" opacity="0.3"/>
<path d="M190 385 Q250 370 310 385" stroke="#bdff00" stroke-width="2" fill="none" opacity="0.25"/>
<path d="M192 415 Q250 400 308 415" stroke="#bdff00" stroke-width="2" fill="none" opacity="0.2"/>
<!-- Wings — spread slightly -->
<path d="M120 315 L98 292 L75 270 L55 258 L42 255 L36 265 L46 278 L40 292 L52 296 L48 314 L63 310 L61 330 L76 322 L75 342 L92 330 L95 348 L108 336 Z" fill="#bdff00"/>
<path d="M380 315 L402 292 L425 270 L445 258 L458 255 L464 265 L454 278 L460 292 L448 296 L452 314 L437 310 L439 330 L424 322 L425 342 L408 330 L405 348 L392 336 Z" fill="#bdff00"/>
<!-- Clawed feet — grounded -->
<path d="M180 500 L168 498 L155 500 L162 502 L175 500 L185 498 Z" fill="#bdff00"/>
<path d="M155 500 L142 498 L132 502 L140 504 L152 502 Z" fill="#bdff00"/>
<path d="M320 500 L332 498 L345 500 L338 502 L325 500 L315 498 Z" fill="#bdff00"/>
<path d="M345 500 L358 498 L368 502 L360 504 L348 502 Z" fill="#bdff00"/>
</svg>
