<svg width="500" height="500" viewBox="0 0 500 500" fill="none" xmlns="http://www.w3.org/2000/svg">
<!-- Gargoyle turn frame 2: 30° turn, weight shifting -->
<path d="M195 82 L175 48 L160 28 L158 38 L168 57 L185 80 Z" fill="#bdff00"/>
<path d="M322 78 L340 43 L354 23 L356 33 L347 53 L331 76 Z" fill="#bdff00"/>
<path d="M260 58 C220 60 192 81 188 111 L186 136 C185 156 194 173 209 184 L217 189 C233 197 254 201 270 200 C285 198 304 192 317 182 L324 176 C336 163 341 145 338 125 L333 101 C326 72 295 57 260 58 Z" fill="#bdff00"/>
<path d="M200 103 L220 99 L260 97 L298 100 L316 105 L310 113 L295 110 L258 108 L220 111 L206 114 Z" fill="#0b0e07"/>
<path d="M220 121 C215 122 211 127 212 134 C213 141 218 145 224 144 C232 143 238 137 237 130 C236 123 229 120 220 121 Z M221 128 C225 127 229 129 229 132 C230 136 226 139 222 139 C219 140 215 137 215 133 C215 130 218 128 221 128 Z" fill="#0b0e07"/>
<path d="M296 117 C291 118 287 123 288 130 C289 137 294 141 300 140 C308 139 314 133 313 126 C312 119 305 116 296 117 Z M297 124 C301 123 305 125 305 128 C306 132 302 135 298 135 C295 136 291 133 291 129 C291 126 294 124 297 124 Z" fill="#0b0e07"/>
<path d="M243 157 L248 150 L258 148 L268 151 L273 158 L268 168 L258 172 L248 168 Z" fill="#0b0e07"/>
<path d="M250 157 L256 154 L260 154 L266 157 L263 162 L258 164 L253 162 Z" fill="#bdff00" opacity="0.5"/>
<path d="M243 172 L246 182 L250 174 Z" fill="#0b0e07"/>
<path d="M273 172 L270 182 L266 174 Z" fill="#0b0e07"/>
<path d="M228 197 L219 212 L218 237 L225 242 L300 242 L292 237 L296 212 L286 197 Z" fill="#bdff00"/>
<path d="M225 242 L168 263 L135 294 L122 335 L119 380 L128 425 L146 459 L172 478 L203 490 L234 497 L265 499 L296 497 L326 489 L355 477 L379 458 L396 424 L403 379 L397 334 L381 294 L345 263 L287 242 Z" fill="#bdff00"/>
<path d="M205 277 L177 297 L159 332 L153 372 L158 412 L175 444 L196 463 L220 476 L246 483 L265 484 L284 482 L308 475 L330 462 L349 443 L364 411 L368 371 L360 331 L339 296 L308 276 L281 266 L260 262 L232 267 Z" fill="#0b0e07" opacity="0.3"/>
<path d="M260 292 L283 322 L258 352 L234 322 Z" stroke="#bdff00" stroke-width="3" fill="none"/>
<path d="M260 307 L271 322 L258 337 L247 322 Z" fill="#bdff00" opacity="0.25"/>
<path d="M205 342 Q260 327 315 342" stroke="#bdff00" stroke-width="2" fill="none" opacity="0.3"/>
<path d="M200 372 Q260 357 320 372" stroke="#bdff00" stroke-width="2" fill="none" opacity="0.25"/>
<path d="M202 402 Q260 387 318 402" stroke="#bdff00" stroke-width="2" fill="none" opacity="0.2"/>
<path d="M135 294 L112 270 L87 246 L67 232 L55 228 L50 238 L60 252 L54 266 L67 271 L62 289 L77 285 L75 307 L91 299 L90 320 L107 309 L110 328 L124 317 Z" fill="#bdff00"/>
<path d="M381 294 L406 269 L433 244 L455 228 L468 223 L474 233 L464 248 L471 263 L458 268 L464 287 L448 283 L451 306 L434 298 L436 321 L418 310 L416 331 L401 320 Z" fill="#bdff00"/>
<path d="M203 490 L191 494 L179 499 L186 501 L199 497 L209 493 Z" fill="#bdff00"/>
<path d="M179 499 L166 497 L156 501 L164 503 L176 501 Z" fill="#bdff00"/>
<path d="M326 489 L338 493 L350 498 L343 500 L330 496 L320 492 Z" fill="#bdff00"/>
<path d="M350 498 L363 496 L373 500 L365 502 L353 500 Z" fill="#bdff00"/>
</svg>
