<svg width="500" height="500" viewBox="0 0 500 500" fill="none" xmlns="http://www.w3.org/2000/svg">
<!-- Succube headbang frame 3: Head forward, hair whipping -->
<path d="M250 52 C228 50 208 62 202 82 L196 102 C193 119 199 137 212 148 L216 152 C224 159 234 164 245 166 C255 166 265 163 273 157 L277 153 C291 143 299 126 298 109 L294 89 C289 69 271 54 250 52 Z" fill="#bdff00"/>
<path d="M228 102 C224 102 220 106 220 111 C220 116 224 120 228 120 C233 120 237 116 237 111 C237 106 233 102 228 102 Z" fill="#0b0e07"/>
<path d="M264 100 C260 100 256 104 256 109 C256 114 260 118 264 118 C269 118 273 114 273 109 C273 104 269 100 264 100 Z" fill="#0b0e07"/>
<path d="M238 135 Q246 142 254 134" stroke="#0b0e07" stroke-width="2.5" fill="none"/>
<!-- Hair whipping forward -->
<path d="M202 82 L185 75 L168 75 L155 82 L163 88 L178 84 L193 88 Z" fill="#bdff00"/>
<path d="M294 89 L311 82 L328 82 L341 89 L333 95 L318 91 L303 95 Z" fill="#bdff00"/>
<path d="M155 82 L143 92 L135 112 L133 135 L138 125 L138 108 L145 92 Z" fill="#bdff00"/>
<path d="M341 89 L353 99 L361 119 L363 142 L358 132 L358 115 L351 99 Z" fill="#bdff00"/>
<!-- Forward whipping hair -->
<path d="M133 135 L125 155 L122 178 L125 200 L130 188 L128 168 L132 150 Z" fill="#bdff00"/>
<path d="M363 142 L371 162 L374 185 L371 207 L366 195 L368 175 L364 157 Z" fill="#bdff00"/>
<path d="M245 166 L218 176 L188 197 L168 228 L160 268 L165 303 L180 333 L202 358 L218 373 L229 383 L235 413 L232 443 L229 473 L238 492 L252 500 L262 500 L272 498 L284 489 L291 469 L287 439 L283 409 L287 379 L296 368 L310 352 L328 326 L339 296 L342 261 L331 228 L308 197 L275 176 Z" fill="#bdff00"/>
<path d="M218 223 L214 253 L220 283 L232 308 L248 323 L259 328 L269 323 L283 308 L292 283 L296 253 L290 223 L279 208 L263 199 L252 197 L240 200 L226 210 Z" fill="#0b0e07" opacity="0.3"/>
<path d="M238 223 L239 278 L247 288 L256 293 L265 288 L272 278 L271 223 L265 218 L256 214 L245 217 Z" stroke="#bdff00" stroke-width="2" fill="none"/>
<path d="M256 223 L256 293" stroke="#bdff00" stroke-width="1.5"/>
<path d="M243 243 L268 243" stroke="#bdff00" stroke-width="1.5"/>
<path d="M241 263 L270 263" stroke="#bdff00" stroke-width="1.5"/>
<path d="M168 228 L150 210 L129 192 L106 183 L86 187 L73 199 L85 196 L101 191 L122 200 L116 217 L130 210 L127 230 L145 221 L145 242 L160 233 L164 253 L170 243 Z" fill="#bdff00"/>
<path d="M331 228 L349 210 L370 192 L393 183 L413 187 L426 199 L414 196 L398 191 L377 200 L383 217 L369 210 L372 230 L354 221 L354 242 L339 233 L335 253 L329 243 Z" fill="#bdff00"/>
<path d="M262 500 L252 495 L241 490 L232 492 L226 500 L230 505 L243 499 L256 500 L261 506 L263 500 Z" fill="#bdff00"/>
<path d="M226 500 L213 497 L200 500 L192 506 L188 503 L194 494 L206 490 L218 493 Z" fill="#bdff00"/>
<path d="M188 503 L182 498 L174 501 L180 508 L186 506 Z" fill="#bdff00"/>
<path d="M238 492 L233 482 L231 472 L235 457 L239 442 L243 452 L241 467 L242 480 Z" fill="#0b0e07" opacity="0.3"/>
<path d="M284 489 L289 479 L291 469 L286 454 L281 439 L276 449 L279 464 L278 477 Z" fill="#0b0e07" opacity="0.3"/>
</svg>
