<svg width="500" height="500" viewBox="0 0 500 500" fill="none" xmlns="http://www.w3.org/2000/svg">
<!-- Succube headbang frame 2: Head back, hair flowing dramatically -->
<path d="M250 55 C228 58 210 72 207 92 L204 112 C204 129 212 145 226 154 L230 157 C239 162 250 165 261 164 C271 162 280 156 286 148 L289 143 C299 131 302 113 298 96 L291 78 C283 62 264 53 250 55 Z" fill="#bdff00"/>
<path d="M235 100 C231 101 228 105 229 110 C230 115 234 118 239 117 C243 116 246 112 245 107 C244 102 240 99 235 100 Z" fill="#0b0e07"/>
<path d="M270 97 C266 98 263 102 264 107 C265 112 269 115 274 114 C278 113 281 109 280 104 C279 99 275 96 270 97 Z" fill="#0b0e07"/>
<path d="M245 130 Q254 136 263 128" stroke="#0b0e07" stroke-width="2.5" fill="none"/>
<!-- Hair flowing back dramatically -->
<path d="M207 92 L190 82 L173 80 L160 88 L168 95 L183 92 L198 98 Z" fill="#bdff00"/>
<path d="M291 78 L308 68 L325 66 L338 74 L330 81 L315 78 L300 84 Z" fill="#bdff00"/>
<path d="M160 88 L145 95 L132 110 L125 132 L128 155 L135 145 L133 122 L140 102 Z" fill="#bdff00"/>
<path d="M338 74 L353 81 L366 96 L373 118 L370 141 L363 131 L365 108 L358 88 Z" fill="#bdff00"/>
<!-- More dramatic hair extensions -->
<path d="M125 132 L110 145 L98 165 L95 188 L100 178 L105 160 L115 145 Z" fill="#bdff00"/>
<path d="M373 118 L388 131 L400 151 L403 174 L398 164 L393 146 L383 131 Z" fill="#bdff00"/>
<path d="M250 165 L222 173 L190 192 L168 222 L158 262 L162 297 L175 327 L195 352 L210 367 L220 377 L225 407 L220 437 L215 467 L225 487 L240 497 L250 499 L260 497 L275 487 L285 467 L280 437 L275 407 L280 377 L290 367 L305 352 L325 327 L338 297 L342 262 L332 222 L310 192 L278 173 Z" fill="#bdff00"/>
<path d="M215 217 L210 247 L215 277 L225 302 L240 317 L250 322 L260 317 L275 302 L285 277 L290 247 L285 217 L275 202 L260 192 L250 189 L240 192 L225 202 Z" fill="#0b0e07" opacity="0.3"/>
<path d="M235 217 L235 272 L242 282 L250 287 L258 282 L265 272 L265 217 L260 212 L250 207 L240 212 Z" stroke="#bdff00" stroke-width="2" fill="none"/>
<path d="M250 217 L250 287" stroke="#bdff00" stroke-width="1.5"/>
<path d="M238 237 L262 237" stroke="#bdff00" stroke-width="1.5"/>
<path d="M236 257 L264 257" stroke="#bdff00" stroke-width="1.5"/>
<path d="M168 222 L148 202 L125 182 L100 172 L80 175 L65 187 L78 185 L95 179 L118 189 L110 207 L125 199 L120 222 L140 212 L138 235 L155 225 L158 247 L165 237 Z" fill="#bdff00"/>
<path d="M332 222 L352 202 L375 182 L400 172 L420 175 L435 187 L422 185 L405 179 L382 189 L390 207 L375 199 L380 222 L360 212 L362 235 L345 225 L342 247 L335 237 Z" fill="#bdff00"/>
<path d="M250 499 L240 492 L228 485 L218 487 L210 497 L215 502 L230 495 L245 499 L250 505 L252 499 Z" fill="#bdff00"/>
<path d="M210 497 L195 492 L180 495 L170 502 L165 499 L172 489 L185 485 L198 489 Z" fill="#bdff00"/>
<path d="M165 499 L158 492 L148 497 L155 505 L162 502 Z" fill="#bdff00"/>
<path d="M225 487 L218 477 L215 467 L220 452 L224 437 L228 447 L226 462 L228 475 Z" fill="#0b0e07" opacity="0.3"/>
<path d="M275 487 L282 477 L285 467 L280 452 L276 437 L272 447 L274 462 L272 475 Z" fill="#0b0e07" opacity="0.3"/>
</svg>
