<svg width="400" height="76" viewBox="0 0 400 76" fill="none" xmlns="http://www.w3.org/2000/svg">
<path d="M4.79164 25.5241C6.72609 27.9346 10.5438 30.0408 10.7668 33.4306C11.041 37.6491 5.10199 37.1881 2.43534 36.7903C1.6037 36.6668 1.02517 37.0012 0.708788 37.7696C-0.653166 41.0901 0.482801 45.0434 3.14644 47.3816C6.1325 50.0061 10.3238 50.6509 14.1686 50.5003C17.001 50.3888 20.653 49.6716 23.7204 48.15C22.1807 53.8298 27.2578 58.4701 32.4556 59.5157C35.7942 60.1876 39.2774 59.9918 42.6552 59.8351C46.1866 59.6724 49.706 59.3228 53.2103 58.8528C56.811 58.3737 60.3997 57.6957 63.9372 56.8731C65.5191 56.5055 67.1281 56.0987 68.704 55.5895C68.0411 56.5989 67.5289 57.6897 67.324 58.9311C66.9473 61.2302 67.6404 63.5624 68.927 65.4757C71.901 69.89 77.162 72.2192 82.203 73.3371C87.7141 74.5574 93.409 74.4459 99.0075 74.1024C105.269 73.7198 111.497 73.2587 117.777 73.2377C131.206 73.1955 144.645 73.994 158.066 74.4188C164.791 74.6328 171.516 74.8527 178.245 75.0335C184.946 75.2113 191.729 75.5186 198.424 75.0938C199.105 75.0516 199.349 73.9397 198.596 73.8312C191.533 72.8309 184.322 72.6019 177.202 72.2433C170.013 71.8817 162.82 71.5533 155.631 71.2249C142.801 70.6373 129.932 69.8689 117.087 69.8991C111.142 69.9141 105.239 70.3149 99.3088 70.6795C93.9303 71.0109 88.4102 71.2158 83.116 70.0377C78.539 69.0192 72.0065 66.5725 70.7922 61.3838C70.1564 58.669 72.0456 56.8279 73.7179 54.9839C75.2095 53.3357 76.4268 51.585 77.0626 49.4306C78.304 45.2212 77.2223 40.7135 76.243 36.5704C75.7097 34.3105 75.0528 32.0777 74.5918 29.8028C74.4411 29.0525 74.3417 28.3173 74.2784 27.5881C75.2999 28.4318 76.484 29.1218 77.5387 29.6973C82.4833 32.3971 88.139 33.3222 93.6862 33.7982C100.369 34.3738 107.098 34.5787 113.799 34.8559C142.099 36.031 170.622 36.724 198.9 34.895C200.265 34.8077 200.289 32.7617 198.9 32.7527C195.528 32.7286 192.157 32.6442 188.785 32.6532C175.581 32.6924 162.393 32.6954 149.204 32.5357C149.517 31.2792 149.659 29.8389 149.65 28.4468C150.361 27.2024 150.708 25.741 150.677 24.3037C150.569 18.9433 145.648 15.1136 141.331 12.8055C131.188 7.38176 118.976 7.83374 107.851 8.63825C94.768 9.58439 81.8113 11.7478 68.8637 13.7787C63.5274 14.6164 58.1881 15.4299 52.8306 16.126C53.3489 14.9629 54.3041 14.1795 55.4852 13.2755C56.6634 12.3776 57.6427 11.3953 57.9711 9.9068C57.9922 9.80736 57.9922 9.71395 57.9741 9.62356C58.4291 8.94861 58.4833 8.03863 57.7542 7.40586C53.8732 4.04919 49.3052 1.79835 44.2883 0.710595C36.0895 -1.06416 24.8232 0.24054 19.4085 7.42696C16.7509 10.9554 15.8982 16.2254 10.589 16.5448C6.03909 16.822 3.01085 12.6397 3.5713 8.36707C3.82441 6.41754 0.470746 5.98968 0.15135 7.90304C-0.21023 10.0786 0.0850606 12.2691 0.940802 14.1885C1.1698 18.2804 2.22441 22.3271 4.79164 25.5241ZM147.26 30.8905C147.007 31.4269 146.742 31.9572 146.51 32.5086C133.282 32.3248 120.058 31.9692 106.824 31.3033C100.83 31.002 94.7137 30.9267 88.7838 29.9082C86.0207 29.4322 83.2396 28.7452 80.6844 27.567C79.3797 26.9674 74.4562 24.7527 75.2185 22.8273C75.9628 20.9561 79.8859 21.1128 81.4106 21.0887C84.3484 21.0435 87.2983 21.2604 90.206 21.6762C95.8437 22.4868 101.358 23.9904 106.818 25.5783C117.822 28.7753 129.016 32.5327 140.622 32.1892C142.858 32.1229 145.299 32.0355 147.26 30.8905ZM106.501 12.3896C118.069 11.4797 131.502 10.5546 141.662 17.2469C143.853 18.6902 146.323 20.6879 146.92 23.3877C147.61 26.5034 145.546 28.2028 142.659 28.4468C136.714 28.947 130.715 28.1033 124.924 26.8017C113.242 24.1772 102.033 19.6092 90.1186 18.0213C87.235 17.6356 84.3273 17.4307 81.4166 17.494C78.9488 17.5482 76.3183 17.6868 74.1669 19.0397C72.2234 20.2631 71.2261 22.4778 72.0426 24.6924C72.0728 24.7738 72.1089 24.8521 72.1421 24.9305C70.7681 29.0254 71.9221 34.0544 72.8592 38.0287C73.4468 40.5206 74.0404 43.0487 73.9952 45.6249C73.9439 48.394 72.8803 50.5334 71.1025 52.5914C68.3214 52.9078 65.5492 53.5315 62.8133 54.0407C59.2276 54.7067 55.6178 55.1978 51.99 55.5895C48.7779 55.936 45.5508 56.159 42.3237 56.2916C39.3949 56.4121 36.3064 56.6321 33.4138 56.0565C30.8586 55.5473 28.1859 54.1733 27.294 51.5488C26.4111 48.9515 28.4511 46.6163 29.6503 44.498C32.5309 39.4027 31.5727 33.8555 30.2138 28.4468C29.572 25.8947 29.0447 23.3817 28.7433 20.7633C28.6801 20.2088 28.6469 19.6695 28.6319 19.1361C28.897 19.3712 29.1893 19.5941 29.5117 19.796C33.9742 22.5923 40.3832 21.17 45.2374 20.6668C52.0111 19.9648 58.7545 19.0036 65.486 17.9731C79.1206 15.8819 92.7341 13.4714 106.501 12.3896ZM51.8031 12.4198C50.3839 13.4864 49.4378 14.9267 49.0943 16.5991C49.0401 16.6051 48.9828 16.6141 48.9286 16.6201C45.6864 16.9998 42.4352 17.3282 39.181 17.5813C36.9211 17.7561 34.5497 17.967 32.3742 17.1565C30.7592 16.5569 29.4303 14.9298 30.9309 13.4081C32.3049 12.016 34.7456 11.5972 36.6077 11.4375C42.6823 10.9132 48.8322 10.8349 54.9338 10.5908C53.8883 11.1934 52.7583 11.6996 51.8031 12.4198ZM6.67186 19.6122C10.8632 21.155 15.8018 19.6393 18.4955 16.126C20.0323 14.1252 20.7795 11.6605 22.2741 9.64164C23.7867 7.60172 26.1008 6.26689 28.43 5.35389C35.8122 2.46728 44.3003 3.23865 51.1161 7.12564C49.4679 7.20097 47.8197 7.27329 46.1685 7.34862C42.848 7.49927 39.4823 7.49927 36.1738 7.83373C33.9893 8.0537 31.7083 8.54485 29.816 9.71396C27.7309 11.0036 26.6401 13.1369 26.7245 15.219C25.8989 16.7105 25.4982 18.4702 25.3535 20.1908C25.0763 23.4992 26.0948 26.8227 26.8722 30.0016C27.6556 33.2167 28.4571 36.6999 27.6255 39.9873C27.282 41.3493 26.598 42.5575 25.8838 43.7508C25.0914 44.3986 24.2326 44.9801 23.2503 45.4502C20.888 46.5831 18.2153 47.246 15.6059 47.4298C12.6199 47.6408 9.25414 47.466 6.58447 45.9865C4.48731 44.8234 2.46547 42.2442 2.98072 39.7372C6.31027 40.2946 9.85979 40.4061 12.3426 37.6913C14.8074 34.9975 13.9185 31.1708 11.8816 28.5312C10.6553 26.9403 9.05829 25.7139 7.69634 24.2525C6.38561 22.8484 5.43344 21.1489 4.79766 19.3441C4.70124 19.0699 4.61386 18.7926 4.52648 18.5154C5.18335 18.9463 5.89446 19.326 6.67186 19.6122Z" fill="#BDFF00"/>
<path d="M195.989 37.9922C193.522 37.5583 190.885 37.8235 188.39 37.8476C185.766 37.8747 183.141 37.7873 180.517 37.7662C177.892 37.7421 175.268 37.712 172.643 37.6427C170.23 37.5764 167.313 37.0672 164.996 37.8506C164.661 37.9621 164.508 38.5014 164.887 38.6762C166.967 39.6254 169.712 39.4476 171.956 39.5108C174.695 39.5922 177.434 39.6404 180.173 39.6163C182.921 39.5892 185.648 39.4295 188.39 39.3029C190.876 39.1854 193.585 39.2306 195.989 38.5346C196.237 38.4593 196.273 38.0404 195.989 37.9922Z" fill="#BDFF00"/>
<path d="M158.807 39.6408C159.527 39.5715 160.196 39.5173 160.814 39.1166C161.021 38.981 160.997 38.6465 160.744 38.5772C160.045 38.3843 159.379 38.4958 158.665 38.535C157.939 38.5742 157.442 38.5471 156.827 38.9629C156.686 39.0593 156.686 39.2491 156.827 39.3456C157.481 39.7825 158.032 39.7132 158.807 39.6408Z" fill="#BDFF00"/>
<path d="M119.657 40.3848C123.333 40.5747 127.009 40.659 130.691 40.6199C134.37 40.5807 138.052 40.4421 141.722 40.1829C143.557 40.0534 145.395 39.8997 147.224 39.7069C148.622 39.5622 150.123 39.4718 151.358 38.7637C151.382 38.7487 151.376 38.7125 151.349 38.7035C149.819 38.2214 148.11 38.5136 146.534 38.6281C144.702 38.7607 142.864 38.8662 141.029 38.9506C137.585 39.1103 134.135 39.1946 130.688 39.1886C127.241 39.1796 123.788 39.0952 120.344 38.9295C118.506 38.8391 116.671 38.7246 114.836 38.586C113.23 38.4624 111.467 38.0346 109.891 38.4142C109.487 38.5106 109.367 39.1585 109.771 39.3453C111.12 39.969 112.678 39.9087 114.149 40.0263C115.984 40.1679 117.819 40.2884 119.657 40.3848Z" fill="#BDFF00"/>
<path d="M103.108 38.1702C101.406 37.7966 99.3509 36.968 97.6213 37.5254C97.4797 37.5706 97.4677 37.7424 97.5822 37.8268C99.0556 38.8783 101.279 38.7186 103.012 38.8814C103.422 38.9175 103.5 38.2546 103.108 38.1702Z" fill="#BDFF00"/>
<path d="M92.3484 37.3872C92.5624 37.336 92.6106 37.0106 92.4117 36.9081C90.3055 35.8204 87.455 35.8174 85.1439 35.3594C83.8242 35.0972 82.5165 34.7869 81.1997 34.5127C80.3741 34.3409 80.1963 34.2837 79.5515 34.7838C79.4792 34.8381 79.4852 34.9526 79.5214 35.0219C79.9492 35.9047 80.5278 35.8716 81.4679 36.0675C82.7846 36.3447 84.1165 36.5737 85.4453 36.7936C87.5846 37.1492 90.2 37.8965 92.3484 37.3872Z" fill="#BDFF00"/>
<path d="M88.5969 41.7049C87.6899 40.8009 86.4304 40.8973 85.2281 40.6864C84.1826 40.5056 82.8688 39.9904 81.9016 40.6111C81.7961 40.6774 81.763 40.8039 81.8232 40.9154C82.4078 42.0152 83.9144 42.0725 85.0232 42.2171C86.2677 42.3768 87.5905 42.6751 88.5969 41.7892C88.618 41.7651 88.6149 41.726 88.5969 41.7049Z" fill="#BDFF00"/>
<path d="M87.0452 45.0068C86.2135 44.8471 85.3849 44.7115 84.5502 44.5759C83.9084 44.4704 83.1371 44.2746 82.5525 44.612C82.3868 44.7055 82.3205 44.9405 82.4229 45.1062C82.8147 45.7269 83.6734 45.8836 84.3634 45.968C85.2794 46.0795 86.1382 46.0674 87.0482 45.9107C87.4971 45.8324 87.4881 45.0911 87.0452 45.0068Z" fill="#BDFF00"/>
<path d="M87.2168 48.7195C85.6168 48.3579 83.6794 47.9692 82.1517 48.7647C82.0191 48.834 82.0191 49.0479 82.1517 49.1202C83.6824 49.9157 85.6168 49.524 87.2168 49.1654C87.4368 49.1142 87.4368 48.7677 87.2168 48.7195Z" fill="#BDFF00"/>
<path d="M88.3167 53.9565C86.6474 53.8118 84.9811 53.842 83.3148 53.7094C81.7962 53.5888 80.4131 53.2182 78.8885 53.4291C78.5962 53.4713 78.4937 53.9203 78.7107 54.1011C81.2267 56.1892 85.6862 55.8698 88.4794 54.55C88.7928 54.4054 88.5999 53.9806 88.3167 53.9565Z" fill="#BDFF00"/>
<path d="M86.042 59.0905C84.5204 58.503 82.9535 58.3945 81.3385 58.2318C79.9464 58.0932 78.5182 57.7828 77.2617 58.5271C77.1683 58.5843 77.1261 58.747 77.2225 58.8224C78.3133 59.6872 79.6601 59.6389 81.004 59.6992C82.7034 59.7775 84.3697 59.9011 86.039 59.5184C86.2741 59.4642 86.2289 59.1629 86.042 59.0905Z" fill="#BDFF00"/>
<path d="M75.7337 61.8358C75.3661 61.8539 75.2576 62.3058 75.5529 62.5077C77.8941 64.1077 82.1578 64.5657 84.8244 63.6678C84.8305 63.6648 84.8335 63.6557 84.8274 63.6527C83.4173 63.0441 81.9077 62.8603 80.4131 62.565C78.8403 62.2576 77.3457 61.7605 75.7337 61.8358Z" fill="#BDFF00"/>
<path d="M180.984 68.5494C178.926 68.4259 176.868 68.3023 174.81 68.2119C173.255 68.1456 171.287 67.7027 169.895 68.5373C169.742 68.6277 169.763 68.8236 169.895 68.92C171.227 69.8752 173.234 69.5859 174.81 69.6522C176.753 69.7366 178.697 69.7818 180.64 69.83C184.593 69.9324 188.715 70.3151 192.645 69.821C192.78 69.8029 192.837 69.598 192.681 69.5618C188.887 68.7483 184.85 68.7814 180.984 68.5494Z" fill="#BDFF00"/>
<path d="M113.064 68.6069C121.386 68.6972 129.706 68.5617 138.028 68.6762C142.189 68.7334 146.351 68.7635 150.509 68.7967C152.588 68.8148 154.67 68.8298 156.749 68.8419C158.572 68.8509 160.524 69.0227 162.314 68.64C162.378 68.6249 162.375 68.5285 162.314 68.5134C160.44 68.0163 158.331 68.1127 156.402 68.0404C154.323 67.962 152.241 67.8867 150.162 67.8174C146.118 67.6848 142.072 67.5583 138.028 67.4709C129.706 67.2931 121.383 66.9255 113.064 66.8321C111.922 66.82 111.925 68.5918 113.064 68.6069Z" fill="#BDFF00"/>
<path d="M105.341 66.967C104.639 67.0483 103.865 67.0453 103.47 67.7203C103.404 67.8348 103.422 67.9945 103.518 68.0879C104.082 68.6333 104.823 68.4254 105.525 68.3169C106.384 68.1813 107.315 68.0126 108.059 67.5455C108.264 67.419 108.225 67.1056 107.993 67.0363C107.146 66.7832 106.206 66.8676 105.341 66.967Z" fill="#BDFF00"/>
<path d="M93.2101 68.6217C95.0963 68.8838 97.0549 69.0646 98.8507 68.3324C98.9562 68.2902 98.9622 68.1516 98.8507 68.1094C97.0699 67.4857 95.1325 67.4767 93.2794 67.1693C91.8963 66.9403 89.9739 65.9972 88.6541 66.5486C88.4854 66.6209 88.3558 66.8108 88.4733 66.9946C89.3562 68.3656 91.7185 68.4138 93.2101 68.6217Z" fill="#BDFF00"/>
<path d="M124.026 14.933C127.771 15.2403 131.26 15.7315 134.695 17.3616C136.289 18.1179 137.811 19.0279 139.221 20.0855C140.511 21.0527 141.62 22.4719 143.03 23.2282C143.162 23.3006 143.37 23.177 143.307 23.0143C142.704 21.4746 141.123 20.2603 139.866 19.2478C138.384 18.0516 136.784 17.003 135.084 16.1413C131.731 14.4418 127.819 13.1281 124.023 13.1582C122.869 13.1703 122.905 14.8426 124.026 14.933Z" fill="#BDFF00"/>
<path d="M129.85 18.0452C129.652 18.0271 129.621 18.3345 129.805 18.3827C133.451 19.362 136.299 21.3687 138.83 24.1077C139.613 24.9544 140.876 23.6859 140.095 22.8422C137.453 19.9857 133.683 18.3947 129.85 18.0452Z" fill="#BDFF00"/>
<path d="M138.206 24.9065C135.964 23.3909 133.55 22.279 130.884 21.815C130.64 21.7728 130.492 22.0801 130.712 22.2187C132.912 23.6169 135.18 24.9035 137.392 26.2926C138.278 26.853 139.055 25.482 138.206 24.9065Z" fill="#BDFF00"/>
<path d="M131.724 24.8095C131.14 24.6619 130.046 24.2883 129.567 24.7945C129.145 25.2404 130.739 25.8792 130.89 25.9455C131.878 26.3824 133.068 26.9278 134.159 26.5994C134.415 26.521 134.454 26.2408 134.304 26.051C133.689 25.2736 132.643 25.0415 131.724 24.8095Z" fill="#BDFF00"/>
<path d="M100.743 26.5786C97.8564 25.6354 94.9216 25.1413 91.9024 24.8098C90.2572 24.629 88.609 24.5145 86.9578 24.4241C85.7766 24.3578 84.6045 24.1017 83.5318 24.6531C83.3781 24.7315 83.3751 24.9846 83.5318 25.0629C84.5924 25.5963 85.7887 25.3582 86.9578 25.3793C88.389 25.4034 89.8203 25.4998 91.2455 25.6324C94.3943 25.9247 97.5219 26.4791 100.65 26.91C100.867 26.9401 100.96 26.6509 100.743 26.5786Z" fill="#BDFF00"/>
<path d="M91.4323 27.1724C90.5012 26.9254 89.0308 26.3619 88.2414 27.1755C88.1871 27.2297 88.2022 27.3141 88.2655 27.3562C88.6662 27.6214 89.0368 27.5973 89.5009 27.5852C90.0914 27.5732 90.7272 27.534 91.3118 27.6154C91.595 27.6545 91.7276 27.2508 91.4323 27.1724Z" fill="#BDFF00"/>
<path d="M38.4939 25.9428C38.06 26.0934 38.072 26.6599 38.4939 26.8136C39.7444 27.2716 41.2359 27.0546 42.5557 27.0064C43.8694 26.9612 45.1831 26.8829 46.4909 26.7684C49.1666 26.5364 51.8332 26.1748 54.4758 25.6927C57.278 25.1804 60.0531 24.5266 62.7861 23.7311C64.0486 23.3635 65.3021 22.9657 66.5405 22.5168C67.6132 22.1281 68.8426 21.8689 69.5718 20.959C69.623 20.8957 69.617 20.7722 69.5175 20.7541C68.3635 20.5522 67.348 21.1096 66.2452 21.4531C64.9917 21.8448 63.7352 22.2305 62.4697 22.5861C59.9386 23.2972 57.3744 23.8878 54.7861 24.3578C51.9326 24.8761 49.052 25.2407 46.1624 25.4546C44.8517 25.551 43.5379 25.6264 42.2242 25.6655C40.9858 25.7107 39.6751 25.533 38.4939 25.9428Z" fill="#BDFF00"/>
<path d="M34.3146 26.4852C34.5074 26.5997 34.6882 26.6539 34.9564 26.6841C35.2276 26.7142 35.4777 26.7353 35.7368 26.8317C36.1195 26.9793 36.2551 26.434 35.9899 26.2321C35.4897 25.8494 34.6551 25.5782 34.2453 26.217C34.185 26.3074 34.2272 26.4309 34.3146 26.4852Z" fill="#BDFF00"/>
<path d="M35.1916 30.2999C36.6681 31.0683 38.7351 30.6675 40.3622 30.6585C41.9984 30.6495 43.9178 30.8694 45.4063 30.08C45.4394 30.0619 45.4394 30.0107 45.4063 29.9956C43.9178 29.2062 42.0014 29.4291 40.3622 29.4171C38.7291 29.408 36.6741 29.0043 35.1916 29.7756C34.9928 29.8781 34.9928 30.1945 35.1916 30.2999Z" fill="#BDFF00"/>
<path d="M39.199 34.9194C40.2115 34.8351 41.4559 34.8019 42.2514 34.1179C42.3448 34.0366 42.3237 33.8497 42.2092 33.7955C41.3022 33.3737 40.1783 33.5665 39.196 33.5695C38.1957 33.5725 36.9813 33.3737 36.1045 33.9341C35.9418 34.0396 35.8574 34.3228 36.0352 34.4614C36.9241 35.1545 38.1294 35.0068 39.199 34.9194Z" fill="#BDFF00"/>
<path d="M42.6189 38.2396C42.649 38.2155 42.6369 38.1673 42.6068 38.1492C41.6185 37.5556 39.1748 37.3507 38.4034 38.3722C38.3402 38.4566 38.3733 38.6012 38.4426 38.6705C39.3375 39.5624 41.7541 38.9507 42.6189 38.2396Z" fill="#BDFF00"/>
<path d="M33.492 44.1547C35.2848 44.9833 37.605 44.7995 39.5485 44.8447C41.7993 44.8989 43.9326 44.7664 46.1413 44.3656C46.3763 44.3234 46.295 43.995 46.0901 43.9799C43.9085 43.8022 41.739 43.7238 39.5515 43.6123C37.6381 43.5159 35.4777 42.9554 33.6005 43.3441C33.2389 43.4195 33.1485 43.998 33.492 44.1547Z" fill="#BDFF00"/>
<path d="M35.0167 39.6771C34.8932 39.7404 34.8932 39.9423 35.0167 40.0026C35.2849 40.1382 35.5862 40.105 35.8604 40.0146C36.0322 39.9574 36.0322 39.7223 35.8604 39.6651C35.5862 39.5747 35.2849 39.5415 35.0167 39.6771Z" fill="#BDFF00"/>
<path d="M33.3415 49.6298C35.3393 50.6753 38.488 49.7895 40.5912 49.3797C40.998 49.3013 40.9046 48.6173 40.4918 48.6535C39.1509 48.777 37.798 48.8041 36.4542 48.8433C35.3875 48.8765 34.3359 48.7348 33.3415 49.1597C33.1547 49.2441 33.1758 49.5454 33.3415 49.6298Z" fill="#BDFF00"/>
<path d="M63.3706 50.4734C62.1653 50.3679 61.0655 50.5758 59.8693 50.7476C59.0316 50.8651 57.7269 50.7265 57.2538 51.5551C57.1845 51.6757 57.2116 51.8143 57.299 51.9137C57.9408 52.6429 59.1642 52.1879 60.0018 52.0372C61.2704 51.8113 62.3883 51.537 63.458 50.8109C63.6146 50.7054 63.5514 50.4885 63.3706 50.4734Z" fill="#BDFF00"/>
<path d="M53.0956 52.5673C49.6395 52.4347 46.2135 52.7813 42.7664 52.9741C41.1574 53.0645 39.5453 53.1459 37.9333 53.2061C36.3393 53.2634 34.8267 53.0163 33.2508 52.9711C32.8923 52.9621 32.6693 53.4532 32.9495 53.7003C33.9891 54.6133 35.3209 54.6133 36.6617 54.6012C38.4666 54.5831 40.2775 54.4807 42.0794 54.3722C45.8037 54.1462 49.534 53.9022 53.1498 52.944C53.3577 52.8837 53.3035 52.5764 53.0956 52.5673Z" fill="#BDFF00"/>
<path d="M15.0633 24.3369C16.9857 24.2405 19.327 22.6073 20.1857 20.8989C20.255 20.7603 20.1074 20.5855 19.9597 20.6729C19.1161 21.1881 18.3748 21.842 17.5372 22.3663C16.6874 22.8966 15.7413 23.225 14.9127 23.7855C14.6867 23.9392 14.75 24.352 15.0633 24.3369Z" fill="#BDFF00"/>
<path d="M17.8509 25.934C17.17 26.2052 16.3956 26.4704 16.1666 27.2297C16.1274 27.3593 16.1907 27.528 16.3142 27.5913C17.0223 27.9589 17.7515 27.5943 18.4265 27.296C19.1496 26.9736 20.0355 26.6632 20.4543 25.9461C20.5658 25.7533 20.4664 25.4851 20.2434 25.4278C19.4298 25.226 18.5892 25.6388 17.8509 25.934Z" fill="#BDFF00"/>
<path d="M18.625 30.6041C19.0348 30.4082 19.3211 30.0708 19.6495 29.7725C19.8092 29.6278 19.6405 29.3868 19.4506 29.429C19.0017 29.5314 18.5708 29.5826 18.164 29.8146C17.9019 29.9623 17.4378 30.2335 17.6488 30.6131C17.8597 30.9958 18.3508 30.7337 18.625 30.6041Z" fill="#BDFF00"/>
<path d="M15.892 34.8949C15.1779 35.1541 15.1478 36.1303 15.892 36.3774C16.9918 36.745 18.2152 36.4497 19.2608 36.0219C20.2822 35.603 20.8246 35.0245 21.2374 34.0271C21.2736 33.9398 21.1832 33.8343 21.0958 33.8403C20.222 33.8976 19.5018 34.0121 18.6521 34.2592C17.7421 34.5243 16.7809 34.5725 15.892 34.8949Z" fill="#BDFF00"/>
<path d="M17.1307 42.2986C18.3812 42.0364 19.1857 41.5362 20.2554 40.9005C20.391 40.8191 20.3458 40.56 20.168 40.578C19.0802 40.7046 18.0437 40.7106 16.9529 40.9185C16.1213 41.0782 14.9944 40.9909 14.5093 41.7833C14.4309 41.9129 14.458 42.0937 14.5635 42.2022C15.2354 42.8801 16.3021 42.4733 17.1307 42.2986Z" fill="#BDFF00"/>
<path d="M14.8043 43.3919C14.0329 43.3558 9.66984 42.4578 9.67285 43.8258C9.67587 44.5851 10.9444 44.5429 11.4175 44.5369C12.6921 44.5219 13.6774 44.1693 14.8465 43.7143C15.0152 43.648 14.9941 43.401 14.8043 43.3919Z" fill="#BDFF00"/>
<path d="M201.097 34.9013C229.378 36.7333 257.898 36.0373 286.198 34.8621C292.899 34.5849 299.628 34.377 306.311 33.8045C311.858 33.3284 317.514 32.4034 322.458 29.7036C323.513 29.1281 324.697 28.438 325.719 27.5943C325.655 28.3265 325.556 29.0618 325.405 29.809C324.944 32.084 324.287 34.3167 323.754 36.5766C322.778 40.7197 321.693 45.2274 322.934 49.4368C323.57 51.5913 324.785 53.3419 326.279 54.9901C327.948 56.8342 329.838 58.6782 329.205 61.3901C327.991 66.5788 321.458 69.0255 316.881 70.0439C311.584 71.2221 306.067 71.0172 300.688 70.6857C294.758 70.3211 288.856 69.9204 282.911 69.9053C270.065 69.8722 257.193 70.6405 244.366 71.2311C237.177 71.5626 229.984 71.888 222.795 72.2496C215.675 72.6081 208.464 72.8371 201.401 73.8375C200.648 73.943 200.892 75.0548 201.573 75.1C208.268 75.5249 215.051 75.2175 221.752 75.0398C228.481 74.859 235.206 74.639 241.931 74.4251C255.352 74.0002 268.791 73.2017 282.221 73.2439C288.5 73.265 294.728 73.726 300.99 74.1087C306.588 74.4492 312.283 74.5637 317.794 73.3433C322.835 72.2255 328.099 69.8963 331.07 65.482C332.357 63.5716 333.05 61.2364 332.673 58.9374C332.468 57.6959 331.956 56.6052 331.293 55.5958C332.866 56.105 334.475 56.5118 336.06 56.8794C339.597 57.702 343.186 58.3799 346.787 58.859C350.291 59.3261 353.81 59.6756 357.342 59.8413C360.72 59.998 364.203 60.1939 367.541 59.5219C372.739 58.4764 377.816 53.8361 376.277 48.1562C379.344 49.6779 382.999 50.395 385.828 50.5065C389.673 50.6572 393.865 50.0093 396.851 47.3879C399.514 45.0466 400.65 41.0934 399.288 37.7759C398.972 37.0075 398.396 36.673 397.562 36.7966C394.895 37.1943 388.956 37.6553 389.23 33.4369C389.45 30.0471 393.268 27.9409 395.205 25.5303C397.773 22.3333 398.827 18.2897 399.059 14.2068C399.915 12.2874 400.21 10.0969 399.849 7.92134C399.529 6.00798 396.173 6.43284 396.429 8.38538C396.986 12.6581 393.961 16.8373 389.411 16.5631C384.102 16.2407 383.249 10.9737 380.592 7.44527C375.18 0.25885 363.914 -1.04585 355.712 0.728905C350.692 1.81666 346.127 4.06449 342.246 7.42417C341.517 8.05393 341.571 8.96692 342.026 9.64187C342.011 9.73226 342.008 9.82869 342.029 9.92511C342.354 11.4136 343.337 12.3959 344.515 13.2938C345.696 14.1978 346.651 14.9812 347.169 16.1443C341.812 15.4513 336.473 14.6347 331.136 13.797C318.189 11.7662 305.232 9.6027 292.149 8.65656C281.024 7.85205 268.812 7.40007 258.67 12.8238C254.352 15.1319 249.431 18.9616 249.323 24.322C249.293 25.7593 249.639 27.2207 250.35 28.4652C250.341 29.8542 250.483 31.2975 250.796 32.554C237.61 32.7137 224.419 32.7077 211.215 32.6715C207.843 32.6625 204.472 32.7469 201.1 32.771C199.708 32.771 199.732 34.8139 201.097 34.9013ZM371.564 5.35412C373.893 6.26712 376.207 7.60195 377.72 9.64187C379.215 11.6607 379.962 14.1225 381.498 16.1262C384.192 19.6396 389.131 21.1582 393.322 19.6125C394.1 19.3262 394.811 18.9496 395.465 18.5066C395.38 18.7838 395.293 19.061 395.193 19.3352C394.558 21.1401 393.605 22.8426 392.295 24.2437C390.93 25.7051 389.336 26.9314 388.109 28.5224C386.072 31.1619 385.184 34.9887 387.648 37.6824C390.134 40.3973 393.684 40.2858 397.01 39.7284C397.523 42.2354 395.504 44.8146 393.407 45.9777C390.737 47.4602 387.371 47.6319 384.385 47.421C381.776 47.2372 379.103 46.5773 376.741 45.4414C375.758 44.9713 374.903 44.3928 374.107 43.7419C373.393 42.5487 372.709 41.3404 372.366 39.9785C371.534 36.6881 372.335 33.2079 373.119 29.9928C373.893 26.8139 374.915 23.4904 374.638 20.1819C374.493 18.4614 374.095 16.7017 373.267 15.2102C373.351 13.1311 372.26 10.9948 370.175 9.70515C368.286 8.53603 366.002 8.04489 363.817 7.82492C360.509 7.49046 357.143 7.49046 353.823 7.33981C352.174 7.26448 350.526 7.19216 348.875 7.11683C355.694 3.23887 364.182 2.46449 371.564 5.35412ZM348.191 12.42C347.236 11.7029 346.106 11.1967 345.06 10.585C351.162 10.8291 357.312 10.9074 363.386 11.4317C365.248 11.5914 367.689 12.0102 369.063 13.4023C370.564 14.927 369.238 16.5511 367.62 17.1507C365.444 17.9582 363.073 17.7503 360.813 17.5755C357.559 17.3224 354.308 16.994 351.065 16.6143C351.011 16.6083 350.954 16.6023 350.9 16.5933C350.556 14.924 349.61 13.4837 348.191 12.42ZM253.074 23.3849C253.671 20.6851 256.141 18.6874 258.332 17.2441C268.492 10.5518 281.925 11.4769 293.493 12.3869C307.263 13.4686 320.873 15.8791 334.514 17.9703C341.246 19.0008 347.989 19.962 354.763 20.664C359.62 21.1672 366.026 22.5895 370.488 19.7932C370.811 19.5914 371.103 19.3684 371.368 19.1334C371.353 19.6667 371.32 20.206 371.257 20.7605C370.955 23.3789 370.428 25.8919 369.786 28.4441C368.424 33.8527 367.469 39.3999 370.35 44.4952C371.549 46.6135 373.589 48.9487 372.706 51.546C371.814 54.1705 369.141 55.5445 366.586 56.0538C363.691 56.6293 360.605 56.4093 357.676 56.2888C354.449 56.1562 351.222 55.9363 348.01 55.5867C344.385 55.195 340.775 54.7039 337.187 54.038C334.451 53.5287 331.679 52.905 328.898 52.5886C327.12 50.5306 326.053 48.3882 326.005 45.6222C325.96 43.0459 326.553 40.5178 327.141 38.026C328.078 34.0516 329.232 29.0226 327.858 24.9277C327.891 24.8493 327.927 24.771 327.957 24.6896C328.774 22.478 327.777 20.2603 325.833 19.0369C323.682 17.684 321.051 17.5454 318.583 17.4912C315.673 17.4279 312.765 17.6358 309.881 18.0185C297.967 19.6064 286.755 24.1744 275.076 26.7989C269.285 28.1006 263.286 28.9412 257.341 28.4441C254.445 28.2 252.384 26.5006 253.074 23.3849ZM252.734 30.8908C254.695 32.0388 257.136 32.1231 259.369 32.1894C270.975 32.5329 282.172 28.7755 293.173 25.5785C298.633 23.9906 304.147 22.487 309.785 21.6765C312.693 21.2576 315.643 21.0437 318.58 21.0889C320.105 21.113 324.031 20.9563 324.773 22.8275C325.538 24.7529 320.611 26.9646 319.307 27.5672C316.751 28.7454 313.973 29.4324 311.207 29.9085C305.28 30.9269 299.164 31.0022 293.167 31.3036C279.937 31.9725 266.709 32.328 253.481 32.5088C253.252 31.9574 252.987 31.4271 252.734 30.8908Z" fill="#BDFF00"/>
<path d="M199.424 74.4674C199.437 74.7627 199.663 75.0098 199.967 75.0098C199.976 75.0098 199.985 75.0068 199.997 75.0068C200.006 75.0068 200.015 75.0098 200.027 75.0098C200.331 75.0098 200.557 74.7627 200.569 74.4674C200.582 74.1751 200.31 73.925 200.027 73.925C200.018 73.925 200.009 73.9281 199.997 73.9281C199.988 73.9281 199.979 73.925 199.967 73.925C199.684 73.925 199.412 74.1751 199.424 74.4674Z" fill="#BDFF00"/>
<path d="M235.001 37.8482C232.684 37.0648 229.767 37.577 227.354 37.6403C224.729 37.7096 222.105 37.7397 219.48 37.7638C216.856 37.7879 214.228 37.8723 211.607 37.8452C209.109 37.8211 206.475 37.5559 204.008 37.9898C203.724 38.041 203.76 38.4569 204.008 38.5292C206.412 39.2252 209.124 39.183 211.607 39.2975C214.349 39.4271 217.076 39.5868 219.824 39.6109C222.563 39.638 225.302 39.5868 228.041 39.5054C230.285 39.4391 233.03 39.6199 235.11 38.6708C235.489 38.499 235.332 37.9597 235.001 37.8482Z" fill="#BDFF00"/>
<path d="M241.187 39.6408C241.962 39.7132 242.513 39.7825 243.17 39.3456C243.312 39.2491 243.312 39.0593 243.17 38.9629C242.555 38.5471 242.058 38.5772 241.332 38.535C240.618 38.4958 239.952 38.3843 239.253 38.5772C239 38.6465 238.973 38.981 239.183 39.1166C239.798 39.5173 240.467 39.5715 241.187 39.6408Z" fill="#BDFF00"/>
<path d="M258.275 40.1802C261.945 40.4423 265.627 40.5779 269.306 40.6171C272.985 40.6563 276.664 40.5749 280.34 40.3821C282.178 40.2856 284.013 40.1651 285.848 40.0175C287.319 39.9 288.877 39.9602 290.226 39.3365C290.627 39.1497 290.51 38.5049 290.106 38.4054C288.53 38.0258 286.764 38.4536 285.161 38.5772C283.326 38.7188 281.491 38.8333 279.653 38.9207C276.209 39.0864 272.756 39.1708 269.309 39.1798C265.859 39.1889 262.412 39.1015 258.968 38.9418C257.133 38.8574 255.298 38.7519 253.463 38.6194C251.887 38.5049 250.178 38.2126 248.648 38.6947C248.621 38.7037 248.615 38.7399 248.639 38.755C249.877 39.463 251.378 39.5534 252.773 39.6981C254.602 39.8939 256.437 40.0476 258.275 40.1802Z" fill="#BDFF00"/>
<path d="M302.373 37.5228C300.643 36.9654 298.591 37.797 296.886 38.1677C296.494 38.252 296.572 38.9149 296.982 38.8758C298.715 38.71 300.938 38.8727 302.412 37.8211C302.526 37.7428 302.511 37.568 302.373 37.5228Z" fill="#BDFF00"/>
<path d="M318.794 34.5124C317.478 34.7866 316.17 35.097 314.85 35.3591C312.539 35.8171 309.688 35.8232 307.582 36.9079C307.383 37.0104 307.429 37.3358 307.646 37.387C309.794 37.8932 312.409 37.149 314.552 36.7964C315.881 36.5765 317.209 36.3475 318.529 36.0703C319.469 35.8714 320.048 35.9045 320.476 35.0247C320.509 34.9524 320.515 34.8409 320.445 34.7866C319.798 34.2834 319.623 34.3407 318.794 34.5124Z" fill="#BDFF00"/>
<path d="M318.092 40.614C317.122 39.9933 315.811 40.5086 314.766 40.6893C313.563 40.8973 312.304 40.8008 311.397 41.7078C311.376 41.7289 311.373 41.7681 311.397 41.7891C312.406 42.678 313.726 42.3797 314.971 42.217C316.079 42.0724 317.586 42.0181 318.171 40.9153C318.231 40.8069 318.198 40.6803 318.092 40.614Z" fill="#BDFF00"/>
<path d="M315.631 45.965C316.321 45.8807 317.179 45.724 317.571 45.1033C317.674 44.9406 317.607 44.7055 317.441 44.6091C316.854 44.2716 316.083 44.4675 315.444 44.573C314.609 44.7085 313.777 44.8441 312.949 45.0038C312.509 45.0882 312.497 45.8294 312.949 45.9048C313.856 46.0645 314.715 46.0795 315.631 45.965Z" fill="#BDFF00"/>
<path d="M312.777 49.1623C314.377 49.5239 316.315 49.9126 317.842 49.1171C317.975 49.0478 317.975 48.8338 317.842 48.7615C316.312 47.9661 314.377 48.3578 312.777 48.7163C312.557 48.7676 312.557 49.1141 312.777 49.1623Z" fill="#BDFF00"/>
<path d="M321.105 53.4292C319.581 53.2153 318.198 53.5859 316.679 53.7094C315.013 53.842 313.347 53.8119 311.677 53.9565C311.394 53.9806 311.201 54.4055 311.515 54.5531C314.305 55.8699 318.764 56.1893 321.283 54.1042C321.503 53.9234 321.398 53.4714 321.105 53.4292Z" fill="#BDFF00"/>
<path d="M322.733 58.5245C321.476 57.7832 320.048 58.0906 318.656 58.2292C317.044 58.3919 315.477 58.5034 313.952 59.0879C313.765 59.1603 313.72 59.4616 313.952 59.5158C315.618 59.8985 317.288 59.7749 318.987 59.6966C320.331 59.6363 321.681 59.6845 322.769 58.8198C322.868 58.7444 322.826 58.5817 322.733 58.5245Z" fill="#BDFF00"/>
<path d="M315.17 63.6557C315.164 63.6587 315.167 63.6677 315.173 63.6707C317.842 64.5687 322.103 64.1107 324.444 62.5107C324.74 62.3088 324.631 61.8538 324.263 61.8387C322.651 61.7634 321.157 62.2606 319.587 62.5709C318.086 62.8632 316.58 63.047 315.17 63.6557Z" fill="#BDFF00"/>
<path d="M225.184 68.2115C223.126 68.2989 221.068 68.4224 219.01 68.5489C215.147 68.784 211.107 68.7508 207.313 69.5644C207.156 69.5975 207.214 69.8054 207.349 69.8235C211.278 70.3177 215.4 69.935 219.354 69.8326C221.297 69.7813 223.241 69.7361 225.184 69.6548C226.76 69.5885 228.767 69.8778 230.099 68.9226C230.231 68.8262 230.252 68.6303 230.099 68.5399C228.707 67.7023 226.736 68.1452 225.184 68.2115Z" fill="#BDFF00"/>
<path d="M237.677 68.637C239.467 69.0197 241.419 68.8479 243.242 68.8389C245.321 68.8268 247.403 68.8117 249.482 68.7937C253.644 68.7605 257.805 68.7304 261.963 68.6731C270.288 68.5586 278.608 68.6942 286.927 68.6038C288.066 68.5918 288.069 66.82 286.927 66.8321C278.608 66.9225 270.282 67.2931 261.963 67.4709C257.916 67.5552 253.873 67.6818 249.829 67.8174C247.75 67.8867 245.668 67.962 243.589 68.0404C241.66 68.1127 239.551 68.0163 237.677 68.5134C237.617 68.5285 237.614 68.6249 237.677 68.637Z" fill="#BDFF00"/>
<path d="M294.472 68.3173C295.174 68.4288 295.915 68.6337 296.479 68.0883C296.575 67.9949 296.593 67.8352 296.527 67.7207C296.129 67.0457 295.358 67.0488 294.656 66.9674C293.788 66.868 292.851 66.7836 292.004 67.0337C291.772 67.103 291.733 67.4164 291.938 67.5429C292.682 68.013 293.613 68.1817 294.472 68.3173Z" fill="#BDFF00"/>
<path d="M301.143 68.1094C301.032 68.1485 301.038 68.2871 301.143 68.3323C302.939 69.0675 304.898 68.8837 306.784 68.6216C308.276 68.4137 310.638 68.3655 311.521 66.9975C311.638 66.8137 311.509 66.6239 311.34 66.5515C310.02 66.0001 308.098 66.9433 306.715 67.1723C304.862 67.4766 302.924 67.4856 301.143 68.1094Z" fill="#BDFF00"/>
<path d="M256.961 23.2311C258.374 22.4718 259.48 21.0556 260.77 20.0884C262.18 19.0307 263.701 18.1208 265.295 17.3644C268.73 15.7313 272.22 15.2402 275.965 14.9358C277.086 14.8454 277.122 13.1731 275.965 13.1641C272.168 13.134 268.257 14.4477 264.904 16.1471C263.204 17.0089 261.604 18.0575 260.122 19.2537C258.865 20.2691 257.283 21.4835 256.681 23.0202C256.62 23.1829 256.828 23.3034 256.961 23.2311Z" fill="#BDFF00"/>
<path d="M270.189 18.3827C270.37 18.3345 270.343 18.0271 270.144 18.0452C266.314 18.3947 262.544 19.9857 259.902 22.8452C259.122 23.6889 260.384 24.9574 261.167 24.1107C263.696 21.3687 266.543 19.365 270.189 18.3827Z" fill="#BDFF00"/>
<path d="M269.11 21.8179C266.443 22.2819 264.033 23.3938 261.788 24.9094C260.938 25.4819 261.716 26.8529 262.599 26.2985C264.81 24.9094 267.082 23.6228 269.279 22.2247C269.502 22.0831 269.354 21.7757 269.11 21.8179Z" fill="#BDFF00"/>
<path d="M268.269 24.8102C267.35 25.0422 266.302 25.2712 265.69 26.0516C265.539 26.2415 265.579 26.5217 265.835 26.6C266.922 26.9285 268.116 26.3831 269.104 25.9462C269.255 25.8799 270.849 25.2411 270.427 24.7951C269.951 24.2889 268.857 24.6656 268.269 24.8102Z" fill="#BDFF00"/>
<path d="M299.341 26.9104C302.472 26.4795 305.597 25.9251 308.746 25.6328C310.171 25.5003 311.602 25.4038 313.033 25.3797C314.202 25.3586 315.399 25.5967 316.459 25.0633C316.616 24.985 316.613 24.7319 316.459 24.6536C315.387 24.0991 314.214 24.3583 313.033 24.4246C311.382 24.5149 309.734 24.6294 308.089 24.8102C305.069 25.1417 302.138 25.6328 299.248 26.579C299.034 26.6513 299.127 26.9405 299.341 26.9104Z" fill="#BDFF00"/>
<path d="M308.562 27.1724C308.266 27.2508 308.399 27.6545 308.685 27.6154C309.27 27.537 309.903 27.5732 310.496 27.5852C310.96 27.5943 311.328 27.6214 311.732 27.3562C311.795 27.3141 311.81 27.2327 311.756 27.1755C310.96 26.3619 309.493 26.9254 308.562 27.1724Z" fill="#BDFF00"/>
<path d="M333.453 22.5226C334.692 22.9716 335.942 23.3693 337.208 23.737C339.941 24.5324 342.716 25.1863 345.518 25.6985C348.161 26.1806 350.827 26.5392 353.503 26.7742C354.814 26.8887 356.125 26.9641 357.438 27.0123C358.758 27.0575 360.25 27.2774 361.5 26.8194C361.922 26.6658 361.934 26.0993 361.5 25.9486C360.319 25.5388 359.008 25.7166 357.767 25.6774C356.453 25.6352 355.139 25.5629 353.828 25.4665C350.936 25.2526 348.058 24.888 345.205 24.3697C342.619 23.8997 340.052 23.3091 337.521 22.598C336.256 22.2424 334.999 21.8597 333.746 21.465C332.643 21.1185 331.627 20.5641 330.473 20.766C330.374 20.784 330.368 20.9076 330.419 20.9709C331.151 21.8748 332.381 22.1339 333.453 22.5226Z" fill="#BDFF00"/>
<path d="M364.257 26.8317C364.513 26.7322 364.766 26.7142 365.037 26.684C365.309 26.6539 365.489 26.6027 365.679 26.4852C365.767 26.4309 365.809 26.3074 365.748 26.217C365.339 25.5812 364.504 25.8524 364.004 26.2321C363.742 26.4339 363.877 26.9793 364.257 26.8317Z" fill="#BDFF00"/>
<path d="M354.591 29.9927C354.558 30.0108 354.558 30.062 354.591 30.077C356.079 30.8665 357.996 30.6435 359.635 30.6556C361.262 30.6646 363.329 31.0654 364.805 30.297C365.004 30.1946 365.004 29.8752 364.805 29.7727C363.323 29.0013 361.268 29.4051 359.635 29.4141C357.993 29.4262 356.076 29.2062 354.591 29.9927Z" fill="#BDFF00"/>
<path d="M363.887 33.9341C363.01 33.3707 361.796 33.5725 360.795 33.5695C359.813 33.5665 358.689 33.3737 357.782 33.7955C357.668 33.8497 357.646 34.0366 357.74 34.1179C358.538 34.8019 359.78 34.8351 360.792 34.9194C361.862 35.0068 363.067 35.1545 363.95 34.4644C364.134 34.3228 364.049 34.0396 363.887 33.9341Z" fill="#BDFF00"/>
<path d="M357.375 38.2396C358.24 38.9477 360.656 39.5594 361.551 38.6705C361.62 38.6012 361.654 38.4566 361.59 38.3722C360.819 37.3507 358.375 37.5556 357.387 38.1492C357.357 38.1673 357.345 38.2155 357.375 38.2396Z" fill="#BDFF00"/>
<path d="M360.445 43.6155C358.258 43.727 356.088 43.8023 353.907 43.9831C353.702 44.0012 353.621 44.3266 353.856 44.3688C356.061 44.7695 358.198 44.9021 360.448 44.8479C362.395 44.7997 364.712 44.9835 366.505 44.1579C366.848 44.0012 366.758 43.4226 366.4 43.3473C364.519 42.9556 362.359 43.516 360.445 43.6155Z" fill="#BDFF00"/>
<path d="M364.136 40.0117C364.411 40.1021 364.712 40.1352 364.98 39.9996C365.104 39.9364 365.104 39.7345 364.98 39.6742C364.712 39.5386 364.411 39.5718 364.136 39.6622C363.965 39.7224 363.965 39.9544 364.136 40.0117Z" fill="#BDFF00"/>
<path d="M366.652 49.1621C365.658 48.7373 364.609 48.8759 363.54 48.8457C362.196 48.8066 360.84 48.7795 359.502 48.6559C359.089 48.6167 358.996 49.3007 359.403 49.3821C361.503 49.7919 364.652 50.6778 366.652 49.6322C366.818 49.5448 366.839 49.2435 366.652 49.1621Z" fill="#BDFF00"/>
<path d="M340.122 50.744C338.928 50.5753 337.825 50.3674 336.62 50.4698C336.439 50.4849 336.376 50.7018 336.53 50.8073C337.599 51.5335 338.714 51.8077 339.986 52.0337C340.824 52.1843 342.05 52.6393 342.689 51.9101C342.776 51.8107 342.803 51.6721 342.734 51.5516C342.264 50.726 340.959 50.8646 340.122 50.744Z" fill="#BDFF00"/>
<path d="M362.061 53.2059C360.449 53.1457 358.836 53.0643 357.227 52.9739C353.78 52.7841 350.351 52.4346 346.898 52.5671C346.69 52.5762 346.636 52.8805 346.847 52.9378C350.463 53.8959 354.193 54.14 357.917 54.366C359.719 54.4745 361.53 54.5799 363.335 54.595C364.676 54.6071 366.008 54.6101 367.047 53.6941C367.325 53.45 367.105 52.9558 366.746 52.9649C365.167 53.0131 363.655 53.2632 362.061 53.2059Z" fill="#BDFF00"/>
<path d="M384.93 24.3368C385.241 24.3519 385.307 23.9391 385.078 23.7854C384.249 23.225 383.303 22.8995 382.454 22.3662C381.616 21.8419 380.875 21.1881 380.031 20.6728C379.883 20.5824 379.736 20.7572 379.805 20.8988C380.67 22.6073 383.008 24.2404 384.93 24.3368Z" fill="#BDFF00"/>
<path d="M381.571 27.296C382.243 27.5943 382.975 27.9589 383.683 27.5913C383.807 27.528 383.87 27.3593 383.831 27.2297C383.602 26.4704 382.827 26.2052 382.146 25.934C381.405 25.6388 380.567 25.226 379.757 25.4278C379.534 25.4851 379.434 25.7533 379.546 25.9461C379.962 26.6632 380.848 26.9766 381.571 27.296Z" fill="#BDFF00"/>
<path d="M380.546 29.429C380.357 29.3868 380.188 29.6278 380.348 29.7725C380.676 30.0738 380.962 30.4082 381.372 30.6041C381.646 30.7337 382.137 30.9958 382.348 30.6101C382.559 30.2305 382.095 29.9623 381.833 29.8116C381.426 29.5796 380.992 29.5314 380.546 29.429Z" fill="#BDFF00"/>
<path d="M380.733 36.0219C381.779 36.4497 383.002 36.742 384.102 36.3774C384.846 36.1303 384.816 35.1541 384.102 34.8949C383.216 34.5725 382.252 34.5243 381.345 34.2592C380.495 34.0121 379.775 33.8976 378.901 33.8403C378.814 33.8343 378.723 33.9398 378.759 34.0271C379.166 35.0215 379.712 35.603 380.733 36.0219Z" fill="#BDFF00"/>
<path d="M379.826 40.5813C379.648 40.5602 379.603 40.8223 379.739 40.9037C380.808 41.5395 381.613 42.0397 382.863 42.3018C383.692 42.4736 384.759 42.8803 385.428 42.2084C385.533 42.1029 385.56 41.9221 385.482 41.7896C385 40.9971 383.87 41.0845 383.038 40.9248C381.95 40.7139 380.914 40.7078 379.826 40.5813Z" fill="#BDFF00"/>
<path d="M385.147 43.7145C386.316 44.1695 387.305 44.5221 388.576 44.5371C389.049 44.5431 390.318 44.5823 390.321 43.826C390.324 42.461 385.961 43.356 385.189 43.3921C384.999 43.4012 384.978 43.6482 385.147 43.7145Z" fill="#BDFF00"/>
<path d="M102.376 60C102.498 59.7293 102.446 59.356 102.222 58.88L100.374 54.806C100.038 55.366 99.6464 55.9353 99.1984 56.514C98.7597 57.0833 98.2557 57.69 97.6864 58.334C97.0891 58.9967 96.3891 59.7293 95.5864 60.532L95.4184 60.42C95.4557 60.0747 95.4931 59.6873 95.5304 59.258C95.5771 58.8287 95.6284 58.4367 95.6844 58.082C95.8151 57.2887 96.0111 56.5513 96.2724 55.87C96.5337 55.1887 96.9211 54.568 97.4344 54.008C97.9571 53.4387 98.6244 53.0047 99.4364 52.706L98.6524 50.984C98.5124 50.6853 98.3257 50.466 98.0924 50.326C97.8591 50.186 97.4997 50.116 97.0144 50.116H96.4964V49.892H100.514C100.542 50.0507 100.626 50.2793 100.766 50.578L105.05 60H102.376ZM97.4764 57.844C98.5591 56.64 99.4037 55.3007 100.01 53.826L99.7024 53.154C99.1891 53.462 98.7504 53.854 98.3864 54.33C98.0317 54.806 97.7704 55.3427 97.6024 55.94C97.4437 56.5373 97.4017 57.172 97.4764 57.844ZM107.167 60.014C107.242 59.846 107.293 59.678 107.321 59.51C107.358 59.342 107.377 59.118 107.377 58.838V50.48C106.78 50.508 106.266 50.6293 105.837 50.844C105.408 51.0587 105.053 51.376 104.773 51.796C104.493 52.216 104.288 52.7433 104.157 53.378L103.947 53.336L104.395 49.892H112.333L112.767 53.336L112.557 53.378C112.445 52.7527 112.244 52.23 111.955 51.81C111.675 51.3807 111.316 51.0587 110.877 50.844C110.438 50.6293 109.93 50.508 109.351 50.48V58.824C109.351 59.104 109.365 59.328 109.393 59.496C109.43 59.664 109.486 59.832 109.561 60L107.167 60.014ZM119.617 60C119.738 59.7293 119.687 59.356 119.463 58.88L117.615 54.806C117.279 55.366 116.887 55.9353 116.439 56.514C116 57.0833 115.496 57.69 114.927 58.334C114.329 58.9967 113.629 59.7293 112.827 60.532L112.659 60.42C112.696 60.0747 112.733 59.6873 112.771 59.258C112.817 58.8287 112.869 58.4367 112.925 58.082C113.055 57.2887 113.251 56.5513 113.513 55.87C113.774 55.1887 114.161 54.568 114.675 54.008C115.197 53.4387 115.865 53.0047 116.677 52.706L115.893 50.984C115.753 50.6853 115.566 50.466 115.333 50.326C115.099 50.186 114.74 50.116 114.255 50.116H113.737V49.892H117.755C117.783 50.0507 117.867 50.2793 118.007 50.578L122.291 60H119.617ZM114.717 57.844C115.799 56.64 116.644 55.3007 117.251 53.826L116.943 53.154C116.429 53.462 115.991 53.854 115.627 54.33C115.272 54.806 115.011 55.3427 114.843 55.94C114.684 56.5373 114.642 57.172 114.717 57.844ZM133.26 62.044C132.532 61.8573 131.935 61.6473 131.468 61.414C131.011 61.19 130.623 60.9193 130.306 60.602C129.998 60.294 129.69 59.8973 129.382 59.412C129.289 59.272 129.195 59.1227 129.102 58.964C129.018 58.8053 128.929 58.642 128.836 58.474C128.397 57.6807 128.01 57.088 127.674 56.696C127.347 56.304 127.035 56.0333 126.736 55.884C126.437 55.7253 126.055 55.604 125.588 55.52V58.824C125.588 59.104 125.602 59.328 125.63 59.496C125.667 59.664 125.723 59.832 125.798 60H123.404C123.479 59.832 123.53 59.664 123.558 59.496C123.595 59.328 123.614 59.104 123.614 58.824V51.012C123.614 50.704 123.553 50.48 123.432 50.34C123.311 50.1907 123.129 50.116 122.886 50.116H122.634V49.892H125.588V50.578C126.475 50.046 127.357 49.78 128.234 49.78C128.794 49.78 129.284 49.9013 129.704 50.144C130.133 50.3867 130.46 50.7087 130.684 51.11C130.917 51.502 131.034 51.9267 131.034 52.384C131.034 52.8693 130.875 53.3407 130.558 53.798C130.25 54.2553 129.765 54.638 129.102 54.946C128.449 55.254 127.632 55.422 126.652 55.45V55.352C127.557 55.4453 128.271 55.6273 128.794 55.898C129.317 56.1593 129.76 56.5373 130.124 57.032C130.273 57.2373 130.418 57.4847 130.558 57.774C130.698 58.054 130.857 58.39 131.034 58.782C131.314 59.3887 131.552 59.874 131.748 60.238C131.944 60.602 132.177 60.9333 132.448 61.232C132.719 61.54 133.017 61.75 133.344 61.862L133.26 62.044ZM128.99 52.762C128.99 52.4073 128.915 52.076 128.766 51.768C128.626 51.46 128.416 51.2127 128.136 51.026C127.856 50.83 127.525 50.732 127.142 50.732C126.685 50.732 126.167 50.886 125.588 51.194V54.862C126.073 54.974 126.512 55.002 126.904 54.946C127.287 54.9087 127.637 54.806 127.954 54.638C128.271 54.47 128.523 54.2273 128.71 53.91C128.897 53.5927 128.99 53.21 128.99 52.762ZM139.769 60C139.89 59.7293 139.839 59.356 139.615 58.88L137.767 54.806C137.431 55.366 137.039 55.9353 136.591 56.514C136.152 57.0833 135.648 57.69 135.079 58.334C134.482 58.9967 133.782 59.7293 132.979 60.532L132.811 60.42C132.848 60.0747 132.886 59.6873 132.923 59.258C132.97 58.8287 133.021 58.4367 133.077 58.082C133.208 57.2887 133.404 56.5513 133.665 55.87C133.926 55.1887 134.314 54.568 134.827 54.008C135.35 53.4387 136.017 53.0047 136.829 52.706L136.045 50.984C135.905 50.6853 135.718 50.466 135.485 50.326C135.252 50.186 134.892 50.116 134.407 50.116H133.889V49.892H137.907C137.935 50.0507 138.019 50.2793 138.159 50.578L142.443 60H139.769ZM134.869 57.844C135.952 56.64 136.796 55.3007 137.403 53.826L137.095 53.154C136.582 53.462 136.143 53.854 135.779 54.33C135.424 54.806 135.163 55.3427 134.995 55.94C134.836 56.5373 134.794 57.172 134.869 57.844ZM153.364 59.804C152.589 60.168 151.922 60.336 151.362 60.308C150.97 60.2987 150.624 60.1913 150.326 59.986C150.036 59.7713 149.747 59.4307 149.458 58.964L144.474 51.026L144.306 50.76C144.175 50.5267 144.054 50.3633 143.942 50.27C143.839 50.1767 143.676 50.13 143.452 50.13H143.144V49.892H146.308C146.317 50.004 146.35 50.1253 146.406 50.256C146.471 50.3773 146.564 50.5267 146.686 50.704L151.544 58.502C151.721 58.782 151.884 59.006 152.034 59.174C152.192 59.342 152.374 59.468 152.58 59.552C152.794 59.6267 153.037 59.6313 153.308 59.566L153.364 59.804ZM142.934 59.804C143.316 59.7667 143.624 59.664 143.858 59.496C144.091 59.328 144.329 59.048 144.572 58.656L147.554 53.868L148.268 54.386L146.07 58.292C145.864 58.684 145.748 59.0153 145.72 59.286C145.692 59.5567 145.724 59.7947 145.818 60H142.948L142.934 59.804ZM148.254 54.232L149.682 51.866C149.952 51.4087 150.13 51.0307 150.214 50.732C150.298 50.424 150.33 50.144 150.312 49.892H152.986V50.088C152.687 50.1067 152.426 50.1813 152.202 50.312C151.987 50.4333 151.768 50.6293 151.544 50.9C151.32 51.1707 151.026 51.5767 150.662 52.118L148.828 54.862L148.254 54.232ZM154.479 60C154.553 59.832 154.605 59.664 154.633 59.496C154.67 59.328 154.689 59.104 154.689 58.824V51.012C154.689 50.704 154.628 50.48 154.507 50.34C154.385 50.1907 154.203 50.116 153.961 50.116H153.709V49.892H156.593V58.88C156.593 59.132 156.607 59.342 156.635 59.51C156.663 59.678 156.709 59.8413 156.775 60H154.479ZM158.322 60C158.397 59.832 158.448 59.664 158.476 59.496C158.513 59.328 158.532 59.104 158.532 58.824V51.012C158.532 50.704 158.471 50.48 158.35 50.34C158.229 50.1907 158.047 50.116 157.804 50.116H157.552V49.892H164.622L165.21 52.216L165 52.314C164.739 51.8473 164.477 51.488 164.216 51.236C163.964 50.984 163.642 50.7973 163.25 50.676C162.867 50.5453 162.359 50.48 161.724 50.48H160.506V53.574H162.242C162.858 53.574 163.343 53.5133 163.698 53.392C164.062 53.2707 164.286 53.0653 164.37 52.776L164.538 52.818V54.918L164.37 54.96C164.286 54.6613 164.067 54.456 163.712 54.344C163.357 54.2227 162.867 54.162 162.242 54.162H160.506V59.23C161.421 59.2207 162.186 59.1507 162.802 59.02C163.427 58.88 163.95 58.642 164.37 58.306C164.79 57.9607 165.107 57.4893 165.322 56.892L165.574 56.976L164.86 60H158.322ZM174.749 60.238C173.685 60.2567 172.738 60.07 171.907 59.678C171.086 59.2767 170.437 58.6933 169.961 57.928C169.494 57.1533 169.252 56.2293 169.233 55.156C169.214 54.0173 169.452 53.0373 169.947 52.216C170.451 51.3853 171.146 50.7553 172.033 50.326C172.92 49.8873 173.918 49.6727 175.029 49.682C175.608 49.682 176.158 49.7427 176.681 49.864C177.204 49.9853 177.694 50.1627 178.151 50.396L177.955 53.112L177.773 53.126C177.652 52.6033 177.456 52.132 177.185 51.712C176.924 51.292 176.592 50.9607 176.191 50.718C175.79 50.466 175.337 50.34 174.833 50.34C174.208 50.34 173.634 50.5267 173.111 50.9C172.598 51.264 172.192 51.7867 171.893 52.468C171.594 53.1493 171.454 53.9427 171.473 54.848C171.501 55.7347 171.66 56.5373 171.949 57.256C172.238 57.9747 172.64 58.5393 173.153 58.95C173.676 59.3513 174.273 59.5427 174.945 59.524C175.412 59.5147 175.864 59.3793 176.303 59.118C176.742 58.8473 177.138 58.488 177.493 58.04C177.848 57.592 178.142 57.0833 178.375 56.514L178.543 56.556L178.123 59.524C177.591 59.7573 177.045 59.93 176.485 60.042C175.925 60.154 175.346 60.2193 174.749 60.238ZM184.888 60.266C183.796 60.266 182.849 60.042 182.046 59.594C181.253 59.146 180.642 58.5253 180.212 57.732C179.792 56.9387 179.582 56.024 179.582 54.988C179.582 54.008 179.802 53.1167 180.24 52.314C180.688 51.5113 181.314 50.8767 182.116 50.41C182.919 49.9433 183.838 49.71 184.874 49.71C186.004 49.71 186.96 49.962 187.744 50.466C188.538 50.97 189.13 51.628 189.522 52.44C189.914 53.2427 190.11 54.092 190.11 54.988C190.11 55.9213 189.914 56.7893 189.522 57.592C189.14 58.3947 188.552 59.0433 187.758 59.538C186.974 60.0233 186.018 60.266 184.888 60.266ZM185.014 59.496C185.593 59.496 186.097 59.3093 186.526 58.936C186.956 58.5627 187.282 58.0353 187.506 57.354C187.73 56.6633 187.828 55.8653 187.8 54.96C187.772 54.0827 187.623 53.308 187.352 52.636C187.091 51.9547 186.732 51.4273 186.274 51.054C185.817 50.6713 185.299 50.48 184.72 50.48C184.123 50.48 183.6 50.6667 183.152 51.04C182.714 51.404 182.382 51.922 182.158 52.594C181.934 53.266 181.836 54.05 181.864 54.946C181.892 55.842 182.037 56.6353 182.298 57.326C182.569 58.0073 182.938 58.5393 183.404 58.922C183.871 59.3047 184.408 59.496 185.014 59.496ZM190.737 60C190.849 59.7947 190.938 59.58 191.003 59.356C191.068 59.132 191.12 58.8287 191.157 58.446L191.969 50.886L191.997 51.054C191.96 50.83 191.904 50.6527 191.829 50.522C191.764 50.3913 191.67 50.2933 191.549 50.228C191.437 50.1627 191.283 50.13 191.087 50.13H190.779V49.892H193.957L196.617 56.64L199.347 49.892H202.077V50.13H201.783C201.484 50.13 201.26 50.2093 201.111 50.368C200.962 50.5173 200.906 50.746 200.943 51.054L201.825 58.306C201.872 58.7353 201.928 59.076 201.993 59.328C202.058 59.58 202.147 59.804 202.259 60H199.697C199.772 59.7387 199.814 59.5007 199.823 59.286C199.842 59.062 199.828 58.7447 199.781 58.334L199.011 52.734L196.141 60.07H195.665L192.655 52.426L191.969 58.446C191.932 58.838 191.922 59.1413 191.941 59.356C191.969 59.5613 192.034 59.776 192.137 60H190.737ZM203.726 60C203.801 59.832 203.852 59.664 203.88 59.496C203.917 59.328 203.936 59.104 203.936 58.824V51.012C203.936 50.704 203.875 50.48 203.754 50.34C203.633 50.1907 203.451 50.116 203.208 50.116H202.956V49.892H205.91V50.55C206.815 50.0367 207.683 49.78 208.514 49.78C209.13 49.78 209.667 49.9107 210.124 50.172C210.591 50.4333 210.945 50.7833 211.188 51.222C211.431 51.6513 211.552 52.1133 211.552 52.608C211.552 53.2427 211.389 53.8167 211.062 54.33C210.735 54.834 210.269 55.2353 209.662 55.534C209.055 55.8233 208.355 55.968 207.562 55.968C206.974 55.968 206.423 55.8887 205.91 55.73V58.824C205.91 59.104 205.924 59.328 205.952 59.496C205.989 59.664 206.045 59.832 206.12 60H203.726ZM205.91 55.072C206.283 55.1467 206.605 55.184 206.876 55.184C207.38 55.184 207.828 55.086 208.22 54.89C208.612 54.6847 208.911 54.4093 209.116 54.064C209.331 53.7093 209.438 53.3127 209.438 52.874C209.438 52.51 209.359 52.1693 209.2 51.852C209.041 51.5347 208.808 51.278 208.5 51.082C208.192 50.886 207.828 50.788 207.408 50.788C206.923 50.788 206.423 50.9233 205.91 51.194V55.072ZM212.653 60C212.727 59.832 212.779 59.664 212.807 59.496C212.844 59.328 212.863 59.104 212.863 58.824V51.012C212.863 50.704 212.802 50.48 212.681 50.34C212.559 50.1907 212.377 50.116 212.135 50.116H211.883V49.892H214.767V58.88C214.767 59.132 214.781 59.342 214.809 59.51C214.837 59.678 214.883 59.8413 214.949 60H212.653ZM216.51 60C216.575 59.7667 216.622 59.5333 216.65 59.3C216.678 59.0573 216.692 58.74 216.692 58.348V51.012C216.692 50.704 216.631 50.48 216.51 50.34C216.389 50.1907 216.207 50.116 215.964 50.116H215.712V49.892H218.666V59.23C219.674 59.2207 220.467 59.1273 221.046 58.95C221.634 58.7633 222.087 58.46 222.404 58.04C222.731 57.62 222.992 57.0227 223.188 56.248L223.426 56.29L222.978 60H216.51ZM231.124 60C231.246 59.7293 231.194 59.356 230.97 58.88L229.122 54.806C228.786 55.366 228.394 55.9353 227.946 56.514C227.508 57.0833 227.004 57.69 226.434 58.334C225.837 58.9967 225.137 59.7293 224.334 60.532L224.166 60.42C224.204 60.0747 224.241 59.6873 224.278 59.258C224.325 58.8287 224.376 58.4367 224.432 58.082C224.563 57.2887 224.759 56.5513 225.02 55.87C225.282 55.1887 225.669 54.568 226.182 54.008C226.705 53.4387 227.372 53.0047 228.184 52.706L227.4 50.984C227.26 50.6853 227.074 50.466 226.84 50.326C226.607 50.186 226.248 50.116 225.762 50.116H225.244V49.892H229.262C229.29 50.0507 229.374 50.2793 229.514 50.578L233.798 60H231.124ZM226.224 57.844C227.307 56.64 228.152 55.3007 228.758 53.826L228.45 53.154C227.937 53.462 227.498 53.854 227.134 54.33C226.78 54.806 226.518 55.3427 226.35 55.94C226.192 56.5373 226.15 57.172 226.224 57.844ZM235.915 60.014C235.99 59.846 236.041 59.678 236.069 59.51C236.106 59.342 236.125 59.118 236.125 58.838V50.48C235.528 50.508 235.014 50.6293 234.585 50.844C234.156 51.0587 233.801 51.376 233.521 51.796C233.241 52.216 233.036 52.7433 232.905 53.378L232.695 53.336L233.143 49.892H241.081L241.515 53.336L241.305 53.378C241.193 52.7527 240.992 52.23 240.703 51.81C240.423 51.3807 240.064 51.0587 239.625 50.844C239.186 50.6293 238.678 50.508 238.099 50.48V58.824C238.099 59.104 238.113 59.328 238.141 59.496C238.178 59.664 238.234 59.832 238.309 60L235.915 60.014ZM242.744 60C242.819 59.832 242.87 59.664 242.898 59.496C242.936 59.328 242.954 59.104 242.954 58.824V51.012C242.954 50.704 242.894 50.48 242.772 50.34C242.651 50.1907 242.469 50.116 242.226 50.116H241.974V49.892H244.858V58.88C244.858 59.132 244.872 59.342 244.9 59.51C244.928 59.678 244.975 59.8413 245.04 60H242.744ZM251.47 60.266C250.378 60.266 249.431 60.042 248.628 59.594C247.835 59.146 247.224 58.5253 246.794 57.732C246.374 56.9387 246.164 56.024 246.164 54.988C246.164 54.008 246.384 53.1167 246.822 52.314C247.27 51.5113 247.896 50.8767 248.698 50.41C249.501 49.9433 250.42 49.71 251.456 49.71C252.586 49.71 253.542 49.962 254.326 50.466C255.12 50.97 255.712 51.628 256.104 52.44C256.496 53.2427 256.692 54.092 256.692 54.988C256.692 55.9213 256.496 56.7893 256.104 57.592C255.722 58.3947 255.134 59.0433 254.34 59.538C253.556 60.0233 252.6 60.266 251.47 60.266ZM251.596 59.496C252.175 59.496 252.679 59.3093 253.108 58.936C253.538 58.5627 253.864 58.0353 254.088 57.354C254.312 56.6633 254.41 55.8653 254.382 54.96C254.354 54.0827 254.205 53.308 253.934 52.636C253.673 51.9547 253.314 51.4273 252.856 51.054C252.399 50.6713 251.881 50.48 251.302 50.48C250.705 50.48 250.182 50.6667 249.734 51.04C249.296 51.404 248.964 51.922 248.74 52.594C248.516 53.266 248.418 54.05 248.446 54.946C248.474 55.842 248.619 56.6353 248.88 57.326C249.151 58.0073 249.52 58.5393 249.986 58.922C250.453 59.3047 250.99 59.496 251.596 59.496ZM258.26 60C258.335 59.776 258.386 59.5567 258.414 59.342C258.442 59.118 258.461 58.8147 258.47 58.432L258.554 51.152C258.302 50.8533 258.097 50.634 257.938 50.494C257.789 50.354 257.63 50.2607 257.462 50.214C257.304 50.158 257.094 50.1253 256.832 50.116V49.892H260.108L266.38 56.948C266.38 54.9507 266.352 53.5413 266.296 52.72C266.24 51.8893 266.124 51.2687 265.946 50.858C265.806 50.55 265.634 50.3447 265.428 50.242C265.232 50.1393 264.99 50.088 264.7 50.088V49.892H267.29C267.234 50.1627 267.192 50.4333 267.164 50.704C267.146 50.9747 267.136 51.3293 267.136 51.768V60H266.422L259.324 52.034V52.804C259.334 54.3813 259.357 55.59 259.394 56.43C259.432 57.27 259.516 57.9373 259.646 58.432C259.758 58.8333 259.912 59.146 260.108 59.37C260.304 59.5847 260.589 59.72 260.962 59.776V60H258.26ZM271.953 51.096C271.916 51.0213 271.892 50.9653 271.883 50.928C271.752 50.62 271.636 50.41 271.533 50.298C271.44 50.1767 271.286 50.116 271.071 50.116H270.805V49.892H274.025C274.025 50.1347 274.062 50.382 274.137 50.634C274.212 50.886 274.356 51.264 274.571 51.768L276.475 56.22C276.606 56.5373 276.736 56.8547 276.867 57.172C276.886 57.088 276.96 56.8827 277.091 56.556L277.567 55.338L278.981 51.684C279.14 51.2547 279.242 50.9 279.289 50.62C279.345 50.3307 279.35 50.088 279.303 49.892H281.137V50.116H280.927C280.703 50.116 280.535 50.1673 280.423 50.27C280.32 50.3727 280.218 50.5453 280.115 50.788L280.031 50.998L276.433 60.07H275.845L271.953 51.096ZM286.224 60.266C285.132 60.266 284.185 60.042 283.382 59.594C282.589 59.146 281.978 58.5253 281.548 57.732C281.128 56.9387 280.918 56.024 280.918 54.988C280.918 54.008 281.138 53.1167 281.576 52.314C282.024 51.5113 282.65 50.8767 283.452 50.41C284.255 49.9433 285.174 49.71 286.21 49.71C287.34 49.71 288.296 49.962 289.08 50.466C289.874 50.97 290.466 51.628 290.858 52.44C291.25 53.2427 291.446 54.092 291.446 54.988C291.446 55.9213 291.25 56.7893 290.858 57.592C290.476 58.3947 289.888 59.0433 289.094 59.538C288.31 60.0233 287.354 60.266 286.224 60.266ZM286.35 59.496C286.929 59.496 287.433 59.3093 287.862 58.936C288.292 58.5627 288.618 58.0353 288.842 57.354C289.066 56.6633 289.164 55.8653 289.136 54.96C289.108 54.0827 288.959 53.308 288.688 52.636C288.427 51.9547 288.068 51.4273 287.61 51.054C287.153 50.6713 286.635 50.48 286.056 50.48C285.459 50.48 284.936 50.6667 284.488 51.04C284.05 51.404 283.718 51.922 283.494 52.594C283.27 53.266 283.172 54.05 283.2 54.946C283.228 55.842 283.373 56.6353 283.634 57.326C283.905 58.0073 284.274 58.5393 284.74 58.922C285.207 59.3047 285.744 59.496 286.35 59.496ZM292.867 60C292.933 59.7667 292.979 59.5333 293.007 59.3C293.035 59.0573 293.049 58.74 293.049 58.348V51.012C293.049 50.704 292.989 50.48 292.867 50.34C292.746 50.1907 292.564 50.116 292.321 50.116H292.069V49.892H295.023V59.23C296.031 59.2207 296.825 59.1273 297.403 58.95C297.991 58.7633 298.444 58.46 298.761 58.04C299.088 57.62 299.349 57.0227 299.545 56.248L299.783 56.29L299.335 60H292.867ZM301.473 60.21C301.398 60.0233 301.258 59.832 301.053 59.636C300.847 59.4307 300.623 59.2533 300.381 59.104C300.577 59.02 300.768 58.8753 300.955 58.67C301.151 58.4647 301.323 58.2407 301.473 57.998C301.65 58.362 302.014 58.7307 302.565 59.104C302.415 59.188 302.247 59.3187 302.061 59.496C301.883 59.6733 301.715 59.8693 301.557 60.084L301.473 60.21ZM304.15 60C304.225 59.832 304.276 59.664 304.304 59.496C304.342 59.328 304.36 59.104 304.36 58.824V52.65C304.36 52.3793 304.337 52.16 304.29 51.992C304.253 51.8147 304.16 51.67 304.01 51.558V51.348L306.208 49.822L306.348 49.948C306.302 50.116 306.269 50.2747 306.25 50.424C306.241 50.5733 306.236 50.76 306.236 50.984V58.824C306.236 59.104 306.25 59.328 306.278 59.496C306.316 59.664 306.372 59.832 306.446 60H304.15Z" fill="#BDFF00"/>
</svg>
