<svg width="382" height="26" viewBox="0 0 382 26" fill="none" xmlns="http://www.w3.org/2000/svg">
<path d="M1.08822 14.3899C0.580217 17.8999 0.280218 21.4098 0.0022185 24.9458C-0.0377815 25.4638 0.470223 25.8899 0.952223 25.8959C2.74022 25.9199 4.53022 25.9098 6.32022 25.9118C11.1882 25.9178 16.0562 25.9179 20.9262 25.8979C28.0922 25.8679 35.2562 25.8618 42.4222 25.8578C51.2002 25.8518 59.9762 25.8719 68.7542 25.8539C78.3682 25.8339 87.9842 25.8398 97.5982 25.8158C107.262 25.7938 116.926 25.7958 126.588 25.7898C135.638 25.7838 144.686 25.7699 153.736 25.7499C161.352 25.7339 168.968 25.7478 176.584 25.7378C182.086 25.7298 187.59 25.7319 193.092 25.7239C195.694 25.7199 198.306 25.7798 200.906 25.7118C201.016 25.7098 201.128 25.7118 201.238 25.7118C201.678 25.7118 202.184 25.3018 202.128 24.8218C201.62 20.4258 201.64 16.0178 202.248 11.6318C202.46 10.1038 200.3 9.78982 200.146 11.3478C199.704 15.8298 199.776 20.3538 200.348 24.8218C200.644 24.5258 200.942 24.2279 201.238 23.9319C199.448 23.9339 197.66 23.9318 195.87 23.9298C191.002 23.9278 186.132 23.9338 181.264 23.9358C174.098 23.9378 166.934 23.9378 159.768 23.9458C150.99 23.9558 142.214 23.9358 133.436 23.9418C123.822 23.9478 114.206 23.9339 104.592 23.9559C94.9282 23.9779 85.2642 23.9678 75.6022 23.9598C66.5542 23.9518 57.5042 23.9619 48.4542 23.9739C40.8382 23.9839 33.2222 23.9639 25.6062 23.9759C20.1042 23.9839 14.6002 23.9538 9.09822 23.9678C7.39222 23.9718 5.68622 23.9758 3.98022 23.9798C3.10622 23.9818 2.15222 23.8779 1.28222 23.9919C1.17422 24.0059 1.05822 23.9958 0.950217 23.9978C1.26622 24.3138 1.58422 24.6319 1.90022 24.9479C2.07622 21.4739 2.23022 18.0198 2.17622 14.5398C2.16822 13.9378 1.18222 13.7499 1.08822 14.3899Z" fill="#bdff00"/>
<path d="M2.38821 14.5997C12.1302 14.7357 21.8822 14.5277 31.6262 14.4437C41.2882 14.3597 50.9502 14.2737 60.6142 14.1837C80.0222 14.0017 99.4302 13.8197 118.838 13.6497C129.834 13.5537 140.828 13.4577 151.824 13.3597C151.586 13.1217 151.35 12.8857 151.112 12.6477C150.882 14.4437 150.702 16.2137 150.6 18.0197C150.584 18.2957 150.858 18.5697 151.134 18.5537C154.524 18.3577 157.938 18.5317 161.332 18.5877C164.732 18.6437 168.132 18.6997 171.53 18.7537C178.328 18.8617 185.132 18.8817 191.928 19.1017C192.218 19.1117 192.432 18.8577 192.444 18.5837C192.56 16.2057 192.658 13.8277 192.764 11.4497C192.558 11.6557 192.352 11.8637 192.144 12.0697C195.108 12.2737 198.034 12.2917 200.996 11.9917C202.34 11.8557 202.098 9.90166 200.746 10.1497C197.92 10.6697 195.02 10.9337 192.144 10.8317C191.806 10.8197 191.53 11.1257 191.524 11.4517C191.484 13.8297 191.438 16.2077 191.41 18.5857C191.582 18.4137 191.754 18.2417 191.926 18.0697C185.128 18.1017 178.328 17.9317 171.528 17.8517C168.212 17.8117 164.894 17.7757 161.578 17.7377C158.1 17.6977 154.596 17.7837 151.13 17.4857C151.302 17.7117 151.474 17.9357 151.646 18.1617C152.018 16.3257 152.294 14.5057 152.534 12.6477C152.582 12.2677 152.168 11.9317 151.822 11.9357C132.414 12.0857 113.006 12.2477 93.5982 12.3837C74.1902 12.5217 54.7822 12.6537 35.3742 12.8057C24.3822 12.8917 13.3762 12.8277 2.38821 13.1617C1.46621 13.1897 1.46021 14.5877 2.38821 14.5997Z" fill="#bdff00"/>
<path d="M1.4562 24.6157C4.7062 25.2277 8.39819 24.6437 11.5162 23.6257C14.9282 22.5137 17.7802 20.3977 20.8882 18.6817C24.0002 16.9657 27.4482 15.5057 30.9262 14.7497C32.7482 14.3537 34.5942 14.0997 36.4542 13.9757C38.3462 13.8497 40.2562 14.0177 42.1382 13.8277C42.3302 13.8077 42.3942 13.5317 42.1862 13.4757C39.0062 12.6097 35.2082 13.1637 32.0102 13.7497C28.5942 14.3757 25.2142 15.3057 22.0902 16.8357C18.7442 18.4757 15.7422 20.8257 12.2662 22.1997C8.73419 23.5957 5.1462 23.5217 1.4562 24.0257C1.1582 24.0677 1.1722 24.5617 1.4562 24.6157Z" fill="#bdff00"/>
<path d="M26.2122 24.7537C33.5942 25.9057 39.9902 20.7257 47.0362 19.5497C54.8402 18.2457 62.7462 20.8537 70.2242 22.7737C74.2442 23.8057 78.8222 25.1557 83.0062 24.7077C83.2202 24.6837 83.3182 24.3317 83.0622 24.2937C81.1682 24.0117 79.2562 23.9377 77.3602 23.6417C75.4422 23.3417 73.5422 22.9337 71.6542 22.4817C67.8722 21.5777 64.1442 20.4557 60.3422 19.6257C56.7622 18.8457 53.1042 18.3297 49.4322 18.5677C45.7062 18.8097 42.2942 19.9957 38.8562 21.3757C34.8202 22.9957 30.7082 24.6937 26.2702 24.3217C26.0282 24.3037 25.9682 24.7157 26.2122 24.7537Z" fill="#bdff00"/>
<path d="M71.0122 13.9317C75.5082 14.1257 79.9122 14.7057 84.2782 15.8137C88.4442 16.8697 92.5202 18.2477 96.5922 19.6217C100.66 20.9937 104.738 22.3457 108.916 23.3517C110.946 23.8397 112.994 24.2397 115.066 24.5037C117.094 24.7617 119.238 25.0537 121.26 24.6737C121.466 24.6337 121.472 24.2857 121.26 24.2517C119.118 23.9017 116.924 23.9577 114.768 23.6577C112.6 23.3557 110.45 22.9197 108.328 22.3857C104.16 21.3377 100.086 19.9437 96.0162 18.5717C88.0662 15.8897 79.5342 12.7517 71.0122 13.4177C70.6842 13.4417 70.6762 13.9177 71.0122 13.9317Z" fill="#bdff00"/>
<path d="M99.7383 13.5977C109.38 12.8037 117.942 18.3678 127.286 19.6378C131.45 20.2038 135.428 19.7318 139.254 17.9738C141.08 17.1338 142.824 16.1277 144.638 15.2617C145.616 14.7937 146.62 14.3717 147.658 14.0557C148.654 13.7517 149.72 13.6778 150.68 13.2818C150.842 13.2138 150.888 12.9558 150.68 12.9058C149.03 12.5098 147.11 13.3618 145.612 13.9998C143.86 14.7458 142.2 15.6778 140.506 16.5438C138.564 17.5358 136.576 18.4138 134.426 18.8338C131.958 19.3178 129.404 19.2517 126.922 18.9017C117.712 17.6017 109.262 12.2337 99.7363 13.1777C99.4723 13.2017 99.4663 13.6197 99.7383 13.5977Z" fill="#bdff00"/>
<path d="M148.444 25.4856C156.172 23.2516 164.16 20.8337 172.3 21.5617C176.228 21.9117 180.05 22.9817 183.89 23.8277C187.154 24.5477 191.144 25.6096 194.462 24.7996C194.744 24.7316 194.776 24.2436 194.462 24.1976C192.64 23.9316 190.782 23.9996 188.946 23.7816C186.946 23.5456 184.97 23.1717 182.998 22.7677C179.308 22.0117 175.616 21.1637 171.846 20.9137C163.788 20.3797 155.936 22.7056 148.338 25.0936C148.088 25.1716 148.192 25.5596 148.444 25.4856Z" fill="#bdff00"/>
<path d="M198.47 11.0814C197.6 12.7354 196.718 14.4315 195.412 15.7915C194.826 16.4015 194.17 16.9394 193.426 17.3494C193.06 17.5494 192.646 17.7694 192.234 17.8494C191.812 17.9314 191.376 17.9574 190.988 18.1674C190.714 18.3154 190.804 18.7054 191.07 18.7954C191.5 18.9394 191.992 18.8374 192.396 18.6694C192.824 18.4914 193.262 18.3515 193.676 18.1375C194.482 17.7215 195.228 17.1474 195.856 16.4934C197.252 15.0374 198.172 13.2155 199.066 11.4295C199.262 11.0355 198.678 10.6874 198.47 11.0814Z" fill="#bdff00"/>
<path d="M17.6082 24.7558C22.7842 25.8318 27.8682 22.6538 31.9882 19.9398C34.2482 18.4538 36.4962 16.9218 38.9342 15.7398C40.2222 15.1158 41.5702 14.6078 42.9682 14.2938C44.3142 13.9918 45.6742 14.0578 47.0222 13.8258C47.1862 13.7978 47.1562 13.5698 47.0222 13.5238C44.8382 12.7938 42.0642 13.7078 40.0262 14.5338C37.6182 15.5098 35.4022 16.8538 33.2402 18.2838C28.4062 21.4838 23.6702 24.5558 17.6542 24.3858C17.4502 24.3818 17.4002 24.7118 17.6082 24.7558Z" fill="#bdff00"/>
<path d="M58.8503 14.0017C62.7923 13.6017 66.7443 15.1237 70.3983 16.4297C73.9503 17.6997 77.4383 19.1377 80.9703 20.4577C87.4523 22.8797 94.8623 25.4777 101.874 24.3417C102.152 24.2977 102.074 23.8717 101.81 23.8657C98.0043 23.7777 94.2903 23.5417 90.5643 22.6917C86.9283 21.8637 83.3923 20.6557 79.8963 19.3757C76.4283 18.1077 72.9923 16.7557 69.4923 15.5777C66.0503 14.4197 62.4923 13.2097 58.8183 13.7557C58.6783 13.7777 58.7103 14.0157 58.8503 14.0017Z" fill="#bdff00"/>
<path d="M129.414 24.8336C133.346 24.7376 137.294 23.9076 141.028 22.6796C142.828 22.0876 144.592 21.3896 146.312 20.5956C147.214 20.1796 148.086 19.7116 148.978 19.2736C149.902 18.8176 150.878 18.5136 151.788 18.0316C151.996 17.9216 151.878 17.6416 151.678 17.6236C149.952 17.4736 148.332 18.7916 146.838 19.5216C144.954 20.4436 143.01 21.2376 141.022 21.9036C137.222 23.1776 133.322 23.8936 129.36 24.4316C129.13 24.4656 129.188 24.8396 129.414 24.8336Z" fill="#bdff00"/>
<path d="M200.834 17.3217C200.112 19.4117 198.752 21.2477 197 22.5937C196.15 23.2457 195.232 23.7377 194.236 24.1297C193.22 24.5297 192.132 24.7057 191.122 25.1057C190.94 25.1777 190.876 25.4997 191.122 25.5417C192.256 25.7417 193.418 25.3697 194.458 24.9317C195.514 24.4877 196.516 23.8337 197.404 23.1177C199.22 21.6517 200.598 19.6777 201.3 17.4497C201.396 17.1517 200.936 17.0297 200.834 17.3217Z" fill="#bdff00"/>
<path d="M1.59419 19.3738C4.07619 19.3578 6.55018 18.9479 8.89618 18.1379C10.0322 17.7459 11.1402 17.2658 12.2002 16.7018C13.1822 16.1798 14.4782 15.6039 15.1542 14.6999C15.3422 14.4479 15.0282 14.0519 14.7402 14.1599C14.2122 14.3579 13.7902 14.7359 13.3262 15.0499C12.8262 15.3879 12.3102 15.6958 11.7802 15.9858C10.7522 16.5458 9.68219 17.0239 8.57819 17.4119C6.33019 18.2019 3.97419 18.6179 1.59219 18.6559C1.13219 18.6639 1.13219 19.3778 1.59419 19.3738Z" fill="#bdff00"/>
<path d="M380.304 11.5255C380.814 8.01552 381.114 4.50549 381.39 0.969488C381.43 0.451488 380.922 0.0254755 380.44 0.0194755C378.652 -0.00452446 376.862 0.00548433 375.072 0.00348433C370.204 -0.00251567 365.334 -0.00247758 360.466 0.0175224C353.302 0.0475224 346.136 0.0535004 338.97 0.0575004C330.192 0.0635004 321.416 0.0435288 312.638 0.0615288C303.024 0.0815288 293.408 0.0754926 283.794 0.0994926C274.13 0.121493 264.468 0.119494 254.804 0.125494C245.754 0.131494 236.706 0.145533 227.656 0.165533C220.04 0.183533 212.424 0.167496 204.808 0.177496C199.306 0.185496 193.802 0.183473 188.3 0.191473C185.698 0.195473 183.086 0.135497 180.486 0.203497C180.376 0.207497 180.264 0.203497 180.154 0.203497C179.714 0.203497 179.208 0.613511 179.264 1.09351C179.772 5.48951 179.752 9.89551 179.144 14.2835C178.932 15.8115 181.092 16.1255 181.246 14.5675C181.688 10.0855 181.618 5.56151 181.044 1.09351C180.748 1.38951 180.45 1.68753 180.154 1.98353C181.944 1.98353 183.732 1.98548 185.522 1.98548C190.39 1.98748 195.258 1.9815 200.128 1.9795C207.294 1.9775 214.458 1.97749 221.624 1.96949C230.402 1.95949 239.178 1.97952 247.956 1.97352C257.57 1.96752 267.186 1.98148 276.8 1.95948C286.464 1.93748 296.128 1.94751 305.79 1.95551C314.84 1.96351 323.888 1.95147 332.938 1.94147C340.554 1.93147 348.17 1.95152 355.786 1.93952C361.288 1.93152 366.792 1.96152 372.294 1.94752C374 1.94352 375.706 1.93949 377.412 1.93549C378.286 1.93349 379.24 2.03753 380.108 1.92353C380.216 1.90953 380.332 1.91949 380.44 1.91749C380.124 1.60149 379.806 1.28347 379.49 0.967474C379.314 4.44347 379.16 7.89549 379.214 11.3755C379.224 11.9755 380.212 12.1655 380.304 11.5255Z" fill="#bdff00"/>
<path d="M379.004 11.3133C369.262 11.1773 359.51 11.3853 349.766 11.4693C340.104 11.5533 330.442 11.6393 320.778 11.7293C301.37 11.9113 281.962 12.0933 262.554 12.2633C251.558 12.3593 240.564 12.4553 229.568 12.5533C229.806 12.7913 230.042 13.0273 230.28 13.2653C230.51 11.4693 230.69 9.69929 230.792 7.89329C230.808 7.61729 230.534 7.34329 230.258 7.35929C226.868 7.55529 223.454 7.3813 220.06 7.3253C216.66 7.2693 213.26 7.21328 209.862 7.15928C203.064 7.05128 196.26 7.03132 189.464 6.81132C189.174 6.80132 188.96 7.05527 188.948 7.32927C188.832 9.70727 188.734 12.0853 188.628 14.4633C188.834 14.2573 189.04 14.0513 189.248 13.8433C186.284 13.6393 183.358 13.6213 180.396 13.9213C179.052 14.0573 179.294 16.0113 180.646 15.7633C183.472 15.2433 186.372 14.9793 189.248 15.0813C189.586 15.0933 189.862 14.7873 189.868 14.4613C189.908 12.0833 189.954 9.70531 189.982 7.32731C189.81 7.49931 189.638 7.6713 189.466 7.8433C196.264 7.8113 203.064 7.98132 209.864 8.06132C213.18 8.10132 216.498 8.13727 219.814 8.17527C223.292 8.21527 226.796 8.12929 230.262 8.42729C230.09 8.20129 229.918 7.97532 229.746 7.75132C229.374 9.58732 229.098 11.4073 228.86 13.2653C228.81 13.6453 229.226 13.9813 229.572 13.9773C248.98 13.8273 268.388 13.6653 287.796 13.5293C307.204 13.3913 326.612 13.2593 346.02 13.1073C357.012 13.0213 368.018 13.0853 379.006 12.7513C379.928 12.7233 379.932 11.3273 379.004 11.3133Z" fill="#bdff00"/>
<path d="M379.938 1.29932C376.688 0.687318 372.996 1.27131 369.878 2.28931C366.466 3.40131 363.614 5.51734 360.506 7.23334C357.396 8.94934 353.946 10.4093 350.468 11.1653C348.646 11.5613 346.8 11.8153 344.94 11.9393C343.048 12.0653 341.138 11.8973 339.256 12.0873C339.064 12.1073 339 12.3833 339.208 12.4413C342.388 13.3073 346.186 12.7533 349.386 12.1673C352.802 11.5393 356.182 10.6113 359.306 9.0813C362.652 7.4413 365.654 5.09129 369.13 3.71729C372.662 2.32129 376.25 2.3953 379.94 1.8913C380.236 1.8453 380.222 1.35332 379.938 1.29932Z" fill="#bdff00"/>
<path d="M355.18 1.15964C347.798 0.0076445 341.402 5.18769 334.356 6.36369C326.552 7.66769 318.646 5.05969 311.168 3.13969C307.148 2.10769 302.57 0.757665 298.386 1.20566C298.172 1.22966 298.074 1.58167 298.33 1.61967C300.224 1.90167 302.136 1.97564 304.032 2.27164C305.95 2.57164 307.85 2.97968 309.738 3.43168C313.52 4.33568 317.248 5.45764 321.05 6.28764C324.63 7.06764 328.288 7.58368 331.96 7.34568C335.684 7.10368 339.098 5.91764 342.536 4.53764C346.572 2.91764 350.684 1.21965 355.122 1.59165C355.366 1.60965 355.426 1.19764 355.18 1.15964Z" fill="#bdff00"/>
<path d="M310.382 11.9815C305.886 11.7875 301.482 11.2075 297.116 10.0995C292.95 9.04346 288.874 7.66547 284.802 6.29147C280.734 4.91947 276.656 3.56749 272.478 2.56149C270.448 2.07349 268.4 1.67345 266.328 1.40945C264.3 1.15145 262.156 0.85947 260.134 1.23947C259.928 1.27747 259.922 1.62747 260.134 1.66147C262.276 2.01147 264.47 1.95546 266.628 2.25546C268.796 2.55746 270.946 2.9935 273.068 3.5275C277.236 4.5755 281.31 5.96946 285.38 7.34146C293.33 10.0235 301.862 13.1615 310.384 12.4955C310.71 12.4715 310.716 11.9955 310.382 11.9815Z" fill="#bdff00"/>
<path d="M281.654 12.3174C272.012 13.1114 263.45 7.54747 254.106 6.27747C249.942 5.71147 245.964 6.18341 242.138 7.94141C240.312 8.78141 238.568 9.78744 236.754 10.6534C235.776 11.1214 234.772 11.5434 233.734 11.8594C232.738 12.1634 231.672 12.2374 230.712 12.6334C230.55 12.7014 230.506 12.9595 230.712 13.0095C232.362 13.4055 234.284 12.5535 235.78 11.9155C237.532 11.1695 239.192 10.2375 240.886 9.37146C242.828 8.37946 244.816 7.50142 246.966 7.08142C249.434 6.59742 251.988 6.66343 254.47 7.01343C263.68 8.31343 272.128 13.6814 281.656 12.7374C281.92 12.7114 281.926 12.2934 281.654 12.3174Z" fill="#bdff00"/>
<path d="M232.948 0.42736C225.22 2.66136 217.232 5.07938 209.092 4.35338C205.164 4.00338 201.342 2.93339 197.502 2.08739C194.238 1.36739 190.248 0.305348 186.93 1.11535C186.648 1.18335 186.616 1.67134 186.93 1.71734C188.752 1.98334 190.61 1.91535 192.446 2.13335C194.446 2.36935 196.422 2.74339 198.394 3.14739C202.086 3.90339 205.776 4.7514 209.546 5.0014C217.604 5.5354 225.456 3.20934 233.054 0.821342C233.306 0.741342 233.202 0.35536 232.948 0.42736Z" fill="#bdff00"/>
<path d="M182.922 14.8334C183.792 13.1794 184.676 11.4834 185.98 10.1234C186.566 9.51342 187.222 8.97344 187.966 8.56544C188.332 8.36344 188.746 8.14544 189.158 8.06544C189.582 7.98344 190.016 7.95744 190.404 7.74744C190.678 7.59944 190.59 7.20945 190.322 7.11945C189.892 6.97545 189.402 7.07743 188.996 7.24543C188.566 7.42343 188.13 7.56347 187.716 7.77747C186.91 8.19347 186.164 8.76746 185.538 9.42146C184.142 10.8775 183.222 12.6994 182.328 14.4854C182.132 14.8794 182.714 15.2274 182.922 14.8334Z" fill="#bdff00"/>
<path d="M363.784 1.15966C358.608 0.0836601 353.526 3.2617 349.404 5.9757C347.144 7.4617 344.896 8.99365 342.458 10.1757C341.17 10.7997 339.822 11.3077 338.424 11.6217C337.078 11.9237 335.718 11.8597 334.37 12.0897C334.208 12.1177 334.236 12.3477 334.37 12.3917C336.554 13.1217 339.328 12.2076 341.366 11.3816C343.774 10.4056 345.99 9.06164 348.152 7.63164C352.986 4.43164 357.724 1.35966 363.738 1.52966C363.942 1.53366 363.994 1.20366 363.784 1.15966Z" fill="#bdff00"/>
<path d="M322.544 11.9113C318.602 12.3113 314.65 10.7894 310.996 9.48337C307.444 8.21337 303.956 6.77535 300.424 5.45535C293.942 3.03335 286.532 0.435319 279.52 1.57132C279.242 1.61532 279.32 2.04133 279.584 2.04733C283.39 2.13533 287.104 2.37134 290.83 3.22134C294.466 4.04934 298.002 5.25732 301.498 6.53732C304.966 7.80532 308.402 9.15736 311.902 10.3354C315.344 11.4934 318.902 12.7033 322.576 12.1573C322.714 12.1373 322.684 11.8973 322.544 11.9113Z" fill="#bdff00"/>
<path d="M251.98 1.07966C248.048 1.17566 244.1 2.00571 240.366 3.23371C238.566 3.82571 236.802 4.5237 235.082 5.3177C234.18 5.7337 233.308 6.20172 232.416 6.63972C231.492 7.09572 230.516 7.39966 229.606 7.88166C229.398 7.99166 229.516 8.27168 229.716 8.28968C231.442 8.43968 233.062 7.12167 234.556 6.39167C236.44 5.46967 238.384 4.67571 240.372 4.00971C244.172 2.73571 248.072 2.0197 252.034 1.4817C252.262 1.4477 252.204 1.07366 251.98 1.07966Z" fill="#bdff00"/>
<path d="M180.558 8.59148C181.28 6.50148 182.64 4.6655 184.392 3.3195C185.242 2.6675 186.16 2.17549 187.156 1.78349C188.172 1.38349 189.26 1.20748 190.27 0.807479C190.454 0.735479 190.516 0.413491 190.27 0.369491C189.136 0.169491 187.974 0.541476 186.934 0.979476C185.878 1.42348 184.876 2.0775 183.988 2.7935C182.172 4.2595 180.794 6.23347 180.092 8.46147C179.996 8.76347 180.458 8.88348 180.558 8.59148Z" fill="#bdff00"/>
<path d="M379.798 6.53955C377.316 6.55555 374.842 6.96558 372.496 7.77558C371.36 8.16758 370.252 8.64755 369.192 9.21155C368.212 9.73355 366.914 10.3096 366.238 11.2156C366.05 11.4656 366.364 11.8636 366.652 11.7556C367.18 11.5576 367.602 11.1795 368.066 10.8655C368.566 10.5275 369.082 10.2196 369.612 9.92957C370.64 9.36957 371.71 8.89154 372.814 8.50354C375.062 7.71354 377.416 7.29759 379.8 7.25959C380.26 7.25159 380.262 6.53755 379.798 6.53955Z" fill="#bdff00"/>
</svg>
