<svg width="500" height="500" viewBox="0 0 500 500" fill="none" xmlns="http://www.w3.org/2000/svg">
<!-- Demon jump frame 2: Launch (full body raised Y -40px, legs straight down, arms up) -->
<path d="M160 20 L130 -30 L170 40 Z" fill="#bdff00"/>
<path d="M340 20 L370 -30 L330 40 Z" fill="#bdff00"/>
<path d="M250 30 C200 30 165 60 160 100 L155 130 C150 160 160 190 180 210 L175 220 C160 240 155 270 160 300 L170 340 C175 360 190 380 210 390 L220 395 C235 402 265 402 280 395 L290 390 C310 380 325 360 330 340 L340 300 C345 270 340 240 325 220 L320 210 C340 190 350 160 345 130 L340 100 C335 60 300 30 250 30 Z" fill="#bdff00"/>
<path d="M210 115 C200 115 192 125 192 137 C192 149 200 159 210 159 C220 159 228 149 228 137 C228 125 220 115 210 115 Z M210 127 C215 127 218 132 218 137 C218 143 215 147 210 147 C205 147 202 143 202 137 C202 132 205 127 210 127 Z" fill="#0b0e07"/>
<path d="M290 115 C280 115 272 125 272 137 C272 149 280 159 290 159 C300 159 308 149 308 137 C308 125 300 115 290 115 Z M290 127 C295 127 298 132 298 137 C298 143 295 147 290 147 C285 147 282 143 282 137 C282 132 285 127 290 127 Z" fill="#0b0e07"/>
<path d="M230 180 L235 190 L240 185 L245 192 L250 182 L255 192 L260 185 L265 190 L270 180" stroke="#0b0e07" stroke-width="3" fill="none"/>
<path d="M220 240 L210 270 L220 260 L230 275 L240 258 L250 280 L260 258 L270 275 L280 260 L290 270 L280 240 Z" fill="#0b0e07"/>
<path d="M175 220 L150 190 L135 160 L145 155 L165 175 L180 200 Z" fill="#bdff00"/>
<path d="M325 220 L350 190 L365 160 L355 155 L335 175 L320 200 Z" fill="#bdff00"/>
<path d="M210 390 L208 425 L206 460 L210 455 L214 460 L216 435 Z" fill="#bdff00"/>
<path d="M290 390 L292 425 L294 460 L290 455 L286 460 L284 435 Z" fill="#bdff00"/>
<path d="M160 100 L145 90 L130 105 L140 120 L155 130 Z" fill="#bdff00"/>
<path d="M340 100 L355 90 L370 105 L360 120 L345 130 Z" fill="#bdff00"/>
</svg>
