<svg width="500" height="500" viewBox="0 0 500 500" fill="none" xmlns="http://www.w3.org/2000/svg">
<!-- Demon jump frame 4: Landing (Y -10px, slight squat, arms down for balance) -->
<path d="M160 50 L130 0 L170 70 Z" fill="#bdff00"/>
<path d="M340 50 L370 0 L330 70 Z" fill="#bdff00"/>
<path d="M250 60 C200 60 165 90 160 130 L155 160 C150 190 160 220 180 240 L175 250 C160 270 155 300 160 330 L170 370 C175 390 190 410 210 420 L220 425 C235 432 265 432 280 425 L290 420 C310 410 325 390 330 370 L340 330 C345 300 340 270 325 250 L320 240 C340 220 350 190 345 160 L340 130 C335 90 300 60 250 60 Z" fill="#bdff00"/>
<path d="M210 145 C200 145 192 155 192 167 C192 179 200 189 210 189 C220 189 228 179 228 167 C228 155 220 145 210 145 Z M210 157 C215 157 218 162 218 167 C218 173 215 177 210 177 C205 177 202 173 202 167 C202 162 205 157 210 157 Z" fill="#0b0e07"/>
<path d="M290 145 C280 145 272 155 272 167 C272 179 280 189 290 189 C300 189 308 179 308 167 C308 155 300 145 290 145 Z M290 157 C295 157 298 162 298 167 C298 173 295 177 290 177 C285 177 282 173 282 167 C282 162 285 157 290 157 Z" fill="#0b0e07"/>
<path d="M230 210 L235 220 L240 215 L245 222 L250 212 L255 222 L260 215 L265 220 L270 210" stroke="#0b0e07" stroke-width="3" fill="none"/>
<path d="M220 270 L210 300 L220 290 L230 305 L240 288 L250 310 L260 288 L270 305 L280 290 L290 300 L280 270 Z" fill="#0b0e07"/>
<path d="M175 250 L145 270 L130 310 L140 320 L160 295 L175 265 Z" fill="#bdff00"/>
<path d="M325 250 L355 270 L370 310 L360 320 L340 295 L325 265 Z" fill="#bdff00"/>
<path d="M210 420 L203 448 L196 475 L210 470 L220 478 L226 455 Z" fill="#bdff00"/>
<path d="M290 420 L297 448 L304 475 L290 470 L280 478 L274 455 Z" fill="#bdff00"/>
<path d="M160 130 L145 120 L130 135 L140 150 L155 160 Z" fill="#bdff00"/>
<path d="M340 130 L355 120 L370 135 L360 150 L345 160 Z" fill="#bdff00"/>
</svg>
