<svg width="500" height="500" viewBox="0 0 500 500" fill="none" xmlns="http://www.w3.org/2000/svg">
<!-- Demon jump frame 1: Crouch (lower Y ~20px, legs bent) -->
<path d="M160 80 L130 30 L170 100 Z" fill="#bdff00"/>
<path d="M340 80 L370 30 L330 100 Z" fill="#bdff00"/>
<path d="M250 90 C200 90 165 120 160 160 L155 190 C150 220 160 250 180 270 L175 280 C160 300 155 330 160 360 L170 400 C175 420 190 440 210 450 L220 455 C235 462 265 462 280 455 L290 450 C310 440 325 420 330 400 L340 360 C345 330 340 300 325 280 L320 270 C340 250 350 220 345 190 L340 160 C335 120 300 90 250 90 Z" fill="#bdff00"/>
<path d="M210 175 C200 175 192 185 192 197 C192 209 200 219 210 219 C220 219 228 209 228 197 C228 185 220 175 210 175 Z M210 187 C215 187 218 192 218 197 C218 203 215 207 210 207 C205 207 202 203 202 197 C202 192 205 187 210 187 Z" fill="#0b0e07"/>
<path d="M290 175 C280 175 272 185 272 197 C272 209 280 219 290 219 C300 219 308 209 308 197 C308 185 300 175 290 175 Z M290 187 C295 187 298 192 298 197 C298 203 295 207 290 207 C285 207 282 203 282 197 C282 192 285 187 290 187 Z" fill="#0b0e07"/>
<path d="M230 240 L235 250 L240 245 L245 252 L250 242 L255 252 L260 245 L265 250 L270 240" stroke="#0b0e07" stroke-width="3" fill="none"/>
<path d="M220 300 L210 330 L220 320 L230 335 L240 318 L250 340 L260 318 L270 335 L280 320 L290 330 L280 300 Z" fill="#0b0e07"/>
<path d="M175 280 L150 300 L140 340 L150 350 L170 320 L180 290 Z" fill="#bdff00"/>
<path d="M325 280 L350 300 L360 340 L350 350 L330 320 L320 290 Z" fill="#bdff00"/>
<path d="M210 450 L205 475 L200 495 L210 490 L218 495 L222 480 Z" fill="#bdff00"/>
<path d="M290 450 L295 475 L300 495 L290 490 L282 495 L278 480 Z" fill="#bdff00"/>
<path d="M160 160 L145 150 L130 165 L140 180 L155 190 Z" fill="#bdff00"/>
<path d="M340 160 L355 150 L370 165 L360 180 L345 190 Z" fill="#bdff00"/>
</svg>
