<svg width="500" height="500" viewBox="0 0 500 500" fill="none" xmlns="http://www.w3.org/2000/svg">
<!-- Demon jump frame 3: Peak (Y -50px, legs tucked up slightly) -->
<path d="M160 10 L130 -40 L170 30 Z" fill="#bdff00"/>
<path d="M340 10 L370 -40 L330 30 Z" fill="#bdff00"/>
<path d="M250 20 C200 20 165 50 160 90 L155 120 C150 150 160 180 180 200 L175 210 C160 230 155 260 160 290 L170 330 C175 350 190 370 210 380 L220 385 C235 392 265 392 280 385 L290 380 C310 370 325 350 330 330 L340 290 C345 260 340 230 325 210 L320 200 C340 180 350 150 345 120 L340 90 C335 50 300 20 250 20 Z" fill="#bdff00"/>
<path d="M210 105 C200 105 192 115 192 127 C192 139 200 149 210 149 C220 149 228 139 228 127 C228 115 220 105 210 105 Z M210 117 C215 117 218 122 218 127 C218 133 215 137 210 137 C205 137 202 133 202 127 C202 122 205 117 210 117 Z" fill="#0b0e07"/>
<path d="M290 105 C280 105 272 115 272 127 C272 139 280 149 290 149 C300 149 308 139 308 127 C308 115 300 105 290 105 Z M290 117 C295 117 298 122 298 127 C298 133 295 137 290 137 C285 137 282 133 282 127 C282 122 285 117 290 117 Z" fill="#0b0e07"/>
<path d="M230 170 L235 180 L240 175 L245 182 L250 172 L255 182 L260 175 L265 180 L270 170" stroke="#0b0e07" stroke-width="3" fill="none"/>
<path d="M220 230 L210 260 L220 250 L230 265 L240 248 L250 270 L260 248 L270 265 L280 250 L290 260 L280 230 Z" fill="#0b0e07"/>
<path d="M175 210 L145 180 L128 145 L138 140 L160 165 L178 195 Z" fill="#bdff00"/>
<path d="M325 210 L355 180 L372 145 L362 140 L340 165 L322 195 Z" fill="#bdff00"/>
<path d="M210 380 L206 410 L202 435 L210 432 L216 437 L220 415 Z" fill="#bdff00"/>
<path d="M290 380 L294 410 L298 435 L290 432 L284 437 L280 415 Z" fill="#bdff00"/>
<path d="M160 90 L145 80 L130 95 L140 110 L155 120 Z" fill="#bdff00"/>
<path d="M340 90 L355 80 L370 95 L360 110 L345 120 Z" fill="#bdff00"/>
</svg>
