<svg width="500" height="500" viewBox="0 0 500 500" fill="none" xmlns="http://www.w3.org/2000/svg">
<!-- Succube armwave frame 4: Arm descending, wing folding -->
<path d="M250 45 C228 45 210 58 205 78 L200 98 C198 115 205 132 218 142 L222 146 C230 152 240 156 250 156 C260 156 270 152 278 146 L282 142 C295 132 302 115 300 98 L295 78 C290 58 272 45 250 45 Z" fill="#bdff00"/>
<path d="M232 92 C228 92 224 96 224 101 C224 106 228 110 232 110 C237 110 241 106 241 101 C241 96 237 92 232 92 Z" fill="#0b0e07"/>
<path d="M268 92 C264 92 260 96 260 101 C260 106 264 110 268 110 C273 110 277 106 277 101 C277 96 273 92 268 92 Z" fill="#0b0e07"/>
<path d="M242 125 Q250 133 258 125" stroke="#0b0e07" stroke-width="2.5" fill="none"/>
<!-- Hair flowing -->
<path d="M205 78 L188 65 L172 60 L160 65 L168 72 L182 70 L198 80 Z" fill="#bdff00"/>
<path d="M295 78 L312 65 L328 60 L340 65 L332 72 L318 70 L302 80 Z" fill="#bdff00"/>
<path d="M160 65 L148 80 L140 105 L142 130 L148 120 L145 100 L152 82 Z" fill="#bdff00"/>
<path d="M340 65 L352 80 L360 105 L358 130 L352 120 L355 100 L348 82 Z" fill="#bdff00"/>
<!-- Body -->
<path d="M250 156 L222 165 L190 185 L168 215 L158 255 L162 290 L175 320 L195 345 L210 360 L220 370 L225 400 L220 430 L215 460 L225 480 L240 490 L250 492 L260 490 L275 480 L285 460 L280 430 L275 400 L280 370 L290 360 L305 345 L325 320 L340 290 L346 255 L340 215 L315 185 L282 165 Z" fill="#bdff00"/>
<!-- Torso detail -->
<path d="M215 210 L210 240 L215 270 L225 295 L240 310 L250 315 L260 310 L275 295 L285 270 L290 240 L288 210 L278 195 L263 185 L250 182 L240 185 L225 195 Z" fill="#0b0e07" opacity="0.3"/>
<path d="M235 210 L235 265 L242 275 L250 280 L258 275 L265 265 L265 210 L260 205 L250 200 L240 205 Z" stroke="#bdff00" stroke-width="2" fill="none"/>
<path d="M250 210 L250 280" stroke="#bdff00" stroke-width="1.5"/>
<path d="M238 230 L262 230" stroke="#bdff00" stroke-width="1.5"/>
<path d="M236 250 L264 250" stroke="#bdff00" stroke-width="1.5"/>
<!-- Right arm descending -->
<path d="M282 165 L295 160 L308 158 L320 160 L332 168 L338 180 L330 175 L318 168 L305 165 L292 168 Z" fill="#bdff00"/>
<!-- Wings — right folding back -->
<path d="M168 215 L148 195 L125 175 L100 165 L80 168 L65 180 L78 178 L95 172 L118 182 L110 200 L125 192 L120 215 L140 205 L138 228 L155 218 L158 240 L165 230 Z" fill="#bdff00"/>
<path d="M340 215 L360 190 L385 170 L412 158 L435 152 L448 160 L435 162 L412 168 L388 182 L395 202 L378 192 L382 218 L365 208 L365 232 L348 220 L343 242 L337 230 Z" fill="#bdff00"/>
<!-- Tail -->
<path d="M250 492 L240 485 L228 478 L218 480 L210 490 L215 495 L230 488 L245 492 L250 498 L252 492 Z" fill="#bdff00"/>
<path d="M210 490 L195 485 L180 488 L170 495 L165 492 L172 482 L185 478 L198 482 Z" fill="#bdff00"/>
<path d="M165 492 L158 485 L148 490 L155 498 L162 495 Z" fill="#bdff00"/>
<!-- Legs -->
<path d="M225 480 L218 470 L215 460 L220 445 L224 430 L228 440 L226 455 L228 468 Z" fill="#0b0e07" opacity="0.3"/>
<path d="M275 480 L282 470 L285 460 L280 445 L276 430 L272 440 L274 455 L272 468 Z" fill="#0b0e07" opacity="0.3"/>
</svg>
