<svg width="500" height="500" viewBox="0 0 500 500" fill="none" xmlns="http://www.w3.org/2000/svg">
<!-- Succube turn frame 3: 60° turn, wings wide -->
<path d="M275 50 C253 55 237 70 233 90 L230 110 C230 127 238 144 252 153 L257 157 C266 162 278 165 290 163 C299 160 307 154 312 146 L314 141 C321 128 323 110 318 93 L311 75 C302 60 283 48 275 50 Z" fill="#bdff00"/>
<path d="M255 100 C251 102 249 106 251 111 C253 116 257 118 262 116 C266 114 268 110 266 105 C264 100 260 98 255 100 Z" fill="#0b0e07"/>
<path d="M287 93 C283 95 281 99 283 104 C285 109 289 111 294 109 C298 107 300 103 298 98 C296 93 292 91 287 93 Z" fill="#0b0e07"/>
<path d="M257 127 Q267 132 276 122" stroke="#0b0e07" stroke-width="2.5" fill="none"/>
<path d="M233 90 L220 80 L208 78 L200 84 L206 90 L218 90 L228 96 Z" fill="#bdff00"/>
<path d="M311 75 L323 64 L335 60 L343 65 L337 71 L325 72 L314 80 Z" fill="#bdff00"/>
<path d="M200 84 L192 98 L187 120 L190 142 L195 132 L193 113 L197 97 Z" fill="#bdff00"/>
<path d="M343 65 L351 78 L356 100 L353 122 L348 112 L350 93 L346 77 Z" fill="#bdff00"/>
<path d="M290 163 L262 172 L232 193 L215 223 L210 263 L218 298 L236 328 L260 353 L280 368 L293 378 L302 408 L301 438 L298 468 L306 487 L318 497 L328 499 L338 497 L349 487 L353 467 L346 437 L337 407 L336 377 L342 365 L353 348 L366 323 L374 293 L374 258 L360 223 L333 196 L298 177 Z" fill="#bdff00"/>
<path d="M245 218 L244 248 L252 278 L267 303 L286 318 L298 323 L309 318 L321 303 L327 278 L328 248 L320 218 L306 204 L288 197 L277 196 L264 201 L252 210 Z" fill="#0b0e07" opacity="0.3"/>
<path d="M265 218 L269 273 L277 283 L288 288 L297 283 L303 273 L303 218 L296 213 L286 209 L274 211 Z" stroke="#bdff00" stroke-width="2" fill="none"/>
<path d="M286 218 L288 288" stroke="#bdff00" stroke-width="1.5"/>
<path d="M272 238 L300 238" stroke="#bdff00" stroke-width="1.5"/>
<path d="M271 258 L301 258" stroke="#bdff00" stroke-width="1.5"/>
<path d="M215 223 L200 207 L180 190 L158 182 L138 187 L128 200 L139 197 L156 193 L173 202 L168 219 L181 212 L180 232 L194 225 L196 245 L209 237 L215 255 L220 245 Z" fill="#bdff00"/>
<path d="M360 223 L377 205 L398 186 L422 175 L445 173 L458 182 L446 183 L426 186 L405 198 L410 216 L397 208 L399 230 L383 221 L381 245 L366 234 L362 255 L357 243 Z" fill="#bdff00"/>
<path d="M328 499 L318 494 L308 488 L299 489 L293 497 L297 502 L310 497 L324 499 L328 504 L330 499 Z" fill="#bdff00"/>
<path d="M293 497 L281 494 L269 496 L261 502 L258 499 L263 491 L274 488 L285 491 Z" fill="#bdff00"/>
<path d="M258 499 L252 494 L244 497 L249 504 L255 502 Z" fill="#bdff00"/>
<path d="M306 487 L302 477 L301 467 L304 452 L308 437 L312 447 L310 462 L311 475 Z" fill="#0b0e07" opacity="0.3"/>
<path d="M349 487 L353 477 L353 467 L348 452 L343 437 L338 447 L341 462 L341 475 Z" fill="#0b0e07" opacity="0.3"/>
</svg>
