<svg width="500" height="500" viewBox="0 0 500 500" fill="none" xmlns="http://www.w3.org/2000/svg">
<!-- Succube turn frame 4: 90° turn (profile), wings at peak spread -->
<path d="M295 55 C275 62 262 78 260 98 L259 118 C261 135 271 151 286 159 L292 162 C302 166 315 167 327 164 C336 159 343 151 346 142 L347 136 C351 122 350 104 343 88 L334 72 C323 60 305 52 295 55 Z" fill="#bdff00"/>
<path d="M275 105 C272 108 271 112 274 117 C277 121 281 122 286 119 C289 116 290 112 287 107 C284 103 280 102 275 105 Z" fill="#0b0e07"/>
<path d="M272 130 Q283 133 291 122" stroke="#0b0e07" stroke-width="2.5" fill="none"/>
<path d="M260 98 L250 90 L240 90 L234 96 L239 102 L249 103 L257 107 Z" fill="#bdff00"/>
<path d="M334 72 L344 63 L354 61 L360 66 L355 72 L345 74 L336 80 Z" fill="#bdff00"/>
<path d="M234 96 L228 109 L225 130 L228 150 L233 140 L231 122 L234 107 Z" fill="#bdff00"/>
<path d="M360 66 L366 79 L369 100 L366 120 L361 110 L363 92 L360 77 Z" fill="#bdff00"/>
<path d="M327 164 L300 174 L273 196 L258 226 L255 266 L265 301 L286 331 L312 356 L335 371 L350 381 L362 411 L363 441 L361 471 L368 490 L379 500 L389 500 L399 498 L408 488 L410 468 L401 438 L390 408 L386 378 L390 366 L399 349 L409 324 L415 294 L413 259 L397 226 L368 200 L332 182 Z" fill="#bdff00"/>
<path d="M278 223 L280 253 L290 283 L307 308 L328 323 L341 328 L353 323 L365 308 L371 283 L371 253 L361 223 L345 210 L326 204 L314 204 L299 210 L286 218 Z" fill="#0b0e07" opacity="0.3"/>
<path d="M300 223 L305 278 L314 288 L326 293 L336 288 L341 278 L340 223 L333 218 L322 215 L309 217 Z" stroke="#bdff00" stroke-width="2" fill="none"/>
<path d="M322 223 L326 293" stroke="#bdff00" stroke-width="1.5"/>
<path d="M307 243 L338 243" stroke="#bdff00" stroke-width="1.5"/>
<path d="M306 263 L339 263" stroke="#bdff00" stroke-width="1.5"/>
<path d="M258 226 L245 212 L228 197 L208 191 L188 197 L180 210 L190 208 L206 205 L221 213 L218 229 L229 223 L230 242 L243 236 L246 255 L258 248 L264 265 L269 255 Z" fill="#bdff00"/>
<path d="M397 226 L412 210 L430 193 L450 184 L470 183 L481 192 L470 194 L453 198 L435 209 L439 226 L427 219 L428 240 L413 232 L411 255 L397 245 L393 265 L389 253 Z" fill="#bdff00"/>
<path d="M389 500 L379 496 L369 491 L361 492 L356 499 L360 504 L372 500 L385 500 L389 505 L391 500 Z" fill="#bdff00"/>
<path d="M356 499 L345 497 L334 498 L327 504 L325 501 L329 494 L339 491 L350 493 Z" fill="#bdff00"/>
<path d="M325 501 L320 496 L313 499 L318 505 L323 504 Z" fill="#bdff00"/>
<path d="M368 490 L365 480 L365 470 L368 455 L372 440 L376 450 L374 465 L375 478 Z" fill="#0b0e07" opacity="0.3"/>
<path d="M408 488 L411 478 L411 468 L406 453 L401 438 L396 448 L399 463 L399 476 Z" fill="#0b0e07" opacity="0.3"/>
</svg>
