<svg width="500" height="500" viewBox="0 0 500 500" fill="none" xmlns="http://www.w3.org/2000/svg">
<!-- Succube turn frame 6: 180° back view, wings closed -->
<path d="M250 50 C270 50 288 63 293 83 L298 103 C300 120 293 137 280 147 L276 151 C268 157 258 161 248 161 C238 161 228 157 220 151 L216 147 C203 137 196 120 198 103 L203 83 C208 63 226 50 250 50 Z" fill="#bdff00"/>
<path d="M250 80 L238 88 L230 100 L228 115 L233 128 L245 135 L260 135 L272 128 L277 115 L275 100 L267 88 L255 80 Z" fill="#0b0e07" opacity="0.2"/>
<path d="M203 83 L190 70 L175 65 L163 70 L170 76 L183 75 L196 83 Z" fill="#bdff00"/>
<path d="M293 83 L306 70 L321 65 L333 70 L326 76 L313 75 L300 83 Z" fill="#bdff00"/>
<path d="M163 70 L153 83 L146 105 L148 127 L153 117 L151 100 L156 85 Z" fill="#bdff00"/>
<path d="M333 70 L343 83 L350 105 L348 127 L343 117 L345 100 L340 85 Z" fill="#bdff00"/>
<path d="M248 161 L276 170 L308 190 L330 220 L340 260 L336 295 L323 325 L303 350 L288 365 L278 375 L273 405 L278 435 L283 465 L273 485 L258 495 L248 497 L238 495 L223 485 L213 465 L218 435 L223 405 L218 375 L208 365 L193 350 L173 325 L160 295 L156 260 L166 220 L188 190 L220 170 Z" fill="#bdff00"/>
<path d="M283 215 L288 245 L283 275 L273 300 L258 315 L248 320 L238 315 L223 300 L213 275 L208 245 L213 215 L223 200 L238 190 L248 187 L258 190 L273 200 Z" fill="#0b0e07" opacity="0.3"/>
<path d="M263 215 L263 270 L256 280 L248 285 L240 280 L233 270 L233 215 L238 210 L248 205 L258 210 Z" stroke="#bdff00" stroke-width="2" fill="none"/>
<path d="M248 215 L248 285" stroke="#bdff00" stroke-width="1.5"/>
<path d="M236 235 L260 235" stroke="#bdff00" stroke-width="1.5"/>
<path d="M234 255 L262 255" stroke="#bdff00" stroke-width="1.5"/>
<path d="M330 220 L350 200 L373 180 L398 170 L418 173 L433 185 L420 183 L403 177 L380 187 L388 205 L373 197 L378 220 L358 210 L360 233 L343 223 L340 245 L333 235 Z" fill="#bdff00"/>
<path d="M166 220 L146 200 L123 180 L98 170 L78 173 L63 185 L76 183 L93 177 L116 187 L108 205 L123 197 L118 220 L138 210 L136 233 L153 223 L156 245 L163 235 Z" fill="#bdff00"/>
<path d="M248 497 L258 490 L270 483 L280 485 L288 495 L283 500 L268 493 L253 497 L248 503 L246 497 Z" fill="#bdff00"/>
<path d="M288 495 L303 490 L318 493 L328 500 L333 497 L326 487 L313 483 L300 487 Z" fill="#bdff00"/>
<path d="M333 497 L340 490 L350 495 L343 503 L336 500 Z" fill="#bdff00"/>
<path d="M273 485 L280 475 L283 465 L278 450 L274 435 L270 445 L272 460 L270 473 Z" fill="#0b0e07" opacity="0.3"/>
<path d="M223 485 L216 475 L213 465 L218 450 L222 435 L226 445 L224 460 L226 473 Z" fill="#0b0e07" opacity="0.3"/>
</svg>
