<svg width="500" height="500" viewBox="0 0 500 500" fill="none" xmlns="http://www.w3.org/2000/svg">
<!-- Succube turn frame 5: 120° turn, wings folding -->
<path d="M285 52 C265 58 250 73 246 93 L243 113 C244 130 252 146 265 155 L270 159 C279 164 290 166 301 164 C310 161 318 155 323 147 L325 142 C330 129 331 112 326 96 L319 79 C310 64 295 50 285 52 Z" fill="#bdff00"/>
<path d="M263 102 C259 104 257 108 259 113 C261 118 265 120 270 118 C274 116 276 112 274 107 C272 102 268 100 263 102 Z" fill="#0b0e07"/>
<path d="M265 128 Q275 132 284 123" stroke="#0b0e07" stroke-width="2.5" fill="none"/>
<path d="M246 93 L235 84 L223 81 L215 86 L221 92 L233 92 L243 98 Z" fill="#bdff00"/>
<path d="M319 79 L330 69 L341 66 L348 71 L343 77 L332 79 L322 86 Z" fill="#bdff00"/>
<path d="M215 86 L208 99 L203 120 L205 141 L210 131 L208 113 L212 98 Z" fill="#bdff00"/>
<path d="M348 71 L355 83 L360 104 L357 124 L352 114 L354 96 L350 81 Z" fill="#bdff00"/>
<path d="M301 164 L274 173 L245 194 L227 224 L220 264 L227 299 L244 329 L266 354 L285 369 L298 379 L308 409 L309 439 L307 469 L315 488 L327 498 L337 500 L347 498 L358 488 L363 468 L357 438 L348 408 L345 378 L350 366 L360 349 L372 324 L379 294 L378 259 L365 224 L340 196 L307 176 Z" fill="#bdff00"/>
<path d="M252 220 L252 250 L260 280 L274 305 L291 320 L302 325 L313 320 L326 305 L333 280 L335 250 L327 220 L314 206 L297 199 L286 198 L272 203 L260 211 Z" fill="#0b0e07" opacity="0.3"/>
<path d="M272 220 L276 275 L284 285 L294 290 L304 285 L310 275 L310 220 L304 215 L294 211 L282 213 Z" stroke="#bdff00" stroke-width="2" fill="none"/>
<path d="M294 220 L296 290" stroke="#bdff00" stroke-width="1.5"/>
<path d="M280 240 L307 240" stroke="#bdff00" stroke-width="1.5"/>
<path d="M279 260 L308 260" stroke="#bdff00" stroke-width="1.5"/>
<path d="M227 224 L213 209 L195 193 L174 185 L154 190 L144 203 L155 200 L171 196 L188 205 L184 221 L197 214 L197 234 L211 227 L214 246 L227 238 L232 256 L237 246 Z" fill="#bdff00"/>
<path d="M365 224 L381 207 L400 189 L422 178 L444 176 L457 185 L446 187 L427 191 L409 202 L414 219 L402 211 L403 233 L388 224 L386 247 L372 237 L368 257 L363 245 Z" fill="#bdff00"/>
<path d="M337 500 L327 495 L317 489 L308 490 L302 498 L306 503 L319 498 L333 500 L337 505 L339 500 Z" fill="#bdff00"/>
<path d="M302 498 L290 495 L278 497 L270 503 L267 500 L272 492 L283 489 L294 492 Z" fill="#bdff00"/>
<path d="M267 500 L261 495 L253 498 L258 505 L264 503 Z" fill="#bdff00"/>
<path d="M315 488 L311 478 L310 468 L313 453 L317 438 L321 448 L319 463 L320 476 Z" fill="#0b0e07" opacity="0.3"/>
<path d="M358 488 L362 478 L363 468 L358 453 L353 438 L348 448 L351 463 L351 476 Z" fill="#0b0e07" opacity="0.3"/>
</svg>
