<svg width="500" height="500" viewBox="0 0 500 500" fill="none" xmlns="http://www.w3.org/2000/svg">
<!-- Succube turn frame 2: 30° turn, wings begin to spread -->
<path d="M260 45 C238 48 220 62 215 82 L210 102 C208 119 215 136 228 146 L232 150 C240 156 250 160 260 160 C270 158 278 152 285 145 L288 140 C298 128 303 110 300 93 L295 75 C288 58 270 44 260 45 Z" fill="#bdff00"/>
<path d="M242 95 C238 96 235 100 236 105 C237 110 241 113 246 112 C250 111 253 107 252 102 C251 97 247 94 242 95 Z" fill="#0b0e07"/>
<path d="M275 90 C271 91 268 95 269 100 C270 105 274 108 279 107 C283 106 286 102 285 97 C284 92 280 89 275 90 Z" fill="#0b0e07"/>
<path d="M247 125 Q255 132 263 123" stroke="#0b0e07" stroke-width="2.5" fill="none"/>
<path d="M215 82 L200 70 L185 67 L175 72 L182 78 L195 77 L208 85 Z" fill="#bdff00"/>
<path d="M295 75 L310 62 L325 57 L335 62 L328 68 L315 68 L302 77 Z" fill="#bdff00"/>
<path d="M175 72 L165 87 L158 112 L160 135 L165 125 L163 105 L168 87 Z" fill="#bdff00"/>
<path d="M335 62 L345 75 L352 100 L350 125 L345 115 L348 95 L343 77 Z" fill="#bdff00"/>
<path d="M260 160 L232 168 L200 188 L180 218 L172 258 L178 293 L193 323 L215 348 L232 363 L243 373 L250 403 L247 433 L243 463 L252 482 L265 492 L275 494 L285 492 L298 482 L305 462 L300 432 L293 402 L295 372 L303 360 L316 343 L333 318 L343 288 L345 253 L333 218 L308 190 L275 170 Z" fill="#bdff00"/>
<path d="M225 213 L222 243 L228 273 L240 298 L257 313 L268 318 L278 313 L291 298 L299 273 L302 243 L296 213 L284 198 L268 190 L258 188 L246 192 L233 200 Z" fill="#0b0e07" opacity="0.3"/>
<path d="M245 213 L247 268 L254 278 L263 283 L271 278 L277 268 L277 213 L271 208 L262 203 L252 206 Z" stroke="#bdff00" stroke-width="2" fill="none"/>
<path d="M262 213 L263 283" stroke="#bdff00" stroke-width="1.5"/>
<path d="M250 233 L274 233" stroke="#bdff00" stroke-width="1.5"/>
<path d="M249 253 L275 253" stroke="#bdff00" stroke-width="1.5"/>
<path d="M180 218 L162 200 L142 182 L120 173 L102 177 L90 190 L102 187 L118 182 L138 190 L132 207 L145 200 L142 220 L158 212 L158 233 L173 224 L178 243 L184 233 Z" fill="#bdff00"/>
<path d="M333 218 L352 198 L375 177 L402 165 L425 165 L440 175 L427 175 L408 175 L385 187 L392 205 L378 197 L382 220 L365 210 L365 235 L350 223 L346 245 L340 233 Z" fill="#bdff00"/>
<path d="M275 494 L265 488 L254 482 L245 483 L238 492 L243 497 L257 491 L271 494 L275 499 L277 494 Z" fill="#bdff00"/>
<path d="M238 492 L225 488 L212 490 L203 497 L199 494 L205 485 L217 482 L229 485 Z" fill="#bdff00"/>
<path d="M199 494 L193 488 L184 492 L190 499 L196 497 Z" fill="#bdff00"/>
<path d="M252 482 L247 472 L245 462 L249 447 L253 432 L257 442 L255 457 L256 470 Z" fill="#0b0e07" opacity="0.3"/>
<path d="M298 482 L303 472 L305 462 L300 447 L295 432 L290 442 L293 457 L292 470 Z" fill="#0b0e07" opacity="0.3"/>
</svg>
