<svg width="500" height="500" viewBox="0 0 500 500" fill="none" xmlns="http://www.w3.org/2000/svg">
<!-- Gargoyle hipshake frame 2: Hips shift left, head compensates right -->
<!-- Ear ridges -->
<path d="M189 80 L169 45 L154 25 L152 35 L162 55 L179 78 Z" fill="#bdff00"/>
<path d="M319 80 L339 45 L354 25 L356 35 L346 55 L329 78 Z" fill="#bdff00"/>
<!-- Head — blocky angular -->
<path d="M254 55 C214 55 184 75 179 105 L176 130 C174 150 182 168 196 180 L204 186 C219 195 239 200 254 200 C269 200 289 195 304 186 L312 180 C326 168 334 150 332 130 L329 105 C324 75 294 55 254 55 Z" fill="#bdff00"/>
<!-- Brow ridge -->
<path d="M194 100 L214 95 L254 92 L294 95 L314 100 L309 108 L294 105 L254 102 L214 105 L199 108 Z" fill="#0b0e07"/>
<!-- Eyes — deep set -->
<path d="M214 118 C209 118 204 123 204 130 C204 137 209 142 214 142 C222 142 229 137 229 130 C229 123 222 118 214 118 Z M214 125 C218 125 222 127 222 130 C222 134 218 136 214 136 C211 136 208 134 208 130 C208 127 211 125 214 125 Z" fill="#0b0e07"/>
<path d="M294 118 C289 118 284 123 284 130 C284 137 289 142 294 142 C302 142 309 137 309 130 C309 123 302 118 294 118 Z M294 125 C298 125 302 127 302 130 C302 134 298 136 294 136 C291 136 288 134 288 130 C288 127 291 125 294 125 Z" fill="#0b0e07"/>
<!-- Snout / muzzle -->
<path d="M239 155 L244 148 L254 145 L264 148 L269 155 L264 165 L254 170 L244 165 Z" fill="#0b0e07"/>
<path d="M246 155 L252 152 L256 152 L262 155 L259 160 L254 162 L249 160 Z" fill="#bdff00" opacity="0.5"/>
<!-- Fangs -->
<path d="M239 170 L242 180 L246 172 Z" fill="#0b0e07"/>
<path d="M269 170 L266 180 L262 172 Z" fill="#0b0e07"/>
<!-- Neck — thick -->
<path d="M224 195 L211 210 L206 235 L211 240 L288 240 L283 235 L291 210 L284 195 Z" fill="#bdff00"/>
<!-- Shoulders + torso — hips shifted left -->
<path d="M211 240 L150 260 L114 290 L98 330 L92 375 L99 420 L115 455 L140 475 L170 488 L200 495 L240 498 L280 495 L310 488 L340 475 L365 455 L383 420 L392 375 L388 330 L374 290 L340 260 L281 240 Z" fill="#bdff00"/>
<!-- Torso inner -->
<path d="M190 275 L159 295 L138 330 L130 370 L133 410 L148 442 L168 462 L190 475 L215 482 L240 484 L265 482 L290 475 L312 462 L333 442 L350 410 L355 370 L349 330 L329 295 L299 275 L274 265 L244 260 L214 265 Z" fill="#0b0e07" opacity="0.3"/>
<!-- Chest crest -->
<path d="M240 290 L265 320 L240 350 L215 320 Z" stroke="#bdff00" stroke-width="3" fill="none"/>
<path d="M240 305 L252 320 L240 335 L228 320 Z" fill="#bdff00" opacity="0.25"/>
<!-- Ribs -->
<path d="M185 340 Q240 325 295 340" stroke="#bdff00" stroke-width="2" fill="none" opacity="0.3"/>
<path d="M180 370 Q240 355 300 370" stroke="#bdff00" stroke-width="2" fill="none" opacity="0.25"/>
<path d="M182 400 Q240 385 298 400" stroke="#bdff00" stroke-width="2" fill="none" opacity="0.2"/>
<!-- Wings — folded, angular stone-like -->
<path d="M114 290 L89 265 L64 240 L44 225 L32 220 L26 230 L36 245 L29 260 L42 265 L36 285 L52 282 L49 305 L66 298 L64 320 L82 310 L84 330 L99 320 Z" fill="#bdff00"/>
<path d="M374 290 L399 265 L424 240 L444 225 L456 220 L462 230 L452 245 L459 260 L446 265 L452 285 L436 282 L439 305 L422 298 L424 320 L406 310 L404 330 L389 320 Z" fill="#bdff00"/>
<!-- Clawed feet -->
<path d="M170 488 L158 492 L145 498 L152 500 L165 496 L175 492 Z" fill="#bdff00"/>
<path d="M145 498 L132 496 L122 500 L130 502 L142 500 Z" fill="#bdff00"/>
<path d="M310 488 L322 492 L335 498 L328 500 L315 496 L305 492 Z" fill="#bdff00"/>
<path d="M335 498 L348 496 L358 500 L350 502 L338 500 Z" fill="#bdff00"/>
</svg>
