<svg width="500" height="500" viewBox="0 0 500 500" fill="none" xmlns="http://www.w3.org/2000/svg">
<!-- Gargoyle hipshake frame 4: Hips shift right, head compensates left -->
<!-- Ear ridges -->
<path d="M181 80 L161 45 L146 25 L144 35 L154 55 L171 78 Z" fill="#bdff00"/>
<path d="M311 80 L331 45 L346 25 L348 35 L338 55 L321 78 Z" fill="#bdff00"/>
<!-- Head — blocky angular -->
<path d="M246 55 C206 55 176 75 171 105 L168 130 C166 150 174 168 188 180 L196 186 C211 195 231 200 246 200 C261 200 281 195 296 186 L304 180 C318 168 326 150 324 130 L321 105 C316 75 286 55 246 55 Z" fill="#bdff00"/>
<!-- Brow ridge -->
<path d="M186 100 L206 95 L246 92 L286 95 L306 100 L301 108 L286 105 L246 102 L206 105 L191 108 Z" fill="#0b0e07"/>
<!-- Eyes — deep set -->
<path d="M206 118 C201 118 196 123 196 130 C196 137 201 142 206 142 C214 142 221 137 221 130 C221 123 214 118 206 118 Z M206 125 C210 125 214 127 214 130 C214 134 210 136 206 136 C203 136 200 134 200 130 C200 127 203 125 206 125 Z" fill="#0b0e07"/>
<path d="M286 118 C281 118 276 123 276 130 C276 137 281 142 286 142 C294 142 301 137 301 130 C301 123 294 118 286 118 Z M286 125 C290 125 294 127 294 130 C294 134 290 136 286 136 C283 136 280 134 280 130 C280 127 283 125 286 125 Z" fill="#0b0e07"/>
<!-- Snout / muzzle -->
<path d="M231 155 L236 148 L246 145 L256 148 L261 155 L256 165 L246 170 L236 165 Z" fill="#0b0e07"/>
<path d="M238 155 L244 152 L248 152 L254 155 L251 160 L246 162 L241 160 Z" fill="#bdff00" opacity="0.5"/>
<!-- Fangs -->
<path d="M231 170 L234 180 L238 172 Z" fill="#0b0e07"/>
<path d="M261 170 L258 180 L254 172 Z" fill="#0b0e07"/>
<!-- Neck — thick -->
<path d="M216 195 L208 210 L212 235 L219 240 L296 240 L289 235 L292 210 L276 195 Z" fill="#bdff00"/>
<!-- Shoulders + torso — hips shifted right -->
<path d="M219 240 L160 260 L126 290 L112 330 L108 375 L117 420 L135 455 L160 475 L190 488 L220 495 L260 498 L300 495 L330 488 L360 475 L385 455 L401 420 L408 375 L402 330 L386 290 L350 260 L289 240 Z" fill="#bdff00"/>
<!-- Torso inner -->
<path d="M200 275 L171 295 L152 330 L146 370 L151 410 L168 442 L188 462 L210 475 L235 482 L260 484 L285 482 L310 475 L332 462 L352 442 L367 410 L370 370 L362 330 L341 295 L311 275 L286 265 L256 260 L226 265 Z" fill="#0b0e07" opacity="0.3"/>
<!-- Chest crest -->
<path d="M260 290 L285 320 L260 350 L235 320 Z" stroke="#bdff00" stroke-width="3" fill="none"/>
<path d="M260 305 L272 320 L260 335 L248 320 Z" fill="#bdff00" opacity="0.25"/>
<!-- Ribs -->
<path d="M205 340 Q260 325 315 340" stroke="#bdff00" stroke-width="2" fill="none" opacity="0.3"/>
<path d="M200 370 Q260 355 320 370" stroke="#bdff00" stroke-width="2" fill="none" opacity="0.25"/>
<path d="M202 400 Q260 385 318 400" stroke="#bdff00" stroke-width="2" fill="none" opacity="0.2"/>
<!-- Wings — folded, angular stone-like -->
<path d="M126 290 L101 265 L76 240 L56 225 L44 220 L38 230 L48 245 L41 260 L54 265 L48 285 L64 282 L61 305 L78 298 L76 320 L94 310 L96 330 L111 320 Z" fill="#bdff00"/>
<path d="M386 290 L411 265 L436 240 L456 225 L468 220 L474 230 L464 245 L471 260 L458 265 L464 285 L448 282 L451 305 L434 298 L436 320 L418 310 L416 330 L401 320 Z" fill="#bdff00"/>
<!-- Clawed feet -->
<path d="M190 488 L178 492 L165 498 L172 500 L185 496 L195 492 Z" fill="#bdff00"/>
<path d="M165 498 L152 496 L142 500 L150 502 L162 500 Z" fill="#bdff00"/>
<path d="M330 488 L342 492 L355 498 L348 500 L335 496 L325 492 Z" fill="#bdff00"/>
<path d="M355 498 L368 496 L378 500 L370 502 L358 500 Z" fill="#bdff00"/>
</svg>
