<svg width="500" height="500" viewBox="0 0 500 500" fill="none" xmlns="http://www.w3.org/2000/svg">
<!-- Demon turn frame 2: 30° turn (slight angle) -->
<path d="M170 60 L145 10 L180 80 Z" fill="#bdff00"/>
<path d="M330 58 L360 10 L320 78 Z" fill="#bdff00"/>
<path d="M250 70 C205 70 175 100 172 140 L168 170 C165 200 172 230 188 250 L185 260 C172 280 168 310 172 340 L180 380 C184 400 196 420 214 430 L222 435 C236 442 264 442 276 435 L284 430 C300 420 312 400 316 380 L322 340 C326 310 322 280 310 260 L306 250 C322 230 330 200 326 170 L322 140 C318 100 288 70 250 70 Z" fill="#bdff00"/>
<path d="M215 155 C206 155 198 165 198 177 C198 189 206 199 215 199 C224 199 232 189 232 177 C232 165 224 155 215 155 Z M215 167 C219 167 222 172 222 177 C222 183 219 187 215 187 C211 187 208 183 208 177 C208 172 211 167 215 167 Z" fill="#0b0e07"/>
<path d="M285 155 C276 155 270 165 270 177 C270 189 276 199 285 199 C294 199 300 189 300 177 C300 165 294 155 285 155 Z M285 167 C289 167 291 172 291 177 C291 183 289 187 285 187 C281 187 279 183 279 177 C279 172 281 167 285 167 Z" fill="#0b0e07"/>
<path d="M235 220 L240 230 L244 225 L248 232 L252 222 L256 232 L260 225 L264 230 L268 220" stroke="#0b0e07" stroke-width="3" fill="none"/>
<path d="M224 280 L215 310 L224 300 L232 315 L240 298 L248 320 L256 298 L264 315 L272 300 L280 310 L274 280 Z" fill="#0b0e07"/>
<path d="M185 260 L155 280 L140 330 L148 340 L165 310 L180 280 Z" fill="#bdff00"/>
<path d="M310 260 L338 280 L352 330 L344 340 L328 310 L315 280 Z" fill="#bdff00"/>
<path d="M215 430 L207 460 L198 490 L215 480 L224 490 L228 470 Z" fill="#bdff00"/>
<path d="M285 430 L293 460 L302 490 L285 480 L276 490 L272 470 Z" fill="#bdff00"/>
<path d="M172 140 L158 130 L145 145 L154 160 L168 170 Z" fill="#bdff00"/>
<path d="M322 140 L336 130 L348 145 L340 160 L326 170 Z" fill="#bdff00"/>
</svg>
