<svg width="500" height="500" viewBox="0 0 500 500" fill="none" xmlns="http://www.w3.org/2000/svg">
<!-- Demon turn frame 5: 120° turn (back angle) -->
<path d="M225 60 L215 10 L230 80 Z" fill="#bdff00"/>
<path d="M275 58 L305 10 L265 78 Z" fill="#bdff00"/>
<path d="M250 70 C230 70 218 100 217 140 L216 170 C215 200 217 230 222 250 L221 260 C217 280 216 310 217 340 L220 380 C221 400 225 420 232 430 L235 435 C244 442 256 442 263 435 L266 430 C272 420 277 400 278 380 L279 340 C280 310 279 280 275 260 L274 250 C279 230 281 200 280 170 L279 140 C278 100 265 70 250 70 Z" fill="#bdff00"/>
<path d="M242 156 C236 156 232 165 232 177 C232 189 236 199 242 199 C248 199 252 189 252 177 C252 165 248 156 242 156 Z" fill="#0b0e07"/>
<path d="M258 157 C253 157 249 165 249 177 C249 189 253 199 258 199 C264 199 268 189 268 177 C268 165 264 157 258 157 Z" fill="#0b0e07"/>
<path d="M247 220 L249 230 L251 225 L253 232 L255 222 L257 232 L259 225 L261 230 L263 220" stroke="#0b0e07" stroke-width="3" fill="none"/>
<path d="M242 280 L237 310 L241 300 L244 315 L247 298 L250 320 L253 298 L256 315 L259 300 L262 310 L260 280 Z" fill="#0b0e07"/>
<path d="M221 260 L209 280 L205 330 L209 340 L217 310 L220 280 Z" fill="#bdff00"/>
<path d="M274 260 L285 280 L288 330 L284 340 L277 310 L275 280 Z" fill="#bdff00"/>
<path d="M242 430 L239 460 L236 490 L242 480 L246 490 L248 470 Z" fill="#bdff00"/>
<path d="M258 430 L261 460 L264 490 L258 480 L254 490 L252 470 Z" fill="#bdff00"/>
<path d="M217 140 L208 130 L203 145 L209 160 L216 170 Z" fill="#bdff00"/>
<path d="M279 140 L288 130 L292 145 L287 160 L280 170 Z" fill="#bdff00"/>
</svg>
