<svg width="500" height="500" viewBox="0 0 500 500" fill="none" xmlns="http://www.w3.org/2000/svg">
<!-- Demon turn frame 6: 180° turn (back view) -->
<path d="M340 60 L370 10 L330 80 Z" fill="#bdff00"/>
<path d="M160 60 L130 10 L170 80 Z" fill="#bdff00"/>
<path d="M250 70 C300 70 335 100 340 140 L345 170 C350 200 340 230 320 250 L325 260 C340 280 345 310 340 340 L330 380 C325 400 310 420 290 430 L280 435 C265 442 235 442 220 435 L210 430 C190 420 175 400 170 380 L160 340 C155 310 160 280 175 260 L180 250 C160 230 150 200 155 170 L160 140 C165 100 200 70 250 70 Z" fill="#bdff00"/>
<path d="M245 280 L235 310 L245 300 L255 315 L265 298 L275 320 L285 298 L295 315 L305 300 L315 310 L305 280 Z" fill="#0b0e07"/>
<path d="M325 260 L360 280 L380 330 L370 340 L350 310 L330 280 Z" fill="#bdff00"/>
<path d="M175 260 L140 280 L120 330 L130 340 L150 310 L170 280 Z" fill="#bdff00"/>
<path d="M290 430 L300 460 L310 490 L290 480 L280 490 L275 470 Z" fill="#bdff00"/>
<path d="M210 430 L200 460 L190 490 L210 480 L220 490 L225 470 Z" fill="#bdff00"/>
<path d="M340 140 L355 130 L370 145 L360 160 L345 170 Z" fill="#bdff00"/>
<path d="M160 140 L145 130 L130 145 L140 160 L155 170 Z" fill="#bdff00"/>
</svg>
