<svg width="500" height="500" viewBox="0 0 500 500" fill="none" xmlns="http://www.w3.org/2000/svg">
<!-- Demon turn frame 4: 90° turn (full side profile) -->
<path d="M210 60 L195 10 L215 80 Z" fill="#bdff00"/>
<path d="M290 55 L320 10 L280 75 Z" fill="#bdff00"/>
<path d="M250 70 C225 70 208 100 206 140 L204 170 C203 200 206 230 214 250 L213 260 C206 280 204 310 206 340 L210 380 C212 400 218 420 228 430 L232 435 C242 442 258 442 266 435 L270 430 C278 420 284 400 286 380 L288 340 C290 310 288 280 282 260 L280 250 C288 230 291 200 289 170 L288 140 C286 100 268 70 250 70 Z" fill="#bdff00"/>
<path d="M238 155 C231 155 226 165 226 177 C226 189 231 199 238 199 C245 199 250 189 250 177 C250 165 245 155 238 155 Z M238 167 C241 167 243 172 243 177 C243 183 241 187 238 187 C235 187 233 183 233 177 C233 172 235 167 238 167 Z" fill="#0b0e07"/>
<path d="M262 157 C256 157 252 165 252 177 C252 189 256 199 262 199 Z" fill="#0b0e07"/>
<path d="M245 220 L248 230 L250 225 L252 232 L254 222 L256 232 L258 225 L260 230 L262 220" stroke="#0b0e07" stroke-width="3" fill="none"/>
<path d="M238 280 L232 310 L237 300 L241 315 L245 298 L249 320 L253 298 L257 315 L261 300 L265 310 L263 280 Z" fill="#0b0e07"/>
<path d="M213 260 L198 280 L192 330 L197 340 L206 310 L211 280 Z" fill="#bdff00"/>
<path d="M280 260 L292 280 L296 330 L291 340 L282 310 L279 280 Z" fill="#bdff00"/>
<path d="M238 430 L234 460 L230 490 L238 480 L243 490 L245 470 Z" fill="#bdff00"/>
<path d="M262 430 L266 460 L270 490 L262 480 L257 490 L255 470 Z" fill="#bdff00"/>
<path d="M206 140 L196 130 L189 145 L196 160 L204 170 Z" fill="#bdff00"/>
<path d="M288 140 L298 130 L304 145 L298 160 L289 170 Z" fill="#bdff00"/>
</svg>
