<svg width="500" height="500" viewBox="0 0 500 500" fill="none" xmlns="http://www.w3.org/2000/svg">
<!-- Demon turn frame 3: 60° turn (profile starting) -->
<path d="M185 60 L165 10 L195 80 Z" fill="#bdff00"/>
<path d="M315 56 L345 10 L305 76 Z" fill="#bdff00"/>
<path d="M250 70 C215 70 190 100 188 140 L185 170 C183 200 188 230 200 250 L198 260 C188 280 185 310 188 340 L194 380 C197 400 206 420 220 430 L226 435 C238 442 262 442 272 435 L278 430 C290 420 298 400 301 380 L305 340 C308 310 305 280 296 260 L293 250 C305 230 310 200 307 170 L305 140 C302 100 278 70 250 70 Z" fill="#bdff00"/>
<path d="M225 155 C217 155 211 165 211 177 C211 189 217 199 225 199 C233 199 239 189 239 177 C239 165 233 155 225 155 Z M225 167 C228 167 231 172 231 177 C231 183 228 187 225 187 C222 187 219 183 219 177 C219 172 222 167 225 167 Z" fill="#0b0e07"/>
<path d="M275 156 C268 156 263 165 263 177 C263 189 268 199 275 199 C282 199 287 189 287 177 C287 165 282 156 275 156 Z" fill="#0b0e07"/>
<path d="M240 220 L244 230 L247 225 L250 232 L253 222 L256 232 L259 225 L262 230 L265 220" stroke="#0b0e07" stroke-width="3" fill="none"/>
<path d="M230 280 L222 310 L229 300 L235 315 L241 298 L247 320 L253 298 L259 315 L265 300 L271 310 L268 280 Z" fill="#0b0e07"/>
<path d="M198 260 L175 280 L165 330 L172 340 L185 310 L195 280 Z" fill="#bdff00"/>
<path d="M293 260 L312 280 L320 330 L313 340 L302 310 L296 280 Z" fill="#bdff00"/>
<path d="M225 430 L219 460 L212 490 L225 480 L232 490 L235 470 Z" fill="#bdff00"/>
<path d="M275 430 L281 460 L288 490 L275 480 L268 490 L265 470 Z" fill="#bdff00"/>
<path d="M188 140 L176 130 L166 145 L174 160 L185 170 Z" fill="#bdff00"/>
<path d="M305 140 L317 130 L326 145 L319 160 L307 170 Z" fill="#bdff00"/>
</svg>
