<svg width="500" height="500" viewBox="0 0 500 500" fill="none" xmlns="http://www.w3.org/2000/svg">
<!-- Succube jump frame 1: Crouch, wings folded -->
<path d="M250 50 C228 50 210 63 205 83 L200 103 C198 120 205 137 218 147 L222 151 C230 157 240 161 250 161 C260 161 270 157 278 151 L282 147 C295 137 302 120 300 103 L295 83 C290 63 272 50 250 50 Z" fill="#bdff00"/>
<path d="M232 97 C228 97 224 101 224 106 C224 111 228 115 232 115 C237 115 241 111 241 106 C241 101 237 97 232 97 Z" fill="#0b0e07"/>
<path d="M268 97 C264 97 260 101 260 106 C260 111 264 115 268 115 C273 115 277 111 277 106 C277 101 273 97 268 97 Z" fill="#0b0e07"/>
<path d="M242 130 Q250 138 258 130" stroke="#0b0e07" stroke-width="2.5" fill="none"/>
<path d="M205 83 L188 70 L172 65 L160 70 L168 77 L182 75 L198 85 Z" fill="#bdff00"/>
<path d="M295 83 L312 70 L328 65 L340 70 L332 77 L318 75 L302 85 Z" fill="#bdff00"/>
<path d="M160 70 L148 85 L140 110 L142 135 L148 125 L145 105 L152 87 Z" fill="#bdff00"/>
<path d="M340 70 L352 85 L360 110 L358 135 L352 125 L355 105 L348 87 Z" fill="#bdff00"/>
<!-- Body — deep crouch -->
<path d="M250 161 L222 170 L190 190 L168 225 L158 270 L162 310 L175 345 L195 375 L210 395 L220 410 L225 445 L220 475 L215 495 L225 500 L240 500 L250 500 L260 500 L275 500 L285 495 L280 475 L275 445 L280 410 L290 395 L305 375 L325 345 L338 310 L342 270 L332 225 L310 190 L278 170 Z" fill="#bdff00"/>
<path d="M215 235 L210 265 L215 295 L225 320 L240 335 L250 340 L260 335 L275 320 L285 295 L290 265 L285 235 L275 220 L260 210 L250 207 L240 210 L225 220 Z" fill="#0b0e07" opacity="0.3"/>
<path d="M235 235 L235 290 L242 300 L250 305 L258 300 L265 290 L265 235 L260 230 L250 225 L240 230 Z" stroke="#bdff00" stroke-width="2" fill="none"/>
<path d="M250 235 L250 305" stroke="#bdff00" stroke-width="1.5"/>
<path d="M238 255 L262 255" stroke="#bdff00" stroke-width="1.5"/>
<path d="M236 275 L264 275" stroke="#bdff00" stroke-width="1.5"/>
<!-- Wings — tightly folded -->
<path d="M168 225 L150 208 L130 192 L108 183 L88 186 L75 196 L87 195 L102 190 L122 198 L116 214 L129 207 L126 227 L143 218 L143 238 L158 230 L162 248 L168 238 Z" fill="#bdff00"/>
<path d="M332 225 L350 208 L370 192 L392 183 L412 186 L425 196 L413 195 L398 190 L378 198 L384 214 L371 207 L374 227 L357 218 L357 238 L342 230 L338 248 L332 238 Z" fill="#bdff00"/>
<!-- Tail coiled -->
<path d="M250 500 L242 497 L232 494 L224 492 L216 485 L222 480 L235 488 L245 495 L250 498 L252 500 Z" fill="#bdff00"/>
<path d="M216 485 L206 478 L195 473 L186 470 L180 465 L186 462 L197 467 L208 473 Z" fill="#bdff00"/>
<path d="M180 465 L173 460 L165 458 L170 454 L178 457 Z" fill="#bdff00"/>
<path d="M225 500 L218 490 L215 480 L220 465 L224 450 L228 460 L226 475 L228 488 Z" fill="#0b0e07" opacity="0.3"/>
<path d="M275 500 L282 490 L285 480 L280 465 L276 450 L272 460 L274 475 L272 488 Z" fill="#0b0e07" opacity="0.3"/>
</svg>
