<svg width="500" height="500" viewBox="0 0 500 500" fill="none" xmlns="http://www.w3.org/2000/svg">
<!-- Succube jump frame 3: Peak, wings fully extended, floating -->
<path d="M250 25 C228 25 210 38 205 58 L200 78 C198 95 205 112 218 122 L222 126 C230 132 240 136 250 136 C260 136 270 132 278 126 L282 122 C295 112 302 95 300 78 L295 58 C290 38 272 25 250 25 Z" fill="#bdff00"/>
<path d="M232 72 C228 72 224 76 224 81 C224 86 228 90 232 90 C237 90 241 86 241 81 C241 76 237 72 232 72 Z" fill="#0b0e07"/>
<path d="M268 72 C264 72 260 76 260 81 C260 86 264 90 268 90 C273 90 277 86 277 81 C277 76 273 72 268 72 Z" fill="#0b0e07"/>
<path d="M242 105 Q250 113 258 105" stroke="#0b0e07" stroke-width="2.5" fill="none"/>
<path d="M205 58 L188 45 L172 40 L160 45 L168 52 L182 50 L198 60 Z" fill="#bdff00"/>
<path d="M295 58 L312 45 L328 40 L340 45 L332 52 L318 50 L302 60 Z" fill="#bdff00"/>
<path d="M160 45 L148 60 L140 85 L142 110 L148 100 L145 80 L152 62 Z" fill="#bdff00"/>
<path d="M340 45 L352 60 L360 85 L358 110 L352 100 L355 80 L348 62 Z" fill="#bdff00"/>
<!-- Body — floating gracefully at peak -->
<path d="M250 136 L222 145 L190 165 L168 195 L158 235 L162 270 L175 300 L195 325 L210 340 L220 350 L225 380 L220 410 L215 440 L225 460 L240 470 L250 472 L260 470 L275 460 L285 440 L280 410 L275 380 L280 350 L290 340 L305 325 L325 300 L338 270 L342 235 L332 195 L310 165 L278 145 Z" fill="#bdff00"/>
<path d="M215 190 L210 220 L215 250 L225 275 L240 290 L250 295 L260 290 L275 275 L285 250 L290 220 L285 190 L275 175 L260 165 L250 162 L240 165 L225 175 Z" fill="#0b0e07" opacity="0.3"/>
<path d="M235 190 L235 245 L242 255 L250 260 L258 255 L265 245 L265 190 L260 185 L250 180 L240 185 Z" stroke="#bdff00" stroke-width="2" fill="none"/>
<path d="M250 190 L250 260" stroke="#bdff00" stroke-width="1.5"/>
<path d="M238 210 L262 210" stroke="#bdff00" stroke-width="1.5"/>
<path d="M236 230 L264 230" stroke="#bdff00" stroke-width="1.5"/>
<!-- Wings — maximum extension for floating -->
<path d="M168 195 L135 165 L95 135 L50 110 L10 95 L0 105 L15 112 L48 125 L82 148 L75 170 L100 153 L100 188 L125 172 L130 205 L150 190 L160 220 L168 208 Z" fill="#bdff00"/>
<path d="M332 195 L365 165 L405 135 L450 110 L490 95 L500 105 L485 112 L452 125 L418 148 L425 170 L400 153 L400 188 L375 172 L370 205 L350 190 L340 220 L332 208 Z" fill="#bdff00"/>
<!-- Tail flowing elegantly -->
<path d="M250 472 L240 468 L228 465 L218 467 L210 475 L215 480 L230 473 L245 472 L250 478 L252 472 Z" fill="#bdff00"/>
<path d="M210 475 L195 472 L180 474 L170 480 L165 478 L172 469 L185 465 L198 468 Z" fill="#bdff00"/>
<path d="M165 478 L158 473 L148 476 L155 483 L162 481 Z" fill="#bdff00"/>
<path d="M225 460 L218 450 L215 440 L220 425 L224 410 L228 420 L226 435 L228 448 Z" fill="#0b0e07" opacity="0.3"/>
<path d="M275 460 L282 450 L285 440 L280 425 L276 410 L272 420 L274 435 L272 448 Z" fill="#0b0e07" opacity="0.3"/>
</svg>
