<svg width="500" height="500" viewBox="0 0 500 500" fill="none" xmlns="http://www.w3.org/2000/svg">
<!-- Succube jump frame 4: Landing, wings cushioning descent -->
<path d="M250 42 C228 42 210 55 205 75 L200 95 C198 112 205 129 218 139 L222 143 C230 149 240 153 250 153 C260 153 270 149 278 143 L282 139 C295 129 302 112 300 95 L295 75 C290 55 272 42 250 42 Z" fill="#bdff00"/>
<path d="M232 89 C228 89 224 93 224 98 C224 103 228 107 232 107 C237 107 241 103 241 98 C241 93 237 89 232 89 Z" fill="#0b0e07"/>
<path d="M268 89 C264 89 260 93 260 98 C260 103 264 107 268 107 C273 107 277 103 277 98 C277 93 273 89 268 89 Z" fill="#0b0e07"/>
<path d="M242 122 Q250 130 258 122" stroke="#0b0e07" stroke-width="2.5" fill="none"/>
<path d="M205 75 L188 62 L172 57 L160 62 L168 69 L182 67 L198 77 Z" fill="#bdff00"/>
<path d="M295 75 L312 62 L328 57 L340 62 L332 69 L318 67 L302 77 Z" fill="#bdff00"/>
<path d="M160 62 L148 77 L140 102 L142 127 L148 117 L145 97 L152 79 Z" fill="#bdff00"/>
<path d="M340 62 L352 77 L360 102 L358 127 L352 117 L355 97 L348 79 Z" fill="#bdff00"/>
<!-- Body — landing position, slight crouch -->
<path d="M250 153 L222 162 L190 182 L168 212 L158 252 L162 287 L175 317 L195 342 L210 357 L220 367 L225 397 L220 427 L215 457 L225 477 L240 487 L250 489 L260 487 L275 477 L285 457 L280 427 L275 397 L280 367 L290 357 L305 342 L325 317 L338 287 L342 252 L332 212 L310 182 L278 162 Z" fill="#bdff00"/>
<path d="M215 207 L210 237 L215 267 L225 292 L240 307 L250 312 L260 307 L275 292 L285 267 L290 237 L285 207 L275 192 L260 182 L250 179 L240 182 L225 192 Z" fill="#0b0e07" opacity="0.3"/>
<path d="M235 207 L235 262 L242 272 L250 277 L258 272 L265 262 L265 207 L260 202 L250 197 L240 202 Z" stroke="#bdff00" stroke-width="2" fill="none"/>
<path d="M250 207 L250 277" stroke="#bdff00" stroke-width="1.5"/>
<path d="M238 227 L262 227" stroke="#bdff00" stroke-width="1.5"/>
<path d="M236 247 L264 247" stroke="#bdff00" stroke-width="1.5"/>
<!-- Wings — partially folded, cushioning landing -->
<path d="M168 212 L148 192 L122 170 L92 153 L65 145 L45 152 L58 157 L80 162 L105 177 L98 195 L118 183 L116 212 L135 200 L137 227 L153 217 L158 240 L165 228 Z" fill="#bdff00"/>
<path d="M332 212 L352 192 L378 170 L408 153 L435 145 L455 152 L442 157 L420 162 L395 177 L402 195 L382 183 L384 212 L365 200 L363 227 L347 217 L342 240 L335 228 Z" fill="#bdff00"/>
<!-- Tail -->
<path d="M250 489 L240 482 L228 475 L218 477 L210 487 L215 492 L230 485 L245 489 L250 495 L252 489 Z" fill="#bdff00"/>
<path d="M210 487 L195 482 L180 485 L170 492 L165 489 L172 479 L185 475 L198 479 Z" fill="#bdff00"/>
<path d="M165 489 L158 482 L148 487 L155 495 L162 492 Z" fill="#bdff00"/>
<path d="M225 477 L218 467 L215 457 L220 442 L224 427 L228 437 L226 452 L228 465 Z" fill="#0b0e07" opacity="0.3"/>
<path d="M275 477 L282 467 L285 457 L280 442 L276 427 L272 437 L274 452 L272 465 Z" fill="#0b0e07" opacity="0.3"/>
</svg>
