<svg width="500" height="500" viewBox="0 0 500 500" fill="none" xmlns="http://www.w3.org/2000/svg">
<!-- Succube jump frame 2: Launch, wings spreading for lift -->
<path d="M250 35 C228 35 210 48 205 68 L200 88 C198 105 205 122 218 132 L222 136 C230 142 240 146 250 146 C260 146 270 142 278 136 L282 132 C295 122 302 105 300 88 L295 68 C290 48 272 35 250 35 Z" fill="#bdff00"/>
<path d="M232 82 C228 82 224 86 224 91 C224 96 228 100 232 100 C237 100 241 96 241 91 C241 86 237 82 232 82 Z" fill="#0b0e07"/>
<path d="M268 82 C264 82 260 86 260 91 C260 96 264 100 268 100 C273 100 277 96 277 91 C277 86 273 82 268 82 Z" fill="#0b0e07"/>
<path d="M242 115 Q250 123 258 115" stroke="#0b0e07" stroke-width="2.5" fill="none"/>
<path d="M205 68 L188 55 L172 50 L160 55 L168 62 L182 60 L198 70 Z" fill="#bdff00"/>
<path d="M295 68 L312 55 L328 50 L340 55 L332 62 L318 60 L302 70 Z" fill="#bdff00"/>
<path d="M160 55 L148 70 L140 95 L142 120 L148 110 L145 90 L152 72 Z" fill="#bdff00"/>
<path d="M340 55 L352 70 L360 95 L358 120 L352 110 L355 90 L348 72 Z" fill="#bdff00"/>
<!-- Body — extended launch position -->
<path d="M250 146 L222 155 L190 175 L168 205 L158 245 L162 280 L175 310 L195 335 L210 350 L220 360 L225 390 L220 420 L215 450 L225 470 L240 480 L250 482 L260 480 L275 470 L285 450 L280 420 L275 390 L280 360 L290 350 L305 335 L325 310 L338 280 L342 245 L332 205 L310 175 L278 155 Z" fill="#bdff00"/>
<path d="M215 200 L210 230 L215 260 L225 285 L240 300 L250 305 L260 300 L275 285 L285 260 L290 230 L285 200 L275 185 L260 175 L250 172 L240 175 L225 185 Z" fill="#0b0e07" opacity="0.3"/>
<path d="M235 200 L235 255 L242 265 L250 270 L258 265 L265 255 L265 200 L260 195 L250 190 L240 195 Z" stroke="#bdff00" stroke-width="2" fill="none"/>
<path d="M250 200 L250 270" stroke="#bdff00" stroke-width="1.5"/>
<path d="M238 220 L262 220" stroke="#bdff00" stroke-width="1.5"/>
<path d="M236 240 L264 240" stroke="#bdff00" stroke-width="1.5"/>
<!-- Wings — spreading wide, providing lift -->
<path d="M168 205 L142 180 L110 155 L75 135 L42 125 L20 132 L35 137 L62 145 L92 162 L85 182 L108 168 L106 198 L128 185 L130 215 L148 203 L155 230 L163 218 Z" fill="#bdff00"/>
<path d="M332 205 L358 180 L390 155 L425 135 L458 125 L480 132 L465 137 L438 145 L408 162 L415 182 L392 168 L394 198 L372 185 L370 215 L352 203 L345 230 L337 218 Z" fill="#bdff00"/>
<!-- Tail flowing down -->
<path d="M250 482 L240 478 L228 475 L218 477 L210 485 L215 490 L230 483 L245 482 L250 488 L252 482 Z" fill="#bdff00"/>
<path d="M210 485 L195 482 L180 484 L170 490 L165 488 L172 479 L185 475 L198 478 Z" fill="#bdff00"/>
<path d="M165 488 L158 483 L148 486 L155 493 L162 491 Z" fill="#bdff00"/>
<path d="M225 470 L218 460 L215 450 L220 435 L224 420 L228 430 L226 445 L228 458 Z" fill="#0b0e07" opacity="0.3"/>
<path d="M275 470 L282 460 L285 450 L280 435 L276 420 L272 430 L274 445 L272 458 Z" fill="#0b0e07" opacity="0.3"/>
</svg>
